%TF.GenerationSoftware,KiCad,Pcbnew,(5.1.10)-1*%
%TF.CreationDate,2021-08-25T13:13:58+08:00*%
%TF.ProjectId,MAX7000CPU-Gen2,4d415837-3030-4304-9350-552d47656e32,rev?*%
%TF.SameCoordinates,Original*%
%TF.FileFunction,Copper,L1,Top*%
%TF.FilePolarity,Positive*%
%FSLAX46Y46*%
G04 Gerber Fmt 4.6, Leading zero omitted, Abs format (unit mm)*
G04 Created by KiCad (PCBNEW (5.1.10)-1) date 2021-08-25 13:13:58*
%MOMM*%
%LPD*%
G01*
G04 APERTURE LIST*
%TA.AperFunction,ComponentPad*%
%ADD10O,1.700000X1.700000*%
%TD*%
%TA.AperFunction,ComponentPad*%
%ADD11R,1.700000X1.700000*%
%TD*%
%TA.AperFunction,ComponentPad*%
%ADD12O,1.600000X1.600000*%
%TD*%
%TA.AperFunction,ComponentPad*%
%ADD13R,1.600000X1.600000*%
%TD*%
%TA.AperFunction,ComponentPad*%
%ADD14C,1.600000*%
%TD*%
%TA.AperFunction,ComponentPad*%
%ADD15C,1.400000*%
%TD*%
%TA.AperFunction,ComponentPad*%
%ADD16R,1.400000X1.400000*%
%TD*%
%TA.AperFunction,ComponentPad*%
%ADD17C,1.422400*%
%TD*%
%TA.AperFunction,ComponentPad*%
%ADD18R,1.422400X1.422400*%
%TD*%
%TA.AperFunction,ComponentPad*%
%ADD19C,2.000000*%
%TD*%
%TA.AperFunction,ComponentPad*%
%ADD20C,1.800000*%
%TD*%
%TA.AperFunction,ComponentPad*%
%ADD21R,1.800000X1.800000*%
%TD*%
%TA.AperFunction,ViaPad*%
%ADD22C,0.800000*%
%TD*%
%TA.AperFunction,Conductor*%
%ADD23C,0.250000*%
%TD*%
G04 APERTURE END LIST*
D10*
%TO.P,J2,8*%
%TO.N,/Ins7*%
X152400000Y-93472000D03*
%TO.P,J2,7*%
%TO.N,/Ins6*%
X154940000Y-93472000D03*
%TO.P,J2,6*%
%TO.N,/Ins5*%
X157480000Y-93472000D03*
%TO.P,J2,5*%
%TO.N,/Ins4*%
X160020000Y-93472000D03*
%TO.P,J2,4*%
%TO.N,/Ins3*%
X162560000Y-93472000D03*
%TO.P,J2,3*%
%TO.N,/Ins2*%
X165100000Y-93472000D03*
%TO.P,J2,2*%
%TO.N,/Ins1*%
X167640000Y-93472000D03*
D11*
%TO.P,J2,1*%
%TO.N,/Ins0*%
X170180000Y-93472000D03*
%TD*%
D12*
%TO.P,U18,16*%
%TO.N,+5V*%
X117856000Y-71374000D03*
%TO.P,U18,8*%
%TO.N,GND*%
X135636000Y-78994000D03*
%TO.P,U18,15*%
%TO.N,StackCount*%
X120396000Y-71374000D03*
%TO.P,U18,7*%
%TO.N,Net-(U18-Pad7)*%
X133096000Y-78994000D03*
%TO.P,U18,14*%
%TO.N,Net-(U18-Pad14)*%
X122936000Y-71374000D03*
%TO.P,U18,6*%
%TO.N,Net-(U18-Pad6)*%
X130556000Y-78994000D03*
%TO.P,U18,13*%
%TO.N,/B6*%
X125476000Y-71374000D03*
%TO.P,U18,5*%
%TO.N,Net-(U17-Pad7)*%
X128016000Y-78994000D03*
%TO.P,U18,12*%
%TO.N,/B5*%
X128016000Y-71374000D03*
%TO.P,U18,4*%
%TO.N,/B4*%
X125476000Y-78994000D03*
%TO.P,U18,11*%
%TO.N,Net-(U18-Pad11)*%
X130556000Y-71374000D03*
%TO.P,U18,3*%
%TO.N,/B7*%
X122936000Y-78994000D03*
%TO.P,U18,10*%
%TO.N,StackCountDirection*%
X133096000Y-71374000D03*
%TO.P,U18,2*%
%TO.N,Net-(U18-Pad2)*%
X120396000Y-78994000D03*
%TO.P,U18,9*%
%TO.N,+5V*%
X135636000Y-71374000D03*
D13*
%TO.P,U18,1*%
%TO.N,HighStackJump*%
X117856000Y-78994000D03*
%TD*%
D12*
%TO.P,U7,16*%
%TO.N,+5V*%
X37846000Y-60452000D03*
%TO.P,U7,8*%
%TO.N,GND*%
X55626000Y-68072000D03*
%TO.P,U7,15*%
%TO.N,Count*%
X40386000Y-60452000D03*
%TO.P,U7,7*%
%TO.N,Net-(U7-Pad7)*%
X53086000Y-68072000D03*
%TO.P,U7,14*%
%TO.N,Net-(U10-Pad15)*%
X42926000Y-60452000D03*
%TO.P,U7,6*%
%TO.N,Net-(U10-Pad11)*%
X50546000Y-68072000D03*
%TO.P,U7,13*%
%TO.N,Net-(U4-Pad13)*%
X45466000Y-60452000D03*
%TO.P,U7,5*%
%TO.N,Net-(U6-Pad7)*%
X48006000Y-68072000D03*
%TO.P,U7,12*%
%TO.N,Net-(U4-Pad14)*%
X48006000Y-60452000D03*
%TO.P,U7,4*%
%TO.N,Net-(U4-Pad15)*%
X45466000Y-68072000D03*
%TO.P,U7,11*%
%TO.N,Net-(U10-Pad13)*%
X50546000Y-60452000D03*
%TO.P,U7,3*%
%TO.N,Net-(U4-Pad12)*%
X42926000Y-68072000D03*
%TO.P,U7,10*%
%TO.N,Net-(R10-Pad1)*%
X53086000Y-60452000D03*
%TO.P,U7,2*%
%TO.N,Net-(U10-Pad17)*%
X40386000Y-68072000D03*
%TO.P,U7,9*%
%TO.N,Net-(R12-Pad1)*%
X55626000Y-60452000D03*
D13*
%TO.P,U7,1*%
%TO.N,JumpEnable*%
X37846000Y-68072000D03*
%TD*%
D10*
%TO.P,J4,10*%
%TO.N,GND*%
X168910000Y-20574000D03*
%TO.P,J4,9*%
%TO.N,TDI*%
X171450000Y-20574000D03*
%TO.P,J4,8*%
%TO.N,Net-(J4-Pad8)*%
X168910000Y-23114000D03*
%TO.P,J4,7*%
%TO.N,Net-(J4-Pad7)*%
X171450000Y-23114000D03*
%TO.P,J4,6*%
%TO.N,Net-(J4-Pad6)*%
X168910000Y-25654000D03*
%TO.P,J4,5*%
%TO.N,TMS*%
X171450000Y-25654000D03*
%TO.P,J4,4*%
%TO.N,+5V*%
X168910000Y-28194000D03*
%TO.P,J4,3*%
%TO.N,TDO*%
X171450000Y-28194000D03*
%TO.P,J4,2*%
%TO.N,GND*%
X168910000Y-30734000D03*
D11*
%TO.P,J4,1*%
%TO.N,TCK*%
X171450000Y-30734000D03*
%TD*%
D12*
%TO.P,U21,20*%
%TO.N,+5V*%
X44196000Y-107950000D03*
%TO.P,U21,10*%
%TO.N,GND*%
X21336000Y-100330000D03*
%TO.P,U21,19*%
%TO.N,/B0*%
X41656000Y-107950000D03*
%TO.P,U21,9*%
%TO.N,/B7*%
X23876000Y-100330000D03*
%TO.P,U21,18*%
%TO.N,/B1*%
X39116000Y-107950000D03*
%TO.P,U21,8*%
%TO.N,/B6*%
X26416000Y-100330000D03*
%TO.P,U21,17*%
%TO.N,/B2*%
X36576000Y-107950000D03*
%TO.P,U21,7*%
%TO.N,/B5*%
X28956000Y-100330000D03*
%TO.P,U21,16*%
%TO.N,/B3*%
X34036000Y-107950000D03*
%TO.P,U21,6*%
%TO.N,/B4*%
X31496000Y-100330000D03*
%TO.P,U21,15*%
X31496000Y-107950000D03*
%TO.P,U21,5*%
%TO.N,/B3*%
X34036000Y-100330000D03*
%TO.P,U21,14*%
%TO.N,/B5*%
X28956000Y-107950000D03*
%TO.P,U21,4*%
%TO.N,/B2*%
X36576000Y-100330000D03*
%TO.P,U21,13*%
%TO.N,/B6*%
X26416000Y-107950000D03*
%TO.P,U21,3*%
%TO.N,/B1*%
X39116000Y-100330000D03*
%TO.P,U21,12*%
%TO.N,/B7*%
X23876000Y-107950000D03*
%TO.P,U21,2*%
%TO.N,/B0*%
X41656000Y-100330000D03*
%TO.P,U21,11*%
%TO.N,MainRegReadControl*%
X21336000Y-107950000D03*
D13*
%TO.P,U21,1*%
%TO.N,MainRegOutputControl*%
X44196000Y-100330000D03*
%TD*%
%TO.P,C34,2*%
%TO.N,GND*%
%TA.AperFunction,SMDPad,CuDef*%
G36*
G01*
X101633000Y-95467500D02*
X102583000Y-95467500D01*
G75*
G02*
X102833000Y-95717500I0J-250000D01*
G01*
X102833000Y-96392500D01*
G75*
G02*
X102583000Y-96642500I-250000J0D01*
G01*
X101633000Y-96642500D01*
G75*
G02*
X101383000Y-96392500I0J250000D01*
G01*
X101383000Y-95717500D01*
G75*
G02*
X101633000Y-95467500I250000J0D01*
G01*
G37*
%TD.AperFunction*%
%TO.P,C34,1*%
%TO.N,+5V*%
%TA.AperFunction,SMDPad,CuDef*%
G36*
G01*
X101633000Y-93392500D02*
X102583000Y-93392500D01*
G75*
G02*
X102833000Y-93642500I0J-250000D01*
G01*
X102833000Y-94317500D01*
G75*
G02*
X102583000Y-94567500I-250000J0D01*
G01*
X101633000Y-94567500D01*
G75*
G02*
X101383000Y-94317500I0J250000D01*
G01*
X101383000Y-93642500D01*
G75*
G02*
X101633000Y-93392500I250000J0D01*
G01*
G37*
%TD.AperFunction*%
%TD*%
%TO.P,C33,1*%
%TO.N,+5V*%
%TA.AperFunction,SMDPad,CuDef*%
G36*
G01*
X117269000Y-68547000D02*
X117269000Y-67597000D01*
G75*
G02*
X117519000Y-67347000I250000J0D01*
G01*
X118194000Y-67347000D01*
G75*
G02*
X118444000Y-67597000I0J-250000D01*
G01*
X118444000Y-68547000D01*
G75*
G02*
X118194000Y-68797000I-250000J0D01*
G01*
X117519000Y-68797000D01*
G75*
G02*
X117269000Y-68547000I0J250000D01*
G01*
G37*
%TD.AperFunction*%
%TO.P,C33,2*%
%TO.N,GND*%
%TA.AperFunction,SMDPad,CuDef*%
G36*
G01*
X119344000Y-68547000D02*
X119344000Y-67597000D01*
G75*
G02*
X119594000Y-67347000I250000J0D01*
G01*
X120269000Y-67347000D01*
G75*
G02*
X120519000Y-67597000I0J-250000D01*
G01*
X120519000Y-68547000D01*
G75*
G02*
X120269000Y-68797000I-250000J0D01*
G01*
X119594000Y-68797000D01*
G75*
G02*
X119344000Y-68547000I0J250000D01*
G01*
G37*
%TD.AperFunction*%
%TD*%
D12*
%TO.P,R12,2*%
%TO.N,+5V*%
X32258000Y-96012000D03*
D14*
%TO.P,R12,1*%
%TO.N,Net-(R12-Pad1)*%
X39878000Y-96012000D03*
%TD*%
D12*
%TO.P,R10,2*%
%TO.N,+5V*%
X48006000Y-56134000D03*
D14*
%TO.P,R10,1*%
%TO.N,Net-(R10-Pad1)*%
X55626000Y-56134000D03*
%TD*%
D15*
%TO.P,RV1,3*%
%TO.N,Net-(RV1-Pad3)*%
X27432000Y-36576000D03*
%TO.P,RV1,2*%
%TO.N,Net-(R2-Pad2)*%
X24892000Y-36576000D03*
D16*
%TO.P,RV1,1*%
%TO.N,Net-(R1-Pad1)*%
X22352000Y-36576000D03*
%TD*%
D12*
%TO.P,R32,2*%
%TO.N,GND*%
X149606000Y-104902000D03*
D14*
%TO.P,R32,1*%
%TO.N,Net-(R32-Pad1)*%
X149606000Y-97282000D03*
%TD*%
D12*
%TO.P,R31,2*%
%TO.N,GND*%
X155956000Y-104902000D03*
D14*
%TO.P,R31,1*%
%TO.N,Net-(R31-Pad1)*%
X155956000Y-97282000D03*
%TD*%
D12*
%TO.P,R18,2*%
%TO.N,Net-(R18-Pad2)*%
X89916000Y-79248000D03*
D14*
%TO.P,R18,1*%
%TO.N,GND*%
X82296000Y-79248000D03*
%TD*%
D12*
%TO.P,R14,2*%
%TO.N,Net-(R14-Pad2)*%
X68072000Y-44958000D03*
D14*
%TO.P,R14,1*%
%TO.N,GND*%
X60452000Y-44958000D03*
%TD*%
D12*
%TO.P,R19,2*%
%TO.N,+5V*%
X98298000Y-70866000D03*
D14*
%TO.P,R19,1*%
%TO.N,RAM_Addr_Enable*%
X98298000Y-78486000D03*
%TD*%
D12*
%TO.P,R20,2*%
%TO.N,+5V*%
X98298000Y-66040000D03*
D14*
%TO.P,R20,1*%
%TO.N,StackOutControl*%
X98298000Y-58420000D03*
%TD*%
D12*
%TO.P,R16,2*%
%TO.N,+5V*%
X72390000Y-54864000D03*
D14*
%TO.P,R16,1*%
%TO.N,MemOutEnable*%
X72390000Y-62484000D03*
%TD*%
D12*
%TO.P,R15,2*%
%TO.N,+5V*%
X72390000Y-43434000D03*
D14*
%TO.P,R15,1*%
%TO.N,MemWriteControl*%
X72390000Y-51054000D03*
%TD*%
D12*
%TO.P,R17,2*%
%TO.N,+5V*%
X72390000Y-66548000D03*
D14*
%TO.P,R17,1*%
%TO.N,Net-(R17-Pad1)*%
X72390000Y-74168000D03*
%TD*%
D12*
%TO.P,R21,2*%
%TO.N,GND*%
X98298000Y-53848000D03*
D14*
%TO.P,R21,1*%
%TO.N,Net-(R21-Pad1)*%
X98298000Y-46228000D03*
%TD*%
D12*
%TO.P,R13,2*%
%TO.N,+5V*%
X72898000Y-89408000D03*
D14*
%TO.P,R13,1*%
%TO.N,CounterOutControl*%
X72898000Y-81788000D03*
%TD*%
D12*
%TO.P,R11,2*%
%TO.N,GND*%
X33020000Y-80772000D03*
D14*
%TO.P,R11,1*%
%TO.N,Net-(R11-Pad1)*%
X33020000Y-73152000D03*
%TD*%
D12*
%TO.P,R22,2*%
%TO.N,GND*%
X125222000Y-115062000D03*
D14*
%TO.P,R22,1*%
%TO.N,Net-(R22-Pad1)*%
X125222000Y-107442000D03*
%TD*%
D12*
%TO.P,R23,2*%
%TO.N,GND*%
X129794000Y-115062000D03*
D14*
%TO.P,R23,1*%
%TO.N,Net-(R23-Pad1)*%
X129794000Y-107442000D03*
%TD*%
D12*
%TO.P,R8,2*%
%TO.N,GND*%
X32258000Y-51054000D03*
D14*
%TO.P,R8,1*%
%TO.N,Net-(R8-Pad1)*%
X32258000Y-43434000D03*
%TD*%
D12*
%TO.P,R9,2*%
%TO.N,GND*%
X37084000Y-56134000D03*
D14*
%TO.P,R9,1*%
%TO.N,Net-(R9-Pad1)*%
X44704000Y-56134000D03*
%TD*%
D12*
%TO.P,R30,2*%
%TO.N,GND*%
X162052000Y-104902000D03*
D14*
%TO.P,R30,1*%
%TO.N,Net-(R30-Pad1)*%
X162052000Y-97282000D03*
%TD*%
D12*
%TO.P,R29,2*%
%TO.N,GND*%
X168402000Y-104902000D03*
D14*
%TO.P,R29,1*%
%TO.N,Net-(R29-Pad1)*%
X168402000Y-97282000D03*
%TD*%
D12*
%TO.P,R28,2*%
%TO.N,GND*%
X134366000Y-115062000D03*
D14*
%TO.P,R28,1*%
%TO.N,MainRegOutputControl*%
X134366000Y-107442000D03*
%TD*%
D12*
%TO.P,U20,20*%
%TO.N,+5V*%
X113030000Y-78486000D03*
%TO.P,U20,10*%
%TO.N,GND*%
X105410000Y-101346000D03*
%TO.P,U20,19*%
%TO.N,StackOutControl*%
X113030000Y-81026000D03*
%TO.P,U20,9*%
%TO.N,/RA_H4*%
X105410000Y-98806000D03*
%TO.P,U20,18*%
%TO.N,/RA_H0*%
X113030000Y-83566000D03*
%TO.P,U20,8*%
%TO.N,Net-(U17-Pad2)*%
X105410000Y-96266000D03*
%TO.P,U20,17*%
%TO.N,Net-(U18-Pad2)*%
X113030000Y-86106000D03*
%TO.P,U20,7*%
%TO.N,/RA_H5*%
X105410000Y-93726000D03*
%TO.P,U20,16*%
%TO.N,/RA_H1*%
X113030000Y-88646000D03*
%TO.P,U20,6*%
%TO.N,Net-(U17-Pad14)*%
X105410000Y-91186000D03*
%TO.P,U20,15*%
%TO.N,Net-(U18-Pad14)*%
X113030000Y-91186000D03*
%TO.P,U20,5*%
%TO.N,/RA_H6*%
X105410000Y-88646000D03*
%TO.P,U20,14*%
%TO.N,/RA_H2*%
X113030000Y-93726000D03*
%TO.P,U20,4*%
%TO.N,Net-(U17-Pad11)*%
X105410000Y-86106000D03*
%TO.P,U20,13*%
%TO.N,Net-(U18-Pad11)*%
X113030000Y-96266000D03*
%TO.P,U20,3*%
%TO.N,/RA_H7*%
X105410000Y-83566000D03*
%TO.P,U20,12*%
%TO.N,/RA_H3*%
X113030000Y-98806000D03*
%TO.P,U20,2*%
%TO.N,Net-(U17-Pad6)*%
X105410000Y-81026000D03*
%TO.P,U20,11*%
%TO.N,Net-(U18-Pad6)*%
X113030000Y-101346000D03*
D13*
%TO.P,U20,1*%
%TO.N,StackOutControl*%
X105410000Y-78486000D03*
%TD*%
D12*
%TO.P,U19,20*%
%TO.N,+5V*%
X113284000Y-45466000D03*
%TO.P,U19,10*%
%TO.N,GND*%
X105664000Y-68326000D03*
%TO.P,U19,19*%
%TO.N,StackOutControl*%
X113284000Y-48006000D03*
%TO.P,U19,9*%
%TO.N,/RA_L4*%
X105664000Y-65786000D03*
%TO.P,U19,18*%
%TO.N,/RA_L0*%
X113284000Y-50546000D03*
%TO.P,U19,8*%
%TO.N,Net-(U15-Pad2)*%
X105664000Y-63246000D03*
%TO.P,U19,17*%
%TO.N,Net-(U16-Pad2)*%
X113284000Y-53086000D03*
%TO.P,U19,7*%
%TO.N,/RA_L5*%
X105664000Y-60706000D03*
%TO.P,U19,16*%
%TO.N,/RA_L1*%
X113284000Y-55626000D03*
%TO.P,U19,6*%
%TO.N,Net-(U15-Pad14)*%
X105664000Y-58166000D03*
%TO.P,U19,15*%
%TO.N,Net-(U16-Pad14)*%
X113284000Y-58166000D03*
%TO.P,U19,5*%
%TO.N,/RA_L6*%
X105664000Y-55626000D03*
%TO.P,U19,14*%
%TO.N,/RA_L2*%
X113284000Y-60706000D03*
%TO.P,U19,4*%
%TO.N,Net-(U15-Pad11)*%
X105664000Y-53086000D03*
%TO.P,U19,13*%
%TO.N,Net-(U16-Pad11)*%
X113284000Y-63246000D03*
%TO.P,U19,3*%
%TO.N,/RA_L7*%
X105664000Y-50546000D03*
%TO.P,U19,12*%
%TO.N,/RA_L3*%
X113284000Y-65786000D03*
%TO.P,U19,2*%
%TO.N,Net-(U15-Pad6)*%
X105664000Y-48006000D03*
%TO.P,U19,11*%
%TO.N,Net-(U16-Pad6)*%
X113284000Y-68326000D03*
D13*
%TO.P,U19,1*%
%TO.N,StackOutControl*%
X105664000Y-45466000D03*
%TD*%
D12*
%TO.P,U17,16*%
%TO.N,+5V*%
X117856000Y-57658000D03*
%TO.P,U17,8*%
%TO.N,GND*%
X135636000Y-65278000D03*
%TO.P,U17,15*%
%TO.N,StackCount*%
X120396000Y-57658000D03*
%TO.P,U17,7*%
%TO.N,Net-(U17-Pad7)*%
X133096000Y-65278000D03*
%TO.P,U17,14*%
%TO.N,Net-(U17-Pad14)*%
X122936000Y-57658000D03*
%TO.P,U17,6*%
%TO.N,Net-(U17-Pad6)*%
X130556000Y-65278000D03*
%TO.P,U17,13*%
%TO.N,/B2*%
X125476000Y-57658000D03*
%TO.P,U17,5*%
%TO.N,Net-(U16-Pad7)*%
X128016000Y-65278000D03*
%TO.P,U17,12*%
%TO.N,/B1*%
X128016000Y-57658000D03*
%TO.P,U17,4*%
%TO.N,/B0*%
X125476000Y-65278000D03*
%TO.P,U17,11*%
%TO.N,Net-(U17-Pad11)*%
X130556000Y-57658000D03*
%TO.P,U17,3*%
%TO.N,/B3*%
X122936000Y-65278000D03*
%TO.P,U17,10*%
%TO.N,StackCountDirection*%
X133096000Y-57658000D03*
%TO.P,U17,2*%
%TO.N,Net-(U17-Pad2)*%
X120396000Y-65278000D03*
%TO.P,U17,9*%
%TO.N,+5V*%
X135636000Y-57658000D03*
D13*
%TO.P,U17,1*%
%TO.N,HighStackJump*%
X117856000Y-65278000D03*
%TD*%
D12*
%TO.P,U16,16*%
%TO.N,+5V*%
X102108000Y-32258000D03*
%TO.P,U16,8*%
%TO.N,GND*%
X119888000Y-39878000D03*
%TO.P,U16,15*%
%TO.N,StackCount*%
X104648000Y-32258000D03*
%TO.P,U16,7*%
%TO.N,Net-(U16-Pad7)*%
X117348000Y-39878000D03*
%TO.P,U16,14*%
%TO.N,Net-(U16-Pad14)*%
X107188000Y-32258000D03*
%TO.P,U16,6*%
%TO.N,Net-(U16-Pad6)*%
X114808000Y-39878000D03*
%TO.P,U16,13*%
%TO.N,/B6*%
X109728000Y-32258000D03*
%TO.P,U16,5*%
%TO.N,Net-(U15-Pad7)*%
X112268000Y-39878000D03*
%TO.P,U16,12*%
%TO.N,/B5*%
X112268000Y-32258000D03*
%TO.P,U16,4*%
%TO.N,/B4*%
X109728000Y-39878000D03*
%TO.P,U16,11*%
%TO.N,Net-(U16-Pad11)*%
X114808000Y-32258000D03*
%TO.P,U16,3*%
%TO.N,/B7*%
X107188000Y-39878000D03*
%TO.P,U16,10*%
%TO.N,StackCountDirection*%
X117348000Y-32258000D03*
%TO.P,U16,2*%
%TO.N,Net-(U16-Pad2)*%
X104648000Y-39878000D03*
%TO.P,U16,9*%
%TO.N,+5V*%
X119888000Y-32258000D03*
D13*
%TO.P,U16,1*%
%TO.N,LowStackJump*%
X102108000Y-39878000D03*
%TD*%
D12*
%TO.P,U15,16*%
%TO.N,+5V*%
X102108000Y-20066000D03*
%TO.P,U15,8*%
%TO.N,GND*%
X119888000Y-27686000D03*
%TO.P,U15,15*%
%TO.N,StackCount*%
X104648000Y-20066000D03*
%TO.P,U15,7*%
%TO.N,Net-(U15-Pad7)*%
X117348000Y-27686000D03*
%TO.P,U15,14*%
%TO.N,Net-(U15-Pad14)*%
X107188000Y-20066000D03*
%TO.P,U15,6*%
%TO.N,Net-(U15-Pad6)*%
X114808000Y-27686000D03*
%TO.P,U15,13*%
%TO.N,/B2*%
X109728000Y-20066000D03*
%TO.P,U15,5*%
%TO.N,Net-(R21-Pad1)*%
X112268000Y-27686000D03*
%TO.P,U15,12*%
%TO.N,/B1*%
X112268000Y-20066000D03*
%TO.P,U15,4*%
%TO.N,/B0*%
X109728000Y-27686000D03*
%TO.P,U15,11*%
%TO.N,Net-(U15-Pad11)*%
X114808000Y-20066000D03*
%TO.P,U15,3*%
%TO.N,/B3*%
X107188000Y-27686000D03*
%TO.P,U15,10*%
%TO.N,StackCountDirection*%
X117348000Y-20066000D03*
%TO.P,U15,2*%
%TO.N,Net-(U15-Pad2)*%
X104648000Y-27686000D03*
%TO.P,U15,9*%
%TO.N,+5V*%
X119888000Y-20066000D03*
D13*
%TO.P,U15,1*%
%TO.N,LowStackJump*%
X102108000Y-27686000D03*
%TD*%
D12*
%TO.P,U12,32*%
%TO.N,+5V*%
X78740000Y-74676000D03*
%TO.P,U12,16*%
%TO.N,GND*%
X93980000Y-36576000D03*
%TO.P,U12,31*%
%TO.N,/RA_H7*%
X78740000Y-72136000D03*
%TO.P,U12,15*%
%TO.N,/B2*%
X93980000Y-39116000D03*
%TO.P,U12,30*%
%TO.N,Net-(R17-Pad1)*%
X78740000Y-69596000D03*
%TO.P,U12,14*%
%TO.N,/B1*%
X93980000Y-41656000D03*
%TO.P,U12,29*%
%TO.N,MemWriteControl*%
X78740000Y-67056000D03*
%TO.P,U12,13*%
%TO.N,/B0*%
X93980000Y-44196000D03*
%TO.P,U12,28*%
%TO.N,/RA_H5*%
X78740000Y-64516000D03*
%TO.P,U12,12*%
%TO.N,/RA_L0*%
X93980000Y-46736000D03*
%TO.P,U12,27*%
%TO.N,/RA_H0*%
X78740000Y-61976000D03*
%TO.P,U12,11*%
%TO.N,/RA_L1*%
X93980000Y-49276000D03*
%TO.P,U12,26*%
%TO.N,/RA_H1*%
X78740000Y-59436000D03*
%TO.P,U12,10*%
%TO.N,/RA_L2*%
X93980000Y-51816000D03*
%TO.P,U12,25*%
%TO.N,/RA_H3*%
X78740000Y-56896000D03*
%TO.P,U12,9*%
%TO.N,/RA_L3*%
X93980000Y-54356000D03*
%TO.P,U12,24*%
%TO.N,MemOutEnable*%
X78740000Y-54356000D03*
%TO.P,U12,8*%
%TO.N,/RA_L4*%
X93980000Y-56896000D03*
%TO.P,U12,23*%
%TO.N,/RA_H2*%
X78740000Y-51816000D03*
%TO.P,U12,7*%
%TO.N,/RA_L5*%
X93980000Y-59436000D03*
%TO.P,U12,22*%
%TO.N,Net-(R14-Pad2)*%
X78740000Y-49276000D03*
%TO.P,U12,6*%
%TO.N,/RA_L6*%
X93980000Y-61976000D03*
%TO.P,U12,21*%
%TO.N,/B7*%
X78740000Y-46736000D03*
%TO.P,U12,5*%
%TO.N,/RA_L7*%
X93980000Y-64516000D03*
%TO.P,U12,20*%
%TO.N,/B6*%
X78740000Y-44196000D03*
%TO.P,U12,4*%
%TO.N,/RA_H4*%
X93980000Y-67056000D03*
%TO.P,U12,19*%
%TO.N,/B5*%
X78740000Y-41656000D03*
%TO.P,U12,3*%
%TO.N,/RA_H6*%
X93980000Y-69596000D03*
%TO.P,U12,18*%
%TO.N,/B4*%
X78740000Y-39116000D03*
%TO.P,U12,2*%
%TO.N,Net-(R18-Pad2)*%
X93980000Y-72136000D03*
%TO.P,U12,17*%
%TO.N,/B3*%
X78740000Y-36576000D03*
D13*
%TO.P,U12,1*%
%TO.N,Net-(U12-Pad1)*%
X93980000Y-74676000D03*
%TD*%
D12*
%TO.P,U11,20*%
%TO.N,+5V*%
X68580000Y-81788000D03*
%TO.P,U11,10*%
%TO.N,GND*%
X60960000Y-104648000D03*
%TO.P,U11,19*%
%TO.N,CounterOutControl*%
X68580000Y-84328000D03*
%TO.P,U11,9*%
%TO.N,/RA_H4*%
X60960000Y-102108000D03*
%TO.P,U11,18*%
%TO.N,/RA_H0*%
X68580000Y-86868000D03*
%TO.P,U11,8*%
%TO.N,Net-(U11-Pad8)*%
X60960000Y-99568000D03*
%TO.P,U11,17*%
%TO.N,Net-(U11-Pad17)*%
X68580000Y-89408000D03*
%TO.P,U11,7*%
%TO.N,/RA_H5*%
X60960000Y-97028000D03*
%TO.P,U11,16*%
%TO.N,/RA_H1*%
X68580000Y-91948000D03*
%TO.P,U11,6*%
%TO.N,Net-(U11-Pad6)*%
X60960000Y-94488000D03*
%TO.P,U11,15*%
%TO.N,Net-(U11-Pad15)*%
X68580000Y-94488000D03*
%TO.P,U11,5*%
%TO.N,/RA_H6*%
X60960000Y-91948000D03*
%TO.P,U11,14*%
%TO.N,/RA_H2*%
X68580000Y-97028000D03*
%TO.P,U11,4*%
%TO.N,Net-(U11-Pad4)*%
X60960000Y-89408000D03*
%TO.P,U11,13*%
%TO.N,Net-(U11-Pad13)*%
X68580000Y-99568000D03*
%TO.P,U11,3*%
%TO.N,/RA_H7*%
X60960000Y-86868000D03*
%TO.P,U11,12*%
%TO.N,/RA_H3*%
X68580000Y-102108000D03*
%TO.P,U11,2*%
%TO.N,Net-(U11-Pad2)*%
X60960000Y-84328000D03*
%TO.P,U11,11*%
%TO.N,Net-(U11-Pad11)*%
X68580000Y-104648000D03*
D13*
%TO.P,U11,1*%
%TO.N,CounterOutControl*%
X60960000Y-81788000D03*
%TD*%
D12*
%TO.P,U10,20*%
%TO.N,+5V*%
X68326000Y-50800000D03*
%TO.P,U10,10*%
%TO.N,GND*%
X60706000Y-73660000D03*
%TO.P,U10,19*%
%TO.N,CounterOutControl*%
X68326000Y-53340000D03*
%TO.P,U10,9*%
%TO.N,/RA_L4*%
X60706000Y-71120000D03*
%TO.P,U10,18*%
%TO.N,/RA_L0*%
X68326000Y-55880000D03*
%TO.P,U10,8*%
%TO.N,Net-(U10-Pad8)*%
X60706000Y-68580000D03*
%TO.P,U10,17*%
%TO.N,Net-(U10-Pad17)*%
X68326000Y-58420000D03*
%TO.P,U10,7*%
%TO.N,/RA_L5*%
X60706000Y-66040000D03*
%TO.P,U10,16*%
%TO.N,/RA_L1*%
X68326000Y-60960000D03*
%TO.P,U10,6*%
%TO.N,Net-(U10-Pad6)*%
X60706000Y-63500000D03*
%TO.P,U10,15*%
%TO.N,Net-(U10-Pad15)*%
X68326000Y-63500000D03*
%TO.P,U10,5*%
%TO.N,/RA_L6*%
X60706000Y-60960000D03*
%TO.P,U10,14*%
%TO.N,/RA_L2*%
X68326000Y-66040000D03*
%TO.P,U10,4*%
%TO.N,Net-(U10-Pad4)*%
X60706000Y-58420000D03*
%TO.P,U10,13*%
%TO.N,Net-(U10-Pad13)*%
X68326000Y-68580000D03*
%TO.P,U10,3*%
%TO.N,/RA_L7*%
X60706000Y-55880000D03*
%TO.P,U10,12*%
%TO.N,/RA_L3*%
X68326000Y-71120000D03*
%TO.P,U10,2*%
%TO.N,Net-(U10-Pad2)*%
X60706000Y-53340000D03*
%TO.P,U10,11*%
%TO.N,Net-(U10-Pad11)*%
X68326000Y-73660000D03*
D13*
%TO.P,U10,1*%
%TO.N,CounterOutControl*%
X60706000Y-50800000D03*
%TD*%
D12*
%TO.P,U9,16*%
%TO.N,+5V*%
X37846000Y-84836000D03*
%TO.P,U9,8*%
%TO.N,GND*%
X55626000Y-92456000D03*
%TO.P,U9,15*%
%TO.N,Count*%
X40386000Y-84836000D03*
%TO.P,U9,7*%
%TO.N,Net-(U9-Pad7)*%
X53086000Y-92456000D03*
%TO.P,U9,14*%
%TO.N,Net-(U11-Pad15)*%
X42926000Y-84836000D03*
%TO.P,U9,6*%
%TO.N,Net-(U11-Pad11)*%
X50546000Y-92456000D03*
%TO.P,U9,13*%
%TO.N,Net-(U5-Pad13)*%
X45466000Y-84836000D03*
%TO.P,U9,5*%
%TO.N,Net-(U8-Pad7)*%
X48006000Y-92456000D03*
%TO.P,U9,12*%
%TO.N,Net-(U5-Pad14)*%
X48006000Y-84836000D03*
%TO.P,U9,4*%
%TO.N,Net-(U5-Pad15)*%
X45466000Y-92456000D03*
%TO.P,U9,11*%
%TO.N,Net-(U11-Pad13)*%
X50546000Y-84836000D03*
%TO.P,U9,3*%
%TO.N,Net-(U5-Pad12)*%
X42926000Y-92456000D03*
%TO.P,U9,10*%
%TO.N,Net-(R10-Pad1)*%
X53086000Y-84836000D03*
%TO.P,U9,2*%
%TO.N,Net-(U11-Pad17)*%
X40386000Y-92456000D03*
%TO.P,U9,9*%
%TO.N,Net-(R12-Pad1)*%
X55626000Y-84836000D03*
D13*
%TO.P,U9,1*%
%TO.N,JumpEnable*%
X37846000Y-92456000D03*
%TD*%
D12*
%TO.P,U8,16*%
%TO.N,+5V*%
X37846000Y-72898000D03*
%TO.P,U8,8*%
%TO.N,GND*%
X55626000Y-80518000D03*
%TO.P,U8,15*%
%TO.N,Count*%
X40386000Y-72898000D03*
%TO.P,U8,7*%
%TO.N,Net-(U8-Pad7)*%
X53086000Y-80518000D03*
%TO.P,U8,14*%
%TO.N,Net-(U11-Pad6)*%
X42926000Y-72898000D03*
%TO.P,U8,6*%
%TO.N,Net-(U11-Pad2)*%
X50546000Y-80518000D03*
%TO.P,U8,13*%
%TO.N,Net-(U5-Pad17)*%
X45466000Y-72898000D03*
%TO.P,U8,5*%
%TO.N,Net-(U7-Pad7)*%
X48006000Y-80518000D03*
%TO.P,U8,12*%
%TO.N,Net-(U5-Pad18)*%
X48006000Y-72898000D03*
%TO.P,U8,4*%
%TO.N,Net-(U5-Pad19)*%
X45466000Y-80518000D03*
%TO.P,U8,11*%
%TO.N,Net-(U11-Pad4)*%
X50546000Y-72898000D03*
%TO.P,U8,3*%
%TO.N,Net-(U5-Pad16)*%
X42926000Y-80518000D03*
%TO.P,U8,10*%
%TO.N,Net-(R10-Pad1)*%
X53086000Y-72898000D03*
%TO.P,U8,2*%
%TO.N,Net-(U11-Pad8)*%
X40386000Y-80518000D03*
%TO.P,U8,9*%
%TO.N,Net-(R12-Pad1)*%
X55626000Y-72898000D03*
D13*
%TO.P,U8,1*%
%TO.N,JumpEnable*%
X37846000Y-80518000D03*
%TD*%
D12*
%TO.P,U6,16*%
%TO.N,+5V*%
X37338000Y-43942000D03*
%TO.P,U6,8*%
%TO.N,GND*%
X55118000Y-51562000D03*
%TO.P,U6,15*%
%TO.N,Count*%
X39878000Y-43942000D03*
%TO.P,U6,7*%
%TO.N,Net-(U6-Pad7)*%
X52578000Y-51562000D03*
%TO.P,U6,14*%
%TO.N,Net-(U10-Pad6)*%
X42418000Y-43942000D03*
%TO.P,U6,6*%
%TO.N,Net-(U10-Pad2)*%
X50038000Y-51562000D03*
%TO.P,U6,13*%
%TO.N,Net-(U4-Pad17)*%
X44958000Y-43942000D03*
%TO.P,U6,5*%
%TO.N,Net-(R9-Pad1)*%
X47498000Y-51562000D03*
%TO.P,U6,12*%
%TO.N,Net-(U4-Pad18)*%
X47498000Y-43942000D03*
%TO.P,U6,4*%
%TO.N,Net-(U4-Pad19)*%
X44958000Y-51562000D03*
%TO.P,U6,11*%
%TO.N,Net-(U10-Pad4)*%
X50038000Y-43942000D03*
%TO.P,U6,3*%
%TO.N,Net-(U4-Pad16)*%
X42418000Y-51562000D03*
%TO.P,U6,10*%
%TO.N,Net-(R10-Pad1)*%
X52578000Y-43942000D03*
%TO.P,U6,2*%
%TO.N,Net-(U10-Pad8)*%
X39878000Y-51562000D03*
%TO.P,U6,9*%
%TO.N,Net-(R12-Pad1)*%
X55118000Y-43942000D03*
D13*
%TO.P,U6,1*%
%TO.N,JumpEnable*%
X37338000Y-51562000D03*
%TD*%
D17*
%TO.P,U28,72*%
%TO.N,GND*%
X157480000Y-26924000D03*
%TO.P,U28,70*%
%TO.N,/rB5*%
X157480000Y-29464000D03*
%TO.P,U28,68*%
%TO.N,/rB3*%
X157480000Y-32004000D03*
%TO.P,U28,66*%
%TO.N,+5V*%
X157480000Y-34544000D03*
%TO.P,U28,64*%
%TO.N,/rB0*%
X157480000Y-37084000D03*
%TO.P,U28,62*%
%TO.N,TCK*%
X157480000Y-39624000D03*
%TO.P,U28,60*%
%TO.N,/rA5*%
X157480000Y-42164000D03*
%TO.P,U28,58*%
%TO.N,/rA4*%
X157480000Y-44704000D03*
%TO.P,U28,56*%
%TO.N,/rA2*%
X157480000Y-47244000D03*
%TO.P,U28,54*%
%TO.N,/rA0*%
X157480000Y-49784000D03*
%TO.P,U28,73*%
%TO.N,/rB6*%
X154940000Y-26924000D03*
%TO.P,U28,71*%
%TO.N,TDO*%
X154940000Y-29464000D03*
%TO.P,U28,69*%
%TO.N,/rB4*%
X154940000Y-32004000D03*
%TO.P,U28,67*%
%TO.N,/rB2*%
X154940000Y-34544000D03*
%TO.P,U28,65*%
%TO.N,/rB1*%
X154940000Y-37084000D03*
%TO.P,U28,63*%
%TO.N,/rA7*%
X154940000Y-39624000D03*
%TO.P,U28,61*%
%TO.N,/rA6*%
X154940000Y-42164000D03*
%TO.P,U28,59*%
%TO.N,GND*%
X154940000Y-44704000D03*
%TO.P,U28,57*%
%TO.N,/rA3*%
X154940000Y-47244000D03*
%TO.P,U28,55*%
%TO.N,/rA1*%
X154940000Y-49784000D03*
%TO.P,U28,53*%
%TO.N,+5V*%
X154940000Y-52324000D03*
%TO.P,U28,51*%
%TO.N,/B6*%
X152400000Y-52324000D03*
%TO.P,U28,49*%
%TO.N,/B4*%
X149860000Y-52324000D03*
%TO.P,U28,47*%
%TO.N,GND*%
X147320000Y-52324000D03*
%TO.P,U28,45*%
%TO.N,/B1*%
X144780000Y-52324000D03*
%TO.P,U28,43*%
%TO.N,+5V*%
X142240000Y-52324000D03*
%TO.P,U28,41*%
%TO.N,DSPcontrol*%
X139700000Y-52324000D03*
%TO.P,U28,39*%
%TO.N,StackCount*%
X137160000Y-52324000D03*
%TO.P,U28,37*%
%TO.N,RAM_Addr_Enable*%
X134620000Y-52324000D03*
%TO.P,U28,35*%
%TO.N,RAM_LowControl*%
X132080000Y-52324000D03*
%TO.P,U28,33*%
%TO.N,MemOutEnable*%
X129540000Y-52324000D03*
%TO.P,U28,52*%
%TO.N,/B7*%
X152400000Y-49784000D03*
%TO.P,U28,50*%
%TO.N,/B5*%
X149860000Y-49784000D03*
%TO.P,U28,48*%
%TO.N,/B3*%
X147320000Y-49784000D03*
%TO.P,U28,46*%
%TO.N,/B2*%
X144780000Y-49784000D03*
%TO.P,U28,44*%
%TO.N,/B0*%
X142240000Y-49784000D03*
%TO.P,U28,42*%
%TO.N,GND*%
X139700000Y-49784000D03*
%TO.P,U28,40*%
%TO.N,StackOutControl*%
X137160000Y-49784000D03*
%TO.P,U28,38*%
%TO.N,+5V*%
X134620000Y-49784000D03*
%TO.P,U28,36*%
%TO.N,RAM_HighControl*%
X132080000Y-49784000D03*
%TO.P,U28,34*%
%TO.N,MemWriteControl*%
X129540000Y-49784000D03*
%TO.P,U28,32*%
%TO.N,GND*%
X127000000Y-49784000D03*
%TO.P,U28,30*%
%TO.N,JumpEnable*%
X127000000Y-47244000D03*
%TO.P,U28,28*%
%TO.N,LOWJumpRegLoad*%
X127000000Y-44704000D03*
%TO.P,U28,26*%
%TO.N,+5V*%
X127000000Y-42164000D03*
%TO.P,U28,24*%
%TO.N,RegAControl*%
X127000000Y-39624000D03*
%TO.P,U28,22*%
%TO.N,InsRegControl*%
X127000000Y-37084000D03*
%TO.P,U28,20*%
%TO.N,Count*%
X127000000Y-34544000D03*
%TO.P,U28,18*%
%TO.N,CLK_Select*%
X127000000Y-32004000D03*
%TO.P,U28,16*%
%TO.N,UserCLK*%
X127000000Y-29464000D03*
%TO.P,U28,14*%
%TO.N,TDI*%
X127000000Y-26924000D03*
%TO.P,U28,12*%
%TO.N,/Ins7*%
X127000000Y-24384000D03*
%TO.P,U28,31*%
%TO.N,MainRegOutputControl*%
X129540000Y-47244000D03*
%TO.P,U28,29*%
%TO.N,HIGHJumpRegLoad*%
X129540000Y-44704000D03*
%TO.P,U28,27*%
%TO.N,MainRegReadControl*%
X129540000Y-42164000D03*
%TO.P,U28,25*%
%TO.N,RegBControl*%
X129540000Y-39624000D03*
%TO.P,U28,23*%
%TO.N,TMS*%
X129540000Y-37084000D03*
%TO.P,U28,21*%
%TO.N,CounterOutControl*%
X129540000Y-34544000D03*
%TO.P,U28,19*%
%TO.N,GND*%
X129540000Y-32004000D03*
%TO.P,U28,17*%
%TO.N,SlowCLK*%
X129540000Y-29464000D03*
%TO.P,U28,15*%
%TO.N,Reset*%
X129540000Y-26924000D03*
%TO.P,U28,13*%
%TO.N,+5V*%
X129540000Y-24384000D03*
%TO.P,U28,75*%
%TO.N,LowStackJump*%
X154940000Y-21844000D03*
%TO.P,U28,77*%
%TO.N,StackCountDirection*%
X152400000Y-21844000D03*
%TO.P,U28,79*%
%TO.N,CLK*%
X149860000Y-21844000D03*
%TO.P,U28,81*%
%TO.N,STATE*%
X147320000Y-21844000D03*
%TO.P,U28,83*%
%TO.N,Net-(U28-Pad83)*%
X144780000Y-21844000D03*
%TO.P,U28,11*%
%TO.N,/Ins6*%
X129540000Y-21844000D03*
%TO.P,U28,9*%
%TO.N,/Ins4*%
X132080000Y-21844000D03*
%TO.P,U28,7*%
%TO.N,GND*%
X134620000Y-21844000D03*
%TO.P,U28,5*%
%TO.N,/Ins1*%
X137160000Y-21844000D03*
%TO.P,U28,3*%
%TO.N,+5V*%
X139700000Y-21844000D03*
D18*
%TO.P,U28,1*%
%TO.N,Net-(U28-Pad1)*%
X142240000Y-21844000D03*
D17*
%TO.P,U28,74*%
%TO.N,/rB7*%
X157480000Y-24384000D03*
%TO.P,U28,76*%
%TO.N,HighStackJump*%
X154940000Y-24384000D03*
%TO.P,U28,78*%
%TO.N,+5V*%
X152400000Y-24384000D03*
%TO.P,U28,80*%
%TO.N,SYNC*%
X149860000Y-24384000D03*
%TO.P,U28,82*%
%TO.N,GND*%
X147320000Y-24384000D03*
%TO.P,U28,84*%
%TO.N,Net-(U28-Pad84)*%
X144780000Y-24384000D03*
%TO.P,U28,10*%
%TO.N,/Ins5*%
X132080000Y-24384000D03*
%TO.P,U28,8*%
%TO.N,/Ins3*%
X134620000Y-24384000D03*
%TO.P,U28,6*%
%TO.N,/Ins2*%
X137160000Y-24384000D03*
%TO.P,U28,4*%
%TO.N,/Ins0*%
X139700000Y-24384000D03*
%TO.P,U28,2*%
%TO.N,Net-(U28-Pad2)*%
X142240000Y-24384000D03*
%TD*%
D12*
%TO.P,U25,20*%
%TO.N,+5V*%
X148844000Y-59182000D03*
%TO.P,U25,10*%
%TO.N,GND*%
X141224000Y-82042000D03*
%TO.P,U25,19*%
%TO.N,/Qo7*%
X148844000Y-61722000D03*
%TO.P,U25,9*%
%TO.N,/B7*%
X141224000Y-79502000D03*
%TO.P,U25,18*%
%TO.N,/Qo6*%
X148844000Y-64262000D03*
%TO.P,U25,8*%
%TO.N,/B6*%
X141224000Y-76962000D03*
%TO.P,U25,17*%
%TO.N,/Qo5*%
X148844000Y-66802000D03*
%TO.P,U25,7*%
%TO.N,/B5*%
X141224000Y-74422000D03*
%TO.P,U25,16*%
%TO.N,/Qo4*%
X148844000Y-69342000D03*
%TO.P,U25,6*%
%TO.N,/B4*%
X141224000Y-71882000D03*
%TO.P,U25,15*%
%TO.N,/Qo3*%
X148844000Y-71882000D03*
%TO.P,U25,5*%
%TO.N,/B3*%
X141224000Y-69342000D03*
%TO.P,U25,14*%
%TO.N,/Qo2*%
X148844000Y-74422000D03*
%TO.P,U25,4*%
%TO.N,/B2*%
X141224000Y-66802000D03*
%TO.P,U25,13*%
%TO.N,/Qo1*%
X148844000Y-76962000D03*
%TO.P,U25,3*%
%TO.N,/B1*%
X141224000Y-64262000D03*
%TO.P,U25,12*%
%TO.N,/Qo0*%
X148844000Y-79502000D03*
%TO.P,U25,2*%
%TO.N,/B0*%
X141224000Y-61722000D03*
%TO.P,U25,11*%
%TO.N,DSPcontrol*%
X148844000Y-82042000D03*
D13*
%TO.P,U25,1*%
%TO.N,Net-(R32-Pad1)*%
X141224000Y-59182000D03*
%TD*%
D12*
%TO.P,U24,20*%
%TO.N,+5V*%
X159512000Y-65786000D03*
%TO.P,U24,10*%
%TO.N,GND*%
X151892000Y-88646000D03*
%TO.P,U24,19*%
%TO.N,/Ins0*%
X159512000Y-68326000D03*
%TO.P,U24,9*%
%TO.N,/B7*%
X151892000Y-86106000D03*
%TO.P,U24,18*%
%TO.N,/Ins1*%
X159512000Y-70866000D03*
%TO.P,U24,8*%
%TO.N,/B6*%
X151892000Y-83566000D03*
%TO.P,U24,17*%
%TO.N,/Ins2*%
X159512000Y-73406000D03*
%TO.P,U24,7*%
%TO.N,/B5*%
X151892000Y-81026000D03*
%TO.P,U24,16*%
%TO.N,/Ins3*%
X159512000Y-75946000D03*
%TO.P,U24,6*%
%TO.N,/B4*%
X151892000Y-78486000D03*
%TO.P,U24,15*%
%TO.N,/Ins4*%
X159512000Y-78486000D03*
%TO.P,U24,5*%
%TO.N,/B3*%
X151892000Y-75946000D03*
%TO.P,U24,14*%
%TO.N,/Ins5*%
X159512000Y-81026000D03*
%TO.P,U24,4*%
%TO.N,/B2*%
X151892000Y-73406000D03*
%TO.P,U24,13*%
%TO.N,/Ins6*%
X159512000Y-83566000D03*
%TO.P,U24,3*%
%TO.N,/B1*%
X151892000Y-70866000D03*
%TO.P,U24,12*%
%TO.N,/Ins7*%
X159512000Y-86106000D03*
%TO.P,U24,2*%
%TO.N,/B0*%
X151892000Y-68326000D03*
%TO.P,U24,11*%
%TO.N,InsRegControl*%
X159512000Y-88646000D03*
D13*
%TO.P,U24,1*%
%TO.N,Net-(R31-Pad1)*%
X151892000Y-65786000D03*
%TD*%
D12*
%TO.P,U14,20*%
%TO.N,+5V*%
X96774000Y-101854000D03*
%TO.P,U14,10*%
%TO.N,GND*%
X73914000Y-94234000D03*
%TO.P,U14,19*%
%TO.N,/RA_H0*%
X94234000Y-101854000D03*
%TO.P,U14,9*%
%TO.N,/B7*%
X76454000Y-94234000D03*
%TO.P,U14,18*%
%TO.N,/RA_H1*%
X91694000Y-101854000D03*
%TO.P,U14,8*%
%TO.N,/B6*%
X78994000Y-94234000D03*
%TO.P,U14,17*%
%TO.N,/RA_H2*%
X89154000Y-101854000D03*
%TO.P,U14,7*%
%TO.N,/B5*%
X81534000Y-94234000D03*
%TO.P,U14,16*%
%TO.N,/RA_H3*%
X86614000Y-101854000D03*
%TO.P,U14,6*%
%TO.N,/B4*%
X84074000Y-94234000D03*
%TO.P,U14,15*%
%TO.N,/RA_H4*%
X84074000Y-101854000D03*
%TO.P,U14,5*%
%TO.N,/B3*%
X86614000Y-94234000D03*
%TO.P,U14,14*%
%TO.N,/RA_H5*%
X81534000Y-101854000D03*
%TO.P,U14,4*%
%TO.N,/B2*%
X89154000Y-94234000D03*
%TO.P,U14,13*%
%TO.N,/RA_H6*%
X78994000Y-101854000D03*
%TO.P,U14,3*%
%TO.N,/B1*%
X91694000Y-94234000D03*
%TO.P,U14,12*%
%TO.N,/RA_H7*%
X76454000Y-101854000D03*
%TO.P,U14,2*%
%TO.N,/B0*%
X94234000Y-94234000D03*
%TO.P,U14,11*%
%TO.N,RAM_HighControl*%
X73914000Y-101854000D03*
D13*
%TO.P,U14,1*%
%TO.N,RAM_Addr_Enable*%
X96774000Y-94234000D03*
%TD*%
D12*
%TO.P,U13,20*%
%TO.N,+5V*%
X100330000Y-90170000D03*
%TO.P,U13,10*%
%TO.N,GND*%
X77470000Y-82550000D03*
%TO.P,U13,19*%
%TO.N,/RA_L0*%
X97790000Y-90170000D03*
%TO.P,U13,9*%
%TO.N,/B7*%
X80010000Y-82550000D03*
%TO.P,U13,18*%
%TO.N,/RA_L1*%
X95250000Y-90170000D03*
%TO.P,U13,8*%
%TO.N,/B6*%
X82550000Y-82550000D03*
%TO.P,U13,17*%
%TO.N,/RA_L2*%
X92710000Y-90170000D03*
%TO.P,U13,7*%
%TO.N,/B5*%
X85090000Y-82550000D03*
%TO.P,U13,16*%
%TO.N,/RA_L3*%
X90170000Y-90170000D03*
%TO.P,U13,6*%
%TO.N,/B4*%
X87630000Y-82550000D03*
%TO.P,U13,15*%
%TO.N,/RA_L4*%
X87630000Y-90170000D03*
%TO.P,U13,5*%
%TO.N,/B3*%
X90170000Y-82550000D03*
%TO.P,U13,14*%
%TO.N,/RA_L5*%
X85090000Y-90170000D03*
%TO.P,U13,4*%
%TO.N,/B2*%
X92710000Y-82550000D03*
%TO.P,U13,13*%
%TO.N,/RA_L6*%
X82550000Y-90170000D03*
%TO.P,U13,3*%
%TO.N,/B1*%
X95250000Y-82550000D03*
%TO.P,U13,12*%
%TO.N,/RA_L7*%
X80010000Y-90170000D03*
%TO.P,U13,2*%
%TO.N,/B0*%
X97790000Y-82550000D03*
%TO.P,U13,11*%
%TO.N,RAM_LowControl*%
X77470000Y-90170000D03*
D13*
%TO.P,U13,1*%
%TO.N,RAM_Addr_Enable*%
X100330000Y-82550000D03*
%TD*%
D12*
%TO.P,U27,20*%
%TO.N,+5V*%
X140462000Y-93980000D03*
%TO.P,U27,10*%
%TO.N,GND*%
X117602000Y-86360000D03*
%TO.P,U27,19*%
%TO.N,Net-(R22-Pad1)*%
X137922000Y-93980000D03*
%TO.P,U27,9*%
%TO.N,/Iq4*%
X120142000Y-86360000D03*
%TO.P,U27,18*%
%TO.N,/Iq0*%
X135382000Y-93980000D03*
%TO.P,U27,8*%
%TO.N,/Qo3*%
X122682000Y-86360000D03*
%TO.P,U27,17*%
%TO.N,/Qo7*%
X132842000Y-93980000D03*
%TO.P,U27,7*%
%TO.N,/Iq5*%
X125222000Y-86360000D03*
%TO.P,U27,16*%
%TO.N,/Iq1*%
X130302000Y-93980000D03*
%TO.P,U27,6*%
%TO.N,/Qo2*%
X127762000Y-86360000D03*
%TO.P,U27,15*%
%TO.N,/Qo6*%
X127762000Y-93980000D03*
%TO.P,U27,5*%
%TO.N,/Iq6*%
X130302000Y-86360000D03*
%TO.P,U27,14*%
%TO.N,/Iq2*%
X125222000Y-93980000D03*
%TO.P,U27,4*%
%TO.N,/Qo1*%
X132842000Y-86360000D03*
%TO.P,U27,13*%
%TO.N,/Qo5*%
X122682000Y-93980000D03*
%TO.P,U27,3*%
%TO.N,/Iq7*%
X135382000Y-86360000D03*
%TO.P,U27,12*%
%TO.N,/Iq3*%
X120142000Y-93980000D03*
%TO.P,U27,2*%
%TO.N,/Qo0*%
X137922000Y-86360000D03*
%TO.P,U27,11*%
%TO.N,/Qo4*%
X117602000Y-93980000D03*
D13*
%TO.P,U27,1*%
%TO.N,Net-(R22-Pad1)*%
X140462000Y-86360000D03*
%TD*%
D12*
%TO.P,U26,20*%
%TO.N,+5V*%
X140462000Y-104902000D03*
%TO.P,U26,10*%
%TO.N,GND*%
X117602000Y-97282000D03*
%TO.P,U26,19*%
%TO.N,Net-(R23-Pad1)*%
X137922000Y-104902000D03*
%TO.P,U26,9*%
%TO.N,/Im4*%
X120142000Y-97282000D03*
%TO.P,U26,18*%
%TO.N,/Im0*%
X135382000Y-104902000D03*
%TO.P,U26,8*%
%TO.N,/B3*%
X122682000Y-97282000D03*
%TO.P,U26,17*%
%TO.N,/B7*%
X132842000Y-104902000D03*
%TO.P,U26,7*%
%TO.N,/Im5*%
X125222000Y-97282000D03*
%TO.P,U26,16*%
%TO.N,/Im1*%
X130302000Y-104902000D03*
%TO.P,U26,6*%
%TO.N,/B2*%
X127762000Y-97282000D03*
%TO.P,U26,15*%
%TO.N,/B6*%
X127762000Y-104902000D03*
%TO.P,U26,5*%
%TO.N,/Im6*%
X130302000Y-97282000D03*
%TO.P,U26,14*%
%TO.N,/Im2*%
X125222000Y-104902000D03*
%TO.P,U26,4*%
%TO.N,/B1*%
X132842000Y-97282000D03*
%TO.P,U26,13*%
%TO.N,/B5*%
X122682000Y-104902000D03*
%TO.P,U26,3*%
%TO.N,/Im7*%
X135382000Y-97282000D03*
%TO.P,U26,12*%
%TO.N,/Im3*%
X120142000Y-104902000D03*
%TO.P,U26,2*%
%TO.N,/B0*%
X137922000Y-97282000D03*
%TO.P,U26,11*%
%TO.N,/B4*%
X117602000Y-104902000D03*
D13*
%TO.P,U26,1*%
%TO.N,Net-(R23-Pad1)*%
X140462000Y-97282000D03*
%TD*%
D12*
%TO.P,U5,20*%
%TO.N,+5V*%
X28448000Y-73152000D03*
%TO.P,U5,10*%
%TO.N,GND*%
X20828000Y-96012000D03*
%TO.P,U5,19*%
%TO.N,Net-(U5-Pad19)*%
X28448000Y-75692000D03*
%TO.P,U5,9*%
%TO.N,/B7*%
X20828000Y-93472000D03*
%TO.P,U5,18*%
%TO.N,Net-(U5-Pad18)*%
X28448000Y-78232000D03*
%TO.P,U5,8*%
%TO.N,/B6*%
X20828000Y-90932000D03*
%TO.P,U5,17*%
%TO.N,Net-(U5-Pad17)*%
X28448000Y-80772000D03*
%TO.P,U5,7*%
%TO.N,/B5*%
X20828000Y-88392000D03*
%TO.P,U5,16*%
%TO.N,Net-(U5-Pad16)*%
X28448000Y-83312000D03*
%TO.P,U5,6*%
%TO.N,/B4*%
X20828000Y-85852000D03*
%TO.P,U5,15*%
%TO.N,Net-(U5-Pad15)*%
X28448000Y-85852000D03*
%TO.P,U5,5*%
%TO.N,/B3*%
X20828000Y-83312000D03*
%TO.P,U5,14*%
%TO.N,Net-(U5-Pad14)*%
X28448000Y-88392000D03*
%TO.P,U5,4*%
%TO.N,/B2*%
X20828000Y-80772000D03*
%TO.P,U5,13*%
%TO.N,Net-(U5-Pad13)*%
X28448000Y-90932000D03*
%TO.P,U5,3*%
%TO.N,/B1*%
X20828000Y-78232000D03*
%TO.P,U5,12*%
%TO.N,Net-(U5-Pad12)*%
X28448000Y-93472000D03*
%TO.P,U5,2*%
%TO.N,/B0*%
X20828000Y-75692000D03*
%TO.P,U5,11*%
%TO.N,HIGHJumpRegLoad*%
X28448000Y-96012000D03*
D13*
%TO.P,U5,1*%
%TO.N,Net-(R11-Pad1)*%
X20828000Y-73152000D03*
%TD*%
D12*
%TO.P,U4,20*%
%TO.N,+5V*%
X28448000Y-44196000D03*
%TO.P,U4,10*%
%TO.N,GND*%
X20828000Y-67056000D03*
%TO.P,U4,19*%
%TO.N,Net-(U4-Pad19)*%
X28448000Y-46736000D03*
%TO.P,U4,9*%
%TO.N,/B7*%
X20828000Y-64516000D03*
%TO.P,U4,18*%
%TO.N,Net-(U4-Pad18)*%
X28448000Y-49276000D03*
%TO.P,U4,8*%
%TO.N,/B6*%
X20828000Y-61976000D03*
%TO.P,U4,17*%
%TO.N,Net-(U4-Pad17)*%
X28448000Y-51816000D03*
%TO.P,U4,7*%
%TO.N,/B5*%
X20828000Y-59436000D03*
%TO.P,U4,16*%
%TO.N,Net-(U4-Pad16)*%
X28448000Y-54356000D03*
%TO.P,U4,6*%
%TO.N,/B4*%
X20828000Y-56896000D03*
%TO.P,U4,15*%
%TO.N,Net-(U4-Pad15)*%
X28448000Y-56896000D03*
%TO.P,U4,5*%
%TO.N,/B3*%
X20828000Y-54356000D03*
%TO.P,U4,14*%
%TO.N,Net-(U4-Pad14)*%
X28448000Y-59436000D03*
%TO.P,U4,4*%
%TO.N,/B2*%
X20828000Y-51816000D03*
%TO.P,U4,13*%
%TO.N,Net-(U4-Pad13)*%
X28448000Y-61976000D03*
%TO.P,U4,3*%
%TO.N,/B1*%
X20828000Y-49276000D03*
%TO.P,U4,12*%
%TO.N,Net-(U4-Pad12)*%
X28448000Y-64516000D03*
%TO.P,U4,2*%
%TO.N,/B0*%
X20828000Y-46736000D03*
%TO.P,U4,11*%
%TO.N,LOWJumpRegLoad*%
X28448000Y-67056000D03*
D13*
%TO.P,U4,1*%
%TO.N,Net-(R8-Pad1)*%
X20828000Y-44196000D03*
%TD*%
D12*
%TO.P,U23,20*%
%TO.N,+5V*%
X171450000Y-65786000D03*
%TO.P,U23,10*%
%TO.N,GND*%
X163830000Y-88646000D03*
%TO.P,U23,19*%
%TO.N,/rB0*%
X171450000Y-68326000D03*
%TO.P,U23,9*%
%TO.N,/B7*%
X163830000Y-86106000D03*
%TO.P,U23,18*%
%TO.N,/rB1*%
X171450000Y-70866000D03*
%TO.P,U23,8*%
%TO.N,/B6*%
X163830000Y-83566000D03*
%TO.P,U23,17*%
%TO.N,/rB2*%
X171450000Y-73406000D03*
%TO.P,U23,7*%
%TO.N,/B5*%
X163830000Y-81026000D03*
%TO.P,U23,16*%
%TO.N,/rB3*%
X171450000Y-75946000D03*
%TO.P,U23,6*%
%TO.N,/B4*%
X163830000Y-78486000D03*
%TO.P,U23,15*%
%TO.N,/rB4*%
X171450000Y-78486000D03*
%TO.P,U23,5*%
%TO.N,/B3*%
X163830000Y-75946000D03*
%TO.P,U23,14*%
%TO.N,/rB5*%
X171450000Y-81026000D03*
%TO.P,U23,4*%
%TO.N,/B2*%
X163830000Y-73406000D03*
%TO.P,U23,13*%
%TO.N,/rB6*%
X171450000Y-83566000D03*
%TO.P,U23,3*%
%TO.N,/B1*%
X163830000Y-70866000D03*
%TO.P,U23,12*%
%TO.N,/rB7*%
X171450000Y-86106000D03*
%TO.P,U23,2*%
%TO.N,/B0*%
X163830000Y-68326000D03*
%TO.P,U23,11*%
%TO.N,RegBControl*%
X171450000Y-88646000D03*
D13*
%TO.P,U23,1*%
%TO.N,Net-(R30-Pad1)*%
X163830000Y-65786000D03*
%TD*%
D12*
%TO.P,U22,20*%
%TO.N,+5V*%
X171704000Y-36576000D03*
%TO.P,U22,10*%
%TO.N,GND*%
X164084000Y-59436000D03*
%TO.P,U22,19*%
%TO.N,/rA0*%
X171704000Y-39116000D03*
%TO.P,U22,9*%
%TO.N,/B7*%
X164084000Y-56896000D03*
%TO.P,U22,18*%
%TO.N,/rA1*%
X171704000Y-41656000D03*
%TO.P,U22,8*%
%TO.N,/B6*%
X164084000Y-54356000D03*
%TO.P,U22,17*%
%TO.N,/rA2*%
X171704000Y-44196000D03*
%TO.P,U22,7*%
%TO.N,/B5*%
X164084000Y-51816000D03*
%TO.P,U22,16*%
%TO.N,/rA3*%
X171704000Y-46736000D03*
%TO.P,U22,6*%
%TO.N,/B4*%
X164084000Y-49276000D03*
%TO.P,U22,15*%
%TO.N,/rA4*%
X171704000Y-49276000D03*
%TO.P,U22,5*%
%TO.N,/B3*%
X164084000Y-46736000D03*
%TO.P,U22,14*%
%TO.N,/rA5*%
X171704000Y-51816000D03*
%TO.P,U22,4*%
%TO.N,/B2*%
X164084000Y-44196000D03*
%TO.P,U22,13*%
%TO.N,/rA6*%
X171704000Y-54356000D03*
%TO.P,U22,3*%
%TO.N,/B1*%
X164084000Y-41656000D03*
%TO.P,U22,12*%
%TO.N,/rA7*%
X171704000Y-56896000D03*
%TO.P,U22,2*%
%TO.N,/B0*%
X164084000Y-39116000D03*
%TO.P,U22,11*%
%TO.N,RegAControl*%
X171704000Y-59436000D03*
D13*
%TO.P,U22,1*%
%TO.N,Net-(R29-Pad1)*%
X164084000Y-36576000D03*
%TD*%
D12*
%TO.P,U3,8*%
%TO.N,+5V*%
X86360000Y-22606000D03*
%TO.P,U3,4*%
X78740000Y-30226000D03*
%TO.P,U3,7*%
%TO.N,Net-(C5-Pad1)*%
X86360000Y-25146000D03*
%TO.P,U3,3*%
%TO.N,CLK_Select*%
X78740000Y-27686000D03*
%TO.P,U3,6*%
%TO.N,Net-(C5-Pad1)*%
X86360000Y-27686000D03*
%TO.P,U3,2*%
%TO.N,Net-(R5-Pad2)*%
X78740000Y-25146000D03*
%TO.P,U3,5*%
%TO.N,Net-(C6-Pad1)*%
X86360000Y-30226000D03*
D13*
%TO.P,U3,1*%
%TO.N,GND*%
X78740000Y-22606000D03*
%TD*%
D12*
%TO.P,U2,8*%
%TO.N,+5V*%
X59944000Y-22606000D03*
%TO.P,U2,4*%
X52324000Y-30226000D03*
%TO.P,U2,7*%
%TO.N,Net-(C3-Pad1)*%
X59944000Y-25146000D03*
%TO.P,U2,3*%
%TO.N,UserCLK*%
X52324000Y-27686000D03*
%TO.P,U2,6*%
%TO.N,Net-(C3-Pad1)*%
X59944000Y-27686000D03*
%TO.P,U2,2*%
%TO.N,Net-(R3-Pad2)*%
X52324000Y-25146000D03*
%TO.P,U2,5*%
%TO.N,Net-(C4-Pad1)*%
X59944000Y-30226000D03*
D13*
%TO.P,U2,1*%
%TO.N,GND*%
X52324000Y-22606000D03*
%TD*%
D12*
%TO.P,U1,8*%
%TO.N,+5V*%
X28452000Y-22592000D03*
%TO.P,U1,4*%
X20832000Y-30212000D03*
%TO.P,U1,7*%
%TO.N,Net-(R2-Pad2)*%
X28452000Y-25132000D03*
%TO.P,U1,3*%
%TO.N,SlowCLK*%
X20832000Y-27672000D03*
%TO.P,U1,6*%
%TO.N,Net-(C1-Pad1)*%
X28452000Y-27672000D03*
%TO.P,U1,2*%
X20832000Y-25132000D03*
%TO.P,U1,5*%
%TO.N,Net-(C2-Pad1)*%
X28452000Y-30212000D03*
D13*
%TO.P,U1,1*%
%TO.N,GND*%
X20832000Y-22592000D03*
%TD*%
D19*
%TO.P,SW3,1*%
%TO.N,Reset*%
X75080000Y-34544000D03*
%TO.P,SW3,2*%
%TO.N,+5V*%
X75080000Y-39044000D03*
%TO.P,SW3,1*%
%TO.N,Reset*%
X68580000Y-34544000D03*
%TO.P,SW3,2*%
%TO.N,+5V*%
X68580000Y-39044000D03*
%TD*%
%TO.P,SW2,1*%
%TO.N,GND*%
X54252000Y-34544000D03*
%TO.P,SW2,2*%
%TO.N,Net-(R5-Pad2)*%
X54252000Y-39044000D03*
%TO.P,SW2,1*%
%TO.N,GND*%
X47752000Y-34544000D03*
%TO.P,SW2,2*%
%TO.N,Net-(R5-Pad2)*%
X47752000Y-39044000D03*
%TD*%
%TO.P,SW1,1*%
%TO.N,GND*%
X41552000Y-34544000D03*
%TO.P,SW1,2*%
%TO.N,Net-(R3-Pad2)*%
X41552000Y-39044000D03*
%TO.P,SW1,1*%
%TO.N,GND*%
X35052000Y-34544000D03*
%TO.P,SW1,2*%
%TO.N,Net-(R3-Pad2)*%
X35052000Y-39044000D03*
%TD*%
D12*
%TO.P,R27,2*%
%TO.N,GND*%
X105918000Y-106426000D03*
D14*
%TO.P,R27,1*%
%TO.N,Net-(D13-Pad1)*%
X113538000Y-106426000D03*
%TD*%
D12*
%TO.P,R26,2*%
%TO.N,GND*%
X94742000Y-106426000D03*
D14*
%TO.P,R26,1*%
%TO.N,Net-(D10-Pad1)*%
X102362000Y-106426000D03*
%TD*%
D12*
%TO.P,R25,2*%
%TO.N,GND*%
X83820000Y-106426000D03*
D14*
%TO.P,R25,1*%
%TO.N,Net-(D5-Pad1)*%
X91440000Y-106426000D03*
%TD*%
D12*
%TO.P,R24,2*%
%TO.N,GND*%
X72898000Y-106426000D03*
D14*
%TO.P,R24,1*%
%TO.N,Net-(D1-Pad1)*%
X80518000Y-106426000D03*
%TD*%
D12*
%TO.P,R7,2*%
%TO.N,GND*%
X57658000Y-35306000D03*
D14*
%TO.P,R7,1*%
%TO.N,Reset*%
X65278000Y-35306000D03*
%TD*%
D12*
%TO.P,R40,2*%
%TO.N,GND*%
X171450000Y-107442000D03*
D14*
%TO.P,R40,1*%
%TO.N,/B7*%
X171450000Y-115062000D03*
%TD*%
D12*
%TO.P,R39,2*%
%TO.N,GND*%
X166878000Y-107442000D03*
D14*
%TO.P,R39,1*%
%TO.N,/B6*%
X166878000Y-115062000D03*
%TD*%
D12*
%TO.P,R38,2*%
%TO.N,GND*%
X162306000Y-107442000D03*
D14*
%TO.P,R38,1*%
%TO.N,/B5*%
X162306000Y-115062000D03*
%TD*%
D12*
%TO.P,R37,2*%
%TO.N,GND*%
X157734000Y-107442000D03*
D14*
%TO.P,R37,1*%
%TO.N,/B4*%
X157734000Y-115062000D03*
%TD*%
D12*
%TO.P,R36,2*%
%TO.N,GND*%
X153162000Y-107442000D03*
D14*
%TO.P,R36,1*%
%TO.N,/B3*%
X153162000Y-115062000D03*
%TD*%
D12*
%TO.P,R35,2*%
%TO.N,GND*%
X148590000Y-107442000D03*
D14*
%TO.P,R35,1*%
%TO.N,/B2*%
X148590000Y-115062000D03*
%TD*%
D12*
%TO.P,R34,2*%
%TO.N,GND*%
X144018000Y-107442000D03*
D14*
%TO.P,R34,1*%
%TO.N,/B1*%
X144018000Y-115062000D03*
%TD*%
D12*
%TO.P,R33,2*%
%TO.N,GND*%
X139192000Y-107442000D03*
D14*
%TO.P,R33,1*%
%TO.N,/B0*%
X139192000Y-115062000D03*
%TD*%
D12*
%TO.P,R6,2*%
%TO.N,Net-(C5-Pad1)*%
X95758000Y-30480000D03*
D14*
%TO.P,R6,1*%
%TO.N,+5V*%
X95758000Y-22860000D03*
%TD*%
D12*
%TO.P,R5,2*%
%TO.N,Net-(R5-Pad2)*%
X74168000Y-22860000D03*
D14*
%TO.P,R5,1*%
%TO.N,+5V*%
X74168000Y-30480000D03*
%TD*%
D12*
%TO.P,R4,2*%
%TO.N,Net-(C3-Pad1)*%
X69342000Y-22860000D03*
D14*
%TO.P,R4,1*%
%TO.N,+5V*%
X69342000Y-30480000D03*
%TD*%
D12*
%TO.P,R3,2*%
%TO.N,Net-(R3-Pad2)*%
X47752000Y-22352000D03*
D14*
%TO.P,R3,1*%
%TO.N,+5V*%
X47752000Y-29972000D03*
%TD*%
D12*
%TO.P,R1,2*%
%TO.N,Net-(C1-Pad1)*%
X38100000Y-22352000D03*
D14*
%TO.P,R1,1*%
%TO.N,Net-(R1-Pad1)*%
X38100000Y-29972000D03*
%TD*%
D12*
%TO.P,R2,2*%
%TO.N,Net-(R2-Pad2)*%
X42926000Y-29972000D03*
D14*
%TO.P,R2,1*%
%TO.N,+5V*%
X42926000Y-22352000D03*
%TD*%
D10*
%TO.P,J5,5*%
%TO.N,GND*%
X164846000Y-20574000D03*
%TO.P,J5,4*%
%TO.N,+5V*%
X164846000Y-23114000D03*
%TO.P,J5,3*%
%TO.N,STATE*%
X164846000Y-25654000D03*
%TO.P,J5,2*%
%TO.N,SYNC*%
X164846000Y-28194000D03*
D11*
%TO.P,J5,1*%
%TO.N,CLK*%
X164846000Y-30734000D03*
%TD*%
D10*
%TO.P,J3,8*%
%TO.N,/Qo7*%
X118110000Y-83058000D03*
%TO.P,J3,7*%
%TO.N,/Qo6*%
X120650000Y-83058000D03*
%TO.P,J3,6*%
%TO.N,/Qo5*%
X123190000Y-83058000D03*
%TO.P,J3,5*%
%TO.N,/Qo4*%
X125730000Y-83058000D03*
%TO.P,J3,4*%
%TO.N,/Qo3*%
X128270000Y-83058000D03*
%TO.P,J3,3*%
%TO.N,/Qo2*%
X130810000Y-83058000D03*
%TO.P,J3,2*%
%TO.N,/Qo1*%
X133350000Y-83058000D03*
D11*
%TO.P,J3,1*%
%TO.N,/Qo0*%
X135890000Y-83058000D03*
%TD*%
D10*
%TO.P,J1,8*%
%TO.N,/B7*%
X22606000Y-113030000D03*
%TO.P,J1,7*%
%TO.N,/B6*%
X25146000Y-113030000D03*
%TO.P,J1,6*%
%TO.N,/B5*%
X27686000Y-113030000D03*
%TO.P,J1,5*%
%TO.N,/B4*%
X30226000Y-113030000D03*
%TO.P,J1,4*%
%TO.N,/B3*%
X32766000Y-113030000D03*
%TO.P,J1,3*%
%TO.N,/B2*%
X35306000Y-113030000D03*
%TO.P,J1,2*%
%TO.N,/B1*%
X37846000Y-113030000D03*
D11*
%TO.P,J1,1*%
%TO.N,/B0*%
X40386000Y-113030000D03*
%TD*%
D20*
%TO.P,D16,2*%
%TO.N,/Iq0*%
X116840000Y-111760000D03*
D21*
%TO.P,D16,1*%
%TO.N,Net-(D13-Pad1)*%
X116840000Y-114300000D03*
%TD*%
D20*
%TO.P,D15,2*%
%TO.N,/Iq1*%
X112268000Y-111760000D03*
D21*
%TO.P,D15,1*%
%TO.N,Net-(D13-Pad1)*%
X112268000Y-114300000D03*
%TD*%
D20*
%TO.P,D14,2*%
%TO.N,/Iq2*%
X107696000Y-111760000D03*
D21*
%TO.P,D14,1*%
%TO.N,Net-(D13-Pad1)*%
X107696000Y-114300000D03*
%TD*%
D20*
%TO.P,D13,2*%
%TO.N,/Iq3*%
X103124000Y-111760000D03*
D21*
%TO.P,D13,1*%
%TO.N,Net-(D13-Pad1)*%
X103124000Y-114300000D03*
%TD*%
D20*
%TO.P,D12,2*%
%TO.N,/Iq4*%
X98552000Y-111760000D03*
D21*
%TO.P,D12,1*%
%TO.N,Net-(D10-Pad1)*%
X98552000Y-114300000D03*
%TD*%
D20*
%TO.P,D11,2*%
%TO.N,/Iq5*%
X93980000Y-111760000D03*
D21*
%TO.P,D11,1*%
%TO.N,Net-(D10-Pad1)*%
X93980000Y-114300000D03*
%TD*%
D20*
%TO.P,D10,2*%
%TO.N,/Iq6*%
X89408000Y-111760000D03*
D21*
%TO.P,D10,1*%
%TO.N,Net-(D10-Pad1)*%
X89408000Y-114300000D03*
%TD*%
D20*
%TO.P,D9,2*%
%TO.N,/Iq7*%
X84836000Y-111760000D03*
D21*
%TO.P,D9,1*%
%TO.N,Net-(D10-Pad1)*%
X84836000Y-114300000D03*
%TD*%
D20*
%TO.P,D8,2*%
%TO.N,/Im0*%
X79248000Y-111760000D03*
D21*
%TO.P,D8,1*%
%TO.N,Net-(D5-Pad1)*%
X79248000Y-114300000D03*
%TD*%
D20*
%TO.P,D7,2*%
%TO.N,/Im1*%
X74676000Y-111760000D03*
D21*
%TO.P,D7,1*%
%TO.N,Net-(D5-Pad1)*%
X74676000Y-114300000D03*
%TD*%
D20*
%TO.P,D6,2*%
%TO.N,/Im2*%
X70104000Y-111760000D03*
D21*
%TO.P,D6,1*%
%TO.N,Net-(D5-Pad1)*%
X70104000Y-114300000D03*
%TD*%
D20*
%TO.P,D5,2*%
%TO.N,/Im3*%
X65532000Y-111760000D03*
D21*
%TO.P,D5,1*%
%TO.N,Net-(D5-Pad1)*%
X65532000Y-114300000D03*
%TD*%
D20*
%TO.P,D4,2*%
%TO.N,/Im4*%
X60960000Y-111760000D03*
D21*
%TO.P,D4,1*%
%TO.N,Net-(D1-Pad1)*%
X60960000Y-114300000D03*
%TD*%
D20*
%TO.P,D3,2*%
%TO.N,/Im5*%
X56388000Y-111760000D03*
D21*
%TO.P,D3,1*%
%TO.N,Net-(D1-Pad1)*%
X56388000Y-114300000D03*
%TD*%
D20*
%TO.P,D2,2*%
%TO.N,/Im6*%
X51816000Y-111760000D03*
D21*
%TO.P,D2,1*%
%TO.N,Net-(D1-Pad1)*%
X51816000Y-114300000D03*
%TD*%
D20*
%TO.P,D1,2*%
%TO.N,/Im7*%
X47244000Y-111760000D03*
D21*
%TO.P,D1,1*%
%TO.N,Net-(D1-Pad1)*%
X47244000Y-114300000D03*
%TD*%
%TO.P,C32,2*%
%TO.N,GND*%
%TA.AperFunction,SMDPad,CuDef*%
G36*
G01*
X147030000Y-94201000D02*
X147030000Y-93251000D01*
G75*
G02*
X147280000Y-93001000I250000J0D01*
G01*
X147955000Y-93001000D01*
G75*
G02*
X148205000Y-93251000I0J-250000D01*
G01*
X148205000Y-94201000D01*
G75*
G02*
X147955000Y-94451000I-250000J0D01*
G01*
X147280000Y-94451000D01*
G75*
G02*
X147030000Y-94201000I0J250000D01*
G01*
G37*
%TD.AperFunction*%
%TO.P,C32,1*%
%TO.N,+5V*%
%TA.AperFunction,SMDPad,CuDef*%
G36*
G01*
X144955000Y-94201000D02*
X144955000Y-93251000D01*
G75*
G02*
X145205000Y-93001000I250000J0D01*
G01*
X145880000Y-93001000D01*
G75*
G02*
X146130000Y-93251000I0J-250000D01*
G01*
X146130000Y-94201000D01*
G75*
G02*
X145880000Y-94451000I-250000J0D01*
G01*
X145205000Y-94451000D01*
G75*
G02*
X144955000Y-94201000I0J250000D01*
G01*
G37*
%TD.AperFunction*%
%TD*%
%TO.P,C31,2*%
%TO.N,GND*%
%TA.AperFunction,SMDPad,CuDef*%
G36*
G01*
X147030000Y-90645000D02*
X147030000Y-89695000D01*
G75*
G02*
X147280000Y-89445000I250000J0D01*
G01*
X147955000Y-89445000D01*
G75*
G02*
X148205000Y-89695000I0J-250000D01*
G01*
X148205000Y-90645000D01*
G75*
G02*
X147955000Y-90895000I-250000J0D01*
G01*
X147280000Y-90895000D01*
G75*
G02*
X147030000Y-90645000I0J250000D01*
G01*
G37*
%TD.AperFunction*%
%TO.P,C31,1*%
%TO.N,+5V*%
%TA.AperFunction,SMDPad,CuDef*%
G36*
G01*
X144955000Y-90645000D02*
X144955000Y-89695000D01*
G75*
G02*
X145205000Y-89445000I250000J0D01*
G01*
X145880000Y-89445000D01*
G75*
G02*
X146130000Y-89695000I0J-250000D01*
G01*
X146130000Y-90645000D01*
G75*
G02*
X145880000Y-90895000I-250000J0D01*
G01*
X145205000Y-90895000D01*
G75*
G02*
X144955000Y-90645000I0J250000D01*
G01*
G37*
%TD.AperFunction*%
%TD*%
%TO.P,C30,2*%
%TO.N,GND*%
%TA.AperFunction,SMDPad,CuDef*%
G36*
G01*
X147030000Y-86835000D02*
X147030000Y-85885000D01*
G75*
G02*
X147280000Y-85635000I250000J0D01*
G01*
X147955000Y-85635000D01*
G75*
G02*
X148205000Y-85885000I0J-250000D01*
G01*
X148205000Y-86835000D01*
G75*
G02*
X147955000Y-87085000I-250000J0D01*
G01*
X147280000Y-87085000D01*
G75*
G02*
X147030000Y-86835000I0J250000D01*
G01*
G37*
%TD.AperFunction*%
%TO.P,C30,1*%
%TO.N,+5V*%
%TA.AperFunction,SMDPad,CuDef*%
G36*
G01*
X144955000Y-86835000D02*
X144955000Y-85885000D01*
G75*
G02*
X145205000Y-85635000I250000J0D01*
G01*
X145880000Y-85635000D01*
G75*
G02*
X146130000Y-85885000I0J-250000D01*
G01*
X146130000Y-86835000D01*
G75*
G02*
X145880000Y-87085000I-250000J0D01*
G01*
X145205000Y-87085000D01*
G75*
G02*
X144955000Y-86835000I0J250000D01*
G01*
G37*
%TD.AperFunction*%
%TD*%
%TO.P,C29,2*%
%TO.N,GND*%
%TA.AperFunction,SMDPad,CuDef*%
G36*
G01*
X159338000Y-58707000D02*
X159338000Y-59657000D01*
G75*
G02*
X159088000Y-59907000I-250000J0D01*
G01*
X158413000Y-59907000D01*
G75*
G02*
X158163000Y-59657000I0J250000D01*
G01*
X158163000Y-58707000D01*
G75*
G02*
X158413000Y-58457000I250000J0D01*
G01*
X159088000Y-58457000D01*
G75*
G02*
X159338000Y-58707000I0J-250000D01*
G01*
G37*
%TD.AperFunction*%
%TO.P,C29,1*%
%TO.N,+5V*%
%TA.AperFunction,SMDPad,CuDef*%
G36*
G01*
X161413000Y-58707000D02*
X161413000Y-59657000D01*
G75*
G02*
X161163000Y-59907000I-250000J0D01*
G01*
X160488000Y-59907000D01*
G75*
G02*
X160238000Y-59657000I0J250000D01*
G01*
X160238000Y-58707000D01*
G75*
G02*
X160488000Y-58457000I250000J0D01*
G01*
X161163000Y-58457000D01*
G75*
G02*
X161413000Y-58707000I0J-250000D01*
G01*
G37*
%TD.AperFunction*%
%TD*%
%TO.P,C28,2*%
%TO.N,GND*%
%TA.AperFunction,SMDPad,CuDef*%
G36*
G01*
X154352000Y-59657000D02*
X154352000Y-58707000D01*
G75*
G02*
X154602000Y-58457000I250000J0D01*
G01*
X155277000Y-58457000D01*
G75*
G02*
X155527000Y-58707000I0J-250000D01*
G01*
X155527000Y-59657000D01*
G75*
G02*
X155277000Y-59907000I-250000J0D01*
G01*
X154602000Y-59907000D01*
G75*
G02*
X154352000Y-59657000I0J250000D01*
G01*
G37*
%TD.AperFunction*%
%TO.P,C28,1*%
%TO.N,+5V*%
%TA.AperFunction,SMDPad,CuDef*%
G36*
G01*
X152277000Y-59657000D02*
X152277000Y-58707000D01*
G75*
G02*
X152527000Y-58457000I250000J0D01*
G01*
X153202000Y-58457000D01*
G75*
G02*
X153452000Y-58707000I0J-250000D01*
G01*
X153452000Y-59657000D01*
G75*
G02*
X153202000Y-59907000I-250000J0D01*
G01*
X152527000Y-59907000D01*
G75*
G02*
X152277000Y-59657000I0J250000D01*
G01*
G37*
%TD.AperFunction*%
%TD*%
%TO.P,C27,2*%
%TO.N,GND*%
%TA.AperFunction,SMDPad,CuDef*%
G36*
G01*
X167720000Y-62263000D02*
X167720000Y-63213000D01*
G75*
G02*
X167470000Y-63463000I-250000J0D01*
G01*
X166795000Y-63463000D01*
G75*
G02*
X166545000Y-63213000I0J250000D01*
G01*
X166545000Y-62263000D01*
G75*
G02*
X166795000Y-62013000I250000J0D01*
G01*
X167470000Y-62013000D01*
G75*
G02*
X167720000Y-62263000I0J-250000D01*
G01*
G37*
%TD.AperFunction*%
%TO.P,C27,1*%
%TO.N,+5V*%
%TA.AperFunction,SMDPad,CuDef*%
G36*
G01*
X169795000Y-62263000D02*
X169795000Y-63213000D01*
G75*
G02*
X169545000Y-63463000I-250000J0D01*
G01*
X168870000Y-63463000D01*
G75*
G02*
X168620000Y-63213000I0J250000D01*
G01*
X168620000Y-62263000D01*
G75*
G02*
X168870000Y-62013000I250000J0D01*
G01*
X169545000Y-62013000D01*
G75*
G02*
X169795000Y-62263000I0J-250000D01*
G01*
G37*
%TD.AperFunction*%
%TD*%
%TO.P,C26,2*%
%TO.N,GND*%
%TA.AperFunction,SMDPad,CuDef*%
G36*
G01*
X167466000Y-33307000D02*
X167466000Y-34257000D01*
G75*
G02*
X167216000Y-34507000I-250000J0D01*
G01*
X166541000Y-34507000D01*
G75*
G02*
X166291000Y-34257000I0J250000D01*
G01*
X166291000Y-33307000D01*
G75*
G02*
X166541000Y-33057000I250000J0D01*
G01*
X167216000Y-33057000D01*
G75*
G02*
X167466000Y-33307000I0J-250000D01*
G01*
G37*
%TD.AperFunction*%
%TO.P,C26,1*%
%TO.N,+5V*%
%TA.AperFunction,SMDPad,CuDef*%
G36*
G01*
X169541000Y-33307000D02*
X169541000Y-34257000D01*
G75*
G02*
X169291000Y-34507000I-250000J0D01*
G01*
X168616000Y-34507000D01*
G75*
G02*
X168366000Y-34257000I0J250000D01*
G01*
X168366000Y-33307000D01*
G75*
G02*
X168616000Y-33057000I250000J0D01*
G01*
X169291000Y-33057000D01*
G75*
G02*
X169541000Y-33307000I0J-250000D01*
G01*
G37*
%TD.AperFunction*%
%TD*%
%TO.P,C25,2*%
%TO.N,GND*%
%TA.AperFunction,SMDPad,CuDef*%
G36*
G01*
X121191000Y-46148500D02*
X122141000Y-46148500D01*
G75*
G02*
X122391000Y-46398500I0J-250000D01*
G01*
X122391000Y-47073500D01*
G75*
G02*
X122141000Y-47323500I-250000J0D01*
G01*
X121191000Y-47323500D01*
G75*
G02*
X120941000Y-47073500I0J250000D01*
G01*
X120941000Y-46398500D01*
G75*
G02*
X121191000Y-46148500I250000J0D01*
G01*
G37*
%TD.AperFunction*%
%TO.P,C25,1*%
%TO.N,+5V*%
%TA.AperFunction,SMDPad,CuDef*%
G36*
G01*
X121191000Y-44073500D02*
X122141000Y-44073500D01*
G75*
G02*
X122391000Y-44323500I0J-250000D01*
G01*
X122391000Y-44998500D01*
G75*
G02*
X122141000Y-45248500I-250000J0D01*
G01*
X121191000Y-45248500D01*
G75*
G02*
X120941000Y-44998500I0J250000D01*
G01*
X120941000Y-44323500D01*
G75*
G02*
X121191000Y-44073500I250000J0D01*
G01*
G37*
%TD.AperFunction*%
%TD*%
%TO.P,C24,2*%
%TO.N,GND*%
%TA.AperFunction,SMDPad,CuDef*%
G36*
G01*
X116873000Y-46148500D02*
X117823000Y-46148500D01*
G75*
G02*
X118073000Y-46398500I0J-250000D01*
G01*
X118073000Y-47073500D01*
G75*
G02*
X117823000Y-47323500I-250000J0D01*
G01*
X116873000Y-47323500D01*
G75*
G02*
X116623000Y-47073500I0J250000D01*
G01*
X116623000Y-46398500D01*
G75*
G02*
X116873000Y-46148500I250000J0D01*
G01*
G37*
%TD.AperFunction*%
%TO.P,C24,1*%
%TO.N,+5V*%
%TA.AperFunction,SMDPad,CuDef*%
G36*
G01*
X116873000Y-44073500D02*
X117823000Y-44073500D01*
G75*
G02*
X118073000Y-44323500I0J-250000D01*
G01*
X118073000Y-44998500D01*
G75*
G02*
X117823000Y-45248500I-250000J0D01*
G01*
X116873000Y-45248500D01*
G75*
G02*
X116623000Y-44998500I0J250000D01*
G01*
X116623000Y-44323500D01*
G75*
G02*
X116873000Y-44073500I250000J0D01*
G01*
G37*
%TD.AperFunction*%
%TD*%
%TO.P,C23,2*%
%TO.N,GND*%
%TA.AperFunction,SMDPad,CuDef*%
G36*
G01*
X119347000Y-52106500D02*
X118397000Y-52106500D01*
G75*
G02*
X118147000Y-51856500I0J250000D01*
G01*
X118147000Y-51181500D01*
G75*
G02*
X118397000Y-50931500I250000J0D01*
G01*
X119347000Y-50931500D01*
G75*
G02*
X119597000Y-51181500I0J-250000D01*
G01*
X119597000Y-51856500D01*
G75*
G02*
X119347000Y-52106500I-250000J0D01*
G01*
G37*
%TD.AperFunction*%
%TO.P,C23,1*%
%TO.N,+5V*%
%TA.AperFunction,SMDPad,CuDef*%
G36*
G01*
X119347000Y-54181500D02*
X118397000Y-54181500D01*
G75*
G02*
X118147000Y-53931500I0J250000D01*
G01*
X118147000Y-53256500D01*
G75*
G02*
X118397000Y-53006500I250000J0D01*
G01*
X119347000Y-53006500D01*
G75*
G02*
X119597000Y-53256500I0J-250000D01*
G01*
X119597000Y-53931500D01*
G75*
G02*
X119347000Y-54181500I-250000J0D01*
G01*
G37*
%TD.AperFunction*%
%TD*%
%TO.P,C22,2*%
%TO.N,GND*%
%TA.AperFunction,SMDPad,CuDef*%
G36*
G01*
X98585000Y-24072000D02*
X99535000Y-24072000D01*
G75*
G02*
X99785000Y-24322000I0J-250000D01*
G01*
X99785000Y-24997000D01*
G75*
G02*
X99535000Y-25247000I-250000J0D01*
G01*
X98585000Y-25247000D01*
G75*
G02*
X98335000Y-24997000I0J250000D01*
G01*
X98335000Y-24322000D01*
G75*
G02*
X98585000Y-24072000I250000J0D01*
G01*
G37*
%TD.AperFunction*%
%TO.P,C22,1*%
%TO.N,+5V*%
%TA.AperFunction,SMDPad,CuDef*%
G36*
G01*
X98585000Y-21997000D02*
X99535000Y-21997000D01*
G75*
G02*
X99785000Y-22247000I0J-250000D01*
G01*
X99785000Y-22922000D01*
G75*
G02*
X99535000Y-23172000I-250000J0D01*
G01*
X98585000Y-23172000D01*
G75*
G02*
X98335000Y-22922000I0J250000D01*
G01*
X98335000Y-22247000D01*
G75*
G02*
X98585000Y-21997000I250000J0D01*
G01*
G37*
%TD.AperFunction*%
%TD*%
%TO.P,C21,2*%
%TO.N,GND*%
%TA.AperFunction,SMDPad,CuDef*%
G36*
G01*
X97569000Y-35988500D02*
X98519000Y-35988500D01*
G75*
G02*
X98769000Y-36238500I0J-250000D01*
G01*
X98769000Y-36913500D01*
G75*
G02*
X98519000Y-37163500I-250000J0D01*
G01*
X97569000Y-37163500D01*
G75*
G02*
X97319000Y-36913500I0J250000D01*
G01*
X97319000Y-36238500D01*
G75*
G02*
X97569000Y-35988500I250000J0D01*
G01*
G37*
%TD.AperFunction*%
%TO.P,C21,1*%
%TO.N,+5V*%
%TA.AperFunction,SMDPad,CuDef*%
G36*
G01*
X97569000Y-33913500D02*
X98519000Y-33913500D01*
G75*
G02*
X98769000Y-34163500I0J-250000D01*
G01*
X98769000Y-34838500D01*
G75*
G02*
X98519000Y-35088500I-250000J0D01*
G01*
X97569000Y-35088500D01*
G75*
G02*
X97319000Y-34838500I0J250000D01*
G01*
X97319000Y-34163500D01*
G75*
G02*
X97569000Y-33913500I250000J0D01*
G01*
G37*
%TD.AperFunction*%
%TD*%
%TO.P,C20,2*%
%TO.N,GND*%
%TA.AperFunction,SMDPad,CuDef*%
G36*
G01*
X108494000Y-72931000D02*
X108494000Y-73881000D01*
G75*
G02*
X108244000Y-74131000I-250000J0D01*
G01*
X107569000Y-74131000D01*
G75*
G02*
X107319000Y-73881000I0J250000D01*
G01*
X107319000Y-72931000D01*
G75*
G02*
X107569000Y-72681000I250000J0D01*
G01*
X108244000Y-72681000D01*
G75*
G02*
X108494000Y-72931000I0J-250000D01*
G01*
G37*
%TD.AperFunction*%
%TO.P,C20,1*%
%TO.N,+5V*%
%TA.AperFunction,SMDPad,CuDef*%
G36*
G01*
X110569000Y-72931000D02*
X110569000Y-73881000D01*
G75*
G02*
X110319000Y-74131000I-250000J0D01*
G01*
X109644000Y-74131000D01*
G75*
G02*
X109394000Y-73881000I0J250000D01*
G01*
X109394000Y-72931000D01*
G75*
G02*
X109644000Y-72681000I250000J0D01*
G01*
X110319000Y-72681000D01*
G75*
G02*
X110569000Y-72931000I0J-250000D01*
G01*
G37*
%TD.AperFunction*%
%TD*%
%TO.P,C19,2*%
%TO.N,GND*%
%TA.AperFunction,SMDPad,CuDef*%
G36*
G01*
X45132500Y-96995000D02*
X45132500Y-96045000D01*
G75*
G02*
X45382500Y-95795000I250000J0D01*
G01*
X46057500Y-95795000D01*
G75*
G02*
X46307500Y-96045000I0J-250000D01*
G01*
X46307500Y-96995000D01*
G75*
G02*
X46057500Y-97245000I-250000J0D01*
G01*
X45382500Y-97245000D01*
G75*
G02*
X45132500Y-96995000I0J250000D01*
G01*
G37*
%TD.AperFunction*%
%TO.P,C19,1*%
%TO.N,+5V*%
%TA.AperFunction,SMDPad,CuDef*%
G36*
G01*
X43057500Y-96995000D02*
X43057500Y-96045000D01*
G75*
G02*
X43307500Y-95795000I250000J0D01*
G01*
X43982500Y-95795000D01*
G75*
G02*
X44232500Y-96045000I0J-250000D01*
G01*
X44232500Y-96995000D01*
G75*
G02*
X43982500Y-97245000I-250000J0D01*
G01*
X43307500Y-97245000D01*
G75*
G02*
X43057500Y-96995000I0J250000D01*
G01*
G37*
%TD.AperFunction*%
%TD*%
%TO.P,C18,2*%
%TO.N,GND*%
%TA.AperFunction,SMDPad,CuDef*%
G36*
G01*
X72723500Y-77757000D02*
X72723500Y-78707000D01*
G75*
G02*
X72473500Y-78957000I-250000J0D01*
G01*
X71798500Y-78957000D01*
G75*
G02*
X71548500Y-78707000I0J250000D01*
G01*
X71548500Y-77757000D01*
G75*
G02*
X71798500Y-77507000I250000J0D01*
G01*
X72473500Y-77507000D01*
G75*
G02*
X72723500Y-77757000I0J-250000D01*
G01*
G37*
%TD.AperFunction*%
%TO.P,C18,1*%
%TO.N,+5V*%
%TA.AperFunction,SMDPad,CuDef*%
G36*
G01*
X74798500Y-77757000D02*
X74798500Y-78707000D01*
G75*
G02*
X74548500Y-78957000I-250000J0D01*
G01*
X73873500Y-78957000D01*
G75*
G02*
X73623500Y-78707000I0J250000D01*
G01*
X73623500Y-77757000D01*
G75*
G02*
X73873500Y-77507000I250000J0D01*
G01*
X74548500Y-77507000D01*
G75*
G02*
X74798500Y-77757000I0J-250000D01*
G01*
G37*
%TD.AperFunction*%
%TD*%
%TO.P,C17,2*%
%TO.N,GND*%
%TA.AperFunction,SMDPad,CuDef*%
G36*
G01*
X64298500Y-77757000D02*
X64298500Y-78707000D01*
G75*
G02*
X64048500Y-78957000I-250000J0D01*
G01*
X63373500Y-78957000D01*
G75*
G02*
X63123500Y-78707000I0J250000D01*
G01*
X63123500Y-77757000D01*
G75*
G02*
X63373500Y-77507000I250000J0D01*
G01*
X64048500Y-77507000D01*
G75*
G02*
X64298500Y-77757000I0J-250000D01*
G01*
G37*
%TD.AperFunction*%
%TO.P,C17,1*%
%TO.N,+5V*%
%TA.AperFunction,SMDPad,CuDef*%
G36*
G01*
X66373500Y-77757000D02*
X66373500Y-78707000D01*
G75*
G02*
X66123500Y-78957000I-250000J0D01*
G01*
X65448500Y-78957000D01*
G75*
G02*
X65198500Y-78707000I0J250000D01*
G01*
X65198500Y-77757000D01*
G75*
G02*
X65448500Y-77507000I250000J0D01*
G01*
X66123500Y-77507000D01*
G75*
G02*
X66373500Y-77757000I0J-250000D01*
G01*
G37*
%TD.AperFunction*%
%TD*%
%TO.P,C16,2*%
%TO.N,GND*%
%TA.AperFunction,SMDPad,CuDef*%
G36*
G01*
X60996500Y-39657000D02*
X60996500Y-40607000D01*
G75*
G02*
X60746500Y-40857000I-250000J0D01*
G01*
X60071500Y-40857000D01*
G75*
G02*
X59821500Y-40607000I0J250000D01*
G01*
X59821500Y-39657000D01*
G75*
G02*
X60071500Y-39407000I250000J0D01*
G01*
X60746500Y-39407000D01*
G75*
G02*
X60996500Y-39657000I0J-250000D01*
G01*
G37*
%TD.AperFunction*%
%TO.P,C16,1*%
%TO.N,+5V*%
%TA.AperFunction,SMDPad,CuDef*%
G36*
G01*
X63071500Y-39657000D02*
X63071500Y-40607000D01*
G75*
G02*
X62821500Y-40857000I-250000J0D01*
G01*
X62146500Y-40857000D01*
G75*
G02*
X61896500Y-40607000I0J250000D01*
G01*
X61896500Y-39657000D01*
G75*
G02*
X62146500Y-39407000I250000J0D01*
G01*
X62821500Y-39407000D01*
G75*
G02*
X63071500Y-39657000I0J-250000D01*
G01*
G37*
%TD.AperFunction*%
%TD*%
%TO.P,C15,2*%
%TO.N,GND*%
%TA.AperFunction,SMDPad,CuDef*%
G36*
G01*
X31783000Y-86302000D02*
X32733000Y-86302000D01*
G75*
G02*
X32983000Y-86552000I0J-250000D01*
G01*
X32983000Y-87227000D01*
G75*
G02*
X32733000Y-87477000I-250000J0D01*
G01*
X31783000Y-87477000D01*
G75*
G02*
X31533000Y-87227000I0J250000D01*
G01*
X31533000Y-86552000D01*
G75*
G02*
X31783000Y-86302000I250000J0D01*
G01*
G37*
%TD.AperFunction*%
%TO.P,C15,1*%
%TO.N,+5V*%
%TA.AperFunction,SMDPad,CuDef*%
G36*
G01*
X31783000Y-84227000D02*
X32733000Y-84227000D01*
G75*
G02*
X32983000Y-84477000I0J-250000D01*
G01*
X32983000Y-85152000D01*
G75*
G02*
X32733000Y-85402000I-250000J0D01*
G01*
X31783000Y-85402000D01*
G75*
G02*
X31533000Y-85152000I0J250000D01*
G01*
X31533000Y-84477000D01*
G75*
G02*
X31783000Y-84227000I250000J0D01*
G01*
G37*
%TD.AperFunction*%
%TD*%
%TO.P,C14,2*%
%TO.N,GND*%
%TA.AperFunction,SMDPad,CuDef*%
G36*
G01*
X32733000Y-67114000D02*
X31783000Y-67114000D01*
G75*
G02*
X31533000Y-66864000I0J250000D01*
G01*
X31533000Y-66189000D01*
G75*
G02*
X31783000Y-65939000I250000J0D01*
G01*
X32733000Y-65939000D01*
G75*
G02*
X32983000Y-66189000I0J-250000D01*
G01*
X32983000Y-66864000D01*
G75*
G02*
X32733000Y-67114000I-250000J0D01*
G01*
G37*
%TD.AperFunction*%
%TO.P,C14,1*%
%TO.N,+5V*%
%TA.AperFunction,SMDPad,CuDef*%
G36*
G01*
X32733000Y-69189000D02*
X31783000Y-69189000D01*
G75*
G02*
X31533000Y-68939000I0J250000D01*
G01*
X31533000Y-68264000D01*
G75*
G02*
X31783000Y-68014000I250000J0D01*
G01*
X32733000Y-68014000D01*
G75*
G02*
X32983000Y-68264000I0J-250000D01*
G01*
X32983000Y-68939000D01*
G75*
G02*
X32733000Y-69189000I-250000J0D01*
G01*
G37*
%TD.AperFunction*%
%TD*%
%TO.P,C13,2*%
%TO.N,GND*%
%TA.AperFunction,SMDPad,CuDef*%
G36*
G01*
X31783000Y-61156000D02*
X32733000Y-61156000D01*
G75*
G02*
X32983000Y-61406000I0J-250000D01*
G01*
X32983000Y-62081000D01*
G75*
G02*
X32733000Y-62331000I-250000J0D01*
G01*
X31783000Y-62331000D01*
G75*
G02*
X31533000Y-62081000I0J250000D01*
G01*
X31533000Y-61406000D01*
G75*
G02*
X31783000Y-61156000I250000J0D01*
G01*
G37*
%TD.AperFunction*%
%TO.P,C13,1*%
%TO.N,+5V*%
%TA.AperFunction,SMDPad,CuDef*%
G36*
G01*
X31783000Y-59081000D02*
X32733000Y-59081000D01*
G75*
G02*
X32983000Y-59331000I0J-250000D01*
G01*
X32983000Y-60006000D01*
G75*
G02*
X32733000Y-60256000I-250000J0D01*
G01*
X31783000Y-60256000D01*
G75*
G02*
X31533000Y-60006000I0J250000D01*
G01*
X31533000Y-59331000D01*
G75*
G02*
X31783000Y-59081000I250000J0D01*
G01*
G37*
%TD.AperFunction*%
%TD*%
%TO.P,C12,2*%
%TO.N,GND*%
%TA.AperFunction,SMDPad,CuDef*%
G36*
G01*
X31783000Y-56076000D02*
X32733000Y-56076000D01*
G75*
G02*
X32983000Y-56326000I0J-250000D01*
G01*
X32983000Y-57001000D01*
G75*
G02*
X32733000Y-57251000I-250000J0D01*
G01*
X31783000Y-57251000D01*
G75*
G02*
X31533000Y-57001000I0J250000D01*
G01*
X31533000Y-56326000D01*
G75*
G02*
X31783000Y-56076000I250000J0D01*
G01*
G37*
%TD.AperFunction*%
%TO.P,C12,1*%
%TO.N,+5V*%
%TA.AperFunction,SMDPad,CuDef*%
G36*
G01*
X31783000Y-54001000D02*
X32733000Y-54001000D01*
G75*
G02*
X32983000Y-54251000I0J-250000D01*
G01*
X32983000Y-54926000D01*
G75*
G02*
X32733000Y-55176000I-250000J0D01*
G01*
X31783000Y-55176000D01*
G75*
G02*
X31533000Y-54926000I0J250000D01*
G01*
X31533000Y-54251000D01*
G75*
G02*
X31783000Y-54001000I250000J0D01*
G01*
G37*
%TD.AperFunction*%
%TD*%
%TO.P,C11,2*%
%TO.N,GND*%
%TA.AperFunction,SMDPad,CuDef*%
G36*
G01*
X24188000Y-69629000D02*
X24188000Y-70579000D01*
G75*
G02*
X23938000Y-70829000I-250000J0D01*
G01*
X23263000Y-70829000D01*
G75*
G02*
X23013000Y-70579000I0J250000D01*
G01*
X23013000Y-69629000D01*
G75*
G02*
X23263000Y-69379000I250000J0D01*
G01*
X23938000Y-69379000D01*
G75*
G02*
X24188000Y-69629000I0J-250000D01*
G01*
G37*
%TD.AperFunction*%
%TO.P,C11,1*%
%TO.N,+5V*%
%TA.AperFunction,SMDPad,CuDef*%
G36*
G01*
X26263000Y-69629000D02*
X26263000Y-70579000D01*
G75*
G02*
X26013000Y-70829000I-250000J0D01*
G01*
X25338000Y-70829000D01*
G75*
G02*
X25088000Y-70579000I0J250000D01*
G01*
X25088000Y-69629000D01*
G75*
G02*
X25338000Y-69379000I250000J0D01*
G01*
X26013000Y-69379000D01*
G75*
G02*
X26263000Y-69629000I0J-250000D01*
G01*
G37*
%TD.AperFunction*%
%TD*%
%TO.P,C10,2*%
%TO.N,GND*%
%TA.AperFunction,SMDPad,CuDef*%
G36*
G01*
X24188000Y-40673000D02*
X24188000Y-41623000D01*
G75*
G02*
X23938000Y-41873000I-250000J0D01*
G01*
X23263000Y-41873000D01*
G75*
G02*
X23013000Y-41623000I0J250000D01*
G01*
X23013000Y-40673000D01*
G75*
G02*
X23263000Y-40423000I250000J0D01*
G01*
X23938000Y-40423000D01*
G75*
G02*
X24188000Y-40673000I0J-250000D01*
G01*
G37*
%TD.AperFunction*%
%TO.P,C10,1*%
%TO.N,+5V*%
%TA.AperFunction,SMDPad,CuDef*%
G36*
G01*
X26263000Y-40673000D02*
X26263000Y-41623000D01*
G75*
G02*
X26013000Y-41873000I-250000J0D01*
G01*
X25338000Y-41873000D01*
G75*
G02*
X25088000Y-41623000I0J250000D01*
G01*
X25088000Y-40673000D01*
G75*
G02*
X25338000Y-40423000I250000J0D01*
G01*
X26013000Y-40423000D01*
G75*
G02*
X26263000Y-40673000I0J-250000D01*
G01*
G37*
%TD.AperFunction*%
%TD*%
%TO.P,C9,2*%
%TO.N,GND*%
%TA.AperFunction,SMDPad,CuDef*%
G36*
G01*
X82078500Y-19337000D02*
X82078500Y-20287000D01*
G75*
G02*
X81828500Y-20537000I-250000J0D01*
G01*
X81153500Y-20537000D01*
G75*
G02*
X80903500Y-20287000I0J250000D01*
G01*
X80903500Y-19337000D01*
G75*
G02*
X81153500Y-19087000I250000J0D01*
G01*
X81828500Y-19087000D01*
G75*
G02*
X82078500Y-19337000I0J-250000D01*
G01*
G37*
%TD.AperFunction*%
%TO.P,C9,1*%
%TO.N,+5V*%
%TA.AperFunction,SMDPad,CuDef*%
G36*
G01*
X84153500Y-19337000D02*
X84153500Y-20287000D01*
G75*
G02*
X83903500Y-20537000I-250000J0D01*
G01*
X83228500Y-20537000D01*
G75*
G02*
X82978500Y-20287000I0J250000D01*
G01*
X82978500Y-19337000D01*
G75*
G02*
X83228500Y-19087000I250000J0D01*
G01*
X83903500Y-19087000D01*
G75*
G02*
X84153500Y-19337000I0J-250000D01*
G01*
G37*
%TD.AperFunction*%
%TD*%
%TO.P,C8,2*%
%TO.N,GND*%
%TA.AperFunction,SMDPad,CuDef*%
G36*
G01*
X55662500Y-19337000D02*
X55662500Y-20287000D01*
G75*
G02*
X55412500Y-20537000I-250000J0D01*
G01*
X54737500Y-20537000D01*
G75*
G02*
X54487500Y-20287000I0J250000D01*
G01*
X54487500Y-19337000D01*
G75*
G02*
X54737500Y-19087000I250000J0D01*
G01*
X55412500Y-19087000D01*
G75*
G02*
X55662500Y-19337000I0J-250000D01*
G01*
G37*
%TD.AperFunction*%
%TO.P,C8,1*%
%TO.N,+5V*%
%TA.AperFunction,SMDPad,CuDef*%
G36*
G01*
X57737500Y-19337000D02*
X57737500Y-20287000D01*
G75*
G02*
X57487500Y-20537000I-250000J0D01*
G01*
X56812500Y-20537000D01*
G75*
G02*
X56562500Y-20287000I0J250000D01*
G01*
X56562500Y-19337000D01*
G75*
G02*
X56812500Y-19087000I250000J0D01*
G01*
X57487500Y-19087000D01*
G75*
G02*
X57737500Y-19337000I0J-250000D01*
G01*
G37*
%TD.AperFunction*%
%TD*%
%TO.P,C7,2*%
%TO.N,GND*%
%TA.AperFunction,SMDPad,CuDef*%
G36*
G01*
X24166500Y-19337000D02*
X24166500Y-20287000D01*
G75*
G02*
X23916500Y-20537000I-250000J0D01*
G01*
X23241500Y-20537000D01*
G75*
G02*
X22991500Y-20287000I0J250000D01*
G01*
X22991500Y-19337000D01*
G75*
G02*
X23241500Y-19087000I250000J0D01*
G01*
X23916500Y-19087000D01*
G75*
G02*
X24166500Y-19337000I0J-250000D01*
G01*
G37*
%TD.AperFunction*%
%TO.P,C7,1*%
%TO.N,+5V*%
%TA.AperFunction,SMDPad,CuDef*%
G36*
G01*
X26241500Y-19337000D02*
X26241500Y-20287000D01*
G75*
G02*
X25991500Y-20537000I-250000J0D01*
G01*
X25316500Y-20537000D01*
G75*
G02*
X25066500Y-20287000I0J250000D01*
G01*
X25066500Y-19337000D01*
G75*
G02*
X25316500Y-19087000I250000J0D01*
G01*
X25991500Y-19087000D01*
G75*
G02*
X26241500Y-19337000I0J-250000D01*
G01*
G37*
%TD.AperFunction*%
%TD*%
%TO.P,C35,2*%
%TO.N,GND*%
%TA.AperFunction,SMDPad,CuDef*%
G36*
G01*
X102329000Y-100366000D02*
X101379000Y-100366000D01*
G75*
G02*
X101129000Y-100116000I0J250000D01*
G01*
X101129000Y-99441000D01*
G75*
G02*
X101379000Y-99191000I250000J0D01*
G01*
X102329000Y-99191000D01*
G75*
G02*
X102579000Y-99441000I0J-250000D01*
G01*
X102579000Y-100116000D01*
G75*
G02*
X102329000Y-100366000I-250000J0D01*
G01*
G37*
%TD.AperFunction*%
%TO.P,C35,1*%
%TO.N,+5V*%
%TA.AperFunction,SMDPad,CuDef*%
G36*
G01*
X102329000Y-102441000D02*
X101379000Y-102441000D01*
G75*
G02*
X101129000Y-102191000I0J250000D01*
G01*
X101129000Y-101516000D01*
G75*
G02*
X101379000Y-101266000I250000J0D01*
G01*
X102329000Y-101266000D01*
G75*
G02*
X102579000Y-101516000I0J-250000D01*
G01*
X102579000Y-102191000D01*
G75*
G02*
X102329000Y-102441000I-250000J0D01*
G01*
G37*
%TD.AperFunction*%
%TD*%
D14*
%TO.P,C5,2*%
%TO.N,GND*%
X90932000Y-24852000D03*
%TO.P,C5,1*%
%TO.N,Net-(C5-Pad1)*%
X90932000Y-22352000D03*
%TD*%
%TO.P,C6,2*%
%TO.N,GND*%
X90932000Y-28194000D03*
%TO.P,C6,1*%
%TO.N,Net-(C6-Pad1)*%
X90932000Y-30694000D03*
%TD*%
%TO.P,C3,2*%
%TO.N,GND*%
X64516000Y-24852000D03*
%TO.P,C3,1*%
%TO.N,Net-(C3-Pad1)*%
X64516000Y-22352000D03*
%TD*%
%TO.P,C4,2*%
%TO.N,GND*%
X64516000Y-28234000D03*
%TO.P,C4,1*%
%TO.N,Net-(C4-Pad1)*%
X64516000Y-30734000D03*
%TD*%
%TO.P,C1,2*%
%TO.N,GND*%
X33082000Y-22212000D03*
%TO.P,C1,1*%
%TO.N,Net-(C1-Pad1)*%
X33082000Y-24712000D03*
%TD*%
%TO.P,C2,2*%
%TO.N,GND*%
X33082000Y-27962000D03*
%TO.P,C2,1*%
%TO.N,Net-(C2-Pad1)*%
X33082000Y-30462000D03*
%TD*%
D22*
%TO.N,GND*%
X120680400Y-50638700D03*
%TO.N,+5V*%
X107771400Y-86918500D03*
%TO.N,UserCLK*%
X122611400Y-25292300D03*
%TO.N,/B0*%
X121647600Y-29345800D03*
X152197500Y-91990100D03*
%TO.N,RegAControl*%
X162674000Y-34553100D03*
%TO.N,RegBControl*%
X146357900Y-100254500D03*
%TO.N,/B2*%
X150268300Y-93342500D03*
%TO.N,/B4*%
X131768500Y-72701500D03*
X155022900Y-78639500D03*
X160475500Y-50158200D03*
X159917800Y-56168000D03*
X155055900Y-102296200D03*
X87002200Y-39770500D03*
X109554700Y-35417700D03*
%TO.N,/B5*%
X23924400Y-66170200D03*
X22845800Y-79559700D03*
X159092900Y-51816000D03*
%TO.N,/B7*%
X145217300Y-84299100D03*
X135364900Y-110040500D03*
%TO.N,JumpEnable*%
X128764200Y-54120300D03*
%TO.N,/B1*%
X121070900Y-36450200D03*
X158793500Y-45267000D03*
X142340500Y-98446900D03*
%TO.N,/B3*%
X123568800Y-99614900D03*
X155796000Y-73272400D03*
X93027700Y-31355600D03*
X163150300Y-64370500D03*
X169483400Y-67073800D03*
X154307100Y-100077400D03*
%TO.N,/B6*%
X25153800Y-85702700D03*
X161894600Y-54795000D03*
%TO.N,MemWriteControl*%
X74888300Y-66629900D03*
%TO.N,/Qo7*%
X137092600Y-61648800D03*
%TO.N,/Qo4*%
X135584800Y-73457400D03*
%TO.N,/Im5*%
X99337900Y-102564500D03*
%TO.N,/Iq7*%
X113743700Y-110367900D03*
%TO.N,/Iq6*%
X105823800Y-110813100D03*
%TO.N,MainRegReadControl*%
X70950100Y-42620100D03*
X123309900Y-33365400D03*
%TO.N,MainRegOutputControl*%
X50301000Y-113017600D03*
%TO.N,/rA0*%
X161518200Y-43212500D03*
X162200600Y-47756900D03*
%TO.N,/rA4*%
X160028200Y-53086100D03*
%TO.N,/rA5*%
X165292800Y-53230400D03*
%TO.N,/rA6*%
X165964700Y-35450700D03*
%TO.N,/rA7*%
X157037100Y-54389100D03*
X152893300Y-42641000D03*
%TO.N,/rB3*%
X170304300Y-64929900D03*
%TO.N,/rB5*%
X172991000Y-62976300D03*
%TO.N,/rB6*%
X163038200Y-58250000D03*
X157835600Y-57107700D03*
%TO.N,LOWJumpRegLoad*%
X30907300Y-60829700D03*
%TO.N,HIGHJumpRegLoad*%
X91913600Y-68617900D03*
X103038000Y-43091600D03*
%TO.N,/RA_L0*%
X110607100Y-49616900D03*
X109486300Y-47382200D03*
X91457700Y-54648100D03*
%TO.N,/RA_L1*%
X70993500Y-53420100D03*
X90480200Y-49646100D03*
X99943500Y-56775800D03*
%TO.N,/RA_L2*%
X88991000Y-65988900D03*
X92636500Y-65676800D03*
%TO.N,/RA_L3*%
X82834800Y-59331600D03*
X103273200Y-55074500D03*
X82344200Y-68192100D03*
%TO.N,/RA_L4*%
X87686300Y-77284200D03*
X66287400Y-88282600D03*
%TO.N,/RA_L5*%
X85786500Y-63242900D03*
%TO.N,/RA_L6*%
X100272000Y-86394700D03*
%TO.N,/RA_L7*%
X84175900Y-65254100D03*
X84175900Y-58079300D03*
%TO.N,RAM_LowControl*%
X129700200Y-81369800D03*
%TO.N,RAM_Addr_Enable*%
X138417900Y-75881500D03*
%TO.N,/RA_H0*%
X76286900Y-61976000D03*
%TO.N,/RA_H2*%
X75002300Y-95878300D03*
%TO.N,/RA_H3*%
X97036300Y-98860000D03*
X82610600Y-99781100D03*
%TO.N,/RA_H4*%
X100753500Y-95669900D03*
%TO.N,/RA_H6*%
X100595300Y-87654800D03*
%TO.N,/RA_H7*%
X74607200Y-84265800D03*
%TO.N,RAM_HighControl*%
X99189400Y-63236900D03*
%TO.N,InsRegControl*%
X151512600Y-62460900D03*
X142533500Y-54636400D03*
%TO.N,StackCount*%
X121828900Y-33783800D03*
%TO.N,StackOutControl*%
X103062500Y-45466000D03*
%TO.N,HighStackJump*%
X116362700Y-41682600D03*
%TO.N,Net-(R10-Pad1)*%
X51834800Y-53501400D03*
X51253400Y-71354000D03*
%TO.N,Net-(U10-Pad8)*%
X48688500Y-59082700D03*
%TO.N,Net-(U10-Pad17)*%
X56909900Y-67095500D03*
%TO.N,Net-(U4-Pad15)*%
X35214900Y-63847800D03*
%TO.N,Net-(U5-Pad15)*%
X35443300Y-90761700D03*
%TO.N,Net-(U16-Pad2)*%
X111874300Y-41376700D03*
%TO.N,Net-(R18-Pad2)*%
X89406700Y-76034600D03*
%TO.N,Net-(U15-Pad7)*%
X118517900Y-37346500D03*
%TO.N,Net-(U16-Pad14)*%
X113383900Y-41246800D03*
X105603000Y-38257100D03*
%TO.N,Net-(U17-Pad6)*%
X121975600Y-77752300D03*
%TO.N,Net-(U17-Pad11)*%
X106925100Y-67150500D03*
%TO.N,Net-(U17-Pad2)*%
X108219500Y-85918600D03*
X106885600Y-74943600D03*
X121056700Y-69521000D03*
%TD*%
D23*
%TO.N,GND*%
X143743100Y-50825700D02*
X145821700Y-50825700D01*
X145821700Y-50825700D02*
X147320000Y-52324000D01*
X154940000Y-44704000D02*
X148384100Y-44704000D01*
X148384100Y-44704000D02*
X143743100Y-49345000D01*
X143743100Y-49345000D02*
X143743100Y-50825700D01*
X143743100Y-50825700D02*
X140741700Y-50825700D01*
X140741700Y-50825700D02*
X139700000Y-49784000D01*
X154939500Y-59182000D02*
X148081500Y-52324000D01*
X148081500Y-52324000D02*
X147320000Y-52324000D01*
X127000000Y-49784000D02*
X128503500Y-48280500D01*
X128503500Y-48280500D02*
X138196500Y-48280500D01*
X138196500Y-48280500D02*
X139700000Y-49784000D01*
X134366000Y-115062000D02*
X130919300Y-115062000D01*
X129794000Y-115062000D02*
X130919300Y-115062000D01*
X139192000Y-107442000D02*
X136937600Y-107442000D01*
X136937600Y-107442000D02*
X134366000Y-110013600D01*
X134366000Y-110013600D02*
X134366000Y-115062000D01*
X118872000Y-51519000D02*
X119800100Y-51519000D01*
X119800100Y-51519000D02*
X120680400Y-50638700D01*
X83820000Y-106426000D02*
X82694700Y-106426000D01*
X72898000Y-106426000D02*
X74023300Y-106426000D01*
X74023300Y-106426000D02*
X75148600Y-107551300D01*
X75148600Y-107551300D02*
X81569400Y-107551300D01*
X81569400Y-107551300D02*
X82694700Y-106426000D01*
X144018000Y-107442000D02*
X139192000Y-107442000D01*
X129540000Y-32004000D02*
X128492100Y-30956100D01*
X128492100Y-30956100D02*
X124283700Y-30956100D01*
X124283700Y-30956100D02*
X121013600Y-27686000D01*
X121013600Y-27686000D02*
X121013300Y-27686000D01*
X99423300Y-53848000D02*
X99804300Y-54229000D01*
X99804300Y-54229000D02*
X113902700Y-54229000D01*
X113902700Y-54229000D02*
X116612700Y-51519000D01*
X116612700Y-51519000D02*
X118872000Y-51519000D01*
X106535300Y-101346000D02*
X107950000Y-99931300D01*
X107950000Y-99931300D02*
X113496200Y-99931300D01*
X113496200Y-99931300D02*
X114155300Y-99272200D01*
X114155300Y-99272200D02*
X114155300Y-98294600D01*
X32258000Y-56663500D02*
X30158100Y-58763400D01*
X30158100Y-58763400D02*
X30158100Y-61117500D01*
X30158100Y-61117500D02*
X30784100Y-61743500D01*
X30784100Y-61743500D02*
X32258000Y-61743500D01*
X35958700Y-56134000D02*
X35429200Y-56663500D01*
X35429200Y-56663500D02*
X32258000Y-56663500D01*
X52040200Y-70564500D02*
X52670400Y-71194700D01*
X52670400Y-71194700D02*
X57115400Y-71194700D01*
X57115400Y-71194700D02*
X59580700Y-73660000D01*
X60706000Y-73660000D02*
X59580700Y-73660000D01*
X164846000Y-20574000D02*
X163670700Y-20574000D01*
X134620000Y-21844000D02*
X135656600Y-20807400D01*
X135656600Y-20807400D02*
X140204200Y-20807400D01*
X140204200Y-20807400D02*
X141203400Y-21806600D01*
X141203400Y-21806600D02*
X141203400Y-22746300D01*
X141203400Y-22746300D02*
X141571100Y-23114000D01*
X141571100Y-23114000D02*
X146050000Y-23114000D01*
X146050000Y-23114000D02*
X147320000Y-24384000D01*
X116476700Y-88610600D02*
X117602000Y-87485300D01*
X114155300Y-98294600D02*
X115464100Y-98294600D01*
X117602000Y-86360000D02*
X117602000Y-87485300D01*
X114155300Y-98294600D02*
X113355600Y-97494900D01*
X113355600Y-97494900D02*
X103547900Y-97494900D01*
X103547900Y-97494900D02*
X102108000Y-96055000D01*
X82296000Y-79248000D02*
X83534500Y-78009500D01*
X83534500Y-78009500D02*
X87986800Y-78009500D01*
X87986800Y-78009500D02*
X88696500Y-77299800D01*
X88696500Y-77299800D02*
X88696500Y-77299700D01*
X88696500Y-77299700D02*
X92399000Y-77299700D01*
X92399000Y-77299700D02*
X92810800Y-76887900D01*
X92810800Y-76887900D02*
X96218600Y-76887900D01*
X96218600Y-76887900D02*
X99700500Y-73406000D01*
X99700500Y-73406000D02*
X107906500Y-73406000D01*
X31200100Y-85831600D02*
X32258000Y-86889500D01*
X33020000Y-81897300D02*
X31200100Y-83717200D01*
X31200100Y-83717200D02*
X31200100Y-85831600D01*
X31200100Y-85831600D02*
X29909700Y-87122000D01*
X29909700Y-87122000D02*
X28046100Y-87122000D01*
X33020000Y-80772000D02*
X33020000Y-81897300D01*
X98298000Y-53848000D02*
X99423300Y-53848000D01*
X81695300Y-79248000D02*
X82296000Y-79248000D01*
X63711000Y-81328900D02*
X65312300Y-82930200D01*
X65312300Y-82930200D02*
X69178800Y-82930200D01*
X63711000Y-81328900D02*
X63711000Y-78232000D01*
X55063400Y-92456000D02*
X55063400Y-91157300D01*
X55063400Y-91157300D02*
X60754100Y-85466600D01*
X60754100Y-85466600D02*
X61445300Y-85466600D01*
X61445300Y-85466600D02*
X62123100Y-84788800D01*
X62123100Y-84788800D02*
X62123100Y-82916800D01*
X55626000Y-92456000D02*
X55063400Y-92456000D01*
X33082000Y-22212000D02*
X29620400Y-18750400D01*
X29620400Y-18750400D02*
X24640600Y-18750400D01*
X24640600Y-18750400D02*
X23579000Y-19812000D01*
X21336000Y-100330000D02*
X21336000Y-99204700D01*
X21336000Y-99204700D02*
X20828000Y-98696700D01*
X20828000Y-98696700D02*
X20828000Y-96012000D01*
X94742000Y-106426000D02*
X95867300Y-106426000D01*
X105918000Y-106426000D02*
X104792700Y-106426000D01*
X104792700Y-106426000D02*
X103667400Y-105300700D01*
X103667400Y-105300700D02*
X96992600Y-105300700D01*
X96992600Y-105300700D02*
X95867300Y-106426000D01*
X31132700Y-50343400D02*
X28795300Y-48006000D01*
X28795300Y-48006000D02*
X28104100Y-48006000D01*
X28104100Y-48006000D02*
X23600500Y-43502400D01*
X23600500Y-43502400D02*
X23600500Y-41148000D01*
X20832000Y-22029300D02*
X19674400Y-23186900D01*
X19674400Y-23186900D02*
X19674400Y-37221900D01*
X19674400Y-37221900D02*
X23600500Y-41148000D01*
X23579000Y-19812000D02*
X23049300Y-19812000D01*
X23049300Y-19812000D02*
X20832000Y-22029300D01*
X135636000Y-78994000D02*
X136761300Y-78994000D01*
X136761300Y-78994000D02*
X139809300Y-82042000D01*
X139809300Y-82042000D02*
X141224000Y-82042000D01*
X119888000Y-27686000D02*
X121013300Y-27686000D01*
X147617500Y-90170000D02*
X147617500Y-93726000D01*
X20832000Y-22592000D02*
X20832000Y-22029300D01*
X35052000Y-34544000D02*
X41552000Y-34544000D01*
X57658000Y-35306000D02*
X56532700Y-35306000D01*
X54252000Y-34544000D02*
X55770700Y-34544000D01*
X55770700Y-34544000D02*
X56532700Y-35306000D01*
X47752000Y-34544000D02*
X54252000Y-34544000D01*
X117348000Y-46736000D02*
X121666000Y-46736000D01*
X127000000Y-49784000D02*
X124714000Y-49784000D01*
X124714000Y-49784000D02*
X121666000Y-46736000D01*
X158750500Y-59182000D02*
X159808200Y-58124300D01*
X159808200Y-58124300D02*
X161647000Y-58124300D01*
X161647000Y-58124300D02*
X162958700Y-59436000D01*
X105664000Y-68326000D02*
X106789300Y-68326000D01*
X107906500Y-69478700D02*
X114030600Y-69478700D01*
X114030600Y-69478700D02*
X116963800Y-66545500D01*
X106789300Y-68326000D02*
X106789300Y-68361500D01*
X106789300Y-68361500D02*
X107906500Y-69478700D01*
X107906500Y-73406000D02*
X107906500Y-69478700D01*
X148590000Y-107442000D02*
X147464700Y-107442000D01*
X64516000Y-24852000D02*
X70244100Y-24852000D01*
X70244100Y-24852000D02*
X73362000Y-21734100D01*
X73362000Y-21734100D02*
X76742800Y-21734100D01*
X76742800Y-21734100D02*
X77614700Y-22606000D01*
X154939500Y-59182000D02*
X158750500Y-59182000D01*
X164084000Y-59436000D02*
X162958700Y-59436000D01*
X157734000Y-107442000D02*
X157734000Y-106879300D01*
X78740000Y-22606000D02*
X77614700Y-22606000D01*
X99060000Y-24659500D02*
X98867500Y-24852000D01*
X98867500Y-24852000D02*
X90932000Y-24852000D01*
X144018000Y-107442000D02*
X147464700Y-107442000D01*
X57658000Y-35306000D02*
X57658000Y-36431300D01*
X60409000Y-40132000D02*
X60409000Y-39182300D01*
X60409000Y-39182300D02*
X57658000Y-36431300D01*
X60452000Y-44958000D02*
X60409000Y-44915000D01*
X60409000Y-44915000D02*
X60409000Y-40132000D01*
X129794000Y-115062000D02*
X125222000Y-115062000D01*
X105410000Y-101346000D02*
X106535300Y-101346000D01*
X105410000Y-101346000D02*
X104284700Y-101346000D01*
X104284700Y-101346000D02*
X102717200Y-99778500D01*
X102717200Y-99778500D02*
X101854000Y-99778500D01*
X41552000Y-34544000D02*
X47752000Y-34544000D01*
X98044000Y-36576000D02*
X93980000Y-36576000D01*
X37084000Y-56134000D02*
X35958700Y-56134000D01*
X170942000Y-107442000D02*
X171450000Y-107442000D01*
X166878000Y-106426000D02*
X166878000Y-107442000D01*
X168402000Y-104902000D02*
X166878000Y-106426000D01*
X27322999Y-89517001D02*
X20828000Y-96012000D01*
X27322999Y-87845101D02*
X27322999Y-89517001D01*
X28046100Y-87122000D02*
X27322999Y-87845101D01*
X23600500Y-70104000D02*
X22352000Y-70104000D01*
X20828000Y-68580000D02*
X20828000Y-67056000D01*
X22352000Y-70104000D02*
X20828000Y-68580000D01*
X30755500Y-66526500D02*
X31263500Y-66526500D01*
X29100999Y-68181001D02*
X30755500Y-66526500D01*
X24528999Y-68181001D02*
X29100999Y-68181001D01*
X23600500Y-69109500D02*
X24528999Y-68181001D01*
X31263500Y-66526500D02*
X32258000Y-66526500D01*
X23600500Y-70104000D02*
X23600500Y-69109500D01*
X32258000Y-66526500D02*
X33760500Y-66526500D01*
X37798500Y-70564500D02*
X52040200Y-70564500D01*
X33760500Y-66526500D02*
X37798500Y-70564500D01*
X52324000Y-22606000D02*
X53823890Y-22606000D01*
X55075000Y-21354890D02*
X55075000Y-19812000D01*
X53823890Y-22606000D02*
X55075000Y-21354890D01*
X78740000Y-22606000D02*
X78740000Y-20574000D01*
X79502000Y-19812000D02*
X81491000Y-19812000D01*
X78740000Y-20574000D02*
X79502000Y-19812000D01*
X81026000Y-22606000D02*
X78740000Y-22606000D01*
X82440600Y-24020600D02*
X81026000Y-22606000D01*
X90100600Y-24020600D02*
X82440600Y-24020600D01*
X90932000Y-24852000D02*
X90100600Y-24020600D01*
X158496000Y-26924000D02*
X164846000Y-20574000D01*
X157480000Y-26924000D02*
X158496000Y-26924000D01*
X154676422Y-20574000D02*
X164846000Y-20574000D01*
X153903799Y-21346623D02*
X154676422Y-20574000D01*
X153903799Y-22243791D02*
X153903799Y-21346623D01*
X153266600Y-22880990D02*
X153903799Y-22243791D01*
X148823010Y-22880990D02*
X153266600Y-22880990D01*
X147320000Y-24384000D02*
X148823010Y-22880990D01*
X166878500Y-33782000D02*
X166878500Y-31495500D01*
X167640000Y-30734000D02*
X168910000Y-30734000D01*
X166878500Y-31495500D02*
X167640000Y-30734000D01*
X167132500Y-62738000D02*
X167132500Y-60198500D01*
X166370000Y-59436000D02*
X164084000Y-59436000D01*
X167132500Y-60198500D02*
X166370000Y-59436000D01*
X147617500Y-86360000D02*
X147617500Y-90170000D01*
X150368000Y-90170000D02*
X151892000Y-88646000D01*
X147617500Y-90170000D02*
X150368000Y-90170000D01*
X116476999Y-96156999D02*
X117602000Y-97282000D01*
X116476999Y-93616999D02*
X116476999Y-96156999D01*
X116476700Y-93616700D02*
X116476999Y-93616999D01*
X116476700Y-88610600D02*
X116476700Y-93616700D01*
X116589400Y-98294600D02*
X115464100Y-98294600D01*
X117602000Y-97282000D02*
X116589400Y-98294600D01*
X31547400Y-50343400D02*
X32258000Y-51054000D01*
X31132700Y-50343400D02*
X31547400Y-50343400D01*
X119931500Y-67346600D02*
X119931500Y-68072000D01*
X116963800Y-66545500D02*
X119631500Y-66545500D01*
X119931500Y-66845500D02*
X119931500Y-68072000D01*
X119631500Y-66545500D02*
X119931500Y-66845500D01*
X134510700Y-65278000D02*
X135636000Y-65278000D01*
X134510700Y-64996700D02*
X134510700Y-65278000D01*
X122448700Y-64152600D02*
X133666600Y-64152600D01*
X121666000Y-64935300D02*
X122448700Y-64152600D01*
X133666600Y-64152600D02*
X134510700Y-64996700D01*
X121666000Y-67310000D02*
X121666000Y-64935300D01*
X120904000Y-68072000D02*
X121666000Y-67310000D01*
X119931500Y-68072000D02*
X120904000Y-68072000D01*
X80772000Y-79248000D02*
X77470000Y-82550000D01*
X82296000Y-79248000D02*
X80772000Y-79248000D01*
X72136000Y-79360998D02*
X72136000Y-78232000D01*
X75325002Y-82550000D02*
X72136000Y-79360998D01*
X77470000Y-82550000D02*
X75325002Y-82550000D01*
X72136000Y-78232000D02*
X71120000Y-78232000D01*
X71120000Y-78232000D02*
X70104000Y-79248000D01*
X70104000Y-82005000D02*
X69178800Y-82930200D01*
X70104000Y-79248000D02*
X70104000Y-82005000D01*
X57912000Y-78232000D02*
X55626000Y-80518000D01*
X63711000Y-78232000D02*
X57912000Y-78232000D01*
X62123100Y-82916800D02*
X63711000Y-81328900D01*
X51562000Y-96520000D02*
X55626000Y-92456000D01*
X45720000Y-96520000D02*
X51562000Y-96520000D01*
X162306000Y-107442000D02*
X153162000Y-107442000D01*
X152146000Y-107442000D02*
X153162000Y-107442000D01*
X149606000Y-104902000D02*
X152146000Y-107442000D01*
X162306000Y-107442000D02*
X166878000Y-107442000D01*
X155956000Y-105664000D02*
X155956000Y-104902000D01*
X157734000Y-107442000D02*
X155956000Y-105664000D01*
X166878000Y-107442000D02*
X171450000Y-107442000D01*
%TO.N,+5V*%
X105795100Y-92456000D02*
X106558100Y-93219000D01*
X106558100Y-93219000D02*
X106558100Y-94185500D01*
X106558100Y-94185500D02*
X105878700Y-94864900D01*
X96774000Y-101854000D02*
X97899300Y-101854000D01*
X101854000Y-101853500D02*
X101795200Y-101794700D01*
X101795200Y-101794700D02*
X97958600Y-101794700D01*
X97958600Y-101794700D02*
X97899300Y-101854000D01*
X95758000Y-22860000D02*
X98784500Y-22860000D01*
X98784500Y-22860000D02*
X99060000Y-22584500D01*
X87485300Y-22606000D02*
X88388500Y-23509200D01*
X88388500Y-23509200D02*
X95108800Y-23509200D01*
X95108800Y-23509200D02*
X95758000Y-22860000D01*
X69342000Y-30480000D02*
X74168000Y-30480000D01*
X53449300Y-30226000D02*
X54574600Y-29100700D01*
X54574600Y-29100700D02*
X63390700Y-29100700D01*
X63390700Y-29100700D02*
X63774000Y-29484000D01*
X63774000Y-29484000D02*
X68346000Y-29484000D01*
X68346000Y-29484000D02*
X69342000Y-30480000D01*
X127000000Y-42164000D02*
X124503000Y-44661000D01*
X124503000Y-44661000D02*
X121666000Y-44661000D01*
X78740000Y-74676000D02*
X77614700Y-74676000D01*
X77614700Y-74676000D02*
X77614700Y-74828300D01*
X77614700Y-74828300D02*
X74211000Y-78232000D01*
X79302700Y-74676000D02*
X78740000Y-74676000D01*
X72390000Y-43434000D02*
X72390000Y-44559300D01*
X68326000Y-50800000D02*
X68326000Y-48623300D01*
X68326000Y-48623300D02*
X72390000Y-44559300D01*
X32258000Y-96012000D02*
X33383300Y-96012000D01*
X33383300Y-96012000D02*
X34960600Y-97589300D01*
X34960600Y-97589300D02*
X42575700Y-97589300D01*
X42575700Y-97589300D02*
X43645000Y-96520000D01*
X62484000Y-40132000D02*
X63572000Y-39044000D01*
X63572000Y-39044000D02*
X68580000Y-39044000D01*
X118872000Y-53594000D02*
X118872000Y-55516700D01*
X118872000Y-55516700D02*
X117856000Y-56532700D01*
X78740000Y-30226000D02*
X77614700Y-30226000D01*
X74168000Y-30480000D02*
X77360700Y-30480000D01*
X77360700Y-30480000D02*
X77614700Y-30226000D01*
X46352300Y-57787700D02*
X48006000Y-56134000D01*
X38233700Y-57787700D02*
X38233700Y-58939000D01*
X38233700Y-58939000D02*
X37846000Y-59326700D01*
X32258000Y-54588500D02*
X37184200Y-54588500D01*
X37184200Y-54588500D02*
X38233700Y-55638000D01*
X38233700Y-55638000D02*
X38233700Y-57787700D01*
X37846000Y-60452000D02*
X37846000Y-59326700D01*
X37846000Y-60452000D02*
X36720700Y-60452000D01*
X36720700Y-60452000D02*
X35937200Y-59668500D01*
X35937200Y-59668500D02*
X32258000Y-59668500D01*
X169527300Y-62738000D02*
X169207500Y-62738000D01*
X138212900Y-51277900D02*
X141193900Y-51277900D01*
X141193900Y-51277900D02*
X142240000Y-52324000D01*
X134620000Y-49784000D02*
X136113900Y-51277900D01*
X136113900Y-51277900D02*
X138212900Y-51277900D01*
X117856500Y-70248200D02*
X117856000Y-70248700D01*
X117856500Y-68072000D02*
X117856500Y-70248200D01*
X79865300Y-74676000D02*
X83675300Y-70866000D01*
X83675300Y-70866000D02*
X98298000Y-70866000D01*
X47752000Y-29972000D02*
X50944700Y-29972000D01*
X50944700Y-29972000D02*
X51198700Y-30226000D01*
X52324000Y-30226000D02*
X51198700Y-30226000D01*
X52324000Y-30226000D02*
X53449300Y-30226000D01*
X57150000Y-19812000D02*
X57202200Y-19864100D01*
X57202200Y-19864100D02*
X53334900Y-23731400D01*
X152864500Y-59182000D02*
X149969300Y-59182000D01*
X121666000Y-44661000D02*
X117348000Y-44661000D01*
X117856000Y-71374000D02*
X116730700Y-71374000D01*
X109981500Y-73406000D02*
X114698700Y-73406000D01*
X114698700Y-73406000D02*
X116730700Y-71374000D01*
X117856000Y-71374000D02*
X117856000Y-70248700D01*
X105795100Y-92456000D02*
X107771400Y-90479700D01*
X107771400Y-90479700D02*
X107771400Y-86918500D01*
X105795100Y-92456000D02*
X104914100Y-92456000D01*
X104914100Y-92456000D02*
X102628100Y-90170000D01*
X102628100Y-90170000D02*
X100330000Y-90170000D01*
X86360000Y-22606000D02*
X87485300Y-22606000D01*
X85797400Y-22606000D02*
X86360000Y-22606000D01*
X74211000Y-78232000D02*
X73148600Y-77169600D01*
X73148600Y-77169600D02*
X71544400Y-77169600D01*
X71544400Y-77169600D02*
X68580000Y-80134000D01*
X68580000Y-80134000D02*
X68580000Y-80662700D01*
X20832000Y-30212000D02*
X20832000Y-36917300D01*
X103233300Y-32539300D02*
X104531700Y-33837700D01*
X104531700Y-33837700D02*
X117419400Y-33837700D01*
X117419400Y-33837700D02*
X118762700Y-32494400D01*
X102108000Y-32258000D02*
X100287000Y-32258000D01*
X100287000Y-32258000D02*
X98044000Y-34501000D01*
X168910000Y-28194000D02*
X167734700Y-28194000D01*
X157480000Y-34544000D02*
X162654700Y-29369300D01*
X162654700Y-29369300D02*
X166559400Y-29369300D01*
X166559400Y-29369300D02*
X167734700Y-28194000D01*
X148844000Y-59182000D02*
X149969300Y-59182000D01*
X145542500Y-93726000D02*
X145542500Y-90170000D01*
X117856000Y-57658000D02*
X117856000Y-56532700D01*
X171450000Y-66348600D02*
X171450000Y-65786000D01*
X79302700Y-74676000D02*
X79865300Y-74676000D01*
X138430000Y-23114000D02*
X139700000Y-21844000D01*
X113284000Y-45466000D02*
X114409300Y-45466000D01*
X117348000Y-44661000D02*
X115214300Y-44661000D01*
X115214300Y-44661000D02*
X114409300Y-45466000D01*
X145542500Y-86360000D02*
X145542500Y-90170000D01*
X68580000Y-81788000D02*
X68580000Y-80662700D01*
X37846000Y-84836000D02*
X36720700Y-84836000D01*
X32258000Y-84814500D02*
X36699200Y-84814500D01*
X36699200Y-84814500D02*
X36720700Y-84836000D01*
X83566000Y-19812000D02*
X85234700Y-21480700D01*
X25675500Y-70104000D02*
X28448000Y-70104000D01*
X29950500Y-68601500D02*
X32258000Y-68601500D01*
X28448000Y-70104000D02*
X29950500Y-68601500D01*
X29573300Y-73152000D02*
X28448000Y-73152000D01*
X30698600Y-74277300D02*
X29573300Y-73152000D01*
X33494900Y-74277300D02*
X30698600Y-74277300D01*
X34874200Y-72898000D02*
X33494900Y-74277300D01*
X37846000Y-72898000D02*
X34874200Y-72898000D01*
X32258000Y-70281800D02*
X34874200Y-72898000D01*
X32258000Y-68601500D02*
X32258000Y-70281800D01*
X28452000Y-22592000D02*
X28452000Y-20070000D01*
X28194000Y-19812000D02*
X25654000Y-19812000D01*
X28452000Y-20070000D02*
X28194000Y-19812000D01*
X42926000Y-25146000D02*
X47752000Y-29972000D01*
X42926000Y-22352000D02*
X42926000Y-25146000D01*
X52073598Y-23731400D02*
X53334900Y-23731400D01*
X51198999Y-24605999D02*
X52073598Y-23731400D01*
X51198999Y-29100999D02*
X51198999Y-24605999D01*
X52324000Y-30226000D02*
X51198999Y-29100999D01*
X57150000Y-19812000D02*
X57150000Y-22098000D01*
X57658000Y-22606000D02*
X59944000Y-22606000D01*
X57150000Y-22098000D02*
X57658000Y-22606000D01*
X85234700Y-21480700D02*
X86360000Y-22606000D01*
X102389300Y-32539300D02*
X102108000Y-32258000D01*
X103233300Y-32539300D02*
X102389300Y-32539300D01*
X119651600Y-32494400D02*
X119888000Y-32258000D01*
X118762700Y-32494400D02*
X119651600Y-32494400D01*
X125222000Y-20066000D02*
X129540000Y-24384000D01*
X119888000Y-20066000D02*
X125222000Y-20066000D01*
X138196201Y-23347799D02*
X138430000Y-23114000D01*
X130576201Y-23347799D02*
X138196201Y-23347799D01*
X129540000Y-24384000D02*
X130576201Y-23347799D01*
X170085300Y-29369300D02*
X168910000Y-28194000D01*
X168953500Y-33782000D02*
X168953500Y-35857500D01*
X169672000Y-36576000D02*
X171704000Y-36576000D01*
X168953500Y-35857500D02*
X169672000Y-36576000D01*
X168953500Y-33782000D02*
X168953500Y-32429502D01*
X170085300Y-31297702D02*
X170085300Y-29369300D01*
X168953500Y-32429502D02*
X170085300Y-31297702D01*
X169207500Y-62738000D02*
X169207500Y-63710500D01*
X168997510Y-63920490D02*
X166536490Y-63920490D01*
X169207500Y-63710500D02*
X168997510Y-63920490D01*
X166536490Y-63920490D02*
X161798000Y-59182000D01*
X161798000Y-59182000D02*
X160825500Y-59182000D01*
X160825500Y-64472500D02*
X159512000Y-65786000D01*
X160825500Y-59182000D02*
X160825500Y-64472500D01*
X152864500Y-59182000D02*
X152864500Y-63202500D01*
X155448000Y-65786000D02*
X159512000Y-65786000D01*
X152864500Y-63202500D02*
X155448000Y-65786000D01*
X142240000Y-52578000D02*
X142240000Y-52324000D01*
X148844000Y-59182000D02*
X142240000Y-52578000D01*
X136906000Y-57658000D02*
X135636000Y-57658000D01*
X142240000Y-52324000D02*
X136906000Y-57658000D01*
X171450000Y-66583400D02*
X171450000Y-65786000D01*
X172575300Y-67708700D02*
X171450000Y-66583400D01*
X140462000Y-104902000D02*
X141587300Y-104902000D01*
X172575300Y-76413400D02*
X172575300Y-67708700D01*
X141587300Y-104902000D02*
X142736400Y-103752900D01*
X171109600Y-77216000D02*
X171772700Y-77216000D01*
X171824900Y-84836000D02*
X171074700Y-84836000D01*
X171772700Y-77216000D02*
X172575300Y-76413400D01*
X171074700Y-84836000D02*
X170311500Y-84072800D01*
X170311500Y-84072800D02*
X170311500Y-78014100D01*
X172748400Y-85759500D02*
X171824900Y-84836000D01*
X170311500Y-78014100D02*
X171109600Y-77216000D01*
X172748400Y-95080300D02*
X172748400Y-85759500D01*
X164075800Y-103752900D02*
X172748400Y-95080300D01*
X142736400Y-103752900D02*
X164075800Y-103752900D01*
X140716000Y-93726000D02*
X140462000Y-93980000D01*
X145542500Y-93726000D02*
X140716000Y-93726000D01*
X100843298Y-93980000D02*
X102108000Y-93980000D01*
X96307900Y-98515398D02*
X100843298Y-93980000D01*
X96307900Y-100262600D02*
X96307900Y-98515398D01*
X96774000Y-100728700D02*
X96307900Y-100262600D01*
X96774000Y-101854000D02*
X96774000Y-100728700D01*
X102108000Y-93980000D02*
X103886000Y-93980000D01*
X104770900Y-94864900D02*
X105878700Y-94864900D01*
X103886000Y-93980000D02*
X104770900Y-94864900D01*
X41385298Y-57787700D02*
X38720998Y-60452000D01*
X38720998Y-60452000D02*
X37846000Y-60452000D01*
X46352300Y-57787700D02*
X41385298Y-57787700D01*
X28827000Y-44575000D02*
X28448000Y-44196000D01*
X35579700Y-44575000D02*
X28827000Y-44575000D01*
X36212700Y-43942000D02*
X35579700Y-44575000D01*
X37338000Y-43942000D02*
X36212700Y-43942000D01*
X25675500Y-41148000D02*
X27686000Y-41148000D01*
X28448000Y-41910000D02*
X28448000Y-44196000D01*
X27686000Y-41148000D02*
X28448000Y-41910000D01*
X25675500Y-41148000D02*
X25675500Y-39645500D01*
X25675500Y-39645500D02*
X24638000Y-38608000D01*
X20832000Y-37041002D02*
X20832000Y-36917300D01*
X22398998Y-38608000D02*
X20832000Y-37041002D01*
X24638000Y-38608000D02*
X22398998Y-38608000D01*
X118981001Y-70248999D02*
X134510999Y-70248999D01*
X134510999Y-70248999D02*
X135636000Y-71374000D01*
X117856000Y-71374000D02*
X118981001Y-70248999D01*
X65786000Y-78232000D02*
X65786000Y-80772000D01*
X66802000Y-81788000D02*
X68580000Y-81788000D01*
X65786000Y-80772000D02*
X66802000Y-81788000D01*
X171450000Y-65786000D02*
X171450000Y-63246000D01*
X170942000Y-62738000D02*
X169207500Y-62738000D01*
X171450000Y-63246000D02*
X170942000Y-62738000D01*
X99060000Y-22584500D02*
X101367500Y-22584500D01*
X102108000Y-21844000D02*
X102108000Y-20066000D01*
X101367500Y-22584500D02*
X102108000Y-21844000D01*
%TO.N,SlowCLK*%
X129540000Y-29464000D02*
X128491600Y-28415600D01*
X128491600Y-28415600D02*
X122682200Y-28415600D01*
X122682200Y-28415600D02*
X120781700Y-26515100D01*
X120781700Y-26515100D02*
X109257700Y-26515100D01*
X109257700Y-26515100D02*
X108458000Y-27314800D01*
X108458000Y-27314800D02*
X108458000Y-28069100D01*
X108458000Y-28069100D02*
X107207600Y-29319500D01*
X107207600Y-29319500D02*
X98510100Y-29319500D01*
X98510100Y-29319500D02*
X95718100Y-32111500D01*
X95718100Y-32111500D02*
X91636400Y-32111500D01*
X91636400Y-32111500D02*
X90728000Y-33019900D01*
X90728000Y-33019900D02*
X79114400Y-33019900D01*
X79114400Y-33019900D02*
X75655900Y-36478400D01*
X75655900Y-36478400D02*
X63338900Y-36478400D01*
X63338900Y-36478400D02*
X59838700Y-32978200D01*
X59838700Y-32978200D02*
X43183800Y-32978200D01*
X43183800Y-32978200D02*
X39016800Y-28811200D01*
X39016800Y-28811200D02*
X37460600Y-28811200D01*
X37460600Y-28811200D02*
X37139500Y-29132300D01*
X37139500Y-29132300D02*
X28963900Y-29132300D01*
X28963900Y-29132300D02*
X28628900Y-28797300D01*
X28628900Y-28797300D02*
X23082600Y-28797300D01*
X23082600Y-28797300D02*
X21957300Y-27672000D01*
X20832000Y-27672000D02*
X21957300Y-27672000D01*
%TO.N,Net-(C2-Pad1)*%
X28452000Y-30212000D02*
X29577300Y-30212000D01*
X33082000Y-30462000D02*
X29827300Y-30462000D01*
X29827300Y-30462000D02*
X29577300Y-30212000D01*
%TO.N,Net-(C1-Pad1)*%
X28452000Y-27672000D02*
X27326700Y-27672000D01*
X27326700Y-27672000D02*
X24786700Y-25132000D01*
X24786700Y-25132000D02*
X20832000Y-25132000D01*
X38100000Y-22352000D02*
X36974700Y-22352000D01*
X36974700Y-22352000D02*
X34614700Y-24712000D01*
X34614700Y-24712000D02*
X33082000Y-24712000D01*
%TO.N,Net-(C4-Pad1)*%
X59944000Y-30226000D02*
X61069300Y-30226000D01*
X64516000Y-30734000D02*
X61577300Y-30734000D01*
X61577300Y-30734000D02*
X61069300Y-30226000D01*
%TO.N,UserCLK*%
X122611400Y-25292300D02*
X122448700Y-25129600D01*
X101274600Y-25140790D02*
X122459890Y-25140790D01*
X100304800Y-26110590D02*
X101274600Y-25140790D01*
X99770200Y-26110200D02*
X99770590Y-26110590D01*
X87428700Y-26560700D02*
X87879200Y-26110200D01*
X87879200Y-26110200D02*
X99770200Y-26110200D01*
X54574600Y-26560700D02*
X87428700Y-26560700D01*
X99770590Y-26110590D02*
X100304800Y-26110590D01*
X53449300Y-27686000D02*
X54574600Y-26560700D01*
X122459890Y-25140790D02*
X122611400Y-25292300D01*
X52324000Y-27686000D02*
X53449300Y-27686000D01*
%TO.N,Net-(C3-Pad1)*%
X69342000Y-22860000D02*
X68216700Y-22860000D01*
X64516000Y-22352000D02*
X67708700Y-22352000D01*
X67708700Y-22352000D02*
X68216700Y-22860000D01*
X61069300Y-25146000D02*
X63863300Y-22352000D01*
X63863300Y-22352000D02*
X64516000Y-22352000D01*
X59944000Y-25146000D02*
X61069300Y-25146000D01*
%TO.N,Net-(C6-Pad1)*%
X86360000Y-30226000D02*
X87485300Y-30226000D01*
X90932000Y-30694000D02*
X87953300Y-30694000D01*
X87953300Y-30694000D02*
X87485300Y-30226000D01*
%TO.N,Net-(R5-Pad2)*%
X47752000Y-39044000D02*
X54252000Y-39044000D01*
X74168000Y-22860000D02*
X75293300Y-22860000D01*
X75293300Y-22860000D02*
X77579300Y-25146000D01*
X77579300Y-25146000D02*
X78740000Y-25146000D01*
%TO.N,TCK*%
X171450000Y-30734000D02*
X171450000Y-31909300D01*
X171450000Y-31909300D02*
X172835500Y-33294800D01*
X172835500Y-33294800D02*
X172835500Y-37038400D01*
X172835500Y-37038400D02*
X172172500Y-37701400D01*
X172172500Y-37701400D02*
X159402600Y-37701400D01*
X159402600Y-37701400D02*
X157480000Y-39624000D01*
%TO.N,/Ins7*%
X159512000Y-86360000D02*
X159512000Y-86106000D01*
X152400000Y-93472000D02*
X159512000Y-86360000D01*
%TO.N,/Ins6*%
X159512000Y-83566000D02*
X162029800Y-83566000D01*
X162029800Y-83566000D02*
X163299800Y-84836000D01*
X163299800Y-84836000D02*
X164151800Y-84836000D01*
X164151800Y-84836000D02*
X164993500Y-85677700D01*
X164993500Y-85677700D02*
X164993500Y-86577700D01*
X164993500Y-86577700D02*
X164114800Y-87456400D01*
X164114800Y-87456400D02*
X162742000Y-87456400D01*
X162742000Y-87456400D02*
X159341300Y-90857100D01*
X157554900Y-90857100D02*
X158675100Y-90857100D01*
X154940000Y-93472000D02*
X157554900Y-90857100D01*
X158675100Y-90857100D02*
X158362800Y-90857100D01*
X159341300Y-90857100D02*
X158675100Y-90857100D01*
%TO.N,/Ins2*%
X159512000Y-73406000D02*
X160466500Y-73406000D01*
X160466500Y-73406000D02*
X161656100Y-74595600D01*
X161656100Y-74595600D02*
X164085600Y-74595600D01*
X164085600Y-74595600D02*
X165447400Y-75957400D01*
X165447400Y-75957400D02*
X165447400Y-91949300D01*
X165447400Y-91949300D02*
X165100000Y-92296700D01*
X165100000Y-93472000D02*
X165100000Y-92296700D01*
%TO.N,/B0*%
X148030900Y-96156700D02*
X150119800Y-94067800D01*
X150119800Y-94067800D02*
X150628100Y-94067800D01*
X150628100Y-94067800D02*
X151113000Y-93582900D01*
X151113000Y-93582900D02*
X151113000Y-93074600D01*
X151113000Y-93074600D02*
X152197500Y-91990100D01*
X94234000Y-95359300D02*
X90424000Y-99169300D01*
X90424000Y-99169300D02*
X90424000Y-102192500D01*
X90424000Y-102192500D02*
X87797000Y-104819500D01*
X87797000Y-104819500D02*
X70012600Y-104819500D01*
X70012600Y-104819500D02*
X69051400Y-105780700D01*
X94234000Y-94234000D02*
X94234000Y-95359300D01*
X163830000Y-68326000D02*
X162704700Y-68326000D01*
X151892000Y-67200700D02*
X161579400Y-67200700D01*
X161579400Y-67200700D02*
X162704700Y-68326000D01*
X151892000Y-68326000D02*
X151892000Y-67200700D01*
X110853300Y-27967400D02*
X111697200Y-28811300D01*
X111697200Y-28811300D02*
X121113100Y-28811300D01*
X121113100Y-28811300D02*
X121647600Y-29345800D01*
X41656000Y-102373000D02*
X41656000Y-100330000D01*
X142240000Y-49784000D02*
X148529700Y-43494300D01*
X148529700Y-43494300D02*
X158580400Y-43494300D01*
X158580400Y-43494300D02*
X162958700Y-39116000D01*
X164084000Y-39116000D02*
X162958700Y-39116000D01*
X43825300Y-105780700D02*
X41656000Y-107950000D01*
X69051400Y-105780700D02*
X43825300Y-105780700D01*
X41656000Y-107950000D02*
X41656000Y-100330000D01*
X19252400Y-77267600D02*
X20828000Y-75692000D01*
X21124100Y-102373000D02*
X19252400Y-100501300D01*
X21124390Y-102372710D02*
X21124100Y-102373000D01*
X39613290Y-102372710D02*
X21124390Y-102372710D01*
X19252400Y-100501300D02*
X19252400Y-77267600D01*
X41656000Y-100330000D02*
X39613290Y-102372710D01*
X19248000Y-48316000D02*
X20828000Y-46736000D01*
X19248000Y-75243370D02*
X19248000Y-48316000D01*
X19696630Y-75692000D02*
X19248000Y-75243370D01*
X20828000Y-75692000D02*
X19696630Y-75692000D01*
X110009400Y-27967400D02*
X109728000Y-27686000D01*
X110853300Y-27967400D02*
X110009400Y-27967400D01*
X139047300Y-96156700D02*
X139590700Y-96156700D01*
X137922000Y-97282000D02*
X139047300Y-96156700D01*
X139590700Y-96156700D02*
X148030900Y-96156700D01*
X139469200Y-96156700D02*
X139590700Y-96156700D01*
X149283400Y-63104600D02*
X150423800Y-64245000D01*
X150423800Y-64245000D02*
X150423800Y-66464800D01*
X151159700Y-67200700D02*
X151892000Y-67200700D01*
X150423800Y-66464800D02*
X151159700Y-67200700D01*
X147940600Y-63104600D02*
X146304000Y-61468000D01*
X149283400Y-63104600D02*
X147940600Y-63104600D01*
X141478000Y-61468000D02*
X141224000Y-61722000D01*
X146304000Y-61468000D02*
X141478000Y-61468000D01*
X95105300Y-44196000D02*
X93980000Y-44196000D01*
X95934600Y-43366700D02*
X95105300Y-44196000D01*
X101737200Y-43366700D02*
X95934600Y-43366700D01*
X102737600Y-42366300D02*
X101737200Y-43366700D01*
X103385702Y-42366300D02*
X102737600Y-42366300D01*
X103660992Y-42641590D02*
X103385702Y-42366300D01*
X120209020Y-42641590D02*
X103660992Y-42641590D01*
X122184610Y-40666000D02*
X120209020Y-42641590D01*
X133122000Y-40666000D02*
X122184610Y-40666000D01*
X142240000Y-49784000D02*
X133122000Y-40666000D01*
X141692902Y-67998100D02*
X128196100Y-67998100D01*
X128196100Y-67998100D02*
X125476000Y-65278000D01*
X142349001Y-67342001D02*
X141692902Y-67998100D01*
X142349001Y-62847001D02*
X142349001Y-67342001D01*
X141224000Y-61722000D02*
X142349001Y-62847001D01*
%TO.N,TDO*%
X172629400Y-27014600D02*
X171450000Y-28194000D01*
X171868300Y-24384000D02*
X172629400Y-25145100D01*
X163519800Y-24384000D02*
X171868300Y-24384000D01*
X172629400Y-25145100D02*
X172629400Y-27014600D01*
X159709800Y-28194000D02*
X163519800Y-24384000D01*
X156210000Y-28194000D02*
X159709800Y-28194000D01*
X154940000Y-29464000D02*
X156210000Y-28194000D01*
%TO.N,/Ins0*%
X170180000Y-92296700D02*
X168303800Y-90420500D01*
X168303800Y-90420500D02*
X168303800Y-73747100D01*
X168303800Y-73747100D02*
X164008000Y-69451300D01*
X164008000Y-69451300D02*
X161762600Y-69451300D01*
X161762600Y-69451300D02*
X160637300Y-68326000D01*
X170180000Y-93472000D02*
X170180000Y-92296700D01*
X159512000Y-68326000D02*
X160637300Y-68326000D01*
%TO.N,/Ins1*%
X159512000Y-70866000D02*
X160637300Y-70866000D01*
X167640000Y-93472000D02*
X167640000Y-92296700D01*
X167640000Y-92296700D02*
X167403100Y-92059800D01*
X167403100Y-92059800D02*
X167403100Y-75377100D01*
X167403100Y-75377100D02*
X164017300Y-71991300D01*
X164017300Y-71991300D02*
X161762600Y-71991300D01*
X161762600Y-71991300D02*
X160637300Y-70866000D01*
%TO.N,RegAControl*%
X127000000Y-39624000D02*
X128053700Y-38570300D01*
X128053700Y-38570300D02*
X150265000Y-38570300D01*
X150265000Y-38570300D02*
X152787900Y-36047400D01*
X152787900Y-36047400D02*
X157469500Y-36047400D01*
X157469500Y-36047400D02*
X158963800Y-34553100D01*
X158963800Y-34553100D02*
X162674000Y-34553100D01*
%TO.N,TMS*%
X170274700Y-26021400D02*
X169466800Y-26829300D01*
X169466800Y-26829300D02*
X163294600Y-26829300D01*
X163294600Y-26829300D02*
X159389900Y-30734000D01*
X159389900Y-30734000D02*
X135890000Y-30734000D01*
X135890000Y-30734000D02*
X129540000Y-37084000D01*
X171082600Y-26021400D02*
X171450000Y-25654000D01*
X170274700Y-26021400D02*
X171082600Y-26021400D01*
%TO.N,RegBControl*%
X171450000Y-89771300D02*
X172297400Y-90618700D01*
X172297400Y-90618700D02*
X172297400Y-94894400D01*
X172297400Y-94894400D02*
X171035100Y-96156700D01*
X171035100Y-96156700D02*
X167732500Y-96156700D01*
X167732500Y-96156700D02*
X163049700Y-100839500D01*
X163049700Y-100839500D02*
X146942900Y-100839500D01*
X146942900Y-100839500D02*
X146357900Y-100254500D01*
X171450000Y-88646000D02*
X171450000Y-89771300D01*
%TO.N,/B2*%
X164084000Y-44196000D02*
X162958700Y-44196000D01*
X144780000Y-49784000D02*
X148378500Y-46185500D01*
X148378500Y-46185500D02*
X160969200Y-46185500D01*
X160969200Y-46185500D02*
X162958700Y-44196000D01*
X151892000Y-73406000D02*
X153017300Y-73406000D01*
X153017300Y-73406000D02*
X154142600Y-72280700D01*
X154142600Y-72280700D02*
X159978200Y-72280700D01*
X159978200Y-72280700D02*
X161103400Y-73405900D01*
X161103400Y-73405900D02*
X161103400Y-73406000D01*
X161103400Y-73406000D02*
X162704700Y-73406000D01*
X163830000Y-73406000D02*
X162704700Y-73406000D01*
X37738600Y-99167400D02*
X36576000Y-100330000D01*
X54267400Y-99167400D02*
X37738600Y-99167400D01*
X85750600Y-104369100D02*
X71648100Y-104369100D01*
X70512300Y-103233300D02*
X58333300Y-103233300D01*
X71648100Y-104369100D02*
X70512300Y-103233300D01*
X88028700Y-102091000D02*
X85750600Y-104369100D01*
X58333300Y-103233300D02*
X54267400Y-99167400D01*
X88028700Y-96484600D02*
X88028700Y-102091000D01*
X89154000Y-95359300D02*
X88028700Y-96484600D01*
X89154000Y-94234000D02*
X89154000Y-95359300D01*
X128461710Y-97282000D02*
X127762000Y-97282000D01*
X130041410Y-95702300D02*
X128461710Y-97282000D01*
X147783200Y-95702300D02*
X130041410Y-95702300D01*
X150143000Y-93342500D02*
X147783200Y-95702300D01*
X150268300Y-93342500D02*
X150143000Y-93342500D01*
X131179800Y-63361800D02*
X125476000Y-57658000D01*
X136658500Y-63361800D02*
X131179800Y-63361800D01*
X140098700Y-66802000D02*
X136658500Y-63361800D01*
X141224000Y-66802000D02*
X140098700Y-66802000D01*
%TO.N,/B4*%
X140098700Y-71882000D02*
X139279200Y-72701500D01*
X139279200Y-72701500D02*
X131768500Y-72701500D01*
X141224000Y-71882000D02*
X140098700Y-71882000D01*
X155022900Y-78639500D02*
X156301700Y-77360700D01*
X156301700Y-77360700D02*
X161579400Y-77360700D01*
X161579400Y-77360700D02*
X162704700Y-78486000D01*
X28938200Y-58021300D02*
X29995100Y-56964400D01*
X29995100Y-56964400D02*
X29995100Y-55208000D01*
X29995100Y-55208000D02*
X31553400Y-53649700D01*
X31553400Y-53649700D02*
X40251000Y-53649700D01*
X40251000Y-53649700D02*
X43909300Y-57308000D01*
X43909300Y-57308000D02*
X45134700Y-57308000D01*
X45134700Y-57308000D02*
X48768000Y-53674700D01*
X48768000Y-53674700D02*
X48768000Y-51214300D01*
X48768000Y-51214300D02*
X51982300Y-48000000D01*
X51982300Y-48000000D02*
X62938200Y-48000000D01*
X62938200Y-48000000D02*
X69231800Y-41706400D01*
X69231800Y-41706400D02*
X75024300Y-41706400D01*
X75024300Y-41706400D02*
X77614700Y-39116000D01*
X162958700Y-49276000D02*
X162076600Y-50158100D01*
X162076600Y-50158100D02*
X160475500Y-50158100D01*
X160475500Y-50158100D02*
X160475500Y-50158200D01*
X164084000Y-49276000D02*
X162958700Y-49276000D01*
X149860000Y-52324000D02*
X153704000Y-56168000D01*
X153704000Y-56168000D02*
X159917800Y-56168000D01*
X117602000Y-104902000D02*
X120207800Y-102296200D01*
X120207800Y-102296200D02*
X155055900Y-102296200D01*
X109554700Y-35417700D02*
X100990200Y-35417700D01*
X100990200Y-35417700D02*
X98429100Y-37978800D01*
X98429100Y-37978800D02*
X88793900Y-37978800D01*
X88793900Y-37978800D02*
X87002200Y-39770500D01*
X78740000Y-39116000D02*
X77614700Y-39116000D01*
X163830000Y-78486000D02*
X162704700Y-78486000D01*
X21968600Y-75193800D02*
X21968600Y-84711400D01*
X21052200Y-74277400D02*
X21968600Y-75193800D01*
X19871300Y-74277400D02*
X21052200Y-74277400D01*
X19698400Y-74104500D02*
X19871300Y-74277400D01*
X19698400Y-58940700D02*
X19698400Y-74104500D01*
X21968600Y-84711400D02*
X20828000Y-85852000D01*
X19698400Y-58940700D02*
X19702999Y-58940700D01*
X19698400Y-58025600D02*
X20828000Y-56896000D01*
X19698400Y-58940700D02*
X19698400Y-58025600D01*
X21953300Y-58021300D02*
X28938200Y-58021300D01*
X20828000Y-56896000D02*
X21953300Y-58021300D01*
X88755400Y-81424600D02*
X87630000Y-82550000D01*
X103540500Y-81424600D02*
X88755400Y-81424600D01*
X104303000Y-82187100D02*
X103540500Y-81424600D01*
X114316200Y-82187100D02*
X104303000Y-82187100D01*
X123722300Y-80747700D02*
X115755600Y-80747700D01*
X115755600Y-80747700D02*
X114316200Y-82187100D01*
X125476000Y-78994000D02*
X123722300Y-80747700D01*
X154869400Y-78486000D02*
X155022900Y-78639500D01*
X151892000Y-78486000D02*
X154869400Y-78486000D01*
%TO.N,/B5*%
X159092900Y-51816000D02*
X156335100Y-51816000D01*
X156335100Y-51816000D02*
X155339700Y-50820600D01*
X155339700Y-50820600D02*
X154456100Y-50820600D01*
X154456100Y-50820600D02*
X153670000Y-50034500D01*
X153670000Y-50034500D02*
X153670000Y-49560600D01*
X153670000Y-49560600D02*
X152804600Y-48695200D01*
X152804600Y-48695200D02*
X150948800Y-48695200D01*
X150948800Y-48695200D02*
X149860000Y-49784000D01*
X162958700Y-51816000D02*
X159092900Y-51816000D01*
X163830000Y-81026000D02*
X162704700Y-81026000D01*
X151892000Y-81026000D02*
X153017300Y-81026000D01*
X153017300Y-81026000D02*
X154142600Y-79900700D01*
X154142600Y-79900700D02*
X161579400Y-79900700D01*
X161579400Y-79900700D02*
X162704700Y-81026000D01*
X79865300Y-41656000D02*
X86363900Y-35157400D01*
X86363900Y-35157400D02*
X92462300Y-35157400D01*
X92462300Y-35157400D02*
X93745100Y-33874600D01*
X93745100Y-33874600D02*
X96105600Y-33874600D01*
X96105600Y-33874600D02*
X99299300Y-30680900D01*
X99299300Y-30680900D02*
X109846800Y-30680900D01*
X109846800Y-30680900D02*
X111142700Y-31976800D01*
X162306000Y-115062000D02*
X156541000Y-109297000D01*
X156541000Y-109297000D02*
X152409400Y-109297000D01*
X152409400Y-109297000D02*
X149284400Y-106172000D01*
X149284400Y-106172000D02*
X140137100Y-106172000D01*
X140137100Y-106172000D02*
X139192000Y-105226900D01*
X139192000Y-105226900D02*
X139192000Y-104541900D01*
X139192000Y-104541900D02*
X137952500Y-103302400D01*
X137952500Y-103302400D02*
X124281600Y-103302400D01*
X124281600Y-103302400D02*
X122682000Y-104902000D01*
X78740000Y-41656000D02*
X79865300Y-41656000D01*
X164084000Y-51816000D02*
X162958700Y-51816000D01*
X28698200Y-100587800D02*
X28956000Y-100330000D01*
X22845800Y-86374200D02*
X20828000Y-88392000D01*
X22845800Y-79559700D02*
X22845800Y-86374200D01*
X23924400Y-62532400D02*
X20828000Y-59436000D01*
X23924400Y-66170200D02*
X23924400Y-62532400D01*
X111986800Y-31976800D02*
X112268000Y-32258000D01*
X111142700Y-31976800D02*
X111986800Y-31976800D01*
X142349300Y-77448500D02*
X142349300Y-75547300D01*
X141663700Y-78134100D02*
X142349300Y-77448500D01*
X142349300Y-75547300D02*
X141224000Y-74422000D01*
X131090000Y-74448000D02*
X128016000Y-71374000D01*
X141224000Y-75014000D02*
X140658000Y-74448000D01*
X140658000Y-74448000D02*
X131090000Y-74448000D01*
X141224000Y-74422000D02*
X141224000Y-75014000D01*
X139597498Y-78134100D02*
X140872100Y-78134100D01*
X138040687Y-76577289D02*
X139597498Y-78134100D01*
X100675300Y-80523700D02*
X104587800Y-76611200D01*
X100675300Y-80523800D02*
X100675300Y-80523700D01*
X85090000Y-82550000D02*
X87116200Y-80523800D01*
X104587800Y-76611200D02*
X121184390Y-76611200D01*
X140872100Y-78134100D02*
X141663700Y-78134100D01*
X87116200Y-80523800D02*
X100675300Y-80523800D01*
X121218301Y-76577289D02*
X138040687Y-76577289D01*
X53708600Y-98187000D02*
X58786900Y-93108700D01*
X24423000Y-98187000D02*
X53708600Y-98187000D01*
X58786900Y-93108700D02*
X80408700Y-93108700D01*
X22750400Y-99859600D02*
X24423000Y-98187000D01*
X22750400Y-100814800D02*
X22750400Y-99859600D01*
X23408000Y-101472400D02*
X22750400Y-100814800D01*
X80408700Y-93108700D02*
X81534000Y-94234000D01*
X27813600Y-101472400D02*
X23408000Y-101472400D01*
X28956000Y-100330000D02*
X27813600Y-101472400D01*
%TO.N,/B7*%
X164084000Y-56896000D02*
X162958700Y-56896000D01*
X162958700Y-56896000D02*
X162492200Y-56429500D01*
X162492200Y-56429500D02*
X161523800Y-56429500D01*
X161523800Y-56429500D02*
X160499400Y-55405100D01*
X160499400Y-55405100D02*
X154005200Y-55405100D01*
X154005200Y-55405100D02*
X151358200Y-52758100D01*
X151358200Y-52758100D02*
X151358200Y-50825800D01*
X151358200Y-50825800D02*
X152400000Y-49784000D01*
X139003000Y-79502000D02*
X140098700Y-79502000D01*
X78740000Y-46736000D02*
X79865300Y-46736000D01*
X79865300Y-46736000D02*
X83786400Y-42814900D01*
X83786400Y-42814900D02*
X101277600Y-42814900D01*
X101277600Y-42814900D02*
X103089200Y-41003300D01*
X103089200Y-41003300D02*
X106062700Y-41003300D01*
X106062700Y-41003300D02*
X107188000Y-39878000D01*
X151892000Y-86106000D02*
X150766700Y-86106000D01*
X145217300Y-84299100D02*
X148959800Y-84299100D01*
X148959800Y-84299100D02*
X150766700Y-86106000D01*
X171450000Y-115062000D02*
X170324600Y-116187400D01*
X170324600Y-116187400D02*
X156353500Y-116187400D01*
X156353500Y-116187400D02*
X150206600Y-110040500D01*
X150206600Y-110040500D02*
X135364900Y-110040500D01*
X163830000Y-86106000D02*
X162704700Y-86106000D01*
X151892000Y-86106000D02*
X153017300Y-86106000D01*
X153017300Y-86106000D02*
X154142600Y-84980700D01*
X154142600Y-84980700D02*
X161579400Y-84980700D01*
X161579400Y-84980700D02*
X162704700Y-86106000D01*
X141224000Y-79502000D02*
X140098700Y-79502000D01*
X25568600Y-98637400D02*
X23876000Y-100330000D01*
X73981600Y-95758000D02*
X58481200Y-95758000D01*
X55601800Y-98637400D02*
X25568600Y-98637400D01*
X58481200Y-95758000D02*
X55601800Y-98637400D01*
X122936000Y-78994000D02*
X123698000Y-78994000D01*
X136872390Y-77371390D02*
X136938500Y-77437500D01*
X125320610Y-77371390D02*
X136872390Y-77371390D01*
X123698000Y-78994000D02*
X125320610Y-77371390D01*
X136938500Y-77437500D02*
X139003000Y-79502000D01*
X136872100Y-77371100D02*
X136938500Y-77437500D01*
X75534701Y-95153299D02*
X76454000Y-94234000D01*
X74586301Y-95153299D02*
X75534701Y-95153299D01*
X73981600Y-95758000D02*
X74586301Y-95153299D01*
X81152500Y-83692500D02*
X80010000Y-82550000D01*
X122936000Y-78994000D02*
X122936000Y-77639698D01*
X121404701Y-77027299D02*
X121187000Y-77245000D01*
X122936000Y-77639698D02*
X122323601Y-77027299D01*
X86360000Y-82892200D02*
X85559700Y-83692500D01*
X122323601Y-77027299D02*
X121404701Y-77027299D01*
X121187000Y-77245000D02*
X104590900Y-77245000D01*
X87546500Y-80974200D02*
X86360000Y-82160700D01*
X104590900Y-77245000D02*
X101584500Y-80251400D01*
X101584500Y-80251400D02*
X101584500Y-80251500D01*
X86360000Y-82160700D02*
X86360000Y-82892200D01*
X101584500Y-80251500D02*
X100861800Y-80974200D01*
X85559700Y-83692500D02*
X81152500Y-83692500D01*
X100861800Y-80974200D02*
X87546500Y-80974200D01*
%TO.N,JumpEnable*%
X39808800Y-70034800D02*
X37846000Y-68072000D01*
X52822900Y-70485000D02*
X52372700Y-70034800D01*
X58293000Y-70485000D02*
X52822900Y-70485000D01*
X70053800Y-74835700D02*
X65012800Y-74835700D01*
X74023500Y-70866000D02*
X70053800Y-74835700D01*
X128764200Y-54120300D02*
X122307000Y-54120300D01*
X60342600Y-72534600D02*
X58293000Y-70485000D01*
X122307000Y-54120300D02*
X119126000Y-57301300D01*
X80710300Y-70866000D02*
X74023500Y-70866000D01*
X119126000Y-57301300D02*
X119126000Y-58003700D01*
X119126000Y-58003700D02*
X115298300Y-61831400D01*
X52372700Y-70034800D02*
X39808800Y-70034800D01*
X92841600Y-67879500D02*
X83696800Y-67879500D01*
X110364100Y-61831400D02*
X107605600Y-64589900D01*
X107605600Y-64589900D02*
X102974200Y-64589900D01*
X62711700Y-72534600D02*
X60342600Y-72534600D01*
X65012800Y-74835700D02*
X62711700Y-72534600D01*
X102974200Y-64589900D02*
X99382600Y-68181500D01*
X99382600Y-68181500D02*
X93143600Y-68181500D01*
X93143600Y-68181500D02*
X92841600Y-67879500D01*
X115298300Y-61831400D02*
X110364100Y-61831400D01*
X83696800Y-67879500D02*
X80710300Y-70866000D01*
%TO.N,/B1*%
X142340500Y-98446900D02*
X137482600Y-98446900D01*
X137482600Y-98446900D02*
X136652000Y-97616300D01*
X136652000Y-97616300D02*
X136652000Y-96915400D01*
X136652000Y-96915400D02*
X135889300Y-96152700D01*
X135889300Y-96152700D02*
X133971300Y-96152700D01*
X133971300Y-96152700D02*
X132842000Y-97282000D01*
X163830000Y-70866000D02*
X167853500Y-74889500D01*
X167853500Y-74889500D02*
X167853500Y-90776800D01*
X167853500Y-90776800D02*
X168833200Y-91756500D01*
X168833200Y-91756500D02*
X168833200Y-93980200D01*
X168833200Y-93980200D02*
X168166100Y-94647300D01*
X168166100Y-94647300D02*
X150187900Y-94647300D01*
X150187900Y-94647300D02*
X146388300Y-98446900D01*
X146388300Y-98446900D02*
X142340500Y-98446900D01*
X93980000Y-41656000D02*
X98246500Y-41656000D01*
X98246500Y-41656000D02*
X102485700Y-37416800D01*
X102485700Y-37416800D02*
X111876200Y-37416800D01*
X111876200Y-37416800D02*
X112842800Y-36450200D01*
X112842800Y-36450200D02*
X121070900Y-36450200D01*
X151892000Y-70866000D02*
X153017300Y-70866000D01*
X153017300Y-70866000D02*
X154153600Y-69729700D01*
X154153600Y-69729700D02*
X160465400Y-69729700D01*
X160465400Y-69729700D02*
X161601700Y-70866000D01*
X161601700Y-70866000D02*
X163830000Y-70866000D01*
X158793500Y-45267000D02*
X158793500Y-44845500D01*
X158793500Y-44845500D02*
X161983000Y-41656000D01*
X161983000Y-41656000D02*
X164084000Y-41656000D01*
X39116000Y-107950000D02*
X39116000Y-109075300D01*
X38433700Y-113030000D02*
X38433700Y-109757600D01*
X38433700Y-109757600D02*
X39116000Y-109075300D01*
X37846000Y-113030000D02*
X38433700Y-113030000D01*
X41014900Y-116198900D02*
X37846000Y-113030000D01*
X142881100Y-116198900D02*
X41014900Y-116198900D01*
X144018000Y-115062000D02*
X142881100Y-116198900D01*
X19702700Y-79357300D02*
X20828000Y-78232000D01*
X19702700Y-100314700D02*
X19702700Y-79357300D01*
X21310700Y-101922700D02*
X19702700Y-100314700D01*
X37523300Y-101922700D02*
X21310700Y-101922700D01*
X39116000Y-100330000D02*
X37523300Y-101922700D01*
X133205400Y-62847400D02*
X128016000Y-57658000D01*
X138684100Y-62847400D02*
X133205400Y-62847400D01*
X140098700Y-64262000D02*
X138684100Y-62847400D01*
X141224000Y-64262000D02*
X140098700Y-64262000D01*
%TO.N,/B3*%
X123568800Y-99614900D02*
X123679700Y-99504000D01*
X123679700Y-99504000D02*
X153733700Y-99504000D01*
X153733700Y-99504000D02*
X154307100Y-100077400D01*
X21953300Y-54356000D02*
X23078600Y-55481300D01*
X23078600Y-55481300D02*
X29084900Y-55481300D01*
X29084900Y-55481300D02*
X31397600Y-53168600D01*
X31397600Y-53168600D02*
X44944400Y-53168600D01*
X44944400Y-53168600D02*
X46228000Y-51885000D01*
X46228000Y-51885000D02*
X46228000Y-51202400D01*
X46228000Y-51202400D02*
X49880700Y-47549700D01*
X49880700Y-47549700D02*
X60730200Y-47549700D01*
X60730200Y-47549700D02*
X67023900Y-41256000D01*
X67023900Y-41256000D02*
X70993600Y-41256000D01*
X70993600Y-41256000D02*
X74532900Y-37716700D01*
X74532900Y-37716700D02*
X76474000Y-37716700D01*
X76474000Y-37716700D02*
X77614700Y-36576000D01*
X155796000Y-74820700D02*
X160942500Y-74820700D01*
X160942500Y-74820700D02*
X162067800Y-75946000D01*
X162067800Y-75946000D02*
X162704700Y-75946000D01*
X153017300Y-75946000D02*
X154142600Y-74820700D01*
X154142600Y-74820700D02*
X155796000Y-74820700D01*
X155796000Y-74820700D02*
X155796000Y-73272400D01*
X151892000Y-75946000D02*
X153017300Y-75946000D01*
X106062700Y-27967400D02*
X105218800Y-28811300D01*
X105218800Y-28811300D02*
X95572000Y-28811300D01*
X95572000Y-28811300D02*
X93027700Y-31355600D01*
X78740000Y-36576000D02*
X77614700Y-36576000D01*
X20828000Y-54356000D02*
X21953300Y-54356000D01*
X169483400Y-67073800D02*
X166780100Y-64370500D01*
X166780100Y-64370500D02*
X163150300Y-64370500D01*
X154307100Y-100077400D02*
X163174900Y-100077400D01*
X163174900Y-100077400D02*
X167704300Y-95548000D01*
X167704300Y-95548000D02*
X170927400Y-95548000D01*
X170927400Y-95548000D02*
X171816900Y-94658500D01*
X171816900Y-94658500D02*
X171816900Y-91567500D01*
X171816900Y-91567500D02*
X169483400Y-89234000D01*
X169483400Y-89234000D02*
X169483400Y-67073800D01*
X163830000Y-75946000D02*
X162704700Y-75946000D01*
X106906600Y-27967400D02*
X107188000Y-27686000D01*
X106062700Y-27967400D02*
X106906600Y-27967400D01*
X127000000Y-69342000D02*
X122936000Y-65278000D01*
X141224000Y-69342000D02*
X127000000Y-69342000D01*
X87754700Y-93093300D02*
X86614000Y-94234000D01*
X95504000Y-102247500D02*
X95504000Y-93885300D01*
X94712000Y-93093300D02*
X87754700Y-93093300D01*
X96551500Y-103295000D02*
X95504000Y-102247500D01*
X115726400Y-103295000D02*
X96551500Y-103295000D01*
X121556700Y-97464700D02*
X115726400Y-103295000D01*
X122499300Y-97464700D02*
X121556700Y-97464700D01*
X95504000Y-93885300D02*
X94712000Y-93093300D01*
X122682000Y-97282000D02*
X122499300Y-97464700D01*
%TO.N,/B6*%
X79865300Y-44196000D02*
X88453600Y-35607700D01*
X88453600Y-35607700D02*
X92649000Y-35607700D01*
X92649000Y-35607700D02*
X93931800Y-34324900D01*
X93931800Y-34324900D02*
X96292200Y-34324900D01*
X96292200Y-34324900D02*
X99484400Y-31132700D01*
X99484400Y-31132700D02*
X107758800Y-31132700D01*
X107758800Y-31132700D02*
X108602700Y-31976600D01*
X161894600Y-54795000D02*
X162519700Y-54795000D01*
X162519700Y-54795000D02*
X162958700Y-54356000D01*
X152400000Y-52324000D02*
X153631600Y-53555600D01*
X153631600Y-53555600D02*
X159217300Y-53555600D01*
X159217300Y-53555600D02*
X159600400Y-53938700D01*
X159600400Y-53938700D02*
X161038300Y-53938700D01*
X161038300Y-53938700D02*
X161894600Y-54795000D01*
X163830000Y-83566000D02*
X162704700Y-83566000D01*
X151892000Y-83566000D02*
X153017300Y-83566000D01*
X153017300Y-83566000D02*
X154142600Y-82440700D01*
X154142600Y-82440700D02*
X161579400Y-82440700D01*
X161579400Y-82440700D02*
X162704700Y-83566000D01*
X78740000Y-44196000D02*
X79865300Y-44196000D01*
X164084000Y-54356000D02*
X162958700Y-54356000D01*
X25153800Y-86606200D02*
X20828000Y-90932000D01*
X25153800Y-85702700D02*
X25153800Y-86606200D01*
X109446600Y-31976600D02*
X109728000Y-32258000D01*
X108602700Y-31976600D02*
X109446600Y-31976600D01*
X129258100Y-75156100D02*
X125476000Y-71374000D01*
X139418100Y-75156100D02*
X129258100Y-75156100D01*
X141224000Y-76962000D02*
X139418100Y-75156100D01*
X86640200Y-78459800D02*
X82550000Y-82550000D01*
X88173400Y-78459800D02*
X86640200Y-78459800D01*
X88733200Y-77900000D02*
X88173400Y-78459800D01*
X92435700Y-77900000D02*
X88733200Y-77900000D01*
X92997400Y-77338300D02*
X92435700Y-77900000D01*
X100709100Y-77338300D02*
X92997400Y-77338300D01*
X102378400Y-75669000D02*
X100709100Y-77338300D01*
X108450400Y-75669000D02*
X102378400Y-75669000D01*
X108859100Y-75260300D02*
X108450400Y-75669000D01*
X121589700Y-75260300D02*
X108859100Y-75260300D01*
X125476000Y-71374000D02*
X121589700Y-75260300D01*
%TO.N,MemWriteControl*%
X77614700Y-67056000D02*
X77188600Y-66629900D01*
X77188600Y-66629900D02*
X74888300Y-66629900D01*
X129540000Y-49784000D02*
X128000300Y-51323700D01*
X128000300Y-51323700D02*
X124892300Y-51323700D01*
X124892300Y-51323700D02*
X122924300Y-49355700D01*
X122924300Y-49355700D02*
X111371700Y-49355700D01*
X111371700Y-49355700D02*
X110907600Y-48891600D01*
X110907600Y-48891600D02*
X108150700Y-48891600D01*
X108150700Y-48891600D02*
X106136200Y-46877100D01*
X106136200Y-46877100D02*
X104655800Y-46877100D01*
X104655800Y-46877100D02*
X103453000Y-48079900D01*
X103453000Y-48079900D02*
X83176400Y-48079900D01*
X83176400Y-48079900D02*
X80710300Y-50546000D01*
X80710300Y-50546000D02*
X72898000Y-50546000D01*
X72898000Y-50546000D02*
X72390000Y-51054000D01*
X78740000Y-67056000D02*
X77614700Y-67056000D01*
%TO.N,/Qo5*%
X123190000Y-84233300D02*
X123807300Y-84850600D01*
X123807300Y-84850600D02*
X123807300Y-91729400D01*
X123807300Y-91729400D02*
X122682000Y-92854700D01*
X122682000Y-93980000D02*
X122682000Y-92854700D01*
X123190000Y-83058000D02*
X123190000Y-84233300D01*
X149973400Y-67931400D02*
X148844000Y-66802000D01*
X149973400Y-77430900D02*
X149973400Y-67931400D01*
X148496400Y-78087400D02*
X149316900Y-78087400D01*
X149316900Y-78087400D02*
X149973400Y-77430900D01*
X125165999Y-84233001D02*
X142350799Y-84233001D01*
X123990998Y-83058000D02*
X125165999Y-84233001D01*
X123190000Y-83058000D02*
X123990998Y-83058000D01*
X142755900Y-83827900D02*
X148496400Y-78087400D01*
X142350799Y-84233001D02*
X142755900Y-83827900D01*
%TO.N,/Qo2*%
X132435800Y-81432200D02*
X130810000Y-83058000D01*
X137824900Y-81432200D02*
X132435800Y-81432200D01*
X139561000Y-83168300D02*
X137824900Y-81432200D01*
X141736200Y-83168300D02*
X139561000Y-83168300D01*
X147718700Y-77185800D02*
X141736200Y-83168300D01*
X147718700Y-76391200D02*
X147718700Y-77185800D01*
X148562600Y-75547300D02*
X147718700Y-76391200D01*
X148844000Y-75547300D02*
X148562600Y-75547300D01*
X148844000Y-74422000D02*
X148844000Y-75547300D01*
%TO.N,/Qo1*%
X134525400Y-81882600D02*
X133350000Y-83058000D01*
X136891200Y-81882600D02*
X134525400Y-81882600D01*
X138627300Y-83618700D02*
X136891200Y-81882600D01*
X142187300Y-83618700D02*
X138627300Y-83618700D01*
X148844000Y-76962000D02*
X142187300Y-83618700D01*
%TO.N,/Qo7*%
X129992500Y-95114800D02*
X129542200Y-95565100D01*
X129542200Y-95565100D02*
X120126000Y-95565100D01*
X120126000Y-95565100D02*
X118941100Y-94380200D01*
X118941100Y-94380200D02*
X118941100Y-85064400D01*
X118941100Y-85064400D02*
X118110000Y-84233300D01*
X147718700Y-61722000D02*
X144023900Y-58027200D01*
X144023900Y-58027200D02*
X140310500Y-58027200D01*
X140310500Y-58027200D02*
X137092600Y-61245100D01*
X137092600Y-61245100D02*
X137092600Y-61648800D01*
X148844000Y-61722000D02*
X147718700Y-61722000D01*
X118110000Y-83058000D02*
X118110000Y-84233300D01*
X131716999Y-95105001D02*
X132842000Y-93980000D01*
X130192999Y-95105001D02*
X131716999Y-95105001D01*
X130183200Y-95114800D02*
X130192999Y-95105001D01*
X129992500Y-95114800D02*
X130183200Y-95114800D01*
%TO.N,/Qo6*%
X126636700Y-95105300D02*
X127762000Y-93980000D01*
X122183200Y-95105300D02*
X126636700Y-95105300D01*
X121360400Y-84943700D02*
X121360400Y-94282500D01*
X121360400Y-94282500D02*
X122183200Y-95105300D01*
X120650000Y-84233300D02*
X121360400Y-84943700D01*
X120650000Y-83058000D02*
X120650000Y-84233300D01*
X149973400Y-65391400D02*
X148844000Y-64262000D01*
X149973400Y-66872900D02*
X149973400Y-65391400D01*
X150423700Y-67323200D02*
X149973400Y-66872900D01*
X149177500Y-80772000D02*
X150423700Y-79525800D01*
X150423700Y-79525800D02*
X150423700Y-67323200D01*
X147718500Y-80772000D02*
X149177500Y-80772000D01*
X144149900Y-84340600D02*
X147718500Y-80772000D01*
X144149900Y-84790900D02*
X144149900Y-84340600D01*
X136086100Y-92854700D02*
X144149900Y-84790900D01*
X128887300Y-92854700D02*
X136086100Y-92854700D01*
X127762000Y-93980000D02*
X128887300Y-92854700D01*
%TO.N,/Qo4*%
X135584800Y-73457400D02*
X135890200Y-73152000D01*
X135890200Y-73152000D02*
X143908700Y-73152000D01*
X143908700Y-73152000D02*
X147718700Y-69342000D01*
X148844000Y-69342000D02*
X147718700Y-69342000D01*
%TO.N,/Qo3*%
X148844000Y-71882000D02*
X148844000Y-73007300D01*
X131215900Y-80934900D02*
X132752600Y-80934900D01*
X132752600Y-80934900D02*
X134366000Y-79321500D01*
X134366000Y-79321500D02*
X134366000Y-78665100D01*
X134366000Y-78665100D02*
X135209700Y-77821400D01*
X135209700Y-77821400D02*
X136515000Y-77821400D01*
X136515000Y-77821400D02*
X139367400Y-80673800D01*
X139367400Y-80673800D02*
X141647300Y-80673800D01*
X141647300Y-80673800D02*
X147718700Y-74602400D01*
X147718700Y-74602400D02*
X147718700Y-73851200D01*
X147718700Y-73851200D02*
X148562600Y-73007300D01*
X148562600Y-73007300D02*
X148844000Y-73007300D01*
X129233199Y-82094801D02*
X128270000Y-83058000D01*
X130055999Y-82094801D02*
X129233199Y-82094801D01*
X131215900Y-80934900D02*
X130055999Y-82094801D01*
%TO.N,/Qo0*%
X139472900Y-85231000D02*
X141989700Y-85231000D01*
X141989700Y-85231000D02*
X147718700Y-79502000D01*
X148844000Y-79502000D02*
X147718700Y-79502000D01*
X138347899Y-86360000D02*
X137922000Y-86360000D01*
X139472900Y-85234999D02*
X138347899Y-86360000D01*
X139472900Y-85231000D02*
X139472900Y-85234999D01*
%TO.N,Reset*%
X65278000Y-35306000D02*
X67818000Y-35306000D01*
X67818000Y-35306000D02*
X68580000Y-34544000D01*
X129540000Y-26924000D02*
X128468600Y-25852600D01*
X128468600Y-25852600D02*
X123076900Y-25852600D01*
X123076900Y-25852600D02*
X122911900Y-26017600D01*
X122911900Y-26017600D02*
X121783300Y-26017600D01*
X121783300Y-26017600D02*
X121356500Y-25590800D01*
X121356500Y-25590800D02*
X101461000Y-25590800D01*
X101461000Y-25590800D02*
X100491200Y-26560600D01*
X100491200Y-26560600D02*
X89408100Y-26560600D01*
X89408100Y-26560600D02*
X86868100Y-29100600D01*
X86868100Y-29100600D02*
X84155900Y-29100600D01*
X84155900Y-29100600D02*
X81020100Y-32236400D01*
X81020100Y-32236400D02*
X77387600Y-32236400D01*
X77387600Y-32236400D02*
X75080000Y-34544000D01*
X68580000Y-34544000D02*
X75080000Y-34544000D01*
%TO.N,Net-(D10-Pad1)*%
X93980000Y-114300000D02*
X98552000Y-114300000D01*
X89408000Y-114300000D02*
X93980000Y-114300000D01*
X84836000Y-114300000D02*
X89408000Y-114300000D01*
%TO.N,/Im7*%
X133774400Y-98889600D02*
X135382000Y-97282000D01*
X115967000Y-104345300D02*
X121422700Y-98889600D01*
X90525300Y-104345300D02*
X115967000Y-104345300D01*
X86735600Y-108135000D02*
X90525300Y-104345300D01*
X50869000Y-108135000D02*
X86735600Y-108135000D01*
X121422700Y-98889600D02*
X133774400Y-98889600D01*
X47244000Y-111760000D02*
X50869000Y-108135000D01*
%TO.N,/Im6*%
X51816000Y-111760000D02*
X49244200Y-111760000D01*
X49244200Y-111760000D02*
X47986500Y-113017700D01*
X47986500Y-113017700D02*
X46757800Y-113017700D01*
X46757800Y-113017700D02*
X45981300Y-112241200D01*
X45981300Y-112241200D02*
X45981300Y-111267900D01*
X45981300Y-111267900D02*
X50583300Y-106665900D01*
X50583300Y-106665900D02*
X69709500Y-106665900D01*
X69709500Y-106665900D02*
X71074700Y-105300700D01*
X71074700Y-105300700D02*
X87952700Y-105300700D01*
X87952700Y-105300700D02*
X89358400Y-103895000D01*
X89358400Y-103895000D02*
X115769000Y-103895000D01*
X115769000Y-103895000D02*
X121225500Y-98438500D01*
X121225500Y-98438500D02*
X129145500Y-98438500D01*
X129145500Y-98438500D02*
X130302000Y-97282000D01*
%TO.N,/Im5*%
X119597600Y-96156700D02*
X124096700Y-96156700D01*
X118872000Y-97608100D02*
X118872000Y-96882300D01*
X124096700Y-96156700D02*
X125222000Y-97282000D01*
X113710800Y-102769300D02*
X118872000Y-97608100D01*
X99542700Y-102769300D02*
X113710800Y-102769300D01*
X118872000Y-96882300D02*
X119597600Y-96156700D01*
X99337900Y-102564500D02*
X99542700Y-102769300D01*
%TO.N,/Im3*%
X119016700Y-104902000D02*
X119016700Y-105106500D01*
X119016700Y-105106500D02*
X116290300Y-107832900D01*
X116290300Y-107832900D02*
X87815000Y-107832900D01*
X87815000Y-107832900D02*
X86689600Y-108958300D01*
X86689600Y-108958300D02*
X68333700Y-108958300D01*
X68333700Y-108958300D02*
X65532000Y-111760000D01*
X120142000Y-104902000D02*
X119016700Y-104902000D01*
%TO.N,/Im2*%
X124096700Y-104902000D02*
X124096700Y-105183300D01*
X124096700Y-105183300D02*
X120546500Y-108733500D01*
X120546500Y-108733500D02*
X87551300Y-108733500D01*
X87551300Y-108733500D02*
X86875900Y-109408900D01*
X86875900Y-109408900D02*
X72455100Y-109408900D01*
X72455100Y-109408900D02*
X70104000Y-111760000D01*
X125222000Y-104902000D02*
X124096700Y-104902000D01*
%TO.N,/Im1*%
X129176700Y-104902000D02*
X129176700Y-105106100D01*
X129176700Y-105106100D02*
X125099000Y-109183800D01*
X125099000Y-109183800D02*
X87738000Y-109183800D01*
X87738000Y-109183800D02*
X86931700Y-109990100D01*
X86931700Y-109990100D02*
X76445900Y-109990100D01*
X76445900Y-109990100D02*
X74676000Y-111760000D01*
X130302000Y-104902000D02*
X129176700Y-104902000D01*
%TO.N,/Im0*%
X134256700Y-104902000D02*
X134256700Y-105089100D01*
X134256700Y-105089100D02*
X129711700Y-109634100D01*
X129711700Y-109634100D02*
X88242800Y-109634100D01*
X88242800Y-109634100D02*
X87342300Y-110534600D01*
X87342300Y-110534600D02*
X80473400Y-110534600D01*
X80473400Y-110534600D02*
X79248000Y-111760000D01*
X135382000Y-104902000D02*
X134256700Y-104902000D01*
%TO.N,/Iq7*%
X84836000Y-111760000D02*
X87072400Y-111760000D01*
X87072400Y-111760000D02*
X88748000Y-110084400D01*
X88748000Y-110084400D02*
X113460200Y-110084400D01*
X113460200Y-110084400D02*
X113743700Y-110367900D01*
%TO.N,/Iq6*%
X89408000Y-111760000D02*
X90633300Y-110534700D01*
X90633300Y-110534700D02*
X105545400Y-110534700D01*
X105545400Y-110534700D02*
X105823800Y-110813100D01*
%TO.N,MainRegReadControl*%
X70950100Y-42620100D02*
X71413400Y-42156800D01*
X71413400Y-42156800D02*
X75843800Y-42156800D01*
X75843800Y-42156800D02*
X77614600Y-40386000D01*
X77614600Y-40386000D02*
X80005300Y-40386000D01*
X80005300Y-40386000D02*
X86318900Y-34072400D01*
X86318900Y-34072400D02*
X92910400Y-34072400D01*
X92910400Y-34072400D02*
X93923900Y-33058900D01*
X93923900Y-33058900D02*
X96284400Y-33058900D01*
X96284400Y-33058900D02*
X99112900Y-30230400D01*
X99112900Y-30230400D02*
X119538000Y-30230400D01*
X119538000Y-30230400D02*
X119988300Y-30680700D01*
X119988300Y-30680700D02*
X120625200Y-30680700D01*
X120625200Y-30680700D02*
X123309900Y-33365400D01*
%TO.N,MainRegOutputControl*%
X134366000Y-107442000D02*
X128790400Y-113017600D01*
X128790400Y-113017600D02*
X50301000Y-113017600D01*
%TO.N,/rA0*%
X157480000Y-49784000D02*
X159507100Y-47756900D01*
X159507100Y-47756900D02*
X162200600Y-47756900D01*
X161518200Y-43212500D02*
X161804700Y-42926000D01*
X161804700Y-42926000D02*
X166768700Y-42926000D01*
X166768700Y-42926000D02*
X170578700Y-39116000D01*
X171704000Y-39116000D02*
X170578700Y-39116000D01*
%TO.N,/rA1*%
X171704000Y-42781300D02*
X171985400Y-42781300D01*
X171985400Y-42781300D02*
X172829300Y-43625200D01*
X172829300Y-43625200D02*
X172829300Y-47215200D01*
X172829300Y-47215200D02*
X172038500Y-48006000D01*
X172038500Y-48006000D02*
X170438700Y-48006000D01*
X170438700Y-48006000D02*
X167898700Y-50546000D01*
X167898700Y-50546000D02*
X162325600Y-50546000D01*
X162325600Y-50546000D02*
X161988000Y-50883600D01*
X161988000Y-50883600D02*
X156039600Y-50883600D01*
X156039600Y-50883600D02*
X154940000Y-49784000D01*
X171704000Y-41656000D02*
X171704000Y-42781300D01*
%TO.N,/rA2*%
X171704000Y-44196000D02*
X170578700Y-44196000D01*
X157480000Y-47244000D02*
X158055700Y-46668300D01*
X158055700Y-46668300D02*
X161616400Y-46668300D01*
X161616400Y-46668300D02*
X162963400Y-45321300D01*
X162963400Y-45321300D02*
X169453400Y-45321300D01*
X169453400Y-45321300D02*
X170578700Y-44196000D01*
%TO.N,/rA3*%
X154940000Y-47244000D02*
X156011600Y-48315600D01*
X156011600Y-48315600D02*
X157875900Y-48315600D01*
X157875900Y-48315600D02*
X158913800Y-47277700D01*
X158913800Y-47277700D02*
X161653900Y-47277700D01*
X161653900Y-47277700D02*
X161935300Y-46996300D01*
X161935300Y-46996300D02*
X162589700Y-46996300D01*
X162589700Y-46996300D02*
X163454700Y-47861300D01*
X163454700Y-47861300D02*
X169453400Y-47861300D01*
X169453400Y-47861300D02*
X170578700Y-46736000D01*
X171704000Y-46736000D02*
X170578700Y-46736000D01*
%TO.N,/rA4*%
X170578700Y-49276000D02*
X168489100Y-51365600D01*
X168489100Y-51365600D02*
X166128900Y-51365600D01*
X166128900Y-51365600D02*
X164408400Y-53086100D01*
X164408400Y-53086100D02*
X160028200Y-53086100D01*
X171704000Y-49276000D02*
X170578700Y-49276000D01*
%TO.N,/rA5*%
X170578700Y-51816000D02*
X169164300Y-53230400D01*
X169164300Y-53230400D02*
X165292800Y-53230400D01*
X171704000Y-51816000D02*
X170578700Y-51816000D01*
%TO.N,/rA6*%
X154940000Y-42164000D02*
X156443400Y-40660600D01*
X156443400Y-40660600D02*
X156443400Y-39140200D01*
X156443400Y-39140200D02*
X157229600Y-38354000D01*
X157229600Y-38354000D02*
X157678200Y-38354000D01*
X157678200Y-38354000D02*
X160581500Y-35450700D01*
X160581500Y-35450700D02*
X165964700Y-35450700D01*
%TO.N,/rA7*%
X154940000Y-39624000D02*
X152893300Y-41670700D01*
X152893300Y-41670700D02*
X152893300Y-42641000D01*
X170578700Y-56896000D02*
X169377000Y-55694300D01*
X169377000Y-55694300D02*
X161743700Y-55694300D01*
X161743700Y-55694300D02*
X160438500Y-54389100D01*
X160438500Y-54389100D02*
X157037100Y-54389100D01*
X171704000Y-56896000D02*
X170578700Y-56896000D01*
%TO.N,/rB3*%
X170304300Y-74800300D02*
X171450000Y-75946000D01*
X170304300Y-64929900D02*
X170304300Y-74800300D01*
%TO.N,/rB5*%
X173075400Y-79400600D02*
X171450000Y-81026000D01*
X173075400Y-63060700D02*
X173075400Y-79400600D01*
X172991000Y-62976300D02*
X173075400Y-63060700D01*
%TO.N,/rB6*%
X157835600Y-57107700D02*
X161895900Y-57107700D01*
X161895900Y-57107700D02*
X163038200Y-58250000D01*
%TO.N,Net-(U10-Pad13)*%
X67200700Y-68580000D02*
X65888800Y-67268100D01*
X65888800Y-67268100D02*
X59008700Y-67268100D01*
X59008700Y-67268100D02*
X53735800Y-61995200D01*
X68326000Y-68580000D02*
X67200700Y-68580000D01*
X52089200Y-61995200D02*
X50546000Y-60452000D01*
X53735800Y-61995200D02*
X52089200Y-61995200D01*
%TO.N,LOWJumpRegLoad*%
X127000000Y-44704000D02*
X126005500Y-45698500D01*
X126005500Y-45698500D02*
X116296600Y-45698500D01*
X116296600Y-45698500D02*
X115388800Y-46606300D01*
X115388800Y-46606300D02*
X109536000Y-46606300D01*
X109536000Y-46606300D02*
X106802300Y-43872600D01*
X106802300Y-43872600D02*
X97092400Y-43872600D01*
X97092400Y-43872600D02*
X95499000Y-45466000D01*
X95499000Y-45466000D02*
X81810400Y-45466000D01*
X81810400Y-45466000D02*
X79414800Y-47861600D01*
X79414800Y-47861600D02*
X73988100Y-47861600D01*
X73988100Y-47861600D02*
X71035800Y-50813900D01*
X71035800Y-50813900D02*
X71035800Y-52236900D01*
X71035800Y-52236900D02*
X68662700Y-54610000D01*
X68662700Y-54610000D02*
X60352900Y-54610000D01*
X60352900Y-54610000D02*
X57280200Y-57682700D01*
X57280200Y-57682700D02*
X47949100Y-57682700D01*
X47949100Y-57682700D02*
X47393700Y-58238100D01*
X47393700Y-58238100D02*
X43536300Y-58238100D01*
X43536300Y-58238100D02*
X41656000Y-60118400D01*
X41656000Y-60118400D02*
X41656000Y-60800900D01*
X41656000Y-60800900D02*
X40834900Y-61622000D01*
X40834900Y-61622000D02*
X36798600Y-61622000D01*
X36798600Y-61622000D02*
X36006300Y-60829700D01*
X36006300Y-60829700D02*
X30907300Y-60829700D01*
%TO.N,HIGHJumpRegLoad*%
X129540000Y-44704000D02*
X128036600Y-43200600D01*
X128036600Y-43200600D02*
X128036600Y-41680100D01*
X128036600Y-41680100D02*
X127472900Y-41116400D01*
X127472900Y-41116400D02*
X123672300Y-41116400D01*
X123672300Y-41116400D02*
X121697100Y-43091600D01*
X121697100Y-43091600D02*
X103038000Y-43091600D01*
X91913600Y-68617900D02*
X84793400Y-68617900D01*
X84793400Y-68617900D02*
X80005300Y-73406000D01*
X80005300Y-73406000D02*
X76984700Y-73406000D01*
X76984700Y-73406000D02*
X74889900Y-75500800D01*
X74889900Y-75500800D02*
X53957800Y-75500800D01*
X53957800Y-75500800D02*
X49276000Y-80182600D01*
X49276000Y-80182600D02*
X49276000Y-85193400D01*
X49276000Y-85193400D02*
X44433000Y-90036400D01*
X44433000Y-90036400D02*
X31143800Y-90036400D01*
X31143800Y-90036400D02*
X28978200Y-92202000D01*
X28978200Y-92202000D02*
X28126200Y-92202000D01*
X28126200Y-92202000D02*
X27322700Y-93005500D01*
X27322700Y-93005500D02*
X27322700Y-94042800D01*
X27322700Y-94042800D02*
X28166600Y-94886700D01*
X28166600Y-94886700D02*
X28448000Y-94886700D01*
X28448000Y-96012000D02*
X28448000Y-94886700D01*
%TO.N,/RA_L0*%
X93980000Y-46736000D02*
X95105300Y-46736000D01*
X110607100Y-49616900D02*
X111536200Y-50546000D01*
X111536200Y-50546000D02*
X113284000Y-50546000D01*
X95105300Y-46736000D02*
X97513500Y-44327800D01*
X97513500Y-44327800D02*
X106620500Y-44327800D01*
X106620500Y-44327800D02*
X109486300Y-47193600D01*
X109486300Y-47193600D02*
X109486300Y-47382200D01*
X69451300Y-55880000D02*
X69563200Y-55991900D01*
X69563200Y-55991900D02*
X76351900Y-55991900D01*
X76351900Y-55991900D02*
X76862400Y-55481400D01*
X76862400Y-55481400D02*
X90624400Y-55481400D01*
X90624400Y-55481400D02*
X91457700Y-54648100D01*
X68326000Y-55880000D02*
X69451300Y-55880000D01*
%TO.N,/RA_L1*%
X90480200Y-49646100D02*
X83445200Y-49646100D01*
X83445200Y-49646100D02*
X80005300Y-53086000D01*
X80005300Y-53086000D02*
X71327600Y-53086000D01*
X71327600Y-53086000D02*
X70993500Y-53420100D01*
X92854700Y-49276000D02*
X92484600Y-49646100D01*
X92484600Y-49646100D02*
X90480200Y-49646100D01*
X93980000Y-49276000D02*
X92854700Y-49276000D01*
X113284000Y-55626000D02*
X107609000Y-55626000D01*
X107609000Y-55626000D02*
X106459200Y-56775800D01*
X106459200Y-56775800D02*
X99943500Y-56775800D01*
%TO.N,/RA_L2*%
X92636500Y-65676800D02*
X96775400Y-65676800D01*
X96775400Y-65676800D02*
X98039700Y-64412500D01*
X98039700Y-64412500D02*
X101962200Y-64412500D01*
X101962200Y-64412500D02*
X104398700Y-61976000D01*
X104398700Y-61976000D02*
X108021200Y-61976000D01*
X108021200Y-61976000D02*
X109291200Y-60706000D01*
X109291200Y-60706000D02*
X113284000Y-60706000D01*
X88991000Y-65988900D02*
X92324400Y-65988900D01*
X92324400Y-65988900D02*
X92636500Y-65676800D01*
X69451300Y-66040000D02*
X70074600Y-65416700D01*
X70074600Y-65416700D02*
X77608700Y-65416700D01*
X77608700Y-65416700D02*
X78088100Y-65896100D01*
X78088100Y-65896100D02*
X83416000Y-65896100D01*
X83416000Y-65896100D02*
X83508800Y-65988900D01*
X83508800Y-65988900D02*
X88991000Y-65988900D01*
X68326000Y-66040000D02*
X69451300Y-66040000D01*
%TO.N,/RA_L3*%
X93980000Y-54356000D02*
X89004400Y-59331600D01*
X89004400Y-59331600D02*
X82834800Y-59331600D01*
X93980000Y-54356000D02*
X95105300Y-54356000D01*
X95105300Y-54356000D02*
X95823800Y-55074500D01*
X95823800Y-55074500D02*
X103273200Y-55074500D01*
X69451300Y-71120000D02*
X72379200Y-68192100D01*
X72379200Y-68192100D02*
X82344200Y-68192100D01*
X68326000Y-71120000D02*
X69451300Y-71120000D01*
%TO.N,/RA_L4*%
X105664000Y-65786000D02*
X104538700Y-65786000D01*
X104538700Y-65786000D02*
X104538700Y-66348600D01*
X104538700Y-66348600D02*
X97600800Y-73286500D01*
X97600800Y-73286500D02*
X93261900Y-73286500D01*
X93261900Y-73286500D02*
X89759200Y-76789200D01*
X89759200Y-76789200D02*
X88181300Y-76789200D01*
X88181300Y-76789200D02*
X87686300Y-77284200D01*
X86825990Y-90170000D02*
X87630000Y-90170000D01*
X85698390Y-91297600D02*
X86825990Y-90170000D01*
X73168300Y-91297600D02*
X85698390Y-91297600D01*
X70153300Y-88282600D02*
X73168300Y-91297600D01*
X66287400Y-88282600D02*
X70153300Y-88282600D01*
%TO.N,/RA_L5*%
X95109800Y-63242900D02*
X95829100Y-63962200D01*
X95829100Y-63962200D02*
X101282500Y-63962200D01*
X101282500Y-63962200D02*
X104538700Y-60706000D01*
X95109800Y-63242900D02*
X85786500Y-63242900D01*
X85786500Y-63242900D02*
X73519300Y-63242900D01*
X73519300Y-63242900D02*
X71847500Y-64914700D01*
X71847500Y-64914700D02*
X62956600Y-64914700D01*
X62956600Y-64914700D02*
X61831300Y-66040000D01*
X60706000Y-66040000D02*
X61831300Y-66040000D01*
X105664000Y-60706000D02*
X104538700Y-60706000D01*
X95109800Y-60565800D02*
X93980000Y-59436000D01*
X95109800Y-63242900D02*
X95109800Y-60565800D01*
%TO.N,/RA_L6*%
X104538700Y-55626000D02*
X104167700Y-55997000D01*
X104167700Y-55997000D02*
X98095900Y-55997000D01*
X98095900Y-55997000D02*
X95782300Y-58310600D01*
X95782300Y-58310600D02*
X93504600Y-58310600D01*
X73300900Y-59834700D02*
X62956600Y-59834700D01*
X62956600Y-59834700D02*
X61831300Y-60960000D01*
X60706000Y-60960000D02*
X61831300Y-60960000D01*
X105664000Y-55626000D02*
X104538700Y-55626000D01*
X74027201Y-60561001D02*
X80373001Y-60561001D01*
X73300900Y-59834700D02*
X74027201Y-60561001D01*
X81788000Y-61976000D02*
X93980000Y-61976000D01*
X80373001Y-60561001D02*
X81788000Y-61976000D01*
X92854999Y-58895999D02*
X93439999Y-58310999D01*
X92854999Y-60850999D02*
X92854999Y-58895999D01*
X92854999Y-60850999D02*
X93980000Y-61976000D01*
X86325300Y-86394700D02*
X82550000Y-90170000D01*
X100272000Y-86394700D02*
X86325300Y-86394700D01*
%TO.N,/RA_L7*%
X84175900Y-58079300D02*
X89117000Y-58079300D01*
X89117000Y-58079300D02*
X92320500Y-54875800D01*
X92320500Y-54875800D02*
X92320500Y-54366600D01*
X92320500Y-54366600D02*
X93509400Y-53177700D01*
X93509400Y-53177700D02*
X96439000Y-53177700D01*
X96439000Y-53177700D02*
X99070700Y-50546000D01*
X99070700Y-50546000D02*
X105664000Y-50546000D01*
X93980000Y-64516000D02*
X84914000Y-64516000D01*
X84914000Y-64516000D02*
X84175900Y-65254100D01*
X84175900Y-58079300D02*
X77597500Y-58079300D01*
X77597500Y-58079300D02*
X76523500Y-57005300D01*
X76523500Y-57005300D02*
X62956600Y-57005300D01*
X62956600Y-57005300D02*
X61831300Y-55880000D01*
X60706000Y-55880000D02*
X61831300Y-55880000D01*
%TO.N,RAM_LowControl*%
X102597200Y-85649700D02*
X81990300Y-85649700D01*
X104219500Y-87272000D02*
X102597200Y-85649700D01*
X81990300Y-85649700D02*
X77470000Y-90170000D01*
X105839200Y-87272000D02*
X104219500Y-87272000D01*
X107917900Y-85193300D02*
X105839200Y-87272000D01*
X111866800Y-85193300D02*
X107917900Y-85193300D01*
X112368700Y-84691400D02*
X111866800Y-85193300D01*
X113824300Y-84691400D02*
X112368700Y-84691400D01*
X117145900Y-81369800D02*
X113824300Y-84691400D01*
X129700200Y-81369800D02*
X117145900Y-81369800D01*
%TO.N,RAM_Addr_Enable*%
X98298000Y-78486000D02*
X102076100Y-78486000D01*
X102076100Y-78486000D02*
X104401300Y-76160800D01*
X104401300Y-76160800D02*
X119191300Y-76160800D01*
X119191300Y-76160800D02*
X119470600Y-75881500D01*
X119470600Y-75881500D02*
X138417900Y-75881500D01*
%TO.N,/RA_H0*%
X78740000Y-61976000D02*
X76286900Y-61976000D01*
X68580000Y-86868000D02*
X79203000Y-86868000D01*
X79203000Y-86868000D02*
X81333100Y-84737900D01*
X81333100Y-84737900D02*
X108982800Y-84737900D01*
X108982800Y-84737900D02*
X110154700Y-83566000D01*
X110154700Y-83566000D02*
X113030000Y-83566000D01*
%TO.N,/RA_H2*%
X68580000Y-97028000D02*
X73852600Y-97028000D01*
X73852600Y-97028000D02*
X75002300Y-95878300D01*
%TO.N,/RA_H3*%
X97036300Y-98860000D02*
X102668700Y-98860000D01*
X102668700Y-98860000D02*
X103751900Y-99943200D01*
X103751900Y-99943200D02*
X106073100Y-99943200D01*
X106073100Y-99943200D02*
X107210300Y-98806000D01*
X107210300Y-98806000D02*
X113030000Y-98806000D01*
X83600300Y-99781100D02*
X82610600Y-99781100D01*
X84572700Y-103895300D02*
X86614000Y-101854000D01*
X72129500Y-103895300D02*
X84572700Y-103895300D01*
X70342200Y-102108000D02*
X72129500Y-103895300D01*
X68580000Y-102108000D02*
X70342200Y-102108000D01*
X84541100Y-99781100D02*
X83600300Y-99781100D01*
X86614000Y-101854000D02*
X84541100Y-99781100D01*
%TO.N,/RA_H4*%
X104284700Y-98806000D02*
X103681500Y-98202800D01*
X103681500Y-98202800D02*
X102573700Y-98202800D01*
X102573700Y-98202800D02*
X100753500Y-96382600D01*
X100753500Y-96382600D02*
X100753500Y-95669900D01*
X105410000Y-98806000D02*
X104284700Y-98806000D01*
X82483100Y-103444900D02*
X84074000Y-101854000D01*
X71120100Y-100982700D02*
X73582300Y-103444900D01*
X63210600Y-100982700D02*
X71120100Y-100982700D01*
X62085300Y-102108000D02*
X63210600Y-100982700D01*
X73582300Y-103444900D02*
X82483100Y-103444900D01*
X60960000Y-102108000D02*
X62085300Y-102108000D01*
%TO.N,/RA_H5*%
X104284700Y-93726000D02*
X103201500Y-92642800D01*
X103201500Y-92642800D02*
X86544000Y-92642800D01*
X86544000Y-92642800D02*
X85344000Y-93842800D01*
X85344000Y-93842800D02*
X85344000Y-96022000D01*
X85344000Y-96022000D02*
X81534000Y-99832000D01*
X81534000Y-99832000D02*
X81534000Y-100728700D01*
X105410000Y-93726000D02*
X104284700Y-93726000D01*
X81534000Y-101854000D02*
X81534000Y-100728700D01*
X80971400Y-101854000D02*
X81534000Y-101854000D01*
X80398000Y-102990000D02*
X81534000Y-101854000D01*
X78504500Y-102990000D02*
X80398000Y-102990000D01*
X77724000Y-102209500D02*
X78504500Y-102990000D01*
X77724000Y-101480400D02*
X77724000Y-102209500D01*
X74396900Y-98153300D02*
X77724000Y-101480400D01*
X63210600Y-98153300D02*
X74396900Y-98153300D01*
X62085300Y-97028000D02*
X63210600Y-98153300D01*
X60960000Y-97028000D02*
X62085300Y-97028000D01*
%TO.N,/RA_H6*%
X100595300Y-87654800D02*
X103293500Y-87654800D01*
X103293500Y-87654800D02*
X104284700Y-88646000D01*
X81384400Y-92344700D02*
X72298700Y-92344700D01*
X72298700Y-92344700D02*
X70765700Y-90811700D01*
X70765700Y-90811700D02*
X67626600Y-90811700D01*
X67626600Y-90811700D02*
X66490300Y-91948000D01*
X66490300Y-91948000D02*
X60960000Y-91948000D01*
X105410000Y-88646000D02*
X104284700Y-88646000D01*
X93980000Y-89847100D02*
X96172300Y-87654800D01*
X93980000Y-90539400D02*
X93980000Y-89847100D01*
X93224000Y-91295400D02*
X93980000Y-90539400D01*
X84523401Y-93108999D02*
X86337000Y-91295400D01*
X86337000Y-91295400D02*
X93224000Y-91295400D01*
X83459301Y-93108999D02*
X84523401Y-93108999D01*
X82804000Y-93764300D02*
X83459301Y-93108999D01*
X82804000Y-96918700D02*
X82804000Y-93764300D01*
X96172300Y-87654800D02*
X100595300Y-87654800D01*
X78994000Y-100728700D02*
X82804000Y-96918700D01*
X78994000Y-101854000D02*
X78994000Y-100728700D01*
X81384400Y-92344700D02*
X82804000Y-93764300D01*
%TO.N,/RA_H7*%
X62085300Y-86868000D02*
X63210600Y-85742700D01*
X63210600Y-85742700D02*
X73130300Y-85742700D01*
X73130300Y-85742700D02*
X74607200Y-84265800D01*
X104284700Y-83566000D02*
X103584900Y-84265800D01*
X103584900Y-84265800D02*
X74607200Y-84265800D01*
X105410000Y-83566000D02*
X104284700Y-83566000D01*
X60960000Y-86868000D02*
X62085300Y-86868000D01*
%TO.N,RAM_HighControl*%
X132080000Y-49784000D02*
X130810000Y-51054000D01*
X130810000Y-51054000D02*
X130810000Y-52570600D01*
X130810000Y-52570600D02*
X129985700Y-53394900D01*
X129985700Y-53394900D02*
X121620200Y-53394900D01*
X121620200Y-53394900D02*
X120903700Y-52678400D01*
X120903700Y-52678400D02*
X118136100Y-52678400D01*
X118136100Y-52678400D02*
X113918500Y-56896000D01*
X113918500Y-56896000D02*
X110263500Y-56896000D01*
X110263500Y-56896000D02*
X107614100Y-59545400D01*
X107614100Y-59545400D02*
X102880900Y-59545400D01*
X102880900Y-59545400D02*
X99189400Y-63236900D01*
%TO.N,InsRegControl*%
X151512600Y-62460900D02*
X149503700Y-60452000D01*
X149503700Y-60452000D02*
X148349100Y-60452000D01*
X148349100Y-60452000D02*
X142533500Y-54636400D01*
%TO.N,StackCount*%
X105773300Y-32539400D02*
X106617200Y-33383300D01*
X106617200Y-33383300D02*
X115334400Y-33383300D01*
X115334400Y-33383300D02*
X116078000Y-32639700D01*
X116078000Y-32639700D02*
X116078000Y-31895900D01*
X116078000Y-31895900D02*
X116842900Y-31131000D01*
X116842900Y-31131000D02*
X120428900Y-31131000D01*
X120428900Y-31131000D02*
X121828900Y-32531000D01*
X121828900Y-32531000D02*
X121828900Y-33783800D01*
X104929400Y-32539400D02*
X104648000Y-32258000D01*
X105773300Y-32539400D02*
X104929400Y-32539400D01*
X122482800Y-55571200D02*
X120396000Y-57658000D01*
X133912800Y-55571200D02*
X122482800Y-55571200D01*
X137160000Y-52324000D02*
X133912800Y-55571200D01*
%TO.N,MemOutEnable*%
X129540000Y-52324000D02*
X123391500Y-52324000D01*
X123391500Y-52324000D02*
X120980900Y-49913400D01*
X120980900Y-49913400D02*
X117581400Y-49913400D01*
X117581400Y-49913400D02*
X115791500Y-51703300D01*
X115791500Y-51703300D02*
X109596500Y-51703300D01*
X109596500Y-51703300D02*
X107299800Y-49406600D01*
X107299800Y-49406600D02*
X95793200Y-49406600D01*
X95793200Y-49406600D02*
X94798400Y-50401400D01*
X94798400Y-50401400D02*
X83819900Y-50401400D01*
X83819900Y-50401400D02*
X79865300Y-54356000D01*
X78740000Y-54356000D02*
X79865300Y-54356000D01*
%TO.N,StackOutControl*%
X113846700Y-48006000D02*
X113284000Y-48006000D01*
X105664000Y-45466000D02*
X103062500Y-45466000D01*
X137160000Y-49784000D02*
X136106900Y-48730900D01*
X136106900Y-48730900D02*
X129112700Y-48730900D01*
X129112700Y-48730900D02*
X128488800Y-49354800D01*
X128488800Y-49354800D02*
X128488800Y-49880200D01*
X128488800Y-49880200D02*
X127498800Y-50870200D01*
X127498800Y-50870200D02*
X125075700Y-50870200D01*
X125075700Y-50870200D02*
X122211500Y-48006000D01*
X122211500Y-48006000D02*
X114409300Y-48006000D01*
X113846700Y-48006000D02*
X114409300Y-48006000D01*
X112848410Y-48441590D02*
X113284000Y-48006000D01*
X109401590Y-48441590D02*
X112848410Y-48441590D01*
X106426000Y-45466000D02*
X109401590Y-48441590D01*
X105664000Y-45466000D02*
X106426000Y-45466000D01*
%TO.N,Count*%
X39878000Y-43942000D02*
X41003300Y-43942000D01*
X127000000Y-34544000D02*
X122554300Y-30098300D01*
X122554300Y-30098300D02*
X120361100Y-30098300D01*
X120361100Y-30098300D02*
X120032700Y-29769900D01*
X120032700Y-29769900D02*
X98936500Y-29769900D01*
X98936500Y-29769900D02*
X96144500Y-32561900D01*
X96144500Y-32561900D02*
X93784000Y-32561900D01*
X93784000Y-32561900D02*
X92875600Y-33470300D01*
X92875600Y-33470300D02*
X80083500Y-33470300D01*
X80083500Y-33470300D02*
X76615600Y-36938200D01*
X76615600Y-36938200D02*
X73842700Y-36938200D01*
X73842700Y-36938200D02*
X70034100Y-40746800D01*
X70034100Y-40746800D02*
X66800800Y-40746800D01*
X66800800Y-40746800D02*
X61438800Y-46108800D01*
X61438800Y-46108800D02*
X42888800Y-46108800D01*
X42888800Y-46108800D02*
X41003300Y-44223300D01*
X41003300Y-44223300D02*
X41003300Y-43942000D01*
%TO.N,CounterOutControl*%
X60706000Y-50800000D02*
X61831300Y-50800000D01*
X61831300Y-50800000D02*
X63246000Y-52214700D01*
X63246000Y-52214700D02*
X68326000Y-52214700D01*
X68326000Y-53340000D02*
X68326000Y-52214700D01*
X129540000Y-34544000D02*
X128482700Y-35601300D01*
X128482700Y-35601300D02*
X110938000Y-35601300D01*
X110938000Y-35601300D02*
X109825300Y-36714000D01*
X109825300Y-36714000D02*
X102268400Y-36714000D01*
X102268400Y-36714000D02*
X98486500Y-40495900D01*
X98486500Y-40495900D02*
X84975400Y-40495900D01*
X84975400Y-40495900D02*
X80005300Y-45466000D01*
X80005300Y-45466000D02*
X75725700Y-45466000D01*
X75725700Y-45466000D02*
X68977000Y-52214700D01*
X68977000Y-52214700D02*
X68326000Y-52214700D01*
%TO.N,LowStackJump*%
X154940000Y-21844000D02*
X153453000Y-23331000D01*
X153453000Y-23331000D02*
X151967400Y-23331000D01*
X151967400Y-23331000D02*
X151130000Y-24168400D01*
X151130000Y-24168400D02*
X151130000Y-24638100D01*
X151130000Y-24638100D02*
X147802900Y-27965200D01*
X147802900Y-27965200D02*
X123094000Y-27965200D01*
X123094000Y-27965200D02*
X121193400Y-26064600D01*
X121193400Y-26064600D02*
X104573300Y-26064600D01*
X104573300Y-26064600D02*
X103233300Y-27404600D01*
X103233300Y-27404600D02*
X103233300Y-27686000D01*
X102108000Y-27686000D02*
X103233300Y-27686000D01*
%TO.N,StackCountDirection*%
X118473300Y-18940700D02*
X117348000Y-20066000D01*
X149496700Y-18940700D02*
X118473300Y-18940700D01*
X152400000Y-21844000D02*
X149496700Y-18940700D01*
%TO.N,HighStackJump*%
X154940000Y-24384000D02*
X150133700Y-29190300D01*
X150133700Y-29190300D02*
X136396400Y-29190300D01*
X136396400Y-29190300D02*
X129965700Y-35621000D01*
X129965700Y-35621000D02*
X129476600Y-35621000D01*
X129476600Y-35621000D02*
X128270000Y-36827600D01*
X128270000Y-36827600D02*
X128270000Y-37289900D01*
X128270000Y-37289900D02*
X127123100Y-38436800D01*
X127123100Y-38436800D02*
X123777400Y-38436800D01*
X123777400Y-38436800D02*
X120531600Y-41682600D01*
X120531600Y-41682600D02*
X116362700Y-41682600D01*
%TO.N,Net-(U10-Pad11)*%
X68326000Y-73660000D02*
X67200700Y-73660000D01*
X53215100Y-69850000D02*
X63390700Y-69850000D01*
X63390700Y-69850000D02*
X67200700Y-73660000D01*
X51437100Y-68072000D02*
X50546000Y-68072000D01*
X53215100Y-69850000D02*
X51437100Y-68072000D01*
%TO.N,Net-(U10-Pad2)*%
X59580700Y-53340000D02*
X52699200Y-53340000D01*
X52699200Y-53340000D02*
X51163400Y-51804200D01*
X51163400Y-51804200D02*
X51163300Y-51804200D01*
X51163300Y-51804200D02*
X51163300Y-51562000D01*
X60706000Y-53340000D02*
X59580700Y-53340000D01*
X50038000Y-51562000D02*
X51163300Y-51562000D01*
%TO.N,Net-(D1-Pad1)*%
X51816000Y-114300000D02*
X56388000Y-114300000D01*
X47244000Y-114300000D02*
X51816000Y-114300000D01*
%TO.N,Net-(D5-Pad1)*%
X74676000Y-114300000D02*
X79248000Y-114300000D01*
X70104000Y-114300000D02*
X74676000Y-114300000D01*
X65532000Y-114300000D02*
X70104000Y-114300000D01*
%TO.N,Net-(D13-Pad1)*%
X112268000Y-114300000D02*
X116840000Y-114300000D01*
X103124000Y-114300000D02*
X107696000Y-114300000D01*
%TO.N,Net-(R9-Pad1)*%
X47498000Y-51562000D02*
X47498000Y-52687300D01*
X47498000Y-52687300D02*
X44704000Y-55481300D01*
X44704000Y-55481300D02*
X44704000Y-56134000D01*
%TO.N,Net-(R10-Pad1)*%
X51834800Y-53501400D02*
X54467400Y-56134000D01*
X54467400Y-56134000D02*
X55626000Y-56134000D01*
X51542000Y-71354000D02*
X53086000Y-72898000D01*
X51253400Y-71354000D02*
X51542000Y-71354000D01*
%TO.N,Net-(R11-Pad1)*%
X20828000Y-73152000D02*
X21953300Y-73152000D01*
X21953300Y-73152000D02*
X23098500Y-72006800D01*
X23098500Y-72006800D02*
X31874800Y-72006800D01*
X31874800Y-72006800D02*
X33020000Y-73152000D01*
%TO.N,Net-(R12-Pad1)*%
X55626000Y-85710998D02*
X55626000Y-84836000D01*
X49420999Y-91915999D02*
X55626000Y-85710998D01*
X49420999Y-92706003D02*
X49420999Y-91915999D01*
X47112712Y-95014290D02*
X49420999Y-92706003D01*
X40875710Y-95014290D02*
X47112712Y-95014290D01*
X39878000Y-96012000D02*
X40875710Y-95014290D01*
%TO.N,Net-(R30-Pad1)*%
X168754100Y-70710100D02*
X163830000Y-65786000D01*
X168754100Y-89597000D02*
X168754100Y-70710100D01*
X171355400Y-94456700D02*
X171355400Y-92198300D01*
X170714400Y-95097700D02*
X171355400Y-94456700D01*
X171355400Y-92198300D02*
X168754100Y-89597000D01*
X164236300Y-95097700D02*
X170714400Y-95097700D01*
X162052000Y-97282000D02*
X164236300Y-95097700D01*
%TO.N,Net-(U10-Pad8)*%
X48688500Y-59082700D02*
X49276000Y-59670200D01*
X49276000Y-59670200D02*
X49276000Y-60787700D01*
X49276000Y-60787700D02*
X54858300Y-66370000D01*
X54858300Y-66370000D02*
X57370700Y-66370000D01*
X57370700Y-66370000D02*
X59580700Y-68580000D01*
X60706000Y-68580000D02*
X59580700Y-68580000D01*
%TO.N,Net-(U10-Pad17)*%
X41547200Y-69233200D02*
X40386000Y-68072000D01*
X48441500Y-69233200D02*
X41547200Y-69233200D01*
X49276200Y-68398500D02*
X48441500Y-69233200D01*
X49276200Y-67672500D02*
X49276200Y-68398500D01*
X50007900Y-66940800D02*
X49276200Y-67672500D01*
X56755200Y-66940800D02*
X50007900Y-66940800D01*
X56909900Y-67095500D02*
X56755200Y-66940800D01*
%TO.N,Net-(U10-Pad15)*%
X44599600Y-58778400D02*
X42926000Y-60452000D01*
X47715200Y-58778400D02*
X44599600Y-58778400D01*
X48165500Y-58328100D02*
X47715200Y-58778400D01*
X55152200Y-58328100D02*
X48165500Y-58328100D01*
X59198800Y-62374700D02*
X55152200Y-58328100D01*
X67200700Y-63500000D02*
X66075400Y-62374700D01*
X66075400Y-62374700D02*
X59198800Y-62374700D01*
X68326000Y-63500000D02*
X67200700Y-63500000D01*
%TO.N,Net-(R1-Pad1)*%
X22352000Y-36576000D02*
X23377300Y-36576000D01*
X38100000Y-29972000D02*
X35380700Y-32691300D01*
X35380700Y-32691300D02*
X27262000Y-32691300D01*
X27262000Y-32691300D02*
X23377300Y-36576000D01*
%TO.N,Net-(R2-Pad2)*%
X28452000Y-25132000D02*
X29577300Y-25132000D01*
X42926000Y-29972000D02*
X41800700Y-29972000D01*
X41800700Y-29972000D02*
X38086000Y-26257300D01*
X38086000Y-26257300D02*
X30702600Y-26257300D01*
X30702600Y-26257300D02*
X29577300Y-25132000D01*
%TO.N,Net-(R3-Pad2)*%
X35052000Y-39044000D02*
X41552000Y-39044000D01*
%TO.N,Net-(U4-Pad19)*%
X40132000Y-46736000D02*
X44958000Y-51562000D01*
X28448000Y-46736000D02*
X40132000Y-46736000D01*
%TO.N,Net-(U4-Pad16)*%
X41292700Y-52687300D02*
X42418000Y-51562000D01*
X29573300Y-54356000D02*
X31242000Y-52687300D01*
X31242000Y-52687300D02*
X41292700Y-52687300D01*
X28448000Y-54356000D02*
X29573300Y-54356000D01*
%TO.N,Net-(U4-Pad15)*%
X41241800Y-63847800D02*
X45466000Y-68072000D01*
X35214900Y-63847800D02*
X41241800Y-63847800D01*
%TO.N,Net-(U4-Pad14)*%
X27990300Y-63110100D02*
X45347900Y-63110100D01*
X45347900Y-63110100D02*
X48006000Y-60452000D01*
X27322700Y-62442500D02*
X27990300Y-63110100D01*
X27322700Y-60561300D02*
X27322700Y-62442500D01*
X28448000Y-59436000D02*
X27322700Y-60561300D01*
%TO.N,Net-(U4-Pad13)*%
X28448000Y-61976000D02*
X29573300Y-61976000D01*
X45466000Y-60452000D02*
X43258300Y-62659700D01*
X43258300Y-62659700D02*
X30257000Y-62659700D01*
X30257000Y-62659700D02*
X29573300Y-61976000D01*
%TO.N,Net-(U4-Pad12)*%
X40169999Y-65315999D02*
X42926000Y-68072000D01*
X29247999Y-65315999D02*
X40169999Y-65315999D01*
X28448000Y-64516000D02*
X29247999Y-65315999D01*
%TO.N,Net-(U5-Pad19)*%
X43890400Y-78942400D02*
X45466000Y-80518000D01*
X32549100Y-78942400D02*
X43890400Y-78942400D01*
X32098800Y-79392700D02*
X32549100Y-78942400D01*
X28012100Y-79392700D02*
X32098800Y-79392700D01*
X27322700Y-78703300D02*
X28012100Y-79392700D01*
X27322700Y-76817300D02*
X27322700Y-78703300D01*
X28448000Y-75692000D02*
X27322700Y-76817300D01*
%TO.N,Net-(U5-Pad18)*%
X42672000Y-78232000D02*
X48006000Y-72898000D01*
X28448000Y-78232000D02*
X42672000Y-78232000D01*
%TO.N,Net-(U5-Pad17)*%
X43636300Y-74727700D02*
X45466000Y-72898000D01*
X29283900Y-74727700D02*
X43636300Y-74727700D01*
X29111900Y-74555700D02*
X29283900Y-74727700D01*
X27983800Y-74555700D02*
X29111900Y-74555700D01*
X26844300Y-75695200D02*
X27983800Y-74555700D01*
X26844300Y-79168300D02*
X26844300Y-75695200D01*
X28448000Y-80772000D02*
X26844300Y-79168300D01*
%TO.N,Net-(U5-Pad16)*%
X41800700Y-79392700D02*
X42926000Y-80518000D01*
X32807800Y-79392700D02*
X41800700Y-79392700D01*
X28888500Y-83312000D02*
X32807800Y-79392700D01*
X28448000Y-83312000D02*
X28888500Y-83312000D01*
%TO.N,Net-(U5-Pad15)*%
X45466000Y-92456000D02*
X44340700Y-92456000D01*
X44340700Y-92456000D02*
X44340700Y-92174700D01*
X44340700Y-92174700D02*
X42927700Y-90761700D01*
X42927700Y-90761700D02*
X35443300Y-90761700D01*
%TO.N,Net-(U5-Pad14)*%
X46880600Y-83710600D02*
X48006000Y-84836000D01*
X41656000Y-85158000D02*
X41656000Y-84508300D01*
X38763100Y-88050900D02*
X41656000Y-85158000D01*
X41656000Y-84508300D02*
X42453700Y-83710600D01*
X29914400Y-88050900D02*
X38763100Y-88050900D01*
X42453700Y-83710600D02*
X46880600Y-83710600D01*
X29573300Y-88392000D02*
X29914400Y-88050900D01*
X28448000Y-88392000D02*
X29573300Y-88392000D01*
%TO.N,Net-(U5-Pad13)*%
X41793800Y-88508200D02*
X45466000Y-84836000D01*
X31997100Y-88508200D02*
X41793800Y-88508200D01*
X29573300Y-90932000D02*
X31997100Y-88508200D01*
X28448000Y-90932000D02*
X29573300Y-90932000D01*
%TO.N,Net-(U5-Pad12)*%
X29573300Y-93472000D02*
X33758800Y-93472000D01*
X33758800Y-93472000D02*
X35950800Y-91280000D01*
X35950800Y-91280000D02*
X40906000Y-91280000D01*
X40906000Y-91280000D02*
X41800700Y-92174700D01*
X41800700Y-92174700D02*
X41800700Y-92456000D01*
X28448000Y-93472000D02*
X29573300Y-93472000D01*
X42926000Y-92456000D02*
X41800700Y-92456000D01*
%TO.N,Net-(U8-Pad7)*%
X48006000Y-91330700D02*
X51960700Y-87376000D01*
X51960700Y-87376000D02*
X51960700Y-82768600D01*
X51960700Y-82768600D02*
X53086000Y-81643300D01*
X48006000Y-92456000D02*
X48006000Y-91330700D01*
X53086000Y-80518000D02*
X53086000Y-81643300D01*
%TO.N,Net-(U16-Pad2)*%
X106694300Y-38752600D02*
X110222800Y-38752600D01*
X110222800Y-38752600D02*
X110998000Y-39527800D01*
X110998000Y-39527800D02*
X110998000Y-40500400D01*
X110998000Y-40500400D02*
X111874300Y-41376700D01*
X105568900Y-39878000D02*
X104648000Y-39878000D01*
X106694300Y-38752600D02*
X105568900Y-39878000D01*
%TO.N,Net-(R18-Pad2)*%
X93305300Y-72136000D02*
X93980000Y-72136000D01*
X89406700Y-76034600D02*
X93305300Y-72136000D01*
%TO.N,Net-(U11-Pad2)*%
X50546000Y-80518000D02*
X51671300Y-80518000D01*
X51671300Y-80518000D02*
X51671300Y-80236700D01*
X51671300Y-80236700D02*
X52521100Y-79386900D01*
X52521100Y-79386900D02*
X53549500Y-79386900D01*
X53549500Y-79386900D02*
X54356000Y-80193400D01*
X54356000Y-80193400D02*
X54356000Y-80846800D01*
X54356000Y-80846800D02*
X57837200Y-84328000D01*
X57837200Y-84328000D02*
X60960000Y-84328000D01*
%TO.N,Net-(U11-Pad17)*%
X68580000Y-89408000D02*
X66187900Y-89408000D01*
X66187900Y-89408000D02*
X64917900Y-90678000D01*
X64917900Y-90678000D02*
X59070500Y-90678000D01*
X59070500Y-90678000D02*
X52155400Y-97593100D01*
X52155400Y-97593100D02*
X45127900Y-97593100D01*
X45127900Y-97593100D02*
X44682500Y-97147700D01*
X44682500Y-97147700D02*
X44682500Y-95883500D01*
X44682500Y-95883500D02*
X44263300Y-95464300D01*
X44263300Y-95464300D02*
X42251300Y-95464300D01*
X42251300Y-95464300D02*
X40578200Y-97137400D01*
X40578200Y-97137400D02*
X39364000Y-97137400D01*
X39364000Y-97137400D02*
X38711800Y-96485200D01*
X38711800Y-96485200D02*
X38711800Y-95255500D01*
X38711800Y-95255500D02*
X40386000Y-93581300D01*
X40386000Y-92456000D02*
X40386000Y-93581300D01*
%TO.N,Net-(U15-Pad7)*%
X112268000Y-39878000D02*
X112658600Y-40268600D01*
X112658600Y-40268600D02*
X112658600Y-41558500D01*
X112658600Y-41558500D02*
X113075200Y-41975100D01*
X113075200Y-41975100D02*
X114318400Y-41975100D01*
X114318400Y-41975100D02*
X116078000Y-40215500D01*
X116078000Y-40215500D02*
X116078000Y-39510500D01*
X116078000Y-39510500D02*
X118242000Y-37346500D01*
X118242000Y-37346500D02*
X118517900Y-37346500D01*
%TO.N,Net-(U16-Pad14)*%
X113383900Y-41246800D02*
X113454700Y-41176000D01*
X113454700Y-41176000D02*
X113454700Y-39444800D01*
X113454700Y-39444800D02*
X112267000Y-38257100D01*
X112267000Y-38257100D02*
X105603000Y-38257100D01*
%TO.N,Net-(U17-Pad6)*%
X105410000Y-81026000D02*
X106535300Y-81026000D01*
X121975600Y-77752300D02*
X115549700Y-77752300D01*
X115549700Y-77752300D02*
X113401300Y-79900700D01*
X113401300Y-79900700D02*
X107660600Y-79900700D01*
X107660600Y-79900700D02*
X106535300Y-81026000D01*
%TO.N,Net-(U17-Pad11)*%
X130556000Y-57658000D02*
X129422200Y-56524200D01*
X129422200Y-56524200D02*
X124991600Y-56524200D01*
X124991600Y-56524200D02*
X124206000Y-57309800D01*
X124206000Y-57309800D02*
X124206000Y-58046700D01*
X124206000Y-58046700D02*
X123469300Y-58783400D01*
X123469300Y-58783400D02*
X120923400Y-58783400D01*
X120923400Y-58783400D02*
X115190800Y-64516000D01*
X115190800Y-64516000D02*
X109559600Y-64516000D01*
X109559600Y-64516000D02*
X106925100Y-67150500D01*
%TO.N,Net-(U17-Pad2)*%
X121056700Y-69521000D02*
X119753100Y-69521000D01*
X119753100Y-69521000D02*
X118894000Y-68661900D01*
X118894000Y-68661900D02*
X118894000Y-67417100D01*
X118894000Y-67417100D02*
X118472800Y-66995900D01*
X118472800Y-66995900D02*
X117306500Y-66995900D01*
X117306500Y-66995900D02*
X113057000Y-71245400D01*
X113057000Y-71245400D02*
X110515900Y-71245400D01*
X110515900Y-71245400D02*
X109067600Y-72693700D01*
X109067600Y-72693700D02*
X109067600Y-73872200D01*
X109067600Y-73872200D02*
X107996200Y-74943600D01*
X107996200Y-74943600D02*
X106885600Y-74943600D01*
X108219500Y-85918600D02*
X108553100Y-86252200D01*
X108553100Y-86252200D02*
X108553100Y-93122900D01*
X108553100Y-93122900D02*
X105410000Y-96266000D01*
%TO.N,Net-(R23-Pad1)*%
X137922000Y-104902000D02*
X136796700Y-104902000D01*
X136796700Y-104902000D02*
X136796700Y-104620700D01*
X136796700Y-104620700D02*
X135928800Y-103752800D01*
X135928800Y-103752800D02*
X132359100Y-103752800D01*
X132359100Y-103752800D02*
X131572000Y-104539900D01*
X131572000Y-104539900D02*
X131572000Y-105664000D01*
X131572000Y-105664000D02*
X129794000Y-107442000D01*
%TD*%
M02*
