%TF.GenerationSoftware,KiCad,Pcbnew,(5.1.10)-1*%
%TF.CreationDate,2021-07-17T09:59:34+08:00*%
%TF.ProjectId,MAX7000CPU,4d415837-3030-4304-9350-552e6b696361,rev?*%
%TF.SameCoordinates,Original*%
%TF.FileFunction,Legend,Top*%
%TF.FilePolarity,Positive*%
%FSLAX46Y46*%
G04 Gerber Fmt 4.6, Leading zero omitted, Abs format (unit mm)*
G04 Created by KiCad (PCBNEW (5.1.10)-1) date 2021-07-17 09:59:34*
%MOMM*%
%LPD*%
G01*
G04 APERTURE LIST*
%ADD10C,0.100000*%
%ADD11C,0.150000*%
%ADD12C,0.120000*%
%ADD13C,0.200000*%
G04 APERTURE END LIST*
D10*
G36*
X157226000Y-133858000D02*
G01*
X154686000Y-133096000D01*
X159766000Y-133096000D01*
X157226000Y-133858000D01*
G37*
X157226000Y-133858000D02*
X154686000Y-133096000D01*
X159766000Y-133096000D01*
X157226000Y-133858000D01*
D11*
X87051142Y-126182380D02*
X87051142Y-125182380D01*
X87384476Y-125896666D01*
X87717809Y-125182380D01*
X87717809Y-126182380D01*
X88336857Y-126182380D02*
X88241619Y-126134761D01*
X88194000Y-126087142D01*
X88146380Y-125991904D01*
X88146380Y-125706190D01*
X88194000Y-125610952D01*
X88241619Y-125563333D01*
X88336857Y-125515714D01*
X88479714Y-125515714D01*
X88574952Y-125563333D01*
X88622571Y-125610952D01*
X88670190Y-125706190D01*
X88670190Y-125991904D01*
X88622571Y-126087142D01*
X88574952Y-126134761D01*
X88479714Y-126182380D01*
X88336857Y-126182380D01*
X89527333Y-126182380D02*
X89527333Y-125182380D01*
X89527333Y-126134761D02*
X89432095Y-126182380D01*
X89241619Y-126182380D01*
X89146380Y-126134761D01*
X89098761Y-126087142D01*
X89051142Y-125991904D01*
X89051142Y-125706190D01*
X89098761Y-125610952D01*
X89146380Y-125563333D01*
X89241619Y-125515714D01*
X89432095Y-125515714D01*
X89527333Y-125563333D01*
X90432095Y-125515714D02*
X90432095Y-126182380D01*
X90003523Y-125515714D02*
X90003523Y-126039523D01*
X90051142Y-126134761D01*
X90146380Y-126182380D01*
X90289238Y-126182380D01*
X90384476Y-126134761D01*
X90432095Y-126087142D01*
X91051142Y-126182380D02*
X90955904Y-126134761D01*
X90908285Y-126039523D01*
X90908285Y-125182380D01*
X91813047Y-126134761D02*
X91717809Y-126182380D01*
X91527333Y-126182380D01*
X91432095Y-126134761D01*
X91384476Y-126039523D01*
X91384476Y-125658571D01*
X91432095Y-125563333D01*
X91527333Y-125515714D01*
X91717809Y-125515714D01*
X91813047Y-125563333D01*
X91860666Y-125658571D01*
X91860666Y-125753809D01*
X91384476Y-125849047D01*
X93051142Y-126182380D02*
X93051142Y-125182380D01*
X93527333Y-125515714D02*
X93527333Y-126182380D01*
X93527333Y-125610952D02*
X93574952Y-125563333D01*
X93670190Y-125515714D01*
X93813047Y-125515714D01*
X93908285Y-125563333D01*
X93955904Y-125658571D01*
X93955904Y-126182380D01*
X94432095Y-125515714D02*
X94432095Y-126515714D01*
X94432095Y-125563333D02*
X94527333Y-125515714D01*
X94717809Y-125515714D01*
X94813047Y-125563333D01*
X94860666Y-125610952D01*
X94908285Y-125706190D01*
X94908285Y-125991904D01*
X94860666Y-126087142D01*
X94813047Y-126134761D01*
X94717809Y-126182380D01*
X94527333Y-126182380D01*
X94432095Y-126134761D01*
X95765428Y-125515714D02*
X95765428Y-126182380D01*
X95336857Y-125515714D02*
X95336857Y-126039523D01*
X95384476Y-126134761D01*
X95479714Y-126182380D01*
X95622571Y-126182380D01*
X95717809Y-126134761D01*
X95765428Y-126087142D01*
X96098761Y-125515714D02*
X96479714Y-125515714D01*
X96241619Y-125182380D02*
X96241619Y-126039523D01*
X96289238Y-126134761D01*
X96384476Y-126182380D01*
X96479714Y-126182380D01*
X129659333Y-126277619D02*
X129564095Y-126230000D01*
X129468857Y-126134761D01*
X129326000Y-125991904D01*
X129230761Y-125944285D01*
X129135523Y-125944285D01*
X129183142Y-126182380D02*
X129087904Y-126134761D01*
X128992666Y-126039523D01*
X128945047Y-125849047D01*
X128945047Y-125515714D01*
X128992666Y-125325238D01*
X129087904Y-125230000D01*
X129183142Y-125182380D01*
X129373619Y-125182380D01*
X129468857Y-125230000D01*
X129564095Y-125325238D01*
X129611714Y-125515714D01*
X129611714Y-125849047D01*
X129564095Y-126039523D01*
X129468857Y-126134761D01*
X129373619Y-126182380D01*
X129183142Y-126182380D01*
X130040285Y-126182380D02*
X130040285Y-125182380D01*
X130421238Y-125182380D01*
X130516476Y-125230000D01*
X130564095Y-125277619D01*
X130611714Y-125372857D01*
X130611714Y-125515714D01*
X130564095Y-125610952D01*
X130516476Y-125658571D01*
X130421238Y-125706190D01*
X130040285Y-125706190D01*
X131040285Y-126182380D02*
X131040285Y-125182380D01*
X132468857Y-125182380D02*
X132659333Y-125182380D01*
X132754571Y-125230000D01*
X132849809Y-125325238D01*
X132897428Y-125515714D01*
X132897428Y-125849047D01*
X132849809Y-126039523D01*
X132754571Y-126134761D01*
X132659333Y-126182380D01*
X132468857Y-126182380D01*
X132373619Y-126134761D01*
X132278380Y-126039523D01*
X132230761Y-125849047D01*
X132230761Y-125515714D01*
X132278380Y-125325238D01*
X132373619Y-125230000D01*
X132468857Y-125182380D01*
X133326000Y-125182380D02*
X133326000Y-125991904D01*
X133373619Y-126087142D01*
X133421238Y-126134761D01*
X133516476Y-126182380D01*
X133706952Y-126182380D01*
X133802190Y-126134761D01*
X133849809Y-126087142D01*
X133897428Y-125991904D01*
X133897428Y-125182380D01*
X134230761Y-125182380D02*
X134802190Y-125182380D01*
X134516476Y-126182380D02*
X134516476Y-125182380D01*
X99144761Y-45677142D02*
X99097142Y-45724761D01*
X98954285Y-45772380D01*
X98859047Y-45772380D01*
X98716190Y-45724761D01*
X98620952Y-45629523D01*
X98573333Y-45534285D01*
X98525714Y-45343809D01*
X98525714Y-45200952D01*
X98573333Y-45010476D01*
X98620952Y-44915238D01*
X98716190Y-44820000D01*
X98859047Y-44772380D01*
X98954285Y-44772380D01*
X99097142Y-44820000D01*
X99144761Y-44867619D01*
X100049523Y-45772380D02*
X99573333Y-45772380D01*
X99573333Y-44772380D01*
X100382857Y-45772380D02*
X100382857Y-44772380D01*
X100954285Y-45772380D02*
X100525714Y-45200952D01*
X100954285Y-44772380D02*
X100382857Y-45343809D01*
X90694285Y-45221428D02*
X91456190Y-45221428D01*
X91075238Y-45602380D02*
X91075238Y-44840476D01*
X92408571Y-44602380D02*
X91932380Y-44602380D01*
X91884761Y-45078571D01*
X91932380Y-45030952D01*
X92027619Y-44983333D01*
X92265714Y-44983333D01*
X92360952Y-45030952D01*
X92408571Y-45078571D01*
X92456190Y-45173809D01*
X92456190Y-45411904D01*
X92408571Y-45507142D01*
X92360952Y-45554761D01*
X92265714Y-45602380D01*
X92027619Y-45602380D01*
X91932380Y-45554761D01*
X91884761Y-45507142D01*
X92741904Y-44602380D02*
X93075238Y-45602380D01*
X93408571Y-44602380D01*
X88358095Y-44800000D02*
X88262857Y-44752380D01*
X88120000Y-44752380D01*
X87977142Y-44800000D01*
X87881904Y-44895238D01*
X87834285Y-44990476D01*
X87786666Y-45180952D01*
X87786666Y-45323809D01*
X87834285Y-45514285D01*
X87881904Y-45609523D01*
X87977142Y-45704761D01*
X88120000Y-45752380D01*
X88215238Y-45752380D01*
X88358095Y-45704761D01*
X88405714Y-45657142D01*
X88405714Y-45323809D01*
X88215238Y-45323809D01*
X88834285Y-45752380D02*
X88834285Y-44752380D01*
X89405714Y-45752380D01*
X89405714Y-44752380D01*
X89881904Y-45752380D02*
X89881904Y-44752380D01*
X90120000Y-44752380D01*
X90262857Y-44800000D01*
X90358095Y-44895238D01*
X90405714Y-44990476D01*
X90453333Y-45180952D01*
X90453333Y-45323809D01*
X90405714Y-45514285D01*
X90358095Y-45609523D01*
X90262857Y-45704761D01*
X90120000Y-45752380D01*
X89881904Y-45752380D01*
X17940952Y-135682380D02*
X17940952Y-136396666D01*
X17893333Y-136539523D01*
X17798095Y-136634761D01*
X17655238Y-136682380D01*
X17560000Y-136682380D01*
X18893333Y-136682380D02*
X18417142Y-136682380D01*
X18417142Y-135682380D01*
X19798095Y-136587142D02*
X19750476Y-136634761D01*
X19607619Y-136682380D01*
X19512380Y-136682380D01*
X19369523Y-136634761D01*
X19274285Y-136539523D01*
X19226666Y-136444285D01*
X19179047Y-136253809D01*
X19179047Y-136110952D01*
X19226666Y-135920476D01*
X19274285Y-135825238D01*
X19369523Y-135730000D01*
X19512380Y-135682380D01*
X19607619Y-135682380D01*
X19750476Y-135730000D01*
X19798095Y-135777619D01*
X20512380Y-135682380D02*
X20512380Y-136396666D01*
X20464761Y-136539523D01*
X20369523Y-136634761D01*
X20226666Y-136682380D01*
X20131428Y-136682380D01*
X21464761Y-136682380D02*
X20988571Y-136682380D01*
X20988571Y-135682380D01*
X22369523Y-136587142D02*
X22321904Y-136634761D01*
X22179047Y-136682380D01*
X22083809Y-136682380D01*
X21940952Y-136634761D01*
X21845714Y-136539523D01*
X21798095Y-136444285D01*
X21750476Y-136253809D01*
X21750476Y-136110952D01*
X21798095Y-135920476D01*
X21845714Y-135825238D01*
X21940952Y-135730000D01*
X22083809Y-135682380D01*
X22179047Y-135682380D01*
X22321904Y-135730000D01*
X22369523Y-135777619D01*
X23083809Y-135682380D02*
X23083809Y-136396666D01*
X23036190Y-136539523D01*
X22940952Y-136634761D01*
X22798095Y-136682380D01*
X22702857Y-136682380D01*
X24036190Y-136682380D02*
X23560000Y-136682380D01*
X23560000Y-135682380D01*
X24940952Y-136587142D02*
X24893333Y-136634761D01*
X24750476Y-136682380D01*
X24655238Y-136682380D01*
X24512380Y-136634761D01*
X24417142Y-136539523D01*
X24369523Y-136444285D01*
X24321904Y-136253809D01*
X24321904Y-136110952D01*
X24369523Y-135920476D01*
X24417142Y-135825238D01*
X24512380Y-135730000D01*
X24655238Y-135682380D01*
X24750476Y-135682380D01*
X24893333Y-135730000D01*
X24940952Y-135777619D01*
X25655238Y-135682380D02*
X25655238Y-136396666D01*
X25607619Y-136539523D01*
X25512380Y-136634761D01*
X25369523Y-136682380D01*
X25274285Y-136682380D01*
X26607619Y-136682380D02*
X26131428Y-136682380D01*
X26131428Y-135682380D01*
X27512380Y-136587142D02*
X27464761Y-136634761D01*
X27321904Y-136682380D01*
X27226666Y-136682380D01*
X27083809Y-136634761D01*
X26988571Y-136539523D01*
X26940952Y-136444285D01*
X26893333Y-136253809D01*
X26893333Y-136110952D01*
X26940952Y-135920476D01*
X26988571Y-135825238D01*
X27083809Y-135730000D01*
X27226666Y-135682380D01*
X27321904Y-135682380D01*
X27464761Y-135730000D01*
X27512380Y-135777619D01*
D12*
%TO.C,U6*%
X46400000Y-118350000D02*
X46400000Y-116700000D01*
X46400000Y-116700000D02*
X20880000Y-116700000D01*
X20880000Y-116700000D02*
X20880000Y-122000000D01*
X20880000Y-122000000D02*
X46400000Y-122000000D01*
X46400000Y-122000000D02*
X46400000Y-120350000D01*
X46400000Y-120350000D02*
G75*
G02*
X46400000Y-118350000I0J1000000D01*
G01*
%TO.C,U8*%
X70200000Y-118350000D02*
X70200000Y-116700000D01*
X70200000Y-116700000D02*
X49760000Y-116700000D01*
X49760000Y-116700000D02*
X49760000Y-122000000D01*
X49760000Y-122000000D02*
X70200000Y-122000000D01*
X70200000Y-122000000D02*
X70200000Y-120350000D01*
X70200000Y-120350000D02*
G75*
G02*
X70200000Y-118350000I0J1000000D01*
G01*
%TO.C,U13*%
X156410000Y-124570000D02*
X158060000Y-124570000D01*
X156410000Y-99050000D02*
X156410000Y-124570000D01*
X161710000Y-99050000D02*
X156410000Y-99050000D01*
X161710000Y-124570000D02*
X161710000Y-99050000D01*
X160060000Y-124570000D02*
X161710000Y-124570000D01*
X158060000Y-124570000D02*
G75*
G02*
X160060000Y-124570000I1000000J0D01*
G01*
%TO.C,J7*%
X88240000Y-46010000D02*
X88240000Y-48670000D01*
X98460000Y-46010000D02*
X88240000Y-46010000D01*
X98460000Y-48670000D02*
X88240000Y-48670000D01*
X98460000Y-46010000D02*
X98460000Y-48670000D01*
X99730000Y-46010000D02*
X101060000Y-46010000D01*
X101060000Y-46010000D02*
X101060000Y-47340000D01*
%TO.C,C19*%
X134271248Y-59105000D02*
X134793752Y-59105000D01*
X134271248Y-60575000D02*
X134793752Y-60575000D01*
%TO.C,U17*%
X150195000Y-61970000D02*
X133070000Y-61970000D01*
X150195000Y-98190000D02*
X150195000Y-61970000D01*
X113945000Y-98190000D02*
X150195000Y-98190000D01*
X113945000Y-62970000D02*
X113945000Y-98190000D01*
X114945000Y-61970000D02*
X113945000Y-62970000D01*
X131070000Y-61970000D02*
X114945000Y-61970000D01*
%TO.C,C16*%
X108546248Y-91505000D02*
X109068752Y-91505000D01*
X108546248Y-92975000D02*
X109068752Y-92975000D01*
%TO.C,R24*%
X146710000Y-136010000D02*
X146710000Y-135680000D01*
X140170000Y-136010000D02*
X146710000Y-136010000D01*
X140170000Y-135680000D02*
X140170000Y-136010000D01*
X146710000Y-133270000D02*
X146710000Y-133600000D01*
X140170000Y-133270000D02*
X146710000Y-133270000D01*
X140170000Y-133600000D02*
X140170000Y-133270000D01*
%TO.C,R23*%
X120650000Y-133270000D02*
X120650000Y-133600000D01*
X127190000Y-133270000D02*
X120650000Y-133270000D01*
X127190000Y-133600000D02*
X127190000Y-133270000D01*
X120650000Y-136010000D02*
X120650000Y-135680000D01*
X127190000Y-136010000D02*
X120650000Y-136010000D01*
X127190000Y-135680000D02*
X127190000Y-136010000D01*
%TO.C,R22*%
X107070000Y-136000000D02*
X107070000Y-135670000D01*
X100530000Y-136000000D02*
X107070000Y-136000000D01*
X100530000Y-135670000D02*
X100530000Y-136000000D01*
X107070000Y-133260000D02*
X107070000Y-133590000D01*
X100530000Y-133260000D02*
X107070000Y-133260000D01*
X100530000Y-133590000D02*
X100530000Y-133260000D01*
%TO.C,R21*%
X84020000Y-133130000D02*
X84020000Y-133460000D01*
X90560000Y-133130000D02*
X84020000Y-133130000D01*
X90560000Y-133460000D02*
X90560000Y-133130000D01*
X84020000Y-135870000D02*
X84020000Y-135540000D01*
X90560000Y-135870000D02*
X84020000Y-135870000D01*
X90560000Y-135540000D02*
X90560000Y-135870000D01*
%TO.C,R20*%
X93450000Y-75210000D02*
X93450000Y-74880000D01*
X86910000Y-75210000D02*
X93450000Y-75210000D01*
X86910000Y-74880000D02*
X86910000Y-75210000D01*
X93450000Y-72470000D02*
X93450000Y-72800000D01*
X86910000Y-72470000D02*
X93450000Y-72470000D01*
X86910000Y-72800000D02*
X86910000Y-72470000D01*
%TO.C,R19*%
X74820000Y-127580000D02*
X74820000Y-127250000D01*
X68280000Y-127580000D02*
X74820000Y-127580000D01*
X68280000Y-127250000D02*
X68280000Y-127580000D01*
X74820000Y-124840000D02*
X74820000Y-125170000D01*
X68280000Y-124840000D02*
X74820000Y-124840000D01*
X68280000Y-125170000D02*
X68280000Y-124840000D01*
%TO.C,R18*%
X76440000Y-135420000D02*
X76440000Y-135090000D01*
X69900000Y-135420000D02*
X76440000Y-135420000D01*
X69900000Y-135090000D02*
X69900000Y-135420000D01*
X76440000Y-132680000D02*
X76440000Y-133010000D01*
X69900000Y-132680000D02*
X76440000Y-132680000D01*
X69900000Y-133010000D02*
X69900000Y-132680000D01*
%TO.C,R17*%
X144330000Y-99010000D02*
X144330000Y-99340000D01*
X150870000Y-99010000D02*
X144330000Y-99010000D01*
X150870000Y-99340000D02*
X150870000Y-99010000D01*
X144330000Y-101750000D02*
X144330000Y-101420000D01*
X150870000Y-101750000D02*
X144330000Y-101750000D01*
X150870000Y-101420000D02*
X150870000Y-101750000D01*
%TO.C,R16*%
X144620000Y-105100000D02*
X144290000Y-105100000D01*
X144620000Y-111640000D02*
X144620000Y-105100000D01*
X144290000Y-111640000D02*
X144620000Y-111640000D01*
X141880000Y-105100000D02*
X142210000Y-105100000D01*
X141880000Y-111640000D02*
X141880000Y-105100000D01*
X142210000Y-111640000D02*
X141880000Y-111640000D01*
%TO.C,R15*%
X66390000Y-135290000D02*
X66390000Y-134960000D01*
X59850000Y-135290000D02*
X66390000Y-135290000D01*
X59850000Y-134960000D02*
X59850000Y-135290000D01*
X66390000Y-132550000D02*
X66390000Y-132880000D01*
X59850000Y-132550000D02*
X66390000Y-132550000D01*
X59850000Y-132880000D02*
X59850000Y-132550000D01*
%TO.C,R14*%
X49220000Y-132560000D02*
X49220000Y-132890000D01*
X55760000Y-132560000D02*
X49220000Y-132560000D01*
X55760000Y-132890000D02*
X55760000Y-132560000D01*
X49220000Y-135300000D02*
X49220000Y-134970000D01*
X55760000Y-135300000D02*
X49220000Y-135300000D01*
X55760000Y-134970000D02*
X55760000Y-135300000D01*
%TO.C,R13*%
X148620000Y-105130000D02*
X148290000Y-105130000D01*
X148620000Y-111670000D02*
X148620000Y-105130000D01*
X148290000Y-111670000D02*
X148620000Y-111670000D01*
X145880000Y-105130000D02*
X146210000Y-105130000D01*
X145880000Y-111670000D02*
X145880000Y-105130000D01*
X146210000Y-111670000D02*
X145880000Y-111670000D01*
%TO.C,R12*%
X152480000Y-105140000D02*
X152150000Y-105140000D01*
X152480000Y-111680000D02*
X152480000Y-105140000D01*
X152150000Y-111680000D02*
X152480000Y-111680000D01*
X149740000Y-105140000D02*
X150070000Y-105140000D01*
X149740000Y-111680000D02*
X149740000Y-105140000D01*
X150070000Y-111680000D02*
X149740000Y-111680000D01*
%TO.C,R11*%
X79850000Y-87410000D02*
X79850000Y-87080000D01*
X73310000Y-87410000D02*
X79850000Y-87410000D01*
X73310000Y-87080000D02*
X73310000Y-87410000D01*
X79850000Y-84670000D02*
X79850000Y-85000000D01*
X73310000Y-84670000D02*
X79850000Y-84670000D01*
X73310000Y-85000000D02*
X73310000Y-84670000D01*
%TO.C,R10*%
X83000000Y-86920000D02*
X83330000Y-86920000D01*
X83000000Y-80380000D02*
X83000000Y-86920000D01*
X83330000Y-80380000D02*
X83000000Y-80380000D01*
X85740000Y-86920000D02*
X85410000Y-86920000D01*
X85740000Y-80380000D02*
X85740000Y-86920000D01*
X85410000Y-80380000D02*
X85740000Y-80380000D01*
%TO.C,R9*%
X90000000Y-86920000D02*
X90330000Y-86920000D01*
X90000000Y-80380000D02*
X90000000Y-86920000D01*
X90330000Y-80380000D02*
X90000000Y-80380000D01*
X92740000Y-86920000D02*
X92410000Y-86920000D01*
X92740000Y-80380000D02*
X92740000Y-86920000D01*
X92410000Y-80380000D02*
X92740000Y-80380000D01*
%TO.C,R8*%
X96290000Y-67470000D02*
X96290000Y-67800000D01*
X102830000Y-67470000D02*
X96290000Y-67470000D01*
X102830000Y-67800000D02*
X102830000Y-67470000D01*
X96290000Y-70210000D02*
X96290000Y-69880000D01*
X102830000Y-70210000D02*
X96290000Y-70210000D01*
X102830000Y-69880000D02*
X102830000Y-70210000D01*
%TO.C,R7*%
X96290000Y-60470000D02*
X96290000Y-60800000D01*
X102830000Y-60470000D02*
X96290000Y-60470000D01*
X102830000Y-60800000D02*
X102830000Y-60470000D01*
X96290000Y-63210000D02*
X96290000Y-62880000D01*
X102830000Y-63210000D02*
X96290000Y-63210000D01*
X102830000Y-62880000D02*
X102830000Y-63210000D01*
%TO.C,R6*%
X86800000Y-62320000D02*
X87130000Y-62320000D01*
X86800000Y-55780000D02*
X86800000Y-62320000D01*
X87130000Y-55780000D02*
X86800000Y-55780000D01*
X89540000Y-62320000D02*
X89210000Y-62320000D01*
X89540000Y-55780000D02*
X89540000Y-62320000D01*
X89210000Y-55780000D02*
X89540000Y-55780000D01*
%TO.C,R5*%
X71840000Y-55880000D02*
X71510000Y-55880000D01*
X71840000Y-62420000D02*
X71840000Y-55880000D01*
X71510000Y-62420000D02*
X71840000Y-62420000D01*
X69100000Y-55880000D02*
X69430000Y-55880000D01*
X69100000Y-62420000D02*
X69100000Y-55880000D01*
X69430000Y-62420000D02*
X69100000Y-62420000D01*
%TO.C,R4*%
X62000000Y-62420000D02*
X62330000Y-62420000D01*
X62000000Y-55880000D02*
X62000000Y-62420000D01*
X62330000Y-55880000D02*
X62000000Y-55880000D01*
X64740000Y-62420000D02*
X64410000Y-62420000D01*
X64740000Y-55880000D02*
X64740000Y-62420000D01*
X64410000Y-55880000D02*
X64740000Y-55880000D01*
%TO.C,R3*%
X46240000Y-55880000D02*
X45910000Y-55880000D01*
X46240000Y-62420000D02*
X46240000Y-55880000D01*
X45910000Y-62420000D02*
X46240000Y-62420000D01*
X43500000Y-55880000D02*
X43830000Y-55880000D01*
X43500000Y-62420000D02*
X43500000Y-55880000D01*
X43830000Y-62420000D02*
X43500000Y-62420000D01*
%TO.C,R2*%
X22140000Y-55780000D02*
X21810000Y-55780000D01*
X22140000Y-62320000D02*
X22140000Y-55780000D01*
X21810000Y-62320000D02*
X22140000Y-62320000D01*
X19400000Y-55780000D02*
X19730000Y-55780000D01*
X19400000Y-62320000D02*
X19400000Y-55780000D01*
X19730000Y-62320000D02*
X19400000Y-62320000D01*
%TO.C,R1*%
X36800000Y-62420000D02*
X37130000Y-62420000D01*
X36800000Y-55880000D02*
X36800000Y-62420000D01*
X37130000Y-55880000D02*
X36800000Y-55880000D01*
X39540000Y-62420000D02*
X39210000Y-62420000D01*
X39540000Y-55880000D02*
X39540000Y-62420000D01*
X39210000Y-55880000D02*
X39540000Y-55880000D01*
%TO.C,U20*%
X123200000Y-121600000D02*
X123200000Y-119950000D01*
X97680000Y-121600000D02*
X123200000Y-121600000D01*
X97680000Y-116300000D02*
X97680000Y-121600000D01*
X123200000Y-116300000D02*
X97680000Y-116300000D01*
X123200000Y-117950000D02*
X123200000Y-116300000D01*
X123200000Y-119950000D02*
G75*
G02*
X123200000Y-117950000I0J1000000D01*
G01*
%TO.C,U19*%
X152200000Y-121600000D02*
X152200000Y-119950000D01*
X126680000Y-121600000D02*
X152200000Y-121600000D01*
X126680000Y-116300000D02*
X126680000Y-121600000D01*
X152200000Y-116300000D02*
X126680000Y-116300000D01*
X152200000Y-117950000D02*
X152200000Y-116300000D01*
X152200000Y-119950000D02*
G75*
G02*
X152200000Y-117950000I0J1000000D01*
G01*
%TO.C,U16*%
X99830000Y-17510000D02*
X98180000Y-17510000D01*
X99830000Y-43030000D02*
X99830000Y-17510000D01*
X94530000Y-43030000D02*
X99830000Y-43030000D01*
X94530000Y-17510000D02*
X94530000Y-43030000D01*
X96180000Y-17510000D02*
X94530000Y-17510000D01*
X98180000Y-17510000D02*
G75*
G02*
X96180000Y-17510000I-1000000J0D01*
G01*
%TO.C,U15*%
X156530000Y-72530000D02*
X158180000Y-72530000D01*
X156530000Y-47010000D02*
X156530000Y-72530000D01*
X161830000Y-47010000D02*
X156530000Y-47010000D01*
X161830000Y-72530000D02*
X161830000Y-47010000D01*
X160180000Y-72530000D02*
X161830000Y-72530000D01*
X158180000Y-72530000D02*
G75*
G02*
X160180000Y-72530000I1000000J0D01*
G01*
%TO.C,U14*%
X156530000Y-43530000D02*
X158180000Y-43530000D01*
X156530000Y-18010000D02*
X156530000Y-43530000D01*
X161830000Y-18010000D02*
X156530000Y-18010000D01*
X161830000Y-43530000D02*
X161830000Y-18010000D01*
X160180000Y-43530000D02*
X161830000Y-43530000D01*
X158180000Y-43530000D02*
G75*
G02*
X160180000Y-43530000I1000000J0D01*
G01*
%TO.C,U12*%
X37910000Y-110570000D02*
X39560000Y-110570000D01*
X37910000Y-85050000D02*
X37910000Y-110570000D01*
X43210000Y-85050000D02*
X37910000Y-85050000D01*
X43210000Y-110570000D02*
X43210000Y-85050000D01*
X41560000Y-110570000D02*
X43210000Y-110570000D01*
X39560000Y-110570000D02*
G75*
G02*
X41560000Y-110570000I1000000J0D01*
G01*
%TO.C,U11*%
X24910000Y-110670000D02*
X26560000Y-110670000D01*
X24910000Y-85150000D02*
X24910000Y-110670000D01*
X30210000Y-85150000D02*
X24910000Y-85150000D01*
X30210000Y-110670000D02*
X30210000Y-85150000D01*
X28560000Y-110670000D02*
X30210000Y-110670000D01*
X26560000Y-110670000D02*
G75*
G02*
X28560000Y-110670000I1000000J0D01*
G01*
%TO.C,SW3 Prog Select*%
X57980000Y-71890000D02*
X57980000Y-82170000D01*
X68380000Y-71890000D02*
X57980000Y-71890000D01*
X68380000Y-82170000D02*
X68380000Y-71890000D01*
X57980000Y-82170000D02*
X68380000Y-82170000D01*
X58040000Y-74380000D02*
X58040000Y-76030000D01*
X68320000Y-74380000D02*
X58040000Y-74380000D01*
X68320000Y-79680000D02*
X68320000Y-74380000D01*
X58040000Y-79680000D02*
X68320000Y-79680000D01*
X58040000Y-78030000D02*
X58040000Y-79680000D01*
X58040000Y-76030000D02*
G75*
G02*
X58040000Y-78030000I0J-1000000D01*
G01*
%TO.C,U5*%
X150195000Y-21970000D02*
X133070000Y-21970000D01*
X150195000Y-58190000D02*
X150195000Y-21970000D01*
X113945000Y-58190000D02*
X150195000Y-58190000D01*
X113945000Y-22970000D02*
X113945000Y-58190000D01*
X114945000Y-21970000D02*
X113945000Y-22970000D01*
X131070000Y-21970000D02*
X114945000Y-21970000D01*
%TO.C,U1*%
X31830000Y-54510000D02*
X30180000Y-54510000D01*
X31830000Y-64790000D02*
X31830000Y-54510000D01*
X26530000Y-64790000D02*
X31830000Y-64790000D01*
X26530000Y-54510000D02*
X26530000Y-64790000D01*
X28180000Y-54510000D02*
X26530000Y-54510000D01*
X30180000Y-54510000D02*
G75*
G02*
X28180000Y-54510000I-1000000J0D01*
G01*
%TO.C,U2*%
X56830000Y-54510000D02*
X55180000Y-54510000D01*
X56830000Y-64790000D02*
X56830000Y-54510000D01*
X51530000Y-64790000D02*
X56830000Y-64790000D01*
X51530000Y-54510000D02*
X51530000Y-64790000D01*
X53180000Y-54510000D02*
X51530000Y-54510000D01*
X55180000Y-54510000D02*
G75*
G02*
X53180000Y-54510000I-1000000J0D01*
G01*
%TO.C,U4*%
X100220000Y-54440000D02*
X101770000Y-54440000D01*
X101770000Y-56240000D02*
X100470000Y-56240000D01*
%TO.C,U3*%
X81830000Y-54510000D02*
X80180000Y-54510000D01*
X81830000Y-64790000D02*
X81830000Y-54510000D01*
X76530000Y-64790000D02*
X81830000Y-64790000D01*
X76530000Y-54510000D02*
X76530000Y-64790000D01*
X78180000Y-54510000D02*
X76530000Y-54510000D01*
X80180000Y-54510000D02*
G75*
G02*
X78180000Y-54510000I-1000000J0D01*
G01*
%TO.C,D17*%
X148490000Y-131850000D02*
X148646000Y-131850000D01*
X146174000Y-131850000D02*
X146330000Y-131850000D01*
X148489837Y-129248870D02*
G75*
G02*
X148490000Y-131330961I-1079837J-1041130D01*
G01*
X146330163Y-129248870D02*
G75*
G03*
X146330000Y-131330961I1079837J-1041130D01*
G01*
X148488608Y-128617665D02*
G75*
G02*
X148645516Y-131850000I-1078608J-1672335D01*
G01*
X146331392Y-128617665D02*
G75*
G03*
X146174484Y-131850000I1078608J-1672335D01*
G01*
%TO.C,D16*%
X144010000Y-131850000D02*
X144166000Y-131850000D01*
X141694000Y-131850000D02*
X141850000Y-131850000D01*
X144009837Y-129248870D02*
G75*
G02*
X144010000Y-131330961I-1079837J-1041130D01*
G01*
X141850163Y-129248870D02*
G75*
G03*
X141850000Y-131330961I1079837J-1041130D01*
G01*
X144008608Y-128617665D02*
G75*
G02*
X144165516Y-131850000I-1078608J-1672335D01*
G01*
X141851392Y-128617665D02*
G75*
G03*
X141694484Y-131850000I1078608J-1672335D01*
G01*
%TO.C,D15*%
X139490000Y-131840000D02*
X139646000Y-131840000D01*
X137174000Y-131840000D02*
X137330000Y-131840000D01*
X139489837Y-129238870D02*
G75*
G02*
X139490000Y-131320961I-1079837J-1041130D01*
G01*
X137330163Y-129238870D02*
G75*
G03*
X137330000Y-131320961I1079837J-1041130D01*
G01*
X139488608Y-128607665D02*
G75*
G02*
X139645516Y-131840000I-1078608J-1672335D01*
G01*
X137331392Y-128607665D02*
G75*
G03*
X137174484Y-131840000I1078608J-1672335D01*
G01*
%TO.C,D14*%
X134960000Y-131830000D02*
X135116000Y-131830000D01*
X132644000Y-131830000D02*
X132800000Y-131830000D01*
X134959837Y-129228870D02*
G75*
G02*
X134960000Y-131310961I-1079837J-1041130D01*
G01*
X132800163Y-129228870D02*
G75*
G03*
X132800000Y-131310961I1079837J-1041130D01*
G01*
X134958608Y-128597665D02*
G75*
G02*
X135115516Y-131830000I-1078608J-1672335D01*
G01*
X132801392Y-128597665D02*
G75*
G03*
X132644484Y-131830000I1078608J-1672335D01*
G01*
%TO.C,D13*%
X130470000Y-131830000D02*
X130626000Y-131830000D01*
X128154000Y-131830000D02*
X128310000Y-131830000D01*
X130469837Y-129228870D02*
G75*
G02*
X130470000Y-131310961I-1079837J-1041130D01*
G01*
X128310163Y-129228870D02*
G75*
G03*
X128310000Y-131310961I1079837J-1041130D01*
G01*
X130468608Y-128597665D02*
G75*
G02*
X130625516Y-131830000I-1078608J-1672335D01*
G01*
X128311392Y-128597665D02*
G75*
G03*
X128154484Y-131830000I1078608J-1672335D01*
G01*
%TO.C,D12*%
X125910000Y-131830000D02*
X126066000Y-131830000D01*
X123594000Y-131830000D02*
X123750000Y-131830000D01*
X125909837Y-129228870D02*
G75*
G02*
X125910000Y-131310961I-1079837J-1041130D01*
G01*
X123750163Y-129228870D02*
G75*
G03*
X123750000Y-131310961I1079837J-1041130D01*
G01*
X125908608Y-128597665D02*
G75*
G02*
X126065516Y-131830000I-1078608J-1672335D01*
G01*
X123751392Y-128597665D02*
G75*
G03*
X123594484Y-131830000I1078608J-1672335D01*
G01*
%TO.C,D11*%
X121400000Y-131830000D02*
X121556000Y-131830000D01*
X119084000Y-131830000D02*
X119240000Y-131830000D01*
X121399837Y-129228870D02*
G75*
G02*
X121400000Y-131310961I-1079837J-1041130D01*
G01*
X119240163Y-129228870D02*
G75*
G03*
X119240000Y-131310961I1079837J-1041130D01*
G01*
X121398608Y-128597665D02*
G75*
G02*
X121555516Y-131830000I-1078608J-1672335D01*
G01*
X119241392Y-128597665D02*
G75*
G03*
X119084484Y-131830000I1078608J-1672335D01*
G01*
%TO.C,D10*%
X116880000Y-131830000D02*
X117036000Y-131830000D01*
X114564000Y-131830000D02*
X114720000Y-131830000D01*
X116879837Y-129228870D02*
G75*
G02*
X116880000Y-131310961I-1079837J-1041130D01*
G01*
X114720163Y-129228870D02*
G75*
G03*
X114720000Y-131310961I1079837J-1041130D01*
G01*
X116878608Y-128597665D02*
G75*
G02*
X117035516Y-131830000I-1078608J-1672335D01*
G01*
X114721392Y-128597665D02*
G75*
G03*
X114564484Y-131830000I1078608J-1672335D01*
G01*
%TO.C,D9*%
X110140000Y-131890000D02*
X110296000Y-131890000D01*
X107824000Y-131890000D02*
X107980000Y-131890000D01*
X110139837Y-129288870D02*
G75*
G02*
X110140000Y-131370961I-1079837J-1041130D01*
G01*
X107980163Y-129288870D02*
G75*
G03*
X107980000Y-131370961I1079837J-1041130D01*
G01*
X110138608Y-128657665D02*
G75*
G02*
X110295516Y-131890000I-1078608J-1672335D01*
G01*
X107981392Y-128657665D02*
G75*
G03*
X107824484Y-131890000I1078608J-1672335D01*
G01*
%TO.C,D8*%
X105600000Y-131890000D02*
X105756000Y-131890000D01*
X103284000Y-131890000D02*
X103440000Y-131890000D01*
X105599837Y-129288870D02*
G75*
G02*
X105600000Y-131370961I-1079837J-1041130D01*
G01*
X103440163Y-129288870D02*
G75*
G03*
X103440000Y-131370961I1079837J-1041130D01*
G01*
X105598608Y-128657665D02*
G75*
G02*
X105755516Y-131890000I-1078608J-1672335D01*
G01*
X103441392Y-128657665D02*
G75*
G03*
X103284484Y-131890000I1078608J-1672335D01*
G01*
%TO.C,D7*%
X101070000Y-131890000D02*
X101226000Y-131890000D01*
X98754000Y-131890000D02*
X98910000Y-131890000D01*
X101069837Y-129288870D02*
G75*
G02*
X101070000Y-131370961I-1079837J-1041130D01*
G01*
X98910163Y-129288870D02*
G75*
G03*
X98910000Y-131370961I1079837J-1041130D01*
G01*
X101068608Y-128657665D02*
G75*
G02*
X101225516Y-131890000I-1078608J-1672335D01*
G01*
X98911392Y-128657665D02*
G75*
G03*
X98754484Y-131890000I1078608J-1672335D01*
G01*
%TO.C,D6*%
X96570000Y-131890000D02*
X96726000Y-131890000D01*
X94254000Y-131890000D02*
X94410000Y-131890000D01*
X96569837Y-129288870D02*
G75*
G02*
X96570000Y-131370961I-1079837J-1041130D01*
G01*
X94410163Y-129288870D02*
G75*
G03*
X94410000Y-131370961I1079837J-1041130D01*
G01*
X96568608Y-128657665D02*
G75*
G02*
X96725516Y-131890000I-1078608J-1672335D01*
G01*
X94411392Y-128657665D02*
G75*
G03*
X94254484Y-131890000I1078608J-1672335D01*
G01*
%TO.C,D5*%
X92030000Y-131890000D02*
X92186000Y-131890000D01*
X89714000Y-131890000D02*
X89870000Y-131890000D01*
X92029837Y-129288870D02*
G75*
G02*
X92030000Y-131370961I-1079837J-1041130D01*
G01*
X89870163Y-129288870D02*
G75*
G03*
X89870000Y-131370961I1079837J-1041130D01*
G01*
X92028608Y-128657665D02*
G75*
G02*
X92185516Y-131890000I-1078608J-1672335D01*
G01*
X89871392Y-128657665D02*
G75*
G03*
X89714484Y-131890000I1078608J-1672335D01*
G01*
%TO.C,D4*%
X87530000Y-131890000D02*
X87686000Y-131890000D01*
X85214000Y-131890000D02*
X85370000Y-131890000D01*
X87529837Y-129288870D02*
G75*
G02*
X87530000Y-131370961I-1079837J-1041130D01*
G01*
X85370163Y-129288870D02*
G75*
G03*
X85370000Y-131370961I1079837J-1041130D01*
G01*
X87528608Y-128657665D02*
G75*
G02*
X87685516Y-131890000I-1078608J-1672335D01*
G01*
X85371392Y-128657665D02*
G75*
G03*
X85214484Y-131890000I1078608J-1672335D01*
G01*
%TO.C,D3*%
X83040000Y-131890000D02*
X83196000Y-131890000D01*
X80724000Y-131890000D02*
X80880000Y-131890000D01*
X83039837Y-129288870D02*
G75*
G02*
X83040000Y-131370961I-1079837J-1041130D01*
G01*
X80880163Y-129288870D02*
G75*
G03*
X80880000Y-131370961I1079837J-1041130D01*
G01*
X83038608Y-128657665D02*
G75*
G02*
X83195516Y-131890000I-1078608J-1672335D01*
G01*
X80881392Y-128657665D02*
G75*
G03*
X80724484Y-131890000I1078608J-1672335D01*
G01*
%TO.C,D2*%
X78470000Y-131880000D02*
X78626000Y-131880000D01*
X76154000Y-131880000D02*
X76310000Y-131880000D01*
X78469837Y-129278870D02*
G75*
G02*
X78470000Y-131360961I-1079837J-1041130D01*
G01*
X76310163Y-129278870D02*
G75*
G03*
X76310000Y-131360961I1079837J-1041130D01*
G01*
X78468608Y-128647665D02*
G75*
G02*
X78625516Y-131880000I-1078608J-1672335D01*
G01*
X76311392Y-128647665D02*
G75*
G03*
X76154484Y-131880000I1078608J-1672335D01*
G01*
%TO.C,U9*%
X111300000Y-102260000D02*
X111300000Y-96800000D01*
X111300000Y-96800000D02*
X50220000Y-96800000D01*
X50220000Y-96800000D02*
X50220000Y-109720000D01*
X50220000Y-109720000D02*
X111300000Y-109720000D01*
X111300000Y-109720000D02*
X111300000Y-104260000D01*
X111360000Y-94310000D02*
X50160000Y-94310000D01*
X50160000Y-94310000D02*
X50160000Y-112210000D01*
X50160000Y-112210000D02*
X111360000Y-112210000D01*
X111360000Y-112210000D02*
X111360000Y-94310000D01*
X111300000Y-104260000D02*
G75*
G02*
X111300000Y-102260000I0J1000000D01*
G01*
%TO.C,Y1*%
X106130000Y-79365000D02*
X99730000Y-79365000D01*
X106130000Y-74315000D02*
X99730000Y-74315000D01*
X99730000Y-74315000D02*
G75*
G03*
X99730000Y-79365000I0J-2525000D01*
G01*
X106130000Y-74315000D02*
G75*
G02*
X106130000Y-79365000I0J-2525000D01*
G01*
%TO.C,U10*%
X114540000Y-108030000D02*
X114540000Y-109680000D01*
X114540000Y-109680000D02*
X140060000Y-109680000D01*
X140060000Y-109680000D02*
X140060000Y-104380000D01*
X140060000Y-104380000D02*
X114540000Y-104380000D01*
X114540000Y-104380000D02*
X114540000Y-106030000D01*
X114540000Y-106030000D02*
G75*
G02*
X114540000Y-108030000I0J-1000000D01*
G01*
%TO.C,U7*%
X73740000Y-120430000D02*
X73740000Y-122080000D01*
X73740000Y-122080000D02*
X94180000Y-122080000D01*
X94180000Y-122080000D02*
X94180000Y-116780000D01*
X94180000Y-116780000D02*
X73740000Y-116780000D01*
X73740000Y-116780000D02*
X73740000Y-118430000D01*
X73740000Y-118430000D02*
G75*
G02*
X73740000Y-120430000I0J-1000000D01*
G01*
%TO.C,SW4 Reset*%
X74370000Y-79340000D02*
X78870000Y-79340000D01*
X73120000Y-75340000D02*
X73120000Y-76840000D01*
X78870000Y-72840000D02*
X74370000Y-72840000D01*
X80120000Y-76840000D02*
X80120000Y-75340000D01*
%TO.C,SW2 CLK Mode*%
X48370000Y-79340000D02*
X52870000Y-79340000D01*
X47120000Y-75340000D02*
X47120000Y-76840000D01*
X52870000Y-72840000D02*
X48370000Y-72840000D01*
X54120000Y-76840000D02*
X54120000Y-75340000D01*
%TO.C,SW1 Step*%
X37370000Y-79340000D02*
X41870000Y-79340000D01*
X36120000Y-75340000D02*
X36120000Y-76840000D01*
X41870000Y-72840000D02*
X37370000Y-72840000D01*
X43120000Y-76840000D02*
X43120000Y-75340000D01*
D13*
%TO.C,RV1 CLK speed*%
X21060000Y-77140000D02*
X21060000Y-72540000D01*
X21060000Y-72540000D02*
X24640000Y-72540000D01*
X24640000Y-72540000D02*
X30760000Y-72540000D01*
X30760000Y-72540000D02*
X30760000Y-77140000D01*
X30760000Y-77140000D02*
X24640000Y-77140000D01*
X24640000Y-77140000D02*
X21060000Y-77140000D01*
X24640000Y-77140000D02*
X24640000Y-72540000D01*
D12*
%TO.C,L1*%
X58850000Y-29400000D02*
X56550000Y-29400000D01*
X56550000Y-29400000D02*
X56550000Y-22000000D01*
X56550000Y-22000000D02*
X58850000Y-22000000D01*
X61650000Y-22000000D02*
X63950000Y-22000000D01*
X63950000Y-22000000D02*
X63950000Y-29400000D01*
X63950000Y-29400000D02*
X61650000Y-29400000D01*
%TO.C,J8*%
X32140000Y-18140000D02*
X32140000Y-17090000D01*
X31090000Y-17090000D02*
X32140000Y-17090000D01*
X26040000Y-26490000D02*
X17240000Y-26490000D01*
X17240000Y-26490000D02*
X17240000Y-17290000D01*
X31940000Y-23790000D02*
X31940000Y-26490000D01*
X31940000Y-26490000D02*
X30040000Y-26490000D01*
X17240000Y-17290000D02*
X31940000Y-17290000D01*
X31940000Y-17290000D02*
X31940000Y-19890000D01*
%TO.C,J6 QPI IN*%
X156100000Y-74930000D02*
X153440000Y-74930000D01*
X156100000Y-92770000D02*
X156100000Y-74930000D01*
X153440000Y-92770000D02*
X153440000Y-74930000D01*
X156100000Y-92770000D02*
X153440000Y-92770000D01*
X156100000Y-94040000D02*
X156100000Y-95370000D01*
X156100000Y-95370000D02*
X154770000Y-95370000D01*
%TO.C,J5 QPI Out*%
X161900000Y-74930000D02*
X159240000Y-74930000D01*
X161900000Y-92770000D02*
X161900000Y-74930000D01*
X159240000Y-92770000D02*
X159240000Y-74930000D01*
X161900000Y-92770000D02*
X159240000Y-92770000D01*
X161900000Y-94040000D02*
X161900000Y-95370000D01*
X161900000Y-95370000D02*
X160570000Y-95370000D01*
%TO.C,J4 Module Output*%
X70810000Y-132170000D02*
X70810000Y-129510000D01*
X52970000Y-132170000D02*
X70810000Y-132170000D01*
X52970000Y-129510000D02*
X70810000Y-129510000D01*
X52970000Y-132170000D02*
X52970000Y-129510000D01*
X51700000Y-132170000D02*
X50370000Y-132170000D01*
X50370000Y-132170000D02*
X50370000Y-130840000D01*
%TO.C,J3 Module Input*%
X23260000Y-129510000D02*
X23260000Y-132170000D01*
X41100000Y-129510000D02*
X23260000Y-129510000D01*
X41100000Y-132170000D02*
X23260000Y-132170000D01*
X41100000Y-129510000D02*
X41100000Y-132170000D01*
X42370000Y-129510000D02*
X43700000Y-129510000D01*
X43700000Y-129510000D02*
X43700000Y-130840000D01*
%TO.C,J2 Instructions*%
X47060000Y-84810000D02*
X47060000Y-87470000D01*
X64900000Y-84810000D02*
X47060000Y-84810000D01*
X64900000Y-87470000D02*
X47060000Y-87470000D01*
X64900000Y-84810000D02*
X64900000Y-87470000D01*
X66170000Y-84810000D02*
X67500000Y-84810000D01*
X67500000Y-84810000D02*
X67500000Y-86140000D01*
%TO.C,J1 JTAG*%
X163570000Y-133140000D02*
X163570000Y-127940000D01*
X153350000Y-133140000D02*
X163570000Y-133140000D01*
X150750000Y-127940000D02*
X163570000Y-127940000D01*
X153350000Y-133140000D02*
X153350000Y-130540000D01*
X153350000Y-130540000D02*
X150750000Y-130540000D01*
X150750000Y-130540000D02*
X150750000Y-127940000D01*
X152080000Y-133140000D02*
X150750000Y-133140000D01*
X150750000Y-133140000D02*
X150750000Y-131810000D01*
%TO.C,C18*%
X127631252Y-61075000D02*
X127108748Y-61075000D01*
X127631252Y-59605000D02*
X127108748Y-59605000D01*
%TO.C,C17*%
X126631252Y-20575000D02*
X126108748Y-20575000D01*
X126631252Y-19105000D02*
X126108748Y-19105000D01*
%TO.C,C15*%
X90105000Y-39578748D02*
X90105000Y-40101252D01*
X88635000Y-39578748D02*
X88635000Y-40101252D01*
%TO.C,C20*%
X134108748Y-99605000D02*
X134631252Y-99605000D01*
X134108748Y-101075000D02*
X134631252Y-101075000D01*
%TO.C,C14*%
X101593752Y-58575000D02*
X101071248Y-58575000D01*
X101593752Y-57105000D02*
X101071248Y-57105000D01*
%TO.C,C13*%
X79631252Y-50575000D02*
X79108748Y-50575000D01*
X79631252Y-49105000D02*
X79108748Y-49105000D01*
%TO.C,C12*%
X54631252Y-50575000D02*
X54108748Y-50575000D01*
X54631252Y-49105000D02*
X54108748Y-49105000D01*
%TO.C,C11*%
X29631252Y-50575000D02*
X29108748Y-50575000D01*
X29631252Y-49105000D02*
X29108748Y-49105000D01*
%TO.C,C10*%
X46280000Y-42210000D02*
G75*
G03*
X46280000Y-42210000I-5120000J0D01*
G01*
X41160000Y-37130000D02*
X41160000Y-47290000D01*
X41200000Y-37130000D02*
X41200000Y-47290000D01*
X41240000Y-37130000D02*
X41240000Y-47290000D01*
X41280000Y-37131000D02*
X41280000Y-47289000D01*
X41320000Y-37132000D02*
X41320000Y-47288000D01*
X41360000Y-37133000D02*
X41360000Y-47287000D01*
X41400000Y-37135000D02*
X41400000Y-47285000D01*
X41440000Y-37137000D02*
X41440000Y-47283000D01*
X41480000Y-37140000D02*
X41480000Y-47280000D01*
X41520000Y-37142000D02*
X41520000Y-47278000D01*
X41560000Y-37145000D02*
X41560000Y-47275000D01*
X41600000Y-37148000D02*
X41600000Y-47272000D01*
X41640000Y-37152000D02*
X41640000Y-47268000D01*
X41680000Y-37156000D02*
X41680000Y-47264000D01*
X41720000Y-37160000D02*
X41720000Y-47260000D01*
X41760000Y-37165000D02*
X41760000Y-47255000D01*
X41800000Y-37170000D02*
X41800000Y-47250000D01*
X41840000Y-37175000D02*
X41840000Y-47245000D01*
X41881000Y-37180000D02*
X41881000Y-47240000D01*
X41921000Y-37186000D02*
X41921000Y-47234000D01*
X41961000Y-37192000D02*
X41961000Y-47228000D01*
X42001000Y-37199000D02*
X42001000Y-47221000D01*
X42041000Y-37206000D02*
X42041000Y-47214000D01*
X42081000Y-37213000D02*
X42081000Y-47207000D01*
X42121000Y-37220000D02*
X42121000Y-47200000D01*
X42161000Y-37228000D02*
X42161000Y-47192000D01*
X42201000Y-37236000D02*
X42201000Y-47184000D01*
X42241000Y-37245000D02*
X42241000Y-47175000D01*
X42281000Y-37254000D02*
X42281000Y-47166000D01*
X42321000Y-37263000D02*
X42321000Y-47157000D01*
X42361000Y-37272000D02*
X42361000Y-47148000D01*
X42401000Y-37282000D02*
X42401000Y-47138000D01*
X42441000Y-37292000D02*
X42441000Y-40969000D01*
X42441000Y-43451000D02*
X42441000Y-47128000D01*
X42481000Y-37303000D02*
X42481000Y-40969000D01*
X42481000Y-43451000D02*
X42481000Y-47117000D01*
X42521000Y-37313000D02*
X42521000Y-40969000D01*
X42521000Y-43451000D02*
X42521000Y-47107000D01*
X42561000Y-37325000D02*
X42561000Y-40969000D01*
X42561000Y-43451000D02*
X42561000Y-47095000D01*
X42601000Y-37336000D02*
X42601000Y-40969000D01*
X42601000Y-43451000D02*
X42601000Y-47084000D01*
X42641000Y-37348000D02*
X42641000Y-40969000D01*
X42641000Y-43451000D02*
X42641000Y-47072000D01*
X42681000Y-37360000D02*
X42681000Y-40969000D01*
X42681000Y-43451000D02*
X42681000Y-47060000D01*
X42721000Y-37373000D02*
X42721000Y-40969000D01*
X42721000Y-43451000D02*
X42721000Y-47047000D01*
X42761000Y-37386000D02*
X42761000Y-40969000D01*
X42761000Y-43451000D02*
X42761000Y-47034000D01*
X42801000Y-37399000D02*
X42801000Y-40969000D01*
X42801000Y-43451000D02*
X42801000Y-47021000D01*
X42841000Y-37413000D02*
X42841000Y-40969000D01*
X42841000Y-43451000D02*
X42841000Y-47007000D01*
X42881000Y-37427000D02*
X42881000Y-40969000D01*
X42881000Y-43451000D02*
X42881000Y-46993000D01*
X42921000Y-37442000D02*
X42921000Y-40969000D01*
X42921000Y-43451000D02*
X42921000Y-46978000D01*
X42961000Y-37456000D02*
X42961000Y-40969000D01*
X42961000Y-43451000D02*
X42961000Y-46964000D01*
X43001000Y-37472000D02*
X43001000Y-40969000D01*
X43001000Y-43451000D02*
X43001000Y-46948000D01*
X43041000Y-37487000D02*
X43041000Y-40969000D01*
X43041000Y-43451000D02*
X43041000Y-46933000D01*
X43081000Y-37503000D02*
X43081000Y-40969000D01*
X43081000Y-43451000D02*
X43081000Y-46917000D01*
X43121000Y-37520000D02*
X43121000Y-40969000D01*
X43121000Y-43451000D02*
X43121000Y-46900000D01*
X43161000Y-37536000D02*
X43161000Y-40969000D01*
X43161000Y-43451000D02*
X43161000Y-46884000D01*
X43201000Y-37553000D02*
X43201000Y-40969000D01*
X43201000Y-43451000D02*
X43201000Y-46867000D01*
X43241000Y-37571000D02*
X43241000Y-40969000D01*
X43241000Y-43451000D02*
X43241000Y-46849000D01*
X43281000Y-37589000D02*
X43281000Y-40969000D01*
X43281000Y-43451000D02*
X43281000Y-46831000D01*
X43321000Y-37607000D02*
X43321000Y-40969000D01*
X43321000Y-43451000D02*
X43321000Y-46813000D01*
X43361000Y-37626000D02*
X43361000Y-40969000D01*
X43361000Y-43451000D02*
X43361000Y-46794000D01*
X43401000Y-37646000D02*
X43401000Y-40969000D01*
X43401000Y-43451000D02*
X43401000Y-46774000D01*
X43441000Y-37665000D02*
X43441000Y-40969000D01*
X43441000Y-43451000D02*
X43441000Y-46755000D01*
X43481000Y-37685000D02*
X43481000Y-40969000D01*
X43481000Y-43451000D02*
X43481000Y-46735000D01*
X43521000Y-37706000D02*
X43521000Y-40969000D01*
X43521000Y-43451000D02*
X43521000Y-46714000D01*
X43561000Y-37727000D02*
X43561000Y-40969000D01*
X43561000Y-43451000D02*
X43561000Y-46693000D01*
X43601000Y-37748000D02*
X43601000Y-40969000D01*
X43601000Y-43451000D02*
X43601000Y-46672000D01*
X43641000Y-37770000D02*
X43641000Y-40969000D01*
X43641000Y-43451000D02*
X43641000Y-46650000D01*
X43681000Y-37793000D02*
X43681000Y-40969000D01*
X43681000Y-43451000D02*
X43681000Y-46627000D01*
X43721000Y-37815000D02*
X43721000Y-40969000D01*
X43721000Y-43451000D02*
X43721000Y-46605000D01*
X43761000Y-37839000D02*
X43761000Y-40969000D01*
X43761000Y-43451000D02*
X43761000Y-46581000D01*
X43801000Y-37863000D02*
X43801000Y-40969000D01*
X43801000Y-43451000D02*
X43801000Y-46557000D01*
X43841000Y-37887000D02*
X43841000Y-40969000D01*
X43841000Y-43451000D02*
X43841000Y-46533000D01*
X43881000Y-37912000D02*
X43881000Y-40969000D01*
X43881000Y-43451000D02*
X43881000Y-46508000D01*
X43921000Y-37937000D02*
X43921000Y-40969000D01*
X43921000Y-43451000D02*
X43921000Y-46483000D01*
X43961000Y-37963000D02*
X43961000Y-40969000D01*
X43961000Y-43451000D02*
X43961000Y-46457000D01*
X44001000Y-37989000D02*
X44001000Y-40969000D01*
X44001000Y-43451000D02*
X44001000Y-46431000D01*
X44041000Y-38016000D02*
X44041000Y-40969000D01*
X44041000Y-43451000D02*
X44041000Y-46404000D01*
X44081000Y-38044000D02*
X44081000Y-40969000D01*
X44081000Y-43451000D02*
X44081000Y-46376000D01*
X44121000Y-38072000D02*
X44121000Y-40969000D01*
X44121000Y-43451000D02*
X44121000Y-46348000D01*
X44161000Y-38100000D02*
X44161000Y-40969000D01*
X44161000Y-43451000D02*
X44161000Y-46320000D01*
X44201000Y-38130000D02*
X44201000Y-40969000D01*
X44201000Y-43451000D02*
X44201000Y-46290000D01*
X44241000Y-38160000D02*
X44241000Y-40969000D01*
X44241000Y-43451000D02*
X44241000Y-46260000D01*
X44281000Y-38190000D02*
X44281000Y-40969000D01*
X44281000Y-43451000D02*
X44281000Y-46230000D01*
X44321000Y-38221000D02*
X44321000Y-40969000D01*
X44321000Y-43451000D02*
X44321000Y-46199000D01*
X44361000Y-38253000D02*
X44361000Y-40969000D01*
X44361000Y-43451000D02*
X44361000Y-46167000D01*
X44401000Y-38285000D02*
X44401000Y-40969000D01*
X44401000Y-43451000D02*
X44401000Y-46135000D01*
X44441000Y-38318000D02*
X44441000Y-40969000D01*
X44441000Y-43451000D02*
X44441000Y-46102000D01*
X44481000Y-38352000D02*
X44481000Y-40969000D01*
X44481000Y-43451000D02*
X44481000Y-46068000D01*
X44521000Y-38386000D02*
X44521000Y-40969000D01*
X44521000Y-43451000D02*
X44521000Y-46034000D01*
X44561000Y-38421000D02*
X44561000Y-40969000D01*
X44561000Y-43451000D02*
X44561000Y-45999000D01*
X44601000Y-38457000D02*
X44601000Y-40969000D01*
X44601000Y-43451000D02*
X44601000Y-45963000D01*
X44641000Y-38494000D02*
X44641000Y-40969000D01*
X44641000Y-43451000D02*
X44641000Y-45926000D01*
X44681000Y-38531000D02*
X44681000Y-40969000D01*
X44681000Y-43451000D02*
X44681000Y-45889000D01*
X44721000Y-38570000D02*
X44721000Y-40969000D01*
X44721000Y-43451000D02*
X44721000Y-45850000D01*
X44761000Y-38609000D02*
X44761000Y-40969000D01*
X44761000Y-43451000D02*
X44761000Y-45811000D01*
X44801000Y-38649000D02*
X44801000Y-40969000D01*
X44801000Y-43451000D02*
X44801000Y-45771000D01*
X44841000Y-38690000D02*
X44841000Y-40969000D01*
X44841000Y-43451000D02*
X44841000Y-45730000D01*
X44881000Y-38732000D02*
X44881000Y-40969000D01*
X44881000Y-43451000D02*
X44881000Y-45688000D01*
X44921000Y-38774000D02*
X44921000Y-45646000D01*
X44961000Y-38818000D02*
X44961000Y-45602000D01*
X45001000Y-38863000D02*
X45001000Y-45557000D01*
X45041000Y-38909000D02*
X45041000Y-45511000D01*
X45081000Y-38956000D02*
X45081000Y-45464000D01*
X45121000Y-39004000D02*
X45121000Y-45416000D01*
X45161000Y-39054000D02*
X45161000Y-45366000D01*
X45201000Y-39104000D02*
X45201000Y-45316000D01*
X45241000Y-39156000D02*
X45241000Y-45264000D01*
X45281000Y-39210000D02*
X45281000Y-45210000D01*
X45321000Y-39265000D02*
X45321000Y-45155000D01*
X45361000Y-39321000D02*
X45361000Y-45099000D01*
X45401000Y-39380000D02*
X45401000Y-45040000D01*
X45441000Y-39440000D02*
X45441000Y-44980000D01*
X45481000Y-39501000D02*
X45481000Y-44919000D01*
X45521000Y-39565000D02*
X45521000Y-44855000D01*
X45561000Y-39631000D02*
X45561000Y-44789000D01*
X45601000Y-39700000D02*
X45601000Y-44720000D01*
X45641000Y-39771000D02*
X45641000Y-44649000D01*
X45681000Y-39845000D02*
X45681000Y-44575000D01*
X45721000Y-39921000D02*
X45721000Y-44499000D01*
X45761000Y-40001000D02*
X45761000Y-44419000D01*
X45801000Y-40085000D02*
X45801000Y-44335000D01*
X45841000Y-40173000D02*
X45841000Y-44247000D01*
X45881000Y-40266000D02*
X45881000Y-44154000D01*
X45921000Y-40364000D02*
X45921000Y-44056000D01*
X45961000Y-40468000D02*
X45961000Y-43952000D01*
X46001000Y-40580000D02*
X46001000Y-43840000D01*
X46041000Y-40700000D02*
X46041000Y-43720000D01*
X46081000Y-40832000D02*
X46081000Y-43588000D01*
X46121000Y-40980000D02*
X46121000Y-43440000D01*
X46161000Y-41148000D02*
X46161000Y-43272000D01*
X46201000Y-41348000D02*
X46201000Y-43072000D01*
X46241000Y-41611000D02*
X46241000Y-42809000D01*
X35680354Y-39335000D02*
X36680354Y-39335000D01*
X36180354Y-38835000D02*
X36180354Y-39835000D01*
%TO.C,C9*%
X61560000Y-39630000D02*
G75*
G03*
X61560000Y-39630000I-5120000J0D01*
G01*
X61520000Y-39630000D02*
X51360000Y-39630000D01*
X61520000Y-39670000D02*
X51360000Y-39670000D01*
X61520000Y-39710000D02*
X51360000Y-39710000D01*
X61519000Y-39750000D02*
X51361000Y-39750000D01*
X61518000Y-39790000D02*
X51362000Y-39790000D01*
X61517000Y-39830000D02*
X51363000Y-39830000D01*
X61515000Y-39870000D02*
X51365000Y-39870000D01*
X61513000Y-39910000D02*
X51367000Y-39910000D01*
X61510000Y-39950000D02*
X51370000Y-39950000D01*
X61508000Y-39990000D02*
X51372000Y-39990000D01*
X61505000Y-40030000D02*
X51375000Y-40030000D01*
X61502000Y-40070000D02*
X51378000Y-40070000D01*
X61498000Y-40110000D02*
X51382000Y-40110000D01*
X61494000Y-40150000D02*
X51386000Y-40150000D01*
X61490000Y-40190000D02*
X51390000Y-40190000D01*
X61485000Y-40230000D02*
X51395000Y-40230000D01*
X61480000Y-40270000D02*
X51400000Y-40270000D01*
X61475000Y-40310000D02*
X51405000Y-40310000D01*
X61470000Y-40351000D02*
X51410000Y-40351000D01*
X61464000Y-40391000D02*
X51416000Y-40391000D01*
X61458000Y-40431000D02*
X51422000Y-40431000D01*
X61451000Y-40471000D02*
X51429000Y-40471000D01*
X61444000Y-40511000D02*
X51436000Y-40511000D01*
X61437000Y-40551000D02*
X51443000Y-40551000D01*
X61430000Y-40591000D02*
X51450000Y-40591000D01*
X61422000Y-40631000D02*
X51458000Y-40631000D01*
X61414000Y-40671000D02*
X51466000Y-40671000D01*
X61405000Y-40711000D02*
X51475000Y-40711000D01*
X61396000Y-40751000D02*
X51484000Y-40751000D01*
X61387000Y-40791000D02*
X51493000Y-40791000D01*
X61378000Y-40831000D02*
X51502000Y-40831000D01*
X61368000Y-40871000D02*
X51512000Y-40871000D01*
X61358000Y-40911000D02*
X57681000Y-40911000D01*
X55199000Y-40911000D02*
X51522000Y-40911000D01*
X61347000Y-40951000D02*
X57681000Y-40951000D01*
X55199000Y-40951000D02*
X51533000Y-40951000D01*
X61337000Y-40991000D02*
X57681000Y-40991000D01*
X55199000Y-40991000D02*
X51543000Y-40991000D01*
X61325000Y-41031000D02*
X57681000Y-41031000D01*
X55199000Y-41031000D02*
X51555000Y-41031000D01*
X61314000Y-41071000D02*
X57681000Y-41071000D01*
X55199000Y-41071000D02*
X51566000Y-41071000D01*
X61302000Y-41111000D02*
X57681000Y-41111000D01*
X55199000Y-41111000D02*
X51578000Y-41111000D01*
X61290000Y-41151000D02*
X57681000Y-41151000D01*
X55199000Y-41151000D02*
X51590000Y-41151000D01*
X61277000Y-41191000D02*
X57681000Y-41191000D01*
X55199000Y-41191000D02*
X51603000Y-41191000D01*
X61264000Y-41231000D02*
X57681000Y-41231000D01*
X55199000Y-41231000D02*
X51616000Y-41231000D01*
X61251000Y-41271000D02*
X57681000Y-41271000D01*
X55199000Y-41271000D02*
X51629000Y-41271000D01*
X61237000Y-41311000D02*
X57681000Y-41311000D01*
X55199000Y-41311000D02*
X51643000Y-41311000D01*
X61223000Y-41351000D02*
X57681000Y-41351000D01*
X55199000Y-41351000D02*
X51657000Y-41351000D01*
X61208000Y-41391000D02*
X57681000Y-41391000D01*
X55199000Y-41391000D02*
X51672000Y-41391000D01*
X61194000Y-41431000D02*
X57681000Y-41431000D01*
X55199000Y-41431000D02*
X51686000Y-41431000D01*
X61178000Y-41471000D02*
X57681000Y-41471000D01*
X55199000Y-41471000D02*
X51702000Y-41471000D01*
X61163000Y-41511000D02*
X57681000Y-41511000D01*
X55199000Y-41511000D02*
X51717000Y-41511000D01*
X61147000Y-41551000D02*
X57681000Y-41551000D01*
X55199000Y-41551000D02*
X51733000Y-41551000D01*
X61130000Y-41591000D02*
X57681000Y-41591000D01*
X55199000Y-41591000D02*
X51750000Y-41591000D01*
X61114000Y-41631000D02*
X57681000Y-41631000D01*
X55199000Y-41631000D02*
X51766000Y-41631000D01*
X61097000Y-41671000D02*
X57681000Y-41671000D01*
X55199000Y-41671000D02*
X51783000Y-41671000D01*
X61079000Y-41711000D02*
X57681000Y-41711000D01*
X55199000Y-41711000D02*
X51801000Y-41711000D01*
X61061000Y-41751000D02*
X57681000Y-41751000D01*
X55199000Y-41751000D02*
X51819000Y-41751000D01*
X61043000Y-41791000D02*
X57681000Y-41791000D01*
X55199000Y-41791000D02*
X51837000Y-41791000D01*
X61024000Y-41831000D02*
X57681000Y-41831000D01*
X55199000Y-41831000D02*
X51856000Y-41831000D01*
X61004000Y-41871000D02*
X57681000Y-41871000D01*
X55199000Y-41871000D02*
X51876000Y-41871000D01*
X60985000Y-41911000D02*
X57681000Y-41911000D01*
X55199000Y-41911000D02*
X51895000Y-41911000D01*
X60965000Y-41951000D02*
X57681000Y-41951000D01*
X55199000Y-41951000D02*
X51915000Y-41951000D01*
X60944000Y-41991000D02*
X57681000Y-41991000D01*
X55199000Y-41991000D02*
X51936000Y-41991000D01*
X60923000Y-42031000D02*
X57681000Y-42031000D01*
X55199000Y-42031000D02*
X51957000Y-42031000D01*
X60902000Y-42071000D02*
X57681000Y-42071000D01*
X55199000Y-42071000D02*
X51978000Y-42071000D01*
X60880000Y-42111000D02*
X57681000Y-42111000D01*
X55199000Y-42111000D02*
X52000000Y-42111000D01*
X60857000Y-42151000D02*
X57681000Y-42151000D01*
X55199000Y-42151000D02*
X52023000Y-42151000D01*
X60835000Y-42191000D02*
X57681000Y-42191000D01*
X55199000Y-42191000D02*
X52045000Y-42191000D01*
X60811000Y-42231000D02*
X57681000Y-42231000D01*
X55199000Y-42231000D02*
X52069000Y-42231000D01*
X60787000Y-42271000D02*
X57681000Y-42271000D01*
X55199000Y-42271000D02*
X52093000Y-42271000D01*
X60763000Y-42311000D02*
X57681000Y-42311000D01*
X55199000Y-42311000D02*
X52117000Y-42311000D01*
X60738000Y-42351000D02*
X57681000Y-42351000D01*
X55199000Y-42351000D02*
X52142000Y-42351000D01*
X60713000Y-42391000D02*
X57681000Y-42391000D01*
X55199000Y-42391000D02*
X52167000Y-42391000D01*
X60687000Y-42431000D02*
X57681000Y-42431000D01*
X55199000Y-42431000D02*
X52193000Y-42431000D01*
X60661000Y-42471000D02*
X57681000Y-42471000D01*
X55199000Y-42471000D02*
X52219000Y-42471000D01*
X60634000Y-42511000D02*
X57681000Y-42511000D01*
X55199000Y-42511000D02*
X52246000Y-42511000D01*
X60606000Y-42551000D02*
X57681000Y-42551000D01*
X55199000Y-42551000D02*
X52274000Y-42551000D01*
X60578000Y-42591000D02*
X57681000Y-42591000D01*
X55199000Y-42591000D02*
X52302000Y-42591000D01*
X60550000Y-42631000D02*
X57681000Y-42631000D01*
X55199000Y-42631000D02*
X52330000Y-42631000D01*
X60520000Y-42671000D02*
X57681000Y-42671000D01*
X55199000Y-42671000D02*
X52360000Y-42671000D01*
X60490000Y-42711000D02*
X57681000Y-42711000D01*
X55199000Y-42711000D02*
X52390000Y-42711000D01*
X60460000Y-42751000D02*
X57681000Y-42751000D01*
X55199000Y-42751000D02*
X52420000Y-42751000D01*
X60429000Y-42791000D02*
X57681000Y-42791000D01*
X55199000Y-42791000D02*
X52451000Y-42791000D01*
X60397000Y-42831000D02*
X57681000Y-42831000D01*
X55199000Y-42831000D02*
X52483000Y-42831000D01*
X60365000Y-42871000D02*
X57681000Y-42871000D01*
X55199000Y-42871000D02*
X52515000Y-42871000D01*
X60332000Y-42911000D02*
X57681000Y-42911000D01*
X55199000Y-42911000D02*
X52548000Y-42911000D01*
X60298000Y-42951000D02*
X57681000Y-42951000D01*
X55199000Y-42951000D02*
X52582000Y-42951000D01*
X60264000Y-42991000D02*
X57681000Y-42991000D01*
X55199000Y-42991000D02*
X52616000Y-42991000D01*
X60229000Y-43031000D02*
X57681000Y-43031000D01*
X55199000Y-43031000D02*
X52651000Y-43031000D01*
X60193000Y-43071000D02*
X57681000Y-43071000D01*
X55199000Y-43071000D02*
X52687000Y-43071000D01*
X60156000Y-43111000D02*
X57681000Y-43111000D01*
X55199000Y-43111000D02*
X52724000Y-43111000D01*
X60119000Y-43151000D02*
X57681000Y-43151000D01*
X55199000Y-43151000D02*
X52761000Y-43151000D01*
X60080000Y-43191000D02*
X57681000Y-43191000D01*
X55199000Y-43191000D02*
X52800000Y-43191000D01*
X60041000Y-43231000D02*
X57681000Y-43231000D01*
X55199000Y-43231000D02*
X52839000Y-43231000D01*
X60001000Y-43271000D02*
X57681000Y-43271000D01*
X55199000Y-43271000D02*
X52879000Y-43271000D01*
X59960000Y-43311000D02*
X57681000Y-43311000D01*
X55199000Y-43311000D02*
X52920000Y-43311000D01*
X59918000Y-43351000D02*
X57681000Y-43351000D01*
X55199000Y-43351000D02*
X52962000Y-43351000D01*
X59876000Y-43391000D02*
X53004000Y-43391000D01*
X59832000Y-43431000D02*
X53048000Y-43431000D01*
X59787000Y-43471000D02*
X53093000Y-43471000D01*
X59741000Y-43511000D02*
X53139000Y-43511000D01*
X59694000Y-43551000D02*
X53186000Y-43551000D01*
X59646000Y-43591000D02*
X53234000Y-43591000D01*
X59596000Y-43631000D02*
X53284000Y-43631000D01*
X59546000Y-43671000D02*
X53334000Y-43671000D01*
X59494000Y-43711000D02*
X53386000Y-43711000D01*
X59440000Y-43751000D02*
X53440000Y-43751000D01*
X59385000Y-43791000D02*
X53495000Y-43791000D01*
X59329000Y-43831000D02*
X53551000Y-43831000D01*
X59270000Y-43871000D02*
X53610000Y-43871000D01*
X59210000Y-43911000D02*
X53670000Y-43911000D01*
X59149000Y-43951000D02*
X53731000Y-43951000D01*
X59085000Y-43991000D02*
X53795000Y-43991000D01*
X59019000Y-44031000D02*
X53861000Y-44031000D01*
X58950000Y-44071000D02*
X53930000Y-44071000D01*
X58879000Y-44111000D02*
X54001000Y-44111000D01*
X58805000Y-44151000D02*
X54075000Y-44151000D01*
X58729000Y-44191000D02*
X54151000Y-44191000D01*
X58649000Y-44231000D02*
X54231000Y-44231000D01*
X58565000Y-44271000D02*
X54315000Y-44271000D01*
X58477000Y-44311000D02*
X54403000Y-44311000D01*
X58384000Y-44351000D02*
X54496000Y-44351000D01*
X58286000Y-44391000D02*
X54594000Y-44391000D01*
X58182000Y-44431000D02*
X54698000Y-44431000D01*
X58070000Y-44471000D02*
X54810000Y-44471000D01*
X57950000Y-44511000D02*
X54930000Y-44511000D01*
X57818000Y-44551000D02*
X55062000Y-44551000D01*
X57670000Y-44591000D02*
X55210000Y-44591000D01*
X57502000Y-44631000D02*
X55378000Y-44631000D01*
X57302000Y-44671000D02*
X55578000Y-44671000D01*
X57039000Y-44711000D02*
X55841000Y-44711000D01*
X59315000Y-34150354D02*
X59315000Y-35150354D01*
X59815000Y-34650354D02*
X58815000Y-34650354D01*
%TO.C,C8*%
X98105000Y-82578748D02*
X98105000Y-83101252D01*
X96635000Y-82578748D02*
X96635000Y-83101252D01*
%TO.C,C7*%
X111105000Y-82616248D02*
X111105000Y-83138752D01*
X109635000Y-82616248D02*
X109635000Y-83138752D01*
%TO.C,C6*%
X89740000Y-69210000D02*
X84500000Y-69210000D01*
X89740000Y-66470000D02*
X84500000Y-66470000D01*
X89740000Y-69210000D02*
X89740000Y-66470000D01*
X84500000Y-69210000D02*
X84500000Y-66470000D01*
%TO.C,C5*%
X73740000Y-69210000D02*
X68500000Y-69210000D01*
X73740000Y-66470000D02*
X68500000Y-66470000D01*
X73740000Y-69210000D02*
X73740000Y-66470000D01*
X68500000Y-69210000D02*
X68500000Y-66470000D01*
%TO.C,C4*%
X65740000Y-69210000D02*
X60500000Y-69210000D01*
X65740000Y-66470000D02*
X60500000Y-66470000D01*
X65740000Y-69210000D02*
X65740000Y-66470000D01*
X60500000Y-69210000D02*
X60500000Y-66470000D01*
%TO.C,C3*%
X47740000Y-69210000D02*
X42500000Y-69210000D01*
X47740000Y-66470000D02*
X42500000Y-66470000D01*
X47740000Y-69210000D02*
X47740000Y-66470000D01*
X42500000Y-69210000D02*
X42500000Y-66470000D01*
%TO.C,C2*%
X38740000Y-69210000D02*
X33500000Y-69210000D01*
X38740000Y-66470000D02*
X33500000Y-66470000D01*
X38740000Y-69210000D02*
X38740000Y-66470000D01*
X33500000Y-69210000D02*
X33500000Y-66470000D01*
%TO.C,C1*%
X23740000Y-69210000D02*
X18500000Y-69210000D01*
X23740000Y-66470000D02*
X18500000Y-66470000D01*
X23740000Y-69210000D02*
X23740000Y-66470000D01*
X18500000Y-69210000D02*
X18500000Y-66470000D01*
%TO.C,U18*%
X47990000Y-28215000D02*
X47990000Y-29315000D01*
X48940000Y-28215000D02*
X47990000Y-28215000D01*
X48940000Y-26715000D02*
X48940000Y-28215000D01*
X39490000Y-28215000D02*
X39490000Y-33340000D01*
X38540000Y-28215000D02*
X39490000Y-28215000D01*
X38540000Y-26715000D02*
X38540000Y-28215000D01*
%TO.C,D1*%
X76940000Y-31145000D02*
X71500000Y-31145000D01*
X76940000Y-31385000D02*
X71500000Y-31385000D01*
X76940000Y-31265000D02*
X71500000Y-31265000D01*
X74220000Y-40370000D02*
X74220000Y-39460000D01*
X74220000Y-28810000D02*
X74220000Y-29720000D01*
X76940000Y-39460000D02*
X76940000Y-29720000D01*
X71500000Y-39460000D02*
X76940000Y-39460000D01*
X71500000Y-29720000D02*
X71500000Y-39460000D01*
X76940000Y-29720000D02*
X71500000Y-29720000D01*
%TO.C,U6*%
D11*
X19518095Y-112992380D02*
X19518095Y-113801904D01*
X19565714Y-113897142D01*
X19613333Y-113944761D01*
X19708571Y-113992380D01*
X19899047Y-113992380D01*
X19994285Y-113944761D01*
X20041904Y-113897142D01*
X20089523Y-113801904D01*
X20089523Y-112992380D01*
X20994285Y-112992380D02*
X20803809Y-112992380D01*
X20708571Y-113040000D01*
X20660952Y-113087619D01*
X20565714Y-113230476D01*
X20518095Y-113420952D01*
X20518095Y-113801904D01*
X20565714Y-113897142D01*
X20613333Y-113944761D01*
X20708571Y-113992380D01*
X20899047Y-113992380D01*
X20994285Y-113944761D01*
X21041904Y-113897142D01*
X21089523Y-113801904D01*
X21089523Y-113563809D01*
X21041904Y-113468571D01*
X20994285Y-113420952D01*
X20899047Y-113373333D01*
X20708571Y-113373333D01*
X20613333Y-113420952D01*
X20565714Y-113468571D01*
X20518095Y-113563809D01*
%TO.C,U8*%
X48658095Y-113232380D02*
X48658095Y-114041904D01*
X48705714Y-114137142D01*
X48753333Y-114184761D01*
X48848571Y-114232380D01*
X49039047Y-114232380D01*
X49134285Y-114184761D01*
X49181904Y-114137142D01*
X49229523Y-114041904D01*
X49229523Y-113232380D01*
X49848571Y-113660952D02*
X49753333Y-113613333D01*
X49705714Y-113565714D01*
X49658095Y-113470476D01*
X49658095Y-113422857D01*
X49705714Y-113327619D01*
X49753333Y-113280000D01*
X49848571Y-113232380D01*
X50039047Y-113232380D01*
X50134285Y-113280000D01*
X50181904Y-113327619D01*
X50229523Y-113422857D01*
X50229523Y-113470476D01*
X50181904Y-113565714D01*
X50134285Y-113613333D01*
X50039047Y-113660952D01*
X49848571Y-113660952D01*
X49753333Y-113708571D01*
X49705714Y-113756190D01*
X49658095Y-113851428D01*
X49658095Y-114041904D01*
X49705714Y-114137142D01*
X49753333Y-114184761D01*
X49848571Y-114232380D01*
X50039047Y-114232380D01*
X50134285Y-114184761D01*
X50181904Y-114137142D01*
X50229523Y-114041904D01*
X50229523Y-113851428D01*
X50181904Y-113756190D01*
X50134285Y-113708571D01*
X50039047Y-113660952D01*
%TO.C,U13*%
X157821904Y-125022380D02*
X157821904Y-125831904D01*
X157869523Y-125927142D01*
X157917142Y-125974761D01*
X158012380Y-126022380D01*
X158202857Y-126022380D01*
X158298095Y-125974761D01*
X158345714Y-125927142D01*
X158393333Y-125831904D01*
X158393333Y-125022380D01*
X159393333Y-126022380D02*
X158821904Y-126022380D01*
X159107619Y-126022380D02*
X159107619Y-125022380D01*
X159012380Y-125165238D01*
X158917142Y-125260476D01*
X158821904Y-125308095D01*
X159726666Y-125022380D02*
X160345714Y-125022380D01*
X160012380Y-125403333D01*
X160155238Y-125403333D01*
X160250476Y-125450952D01*
X160298095Y-125498571D01*
X160345714Y-125593809D01*
X160345714Y-125831904D01*
X160298095Y-125927142D01*
X160250476Y-125974761D01*
X160155238Y-126022380D01*
X159869523Y-126022380D01*
X159774285Y-125974761D01*
X159726666Y-125927142D01*
%TO.C,J7*%
X102196666Y-46592380D02*
X102196666Y-47306666D01*
X102149047Y-47449523D01*
X102053809Y-47544761D01*
X101910952Y-47592380D01*
X101815714Y-47592380D01*
X102577619Y-46592380D02*
X103244285Y-46592380D01*
X102815714Y-47592380D01*
%TO.C,C19*%
X141827142Y-60497142D02*
X141779523Y-60544761D01*
X141636666Y-60592380D01*
X141541428Y-60592380D01*
X141398571Y-60544761D01*
X141303333Y-60449523D01*
X141255714Y-60354285D01*
X141208095Y-60163809D01*
X141208095Y-60020952D01*
X141255714Y-59830476D01*
X141303333Y-59735238D01*
X141398571Y-59640000D01*
X141541428Y-59592380D01*
X141636666Y-59592380D01*
X141779523Y-59640000D01*
X141827142Y-59687619D01*
X142779523Y-60592380D02*
X142208095Y-60592380D01*
X142493809Y-60592380D02*
X142493809Y-59592380D01*
X142398571Y-59735238D01*
X142303333Y-59830476D01*
X142208095Y-59878095D01*
X143255714Y-60592380D02*
X143446190Y-60592380D01*
X143541428Y-60544761D01*
X143589047Y-60497142D01*
X143684285Y-60354285D01*
X143731904Y-60163809D01*
X143731904Y-59782857D01*
X143684285Y-59687619D01*
X143636666Y-59640000D01*
X143541428Y-59592380D01*
X143350952Y-59592380D01*
X143255714Y-59640000D01*
X143208095Y-59687619D01*
X143160476Y-59782857D01*
X143160476Y-60020952D01*
X143208095Y-60116190D01*
X143255714Y-60163809D01*
X143350952Y-60211428D01*
X143541428Y-60211428D01*
X143636666Y-60163809D01*
X143684285Y-60116190D01*
X143731904Y-60020952D01*
%TO.C,U17*%
X110811904Y-62792380D02*
X110811904Y-63601904D01*
X110859523Y-63697142D01*
X110907142Y-63744761D01*
X111002380Y-63792380D01*
X111192857Y-63792380D01*
X111288095Y-63744761D01*
X111335714Y-63697142D01*
X111383333Y-63601904D01*
X111383333Y-62792380D01*
X112383333Y-63792380D02*
X111811904Y-63792380D01*
X112097619Y-63792380D02*
X112097619Y-62792380D01*
X112002380Y-62935238D01*
X111907142Y-63030476D01*
X111811904Y-63078095D01*
X112716666Y-62792380D02*
X113383333Y-62792380D01*
X112954761Y-63792380D01*
%TO.C,C16*%
X104327142Y-92297142D02*
X104279523Y-92344761D01*
X104136666Y-92392380D01*
X104041428Y-92392380D01*
X103898571Y-92344761D01*
X103803333Y-92249523D01*
X103755714Y-92154285D01*
X103708095Y-91963809D01*
X103708095Y-91820952D01*
X103755714Y-91630476D01*
X103803333Y-91535238D01*
X103898571Y-91440000D01*
X104041428Y-91392380D01*
X104136666Y-91392380D01*
X104279523Y-91440000D01*
X104327142Y-91487619D01*
X105279523Y-92392380D02*
X104708095Y-92392380D01*
X104993809Y-92392380D02*
X104993809Y-91392380D01*
X104898571Y-91535238D01*
X104803333Y-91630476D01*
X104708095Y-91678095D01*
X106136666Y-91392380D02*
X105946190Y-91392380D01*
X105850952Y-91440000D01*
X105803333Y-91487619D01*
X105708095Y-91630476D01*
X105660476Y-91820952D01*
X105660476Y-92201904D01*
X105708095Y-92297142D01*
X105755714Y-92344761D01*
X105850952Y-92392380D01*
X106041428Y-92392380D01*
X106136666Y-92344761D01*
X106184285Y-92297142D01*
X106231904Y-92201904D01*
X106231904Y-91963809D01*
X106184285Y-91868571D01*
X106136666Y-91820952D01*
X106041428Y-91773333D01*
X105850952Y-91773333D01*
X105755714Y-91820952D01*
X105708095Y-91868571D01*
X105660476Y-91963809D01*
%TO.C,R24*%
X136397142Y-133952380D02*
X136063809Y-133476190D01*
X135825714Y-133952380D02*
X135825714Y-132952380D01*
X136206666Y-132952380D01*
X136301904Y-133000000D01*
X136349523Y-133047619D01*
X136397142Y-133142857D01*
X136397142Y-133285714D01*
X136349523Y-133380952D01*
X136301904Y-133428571D01*
X136206666Y-133476190D01*
X135825714Y-133476190D01*
X136778095Y-133047619D02*
X136825714Y-133000000D01*
X136920952Y-132952380D01*
X137159047Y-132952380D01*
X137254285Y-133000000D01*
X137301904Y-133047619D01*
X137349523Y-133142857D01*
X137349523Y-133238095D01*
X137301904Y-133380952D01*
X136730476Y-133952380D01*
X137349523Y-133952380D01*
X138206666Y-133285714D02*
X138206666Y-133952380D01*
X137968571Y-132904761D02*
X137730476Y-133619047D01*
X138349523Y-133619047D01*
%TO.C,R23*%
X116727142Y-134202380D02*
X116393809Y-133726190D01*
X116155714Y-134202380D02*
X116155714Y-133202380D01*
X116536666Y-133202380D01*
X116631904Y-133250000D01*
X116679523Y-133297619D01*
X116727142Y-133392857D01*
X116727142Y-133535714D01*
X116679523Y-133630952D01*
X116631904Y-133678571D01*
X116536666Y-133726190D01*
X116155714Y-133726190D01*
X117108095Y-133297619D02*
X117155714Y-133250000D01*
X117250952Y-133202380D01*
X117489047Y-133202380D01*
X117584285Y-133250000D01*
X117631904Y-133297619D01*
X117679523Y-133392857D01*
X117679523Y-133488095D01*
X117631904Y-133630952D01*
X117060476Y-134202380D01*
X117679523Y-134202380D01*
X118012857Y-133202380D02*
X118631904Y-133202380D01*
X118298571Y-133583333D01*
X118441428Y-133583333D01*
X118536666Y-133630952D01*
X118584285Y-133678571D01*
X118631904Y-133773809D01*
X118631904Y-134011904D01*
X118584285Y-134107142D01*
X118536666Y-134154761D01*
X118441428Y-134202380D01*
X118155714Y-134202380D01*
X118060476Y-134154761D01*
X118012857Y-134107142D01*
%TO.C,R22*%
X96837142Y-134202380D02*
X96503809Y-133726190D01*
X96265714Y-134202380D02*
X96265714Y-133202380D01*
X96646666Y-133202380D01*
X96741904Y-133250000D01*
X96789523Y-133297619D01*
X96837142Y-133392857D01*
X96837142Y-133535714D01*
X96789523Y-133630952D01*
X96741904Y-133678571D01*
X96646666Y-133726190D01*
X96265714Y-133726190D01*
X97218095Y-133297619D02*
X97265714Y-133250000D01*
X97360952Y-133202380D01*
X97599047Y-133202380D01*
X97694285Y-133250000D01*
X97741904Y-133297619D01*
X97789523Y-133392857D01*
X97789523Y-133488095D01*
X97741904Y-133630952D01*
X97170476Y-134202380D01*
X97789523Y-134202380D01*
X98170476Y-133297619D02*
X98218095Y-133250000D01*
X98313333Y-133202380D01*
X98551428Y-133202380D01*
X98646666Y-133250000D01*
X98694285Y-133297619D01*
X98741904Y-133392857D01*
X98741904Y-133488095D01*
X98694285Y-133630952D01*
X98122857Y-134202380D01*
X98741904Y-134202380D01*
%TO.C,R21*%
X86547142Y-136892380D02*
X86213809Y-136416190D01*
X85975714Y-136892380D02*
X85975714Y-135892380D01*
X86356666Y-135892380D01*
X86451904Y-135940000D01*
X86499523Y-135987619D01*
X86547142Y-136082857D01*
X86547142Y-136225714D01*
X86499523Y-136320952D01*
X86451904Y-136368571D01*
X86356666Y-136416190D01*
X85975714Y-136416190D01*
X86928095Y-135987619D02*
X86975714Y-135940000D01*
X87070952Y-135892380D01*
X87309047Y-135892380D01*
X87404285Y-135940000D01*
X87451904Y-135987619D01*
X87499523Y-136082857D01*
X87499523Y-136178095D01*
X87451904Y-136320952D01*
X86880476Y-136892380D01*
X87499523Y-136892380D01*
X88451904Y-136892380D02*
X87880476Y-136892380D01*
X88166190Y-136892380D02*
X88166190Y-135892380D01*
X88070952Y-136035238D01*
X87975714Y-136130476D01*
X87880476Y-136178095D01*
%TO.C,R20*%
X89537142Y-71922380D02*
X89203809Y-71446190D01*
X88965714Y-71922380D02*
X88965714Y-70922380D01*
X89346666Y-70922380D01*
X89441904Y-70970000D01*
X89489523Y-71017619D01*
X89537142Y-71112857D01*
X89537142Y-71255714D01*
X89489523Y-71350952D01*
X89441904Y-71398571D01*
X89346666Y-71446190D01*
X88965714Y-71446190D01*
X89918095Y-71017619D02*
X89965714Y-70970000D01*
X90060952Y-70922380D01*
X90299047Y-70922380D01*
X90394285Y-70970000D01*
X90441904Y-71017619D01*
X90489523Y-71112857D01*
X90489523Y-71208095D01*
X90441904Y-71350952D01*
X89870476Y-71922380D01*
X90489523Y-71922380D01*
X91108571Y-70922380D02*
X91203809Y-70922380D01*
X91299047Y-70970000D01*
X91346666Y-71017619D01*
X91394285Y-71112857D01*
X91441904Y-71303333D01*
X91441904Y-71541428D01*
X91394285Y-71731904D01*
X91346666Y-71827142D01*
X91299047Y-71874761D01*
X91203809Y-71922380D01*
X91108571Y-71922380D01*
X91013333Y-71874761D01*
X90965714Y-71827142D01*
X90918095Y-71731904D01*
X90870476Y-71541428D01*
X90870476Y-71303333D01*
X90918095Y-71112857D01*
X90965714Y-71017619D01*
X91013333Y-70970000D01*
X91108571Y-70922380D01*
%TO.C,R19*%
X70917142Y-126662380D02*
X70583809Y-126186190D01*
X70345714Y-126662380D02*
X70345714Y-125662380D01*
X70726666Y-125662380D01*
X70821904Y-125710000D01*
X70869523Y-125757619D01*
X70917142Y-125852857D01*
X70917142Y-125995714D01*
X70869523Y-126090952D01*
X70821904Y-126138571D01*
X70726666Y-126186190D01*
X70345714Y-126186190D01*
X71869523Y-126662380D02*
X71298095Y-126662380D01*
X71583809Y-126662380D02*
X71583809Y-125662380D01*
X71488571Y-125805238D01*
X71393333Y-125900476D01*
X71298095Y-125948095D01*
X72345714Y-126662380D02*
X72536190Y-126662380D01*
X72631428Y-126614761D01*
X72679047Y-126567142D01*
X72774285Y-126424285D01*
X72821904Y-126233809D01*
X72821904Y-125852857D01*
X72774285Y-125757619D01*
X72726666Y-125710000D01*
X72631428Y-125662380D01*
X72440952Y-125662380D01*
X72345714Y-125710000D01*
X72298095Y-125757619D01*
X72250476Y-125852857D01*
X72250476Y-126090952D01*
X72298095Y-126186190D01*
X72345714Y-126233809D01*
X72440952Y-126281428D01*
X72631428Y-126281428D01*
X72726666Y-126233809D01*
X72774285Y-126186190D01*
X72821904Y-126090952D01*
%TO.C,R18*%
X72737142Y-136752380D02*
X72403809Y-136276190D01*
X72165714Y-136752380D02*
X72165714Y-135752380D01*
X72546666Y-135752380D01*
X72641904Y-135800000D01*
X72689523Y-135847619D01*
X72737142Y-135942857D01*
X72737142Y-136085714D01*
X72689523Y-136180952D01*
X72641904Y-136228571D01*
X72546666Y-136276190D01*
X72165714Y-136276190D01*
X73689523Y-136752380D02*
X73118095Y-136752380D01*
X73403809Y-136752380D02*
X73403809Y-135752380D01*
X73308571Y-135895238D01*
X73213333Y-135990476D01*
X73118095Y-136038095D01*
X74260952Y-136180952D02*
X74165714Y-136133333D01*
X74118095Y-136085714D01*
X74070476Y-135990476D01*
X74070476Y-135942857D01*
X74118095Y-135847619D01*
X74165714Y-135800000D01*
X74260952Y-135752380D01*
X74451428Y-135752380D01*
X74546666Y-135800000D01*
X74594285Y-135847619D01*
X74641904Y-135942857D01*
X74641904Y-135990476D01*
X74594285Y-136085714D01*
X74546666Y-136133333D01*
X74451428Y-136180952D01*
X74260952Y-136180952D01*
X74165714Y-136228571D01*
X74118095Y-136276190D01*
X74070476Y-136371428D01*
X74070476Y-136561904D01*
X74118095Y-136657142D01*
X74165714Y-136704761D01*
X74260952Y-136752380D01*
X74451428Y-136752380D01*
X74546666Y-136704761D01*
X74594285Y-136657142D01*
X74641904Y-136561904D01*
X74641904Y-136371428D01*
X74594285Y-136276190D01*
X74546666Y-136228571D01*
X74451428Y-136180952D01*
%TO.C,R17*%
X146957142Y-103202380D02*
X146623809Y-102726190D01*
X146385714Y-103202380D02*
X146385714Y-102202380D01*
X146766666Y-102202380D01*
X146861904Y-102250000D01*
X146909523Y-102297619D01*
X146957142Y-102392857D01*
X146957142Y-102535714D01*
X146909523Y-102630952D01*
X146861904Y-102678571D01*
X146766666Y-102726190D01*
X146385714Y-102726190D01*
X147909523Y-103202380D02*
X147338095Y-103202380D01*
X147623809Y-103202380D02*
X147623809Y-102202380D01*
X147528571Y-102345238D01*
X147433333Y-102440476D01*
X147338095Y-102488095D01*
X148242857Y-102202380D02*
X148909523Y-102202380D01*
X148480952Y-103202380D01*
%TO.C,R16*%
X141332380Y-109012857D02*
X140856190Y-109346190D01*
X141332380Y-109584285D02*
X140332380Y-109584285D01*
X140332380Y-109203333D01*
X140380000Y-109108095D01*
X140427619Y-109060476D01*
X140522857Y-109012857D01*
X140665714Y-109012857D01*
X140760952Y-109060476D01*
X140808571Y-109108095D01*
X140856190Y-109203333D01*
X140856190Y-109584285D01*
X141332380Y-108060476D02*
X141332380Y-108631904D01*
X141332380Y-108346190D02*
X140332380Y-108346190D01*
X140475238Y-108441428D01*
X140570476Y-108536666D01*
X140618095Y-108631904D01*
X140332380Y-107203333D02*
X140332380Y-107393809D01*
X140380000Y-107489047D01*
X140427619Y-107536666D01*
X140570476Y-107631904D01*
X140760952Y-107679523D01*
X141141904Y-107679523D01*
X141237142Y-107631904D01*
X141284761Y-107584285D01*
X141332380Y-107489047D01*
X141332380Y-107298571D01*
X141284761Y-107203333D01*
X141237142Y-107155714D01*
X141141904Y-107108095D01*
X140903809Y-107108095D01*
X140808571Y-107155714D01*
X140760952Y-107203333D01*
X140713333Y-107298571D01*
X140713333Y-107489047D01*
X140760952Y-107584285D01*
X140808571Y-107631904D01*
X140903809Y-107679523D01*
%TO.C,R15*%
X62517142Y-136582380D02*
X62183809Y-136106190D01*
X61945714Y-136582380D02*
X61945714Y-135582380D01*
X62326666Y-135582380D01*
X62421904Y-135630000D01*
X62469523Y-135677619D01*
X62517142Y-135772857D01*
X62517142Y-135915714D01*
X62469523Y-136010952D01*
X62421904Y-136058571D01*
X62326666Y-136106190D01*
X61945714Y-136106190D01*
X63469523Y-136582380D02*
X62898095Y-136582380D01*
X63183809Y-136582380D02*
X63183809Y-135582380D01*
X63088571Y-135725238D01*
X62993333Y-135820476D01*
X62898095Y-135868095D01*
X64374285Y-135582380D02*
X63898095Y-135582380D01*
X63850476Y-136058571D01*
X63898095Y-136010952D01*
X63993333Y-135963333D01*
X64231428Y-135963333D01*
X64326666Y-136010952D01*
X64374285Y-136058571D01*
X64421904Y-136153809D01*
X64421904Y-136391904D01*
X64374285Y-136487142D01*
X64326666Y-136534761D01*
X64231428Y-136582380D01*
X63993333Y-136582380D01*
X63898095Y-136534761D01*
X63850476Y-136487142D01*
%TO.C,R14*%
X51477142Y-136612380D02*
X51143809Y-136136190D01*
X50905714Y-136612380D02*
X50905714Y-135612380D01*
X51286666Y-135612380D01*
X51381904Y-135660000D01*
X51429523Y-135707619D01*
X51477142Y-135802857D01*
X51477142Y-135945714D01*
X51429523Y-136040952D01*
X51381904Y-136088571D01*
X51286666Y-136136190D01*
X50905714Y-136136190D01*
X52429523Y-136612380D02*
X51858095Y-136612380D01*
X52143809Y-136612380D02*
X52143809Y-135612380D01*
X52048571Y-135755238D01*
X51953333Y-135850476D01*
X51858095Y-135898095D01*
X53286666Y-135945714D02*
X53286666Y-136612380D01*
X53048571Y-135564761D02*
X52810476Y-136279047D01*
X53429523Y-136279047D01*
%TO.C,R13*%
X145332380Y-109042857D02*
X144856190Y-109376190D01*
X145332380Y-109614285D02*
X144332380Y-109614285D01*
X144332380Y-109233333D01*
X144380000Y-109138095D01*
X144427619Y-109090476D01*
X144522857Y-109042857D01*
X144665714Y-109042857D01*
X144760952Y-109090476D01*
X144808571Y-109138095D01*
X144856190Y-109233333D01*
X144856190Y-109614285D01*
X145332380Y-108090476D02*
X145332380Y-108661904D01*
X145332380Y-108376190D02*
X144332380Y-108376190D01*
X144475238Y-108471428D01*
X144570476Y-108566666D01*
X144618095Y-108661904D01*
X144332380Y-107757142D02*
X144332380Y-107138095D01*
X144713333Y-107471428D01*
X144713333Y-107328571D01*
X144760952Y-107233333D01*
X144808571Y-107185714D01*
X144903809Y-107138095D01*
X145141904Y-107138095D01*
X145237142Y-107185714D01*
X145284761Y-107233333D01*
X145332380Y-107328571D01*
X145332380Y-107614285D01*
X145284761Y-107709523D01*
X145237142Y-107757142D01*
%TO.C,R12*%
X149192380Y-109052857D02*
X148716190Y-109386190D01*
X149192380Y-109624285D02*
X148192380Y-109624285D01*
X148192380Y-109243333D01*
X148240000Y-109148095D01*
X148287619Y-109100476D01*
X148382857Y-109052857D01*
X148525714Y-109052857D01*
X148620952Y-109100476D01*
X148668571Y-109148095D01*
X148716190Y-109243333D01*
X148716190Y-109624285D01*
X149192380Y-108100476D02*
X149192380Y-108671904D01*
X149192380Y-108386190D02*
X148192380Y-108386190D01*
X148335238Y-108481428D01*
X148430476Y-108576666D01*
X148478095Y-108671904D01*
X148287619Y-107719523D02*
X148240000Y-107671904D01*
X148192380Y-107576666D01*
X148192380Y-107338571D01*
X148240000Y-107243333D01*
X148287619Y-107195714D01*
X148382857Y-107148095D01*
X148478095Y-107148095D01*
X148620952Y-107195714D01*
X149192380Y-107767142D01*
X149192380Y-107148095D01*
%TO.C,R11*%
X75937142Y-84122380D02*
X75603809Y-83646190D01*
X75365714Y-84122380D02*
X75365714Y-83122380D01*
X75746666Y-83122380D01*
X75841904Y-83170000D01*
X75889523Y-83217619D01*
X75937142Y-83312857D01*
X75937142Y-83455714D01*
X75889523Y-83550952D01*
X75841904Y-83598571D01*
X75746666Y-83646190D01*
X75365714Y-83646190D01*
X76889523Y-84122380D02*
X76318095Y-84122380D01*
X76603809Y-84122380D02*
X76603809Y-83122380D01*
X76508571Y-83265238D01*
X76413333Y-83360476D01*
X76318095Y-83408095D01*
X77841904Y-84122380D02*
X77270476Y-84122380D01*
X77556190Y-84122380D02*
X77556190Y-83122380D01*
X77460952Y-83265238D01*
X77365714Y-83360476D01*
X77270476Y-83408095D01*
%TO.C,R10*%
X83685142Y-78430380D02*
X83351809Y-77954190D01*
X83113714Y-78430380D02*
X83113714Y-77430380D01*
X83494666Y-77430380D01*
X83589904Y-77478000D01*
X83637523Y-77525619D01*
X83685142Y-77620857D01*
X83685142Y-77763714D01*
X83637523Y-77858952D01*
X83589904Y-77906571D01*
X83494666Y-77954190D01*
X83113714Y-77954190D01*
X84637523Y-78430380D02*
X84066095Y-78430380D01*
X84351809Y-78430380D02*
X84351809Y-77430380D01*
X84256571Y-77573238D01*
X84161333Y-77668476D01*
X84066095Y-77716095D01*
X85256571Y-77430380D02*
X85351809Y-77430380D01*
X85447047Y-77478000D01*
X85494666Y-77525619D01*
X85542285Y-77620857D01*
X85589904Y-77811333D01*
X85589904Y-78049428D01*
X85542285Y-78239904D01*
X85494666Y-78335142D01*
X85447047Y-78382761D01*
X85351809Y-78430380D01*
X85256571Y-78430380D01*
X85161333Y-78382761D01*
X85113714Y-78335142D01*
X85066095Y-78239904D01*
X85018476Y-78049428D01*
X85018476Y-77811333D01*
X85066095Y-77620857D01*
X85113714Y-77525619D01*
X85161333Y-77478000D01*
X85256571Y-77430380D01*
%TO.C,R9*%
X88733333Y-80208380D02*
X88400000Y-79732190D01*
X88161904Y-80208380D02*
X88161904Y-79208380D01*
X88542857Y-79208380D01*
X88638095Y-79256000D01*
X88685714Y-79303619D01*
X88733333Y-79398857D01*
X88733333Y-79541714D01*
X88685714Y-79636952D01*
X88638095Y-79684571D01*
X88542857Y-79732190D01*
X88161904Y-79732190D01*
X89209523Y-80208380D02*
X89400000Y-80208380D01*
X89495238Y-80160761D01*
X89542857Y-80113142D01*
X89638095Y-79970285D01*
X89685714Y-79779809D01*
X89685714Y-79398857D01*
X89638095Y-79303619D01*
X89590476Y-79256000D01*
X89495238Y-79208380D01*
X89304761Y-79208380D01*
X89209523Y-79256000D01*
X89161904Y-79303619D01*
X89114285Y-79398857D01*
X89114285Y-79636952D01*
X89161904Y-79732190D01*
X89209523Y-79779809D01*
X89304761Y-79827428D01*
X89495238Y-79827428D01*
X89590476Y-79779809D01*
X89638095Y-79732190D01*
X89685714Y-79636952D01*
%TO.C,R8*%
X99393333Y-71662380D02*
X99060000Y-71186190D01*
X98821904Y-71662380D02*
X98821904Y-70662380D01*
X99202857Y-70662380D01*
X99298095Y-70710000D01*
X99345714Y-70757619D01*
X99393333Y-70852857D01*
X99393333Y-70995714D01*
X99345714Y-71090952D01*
X99298095Y-71138571D01*
X99202857Y-71186190D01*
X98821904Y-71186190D01*
X99964761Y-71090952D02*
X99869523Y-71043333D01*
X99821904Y-70995714D01*
X99774285Y-70900476D01*
X99774285Y-70852857D01*
X99821904Y-70757619D01*
X99869523Y-70710000D01*
X99964761Y-70662380D01*
X100155238Y-70662380D01*
X100250476Y-70710000D01*
X100298095Y-70757619D01*
X100345714Y-70852857D01*
X100345714Y-70900476D01*
X100298095Y-70995714D01*
X100250476Y-71043333D01*
X100155238Y-71090952D01*
X99964761Y-71090952D01*
X99869523Y-71138571D01*
X99821904Y-71186190D01*
X99774285Y-71281428D01*
X99774285Y-71471904D01*
X99821904Y-71567142D01*
X99869523Y-71614761D01*
X99964761Y-71662380D01*
X100155238Y-71662380D01*
X100250476Y-71614761D01*
X100298095Y-71567142D01*
X100345714Y-71471904D01*
X100345714Y-71281428D01*
X100298095Y-71186190D01*
X100250476Y-71138571D01*
X100155238Y-71090952D01*
%TO.C,R7*%
X99393333Y-64662380D02*
X99060000Y-64186190D01*
X98821904Y-64662380D02*
X98821904Y-63662380D01*
X99202857Y-63662380D01*
X99298095Y-63710000D01*
X99345714Y-63757619D01*
X99393333Y-63852857D01*
X99393333Y-63995714D01*
X99345714Y-64090952D01*
X99298095Y-64138571D01*
X99202857Y-64186190D01*
X98821904Y-64186190D01*
X99726666Y-63662380D02*
X100393333Y-63662380D01*
X99964761Y-64662380D01*
%TO.C,R6*%
X90765333Y-54554380D02*
X90432000Y-54078190D01*
X90193904Y-54554380D02*
X90193904Y-53554380D01*
X90574857Y-53554380D01*
X90670095Y-53602000D01*
X90717714Y-53649619D01*
X90765333Y-53744857D01*
X90765333Y-53887714D01*
X90717714Y-53982952D01*
X90670095Y-54030571D01*
X90574857Y-54078190D01*
X90193904Y-54078190D01*
X91622476Y-53554380D02*
X91432000Y-53554380D01*
X91336761Y-53602000D01*
X91289142Y-53649619D01*
X91193904Y-53792476D01*
X91146285Y-53982952D01*
X91146285Y-54363904D01*
X91193904Y-54459142D01*
X91241523Y-54506761D01*
X91336761Y-54554380D01*
X91527238Y-54554380D01*
X91622476Y-54506761D01*
X91670095Y-54459142D01*
X91717714Y-54363904D01*
X91717714Y-54125809D01*
X91670095Y-54030571D01*
X91622476Y-53982952D01*
X91527238Y-53935333D01*
X91336761Y-53935333D01*
X91241523Y-53982952D01*
X91193904Y-54030571D01*
X91146285Y-54125809D01*
%TO.C,R5*%
X67693333Y-63642380D02*
X67360000Y-63166190D01*
X67121904Y-63642380D02*
X67121904Y-62642380D01*
X67502857Y-62642380D01*
X67598095Y-62690000D01*
X67645714Y-62737619D01*
X67693333Y-62832857D01*
X67693333Y-62975714D01*
X67645714Y-63070952D01*
X67598095Y-63118571D01*
X67502857Y-63166190D01*
X67121904Y-63166190D01*
X68598095Y-62642380D02*
X68121904Y-62642380D01*
X68074285Y-63118571D01*
X68121904Y-63070952D01*
X68217142Y-63023333D01*
X68455238Y-63023333D01*
X68550476Y-63070952D01*
X68598095Y-63118571D01*
X68645714Y-63213809D01*
X68645714Y-63451904D01*
X68598095Y-63547142D01*
X68550476Y-63594761D01*
X68455238Y-63642380D01*
X68217142Y-63642380D01*
X68121904Y-63594761D01*
X68074285Y-63547142D01*
%TO.C,R4*%
X65803333Y-55612380D02*
X65470000Y-55136190D01*
X65231904Y-55612380D02*
X65231904Y-54612380D01*
X65612857Y-54612380D01*
X65708095Y-54660000D01*
X65755714Y-54707619D01*
X65803333Y-54802857D01*
X65803333Y-54945714D01*
X65755714Y-55040952D01*
X65708095Y-55088571D01*
X65612857Y-55136190D01*
X65231904Y-55136190D01*
X66660476Y-54945714D02*
X66660476Y-55612380D01*
X66422380Y-54564761D02*
X66184285Y-55279047D01*
X66803333Y-55279047D01*
%TO.C,R3*%
X41997333Y-54300380D02*
X41664000Y-53824190D01*
X41425904Y-54300380D02*
X41425904Y-53300380D01*
X41806857Y-53300380D01*
X41902095Y-53348000D01*
X41949714Y-53395619D01*
X41997333Y-53490857D01*
X41997333Y-53633714D01*
X41949714Y-53728952D01*
X41902095Y-53776571D01*
X41806857Y-53824190D01*
X41425904Y-53824190D01*
X42330666Y-53300380D02*
X42949714Y-53300380D01*
X42616380Y-53681333D01*
X42759238Y-53681333D01*
X42854476Y-53728952D01*
X42902095Y-53776571D01*
X42949714Y-53871809D01*
X42949714Y-54109904D01*
X42902095Y-54205142D01*
X42854476Y-54252761D01*
X42759238Y-54300380D01*
X42473523Y-54300380D01*
X42378285Y-54252761D01*
X42330666Y-54205142D01*
%TO.C,R2*%
X18629333Y-53792380D02*
X18296000Y-53316190D01*
X18057904Y-53792380D02*
X18057904Y-52792380D01*
X18438857Y-52792380D01*
X18534095Y-52840000D01*
X18581714Y-52887619D01*
X18629333Y-52982857D01*
X18629333Y-53125714D01*
X18581714Y-53220952D01*
X18534095Y-53268571D01*
X18438857Y-53316190D01*
X18057904Y-53316190D01*
X19010285Y-52887619D02*
X19057904Y-52840000D01*
X19153142Y-52792380D01*
X19391238Y-52792380D01*
X19486476Y-52840000D01*
X19534095Y-52887619D01*
X19581714Y-52982857D01*
X19581714Y-53078095D01*
X19534095Y-53220952D01*
X18962666Y-53792380D01*
X19581714Y-53792380D01*
%TO.C,R1*%
X36155333Y-54046380D02*
X35822000Y-53570190D01*
X35583904Y-54046380D02*
X35583904Y-53046380D01*
X35964857Y-53046380D01*
X36060095Y-53094000D01*
X36107714Y-53141619D01*
X36155333Y-53236857D01*
X36155333Y-53379714D01*
X36107714Y-53474952D01*
X36060095Y-53522571D01*
X35964857Y-53570190D01*
X35583904Y-53570190D01*
X37107714Y-54046380D02*
X36536285Y-54046380D01*
X36822000Y-54046380D02*
X36822000Y-53046380D01*
X36726761Y-53189238D01*
X36631523Y-53284476D01*
X36536285Y-53332095D01*
%TO.C,U20*%
X96221904Y-124292380D02*
X96221904Y-125101904D01*
X96269523Y-125197142D01*
X96317142Y-125244761D01*
X96412380Y-125292380D01*
X96602857Y-125292380D01*
X96698095Y-125244761D01*
X96745714Y-125197142D01*
X96793333Y-125101904D01*
X96793333Y-124292380D01*
X97221904Y-124387619D02*
X97269523Y-124340000D01*
X97364761Y-124292380D01*
X97602857Y-124292380D01*
X97698095Y-124340000D01*
X97745714Y-124387619D01*
X97793333Y-124482857D01*
X97793333Y-124578095D01*
X97745714Y-124720952D01*
X97174285Y-125292380D01*
X97793333Y-125292380D01*
X98412380Y-124292380D02*
X98507619Y-124292380D01*
X98602857Y-124340000D01*
X98650476Y-124387619D01*
X98698095Y-124482857D01*
X98745714Y-124673333D01*
X98745714Y-124911428D01*
X98698095Y-125101904D01*
X98650476Y-125197142D01*
X98602857Y-125244761D01*
X98507619Y-125292380D01*
X98412380Y-125292380D01*
X98317142Y-125244761D01*
X98269523Y-125197142D01*
X98221904Y-125101904D01*
X98174285Y-124911428D01*
X98174285Y-124673333D01*
X98221904Y-124482857D01*
X98269523Y-124387619D01*
X98317142Y-124340000D01*
X98412380Y-124292380D01*
%TO.C,U19*%
X125507904Y-124166380D02*
X125507904Y-124975904D01*
X125555523Y-125071142D01*
X125603142Y-125118761D01*
X125698380Y-125166380D01*
X125888857Y-125166380D01*
X125984095Y-125118761D01*
X126031714Y-125071142D01*
X126079333Y-124975904D01*
X126079333Y-124166380D01*
X127079333Y-125166380D02*
X126507904Y-125166380D01*
X126793619Y-125166380D02*
X126793619Y-124166380D01*
X126698380Y-124309238D01*
X126603142Y-124404476D01*
X126507904Y-124452095D01*
X127555523Y-125166380D02*
X127746000Y-125166380D01*
X127841238Y-125118761D01*
X127888857Y-125071142D01*
X127984095Y-124928285D01*
X128031714Y-124737809D01*
X128031714Y-124356857D01*
X127984095Y-124261619D01*
X127936476Y-124214000D01*
X127841238Y-124166380D01*
X127650761Y-124166380D01*
X127555523Y-124214000D01*
X127507904Y-124261619D01*
X127460285Y-124356857D01*
X127460285Y-124594952D01*
X127507904Y-124690190D01*
X127555523Y-124737809D01*
X127650761Y-124785428D01*
X127841238Y-124785428D01*
X127936476Y-124737809D01*
X127984095Y-124690190D01*
X128031714Y-124594952D01*
%TO.C,U16*%
X95941904Y-15962380D02*
X95941904Y-16771904D01*
X95989523Y-16867142D01*
X96037142Y-16914761D01*
X96132380Y-16962380D01*
X96322857Y-16962380D01*
X96418095Y-16914761D01*
X96465714Y-16867142D01*
X96513333Y-16771904D01*
X96513333Y-15962380D01*
X97513333Y-16962380D02*
X96941904Y-16962380D01*
X97227619Y-16962380D02*
X97227619Y-15962380D01*
X97132380Y-16105238D01*
X97037142Y-16200476D01*
X96941904Y-16248095D01*
X98370476Y-15962380D02*
X98180000Y-15962380D01*
X98084761Y-16010000D01*
X98037142Y-16057619D01*
X97941904Y-16200476D01*
X97894285Y-16390952D01*
X97894285Y-16771904D01*
X97941904Y-16867142D01*
X97989523Y-16914761D01*
X98084761Y-16962380D01*
X98275238Y-16962380D01*
X98370476Y-16914761D01*
X98418095Y-16867142D01*
X98465714Y-16771904D01*
X98465714Y-16533809D01*
X98418095Y-16438571D01*
X98370476Y-16390952D01*
X98275238Y-16343333D01*
X98084761Y-16343333D01*
X97989523Y-16390952D01*
X97941904Y-16438571D01*
X97894285Y-16533809D01*
%TO.C,U15*%
X157941904Y-72982380D02*
X157941904Y-73791904D01*
X157989523Y-73887142D01*
X158037142Y-73934761D01*
X158132380Y-73982380D01*
X158322857Y-73982380D01*
X158418095Y-73934761D01*
X158465714Y-73887142D01*
X158513333Y-73791904D01*
X158513333Y-72982380D01*
X159513333Y-73982380D02*
X158941904Y-73982380D01*
X159227619Y-73982380D02*
X159227619Y-72982380D01*
X159132380Y-73125238D01*
X159037142Y-73220476D01*
X158941904Y-73268095D01*
X160418095Y-72982380D02*
X159941904Y-72982380D01*
X159894285Y-73458571D01*
X159941904Y-73410952D01*
X160037142Y-73363333D01*
X160275238Y-73363333D01*
X160370476Y-73410952D01*
X160418095Y-73458571D01*
X160465714Y-73553809D01*
X160465714Y-73791904D01*
X160418095Y-73887142D01*
X160370476Y-73934761D01*
X160275238Y-73982380D01*
X160037142Y-73982380D01*
X159941904Y-73934761D01*
X159894285Y-73887142D01*
%TO.C,U14*%
X157941904Y-43982380D02*
X157941904Y-44791904D01*
X157989523Y-44887142D01*
X158037142Y-44934761D01*
X158132380Y-44982380D01*
X158322857Y-44982380D01*
X158418095Y-44934761D01*
X158465714Y-44887142D01*
X158513333Y-44791904D01*
X158513333Y-43982380D01*
X159513333Y-44982380D02*
X158941904Y-44982380D01*
X159227619Y-44982380D02*
X159227619Y-43982380D01*
X159132380Y-44125238D01*
X159037142Y-44220476D01*
X158941904Y-44268095D01*
X160370476Y-44315714D02*
X160370476Y-44982380D01*
X160132380Y-43934761D02*
X159894285Y-44649047D01*
X160513333Y-44649047D01*
%TO.C,U12*%
X34441904Y-83592380D02*
X34441904Y-84401904D01*
X34489523Y-84497142D01*
X34537142Y-84544761D01*
X34632380Y-84592380D01*
X34822857Y-84592380D01*
X34918095Y-84544761D01*
X34965714Y-84497142D01*
X35013333Y-84401904D01*
X35013333Y-83592380D01*
X36013333Y-84592380D02*
X35441904Y-84592380D01*
X35727619Y-84592380D02*
X35727619Y-83592380D01*
X35632380Y-83735238D01*
X35537142Y-83830476D01*
X35441904Y-83878095D01*
X36394285Y-83687619D02*
X36441904Y-83640000D01*
X36537142Y-83592380D01*
X36775238Y-83592380D01*
X36870476Y-83640000D01*
X36918095Y-83687619D01*
X36965714Y-83782857D01*
X36965714Y-83878095D01*
X36918095Y-84020952D01*
X36346666Y-84592380D01*
X36965714Y-84592380D01*
%TO.C,U11*%
X20961904Y-83402380D02*
X20961904Y-84211904D01*
X21009523Y-84307142D01*
X21057142Y-84354761D01*
X21152380Y-84402380D01*
X21342857Y-84402380D01*
X21438095Y-84354761D01*
X21485714Y-84307142D01*
X21533333Y-84211904D01*
X21533333Y-83402380D01*
X22533333Y-84402380D02*
X21961904Y-84402380D01*
X22247619Y-84402380D02*
X22247619Y-83402380D01*
X22152380Y-83545238D01*
X22057142Y-83640476D01*
X21961904Y-83688095D01*
X23485714Y-84402380D02*
X22914285Y-84402380D01*
X23200000Y-84402380D02*
X23200000Y-83402380D01*
X23104761Y-83545238D01*
X23009523Y-83640476D01*
X22914285Y-83688095D01*
%TO.C,SW3 Prog Select*%
X56750952Y-71374761D02*
X56893809Y-71422380D01*
X57131904Y-71422380D01*
X57227142Y-71374761D01*
X57274761Y-71327142D01*
X57322380Y-71231904D01*
X57322380Y-71136666D01*
X57274761Y-71041428D01*
X57227142Y-70993809D01*
X57131904Y-70946190D01*
X56941428Y-70898571D01*
X56846190Y-70850952D01*
X56798571Y-70803333D01*
X56750952Y-70708095D01*
X56750952Y-70612857D01*
X56798571Y-70517619D01*
X56846190Y-70470000D01*
X56941428Y-70422380D01*
X57179523Y-70422380D01*
X57322380Y-70470000D01*
X57655714Y-70422380D02*
X57893809Y-71422380D01*
X58084285Y-70708095D01*
X58274761Y-71422380D01*
X58512857Y-70422380D01*
X58798571Y-70422380D02*
X59417619Y-70422380D01*
X59084285Y-70803333D01*
X59227142Y-70803333D01*
X59322380Y-70850952D01*
X59369999Y-70898571D01*
X59417619Y-70993809D01*
X59417619Y-71231904D01*
X59369999Y-71327142D01*
X59322380Y-71374761D01*
X59227142Y-71422380D01*
X58941428Y-71422380D01*
X58846190Y-71374761D01*
X58798571Y-71327142D01*
X60608095Y-71422380D02*
X60608095Y-70422380D01*
X60989047Y-70422380D01*
X61084285Y-70470000D01*
X61131904Y-70517619D01*
X61179523Y-70612857D01*
X61179523Y-70755714D01*
X61131904Y-70850952D01*
X61084285Y-70898571D01*
X60989047Y-70946190D01*
X60608095Y-70946190D01*
X61608095Y-71422380D02*
X61608095Y-70755714D01*
X61608095Y-70946190D02*
X61655714Y-70850952D01*
X61703333Y-70803333D01*
X61798571Y-70755714D01*
X61893809Y-70755714D01*
X62370000Y-71422380D02*
X62274761Y-71374761D01*
X62227142Y-71327142D01*
X62179523Y-71231904D01*
X62179523Y-70946190D01*
X62227142Y-70850952D01*
X62274761Y-70803333D01*
X62370000Y-70755714D01*
X62512857Y-70755714D01*
X62608095Y-70803333D01*
X62655714Y-70850952D01*
X62703333Y-70946190D01*
X62703333Y-71231904D01*
X62655714Y-71327142D01*
X62608095Y-71374761D01*
X62512857Y-71422380D01*
X62370000Y-71422380D01*
X63560476Y-70755714D02*
X63560476Y-71565238D01*
X63512857Y-71660476D01*
X63465238Y-71708095D01*
X63370000Y-71755714D01*
X63227142Y-71755714D01*
X63131904Y-71708095D01*
X63560476Y-71374761D02*
X63465238Y-71422380D01*
X63274761Y-71422380D01*
X63179523Y-71374761D01*
X63131904Y-71327142D01*
X63084285Y-71231904D01*
X63084285Y-70946190D01*
X63131904Y-70850952D01*
X63179523Y-70803333D01*
X63274761Y-70755714D01*
X63465238Y-70755714D01*
X63560476Y-70803333D01*
X64750952Y-71374761D02*
X64893809Y-71422380D01*
X65131904Y-71422380D01*
X65227142Y-71374761D01*
X65274761Y-71327142D01*
X65322380Y-71231904D01*
X65322380Y-71136666D01*
X65274761Y-71041428D01*
X65227142Y-70993809D01*
X65131904Y-70946190D01*
X64941428Y-70898571D01*
X64846190Y-70850952D01*
X64798571Y-70803333D01*
X64750952Y-70708095D01*
X64750952Y-70612857D01*
X64798571Y-70517619D01*
X64846190Y-70470000D01*
X64941428Y-70422380D01*
X65179523Y-70422380D01*
X65322380Y-70470000D01*
X66131904Y-71374761D02*
X66036666Y-71422380D01*
X65846190Y-71422380D01*
X65750952Y-71374761D01*
X65703333Y-71279523D01*
X65703333Y-70898571D01*
X65750952Y-70803333D01*
X65846190Y-70755714D01*
X66036666Y-70755714D01*
X66131904Y-70803333D01*
X66179523Y-70898571D01*
X66179523Y-70993809D01*
X65703333Y-71089047D01*
X66750952Y-71422380D02*
X66655714Y-71374761D01*
X66608095Y-71279523D01*
X66608095Y-70422380D01*
X67512857Y-71374761D02*
X67417619Y-71422380D01*
X67227142Y-71422380D01*
X67131904Y-71374761D01*
X67084285Y-71279523D01*
X67084285Y-70898571D01*
X67131904Y-70803333D01*
X67227142Y-70755714D01*
X67417619Y-70755714D01*
X67512857Y-70803333D01*
X67560476Y-70898571D01*
X67560476Y-70993809D01*
X67084285Y-71089047D01*
X68417619Y-71374761D02*
X68322380Y-71422380D01*
X68131904Y-71422380D01*
X68036666Y-71374761D01*
X67989047Y-71327142D01*
X67941428Y-71231904D01*
X67941428Y-70946190D01*
X67989047Y-70850952D01*
X68036666Y-70803333D01*
X68131904Y-70755714D01*
X68322380Y-70755714D01*
X68417619Y-70803333D01*
X68703333Y-70755714D02*
X69084285Y-70755714D01*
X68846190Y-70422380D02*
X68846190Y-71279523D01*
X68893809Y-71374761D01*
X68989047Y-71422380D01*
X69084285Y-71422380D01*
%TO.C,U5*%
X112048095Y-19782380D02*
X112048095Y-20591904D01*
X112095714Y-20687142D01*
X112143333Y-20734761D01*
X112238571Y-20782380D01*
X112429047Y-20782380D01*
X112524285Y-20734761D01*
X112571904Y-20687142D01*
X112619523Y-20591904D01*
X112619523Y-19782380D01*
X113571904Y-19782380D02*
X113095714Y-19782380D01*
X113048095Y-20258571D01*
X113095714Y-20210952D01*
X113190952Y-20163333D01*
X113429047Y-20163333D01*
X113524285Y-20210952D01*
X113571904Y-20258571D01*
X113619523Y-20353809D01*
X113619523Y-20591904D01*
X113571904Y-20687142D01*
X113524285Y-20734761D01*
X113429047Y-20782380D01*
X113190952Y-20782380D01*
X113095714Y-20734761D01*
X113048095Y-20687142D01*
%TO.C,U1*%
X28418095Y-52962380D02*
X28418095Y-53771904D01*
X28465714Y-53867142D01*
X28513333Y-53914761D01*
X28608571Y-53962380D01*
X28799047Y-53962380D01*
X28894285Y-53914761D01*
X28941904Y-53867142D01*
X28989523Y-53771904D01*
X28989523Y-52962380D01*
X29989523Y-53962380D02*
X29418095Y-53962380D01*
X29703809Y-53962380D02*
X29703809Y-52962380D01*
X29608571Y-53105238D01*
X29513333Y-53200476D01*
X29418095Y-53248095D01*
%TO.C,U2*%
X53418095Y-52962380D02*
X53418095Y-53771904D01*
X53465714Y-53867142D01*
X53513333Y-53914761D01*
X53608571Y-53962380D01*
X53799047Y-53962380D01*
X53894285Y-53914761D01*
X53941904Y-53867142D01*
X53989523Y-53771904D01*
X53989523Y-52962380D01*
X54418095Y-53057619D02*
X54465714Y-53010000D01*
X54560952Y-52962380D01*
X54799047Y-52962380D01*
X54894285Y-53010000D01*
X54941904Y-53057619D01*
X54989523Y-53152857D01*
X54989523Y-53248095D01*
X54941904Y-53390952D01*
X54370476Y-53962380D01*
X54989523Y-53962380D01*
%TO.C,U4*%
X100358095Y-53092380D02*
X100358095Y-53901904D01*
X100405714Y-53997142D01*
X100453333Y-54044761D01*
X100548571Y-54092380D01*
X100739047Y-54092380D01*
X100834285Y-54044761D01*
X100881904Y-53997142D01*
X100929523Y-53901904D01*
X100929523Y-53092380D01*
X101834285Y-53425714D02*
X101834285Y-54092380D01*
X101596190Y-53044761D02*
X101358095Y-53759047D01*
X101977142Y-53759047D01*
%TO.C,U3*%
X78418095Y-52962380D02*
X78418095Y-53771904D01*
X78465714Y-53867142D01*
X78513333Y-53914761D01*
X78608571Y-53962380D01*
X78799047Y-53962380D01*
X78894285Y-53914761D01*
X78941904Y-53867142D01*
X78989523Y-53771904D01*
X78989523Y-52962380D01*
X79370476Y-52962380D02*
X79989523Y-52962380D01*
X79656190Y-53343333D01*
X79799047Y-53343333D01*
X79894285Y-53390952D01*
X79941904Y-53438571D01*
X79989523Y-53533809D01*
X79989523Y-53771904D01*
X79941904Y-53867142D01*
X79894285Y-53914761D01*
X79799047Y-53962380D01*
X79513333Y-53962380D01*
X79418095Y-53914761D01*
X79370476Y-53867142D01*
%TO.C,D17*%
X146125714Y-127562380D02*
X146125714Y-126562380D01*
X146363809Y-126562380D01*
X146506666Y-126610000D01*
X146601904Y-126705238D01*
X146649523Y-126800476D01*
X146697142Y-126990952D01*
X146697142Y-127133809D01*
X146649523Y-127324285D01*
X146601904Y-127419523D01*
X146506666Y-127514761D01*
X146363809Y-127562380D01*
X146125714Y-127562380D01*
X147649523Y-127562380D02*
X147078095Y-127562380D01*
X147363809Y-127562380D02*
X147363809Y-126562380D01*
X147268571Y-126705238D01*
X147173333Y-126800476D01*
X147078095Y-126848095D01*
X147982857Y-126562380D02*
X148649523Y-126562380D01*
X148220952Y-127562380D01*
%TO.C,D16*%
X141685714Y-127512380D02*
X141685714Y-126512380D01*
X141923809Y-126512380D01*
X142066666Y-126560000D01*
X142161904Y-126655238D01*
X142209523Y-126750476D01*
X142257142Y-126940952D01*
X142257142Y-127083809D01*
X142209523Y-127274285D01*
X142161904Y-127369523D01*
X142066666Y-127464761D01*
X141923809Y-127512380D01*
X141685714Y-127512380D01*
X143209523Y-127512380D02*
X142638095Y-127512380D01*
X142923809Y-127512380D02*
X142923809Y-126512380D01*
X142828571Y-126655238D01*
X142733333Y-126750476D01*
X142638095Y-126798095D01*
X144066666Y-126512380D02*
X143876190Y-126512380D01*
X143780952Y-126560000D01*
X143733333Y-126607619D01*
X143638095Y-126750476D01*
X143590476Y-126940952D01*
X143590476Y-127321904D01*
X143638095Y-127417142D01*
X143685714Y-127464761D01*
X143780952Y-127512380D01*
X143971428Y-127512380D01*
X144066666Y-127464761D01*
X144114285Y-127417142D01*
X144161904Y-127321904D01*
X144161904Y-127083809D01*
X144114285Y-126988571D01*
X144066666Y-126940952D01*
X143971428Y-126893333D01*
X143780952Y-126893333D01*
X143685714Y-126940952D01*
X143638095Y-126988571D01*
X143590476Y-127083809D01*
%TO.C,D15*%
X137195714Y-127512380D02*
X137195714Y-126512380D01*
X137433809Y-126512380D01*
X137576666Y-126560000D01*
X137671904Y-126655238D01*
X137719523Y-126750476D01*
X137767142Y-126940952D01*
X137767142Y-127083809D01*
X137719523Y-127274285D01*
X137671904Y-127369523D01*
X137576666Y-127464761D01*
X137433809Y-127512380D01*
X137195714Y-127512380D01*
X138719523Y-127512380D02*
X138148095Y-127512380D01*
X138433809Y-127512380D02*
X138433809Y-126512380D01*
X138338571Y-126655238D01*
X138243333Y-126750476D01*
X138148095Y-126798095D01*
X139624285Y-126512380D02*
X139148095Y-126512380D01*
X139100476Y-126988571D01*
X139148095Y-126940952D01*
X139243333Y-126893333D01*
X139481428Y-126893333D01*
X139576666Y-126940952D01*
X139624285Y-126988571D01*
X139671904Y-127083809D01*
X139671904Y-127321904D01*
X139624285Y-127417142D01*
X139576666Y-127464761D01*
X139481428Y-127512380D01*
X139243333Y-127512380D01*
X139148095Y-127464761D01*
X139100476Y-127417142D01*
%TO.C,D14*%
X132695714Y-127532380D02*
X132695714Y-126532380D01*
X132933809Y-126532380D01*
X133076666Y-126580000D01*
X133171904Y-126675238D01*
X133219523Y-126770476D01*
X133267142Y-126960952D01*
X133267142Y-127103809D01*
X133219523Y-127294285D01*
X133171904Y-127389523D01*
X133076666Y-127484761D01*
X132933809Y-127532380D01*
X132695714Y-127532380D01*
X134219523Y-127532380D02*
X133648095Y-127532380D01*
X133933809Y-127532380D02*
X133933809Y-126532380D01*
X133838571Y-126675238D01*
X133743333Y-126770476D01*
X133648095Y-126818095D01*
X135076666Y-126865714D02*
X135076666Y-127532380D01*
X134838571Y-126484761D02*
X134600476Y-127199047D01*
X135219523Y-127199047D01*
%TO.C,D13*%
X128165714Y-127532380D02*
X128165714Y-126532380D01*
X128403809Y-126532380D01*
X128546666Y-126580000D01*
X128641904Y-126675238D01*
X128689523Y-126770476D01*
X128737142Y-126960952D01*
X128737142Y-127103809D01*
X128689523Y-127294285D01*
X128641904Y-127389523D01*
X128546666Y-127484761D01*
X128403809Y-127532380D01*
X128165714Y-127532380D01*
X129689523Y-127532380D02*
X129118095Y-127532380D01*
X129403809Y-127532380D02*
X129403809Y-126532380D01*
X129308571Y-126675238D01*
X129213333Y-126770476D01*
X129118095Y-126818095D01*
X130022857Y-126532380D02*
X130641904Y-126532380D01*
X130308571Y-126913333D01*
X130451428Y-126913333D01*
X130546666Y-126960952D01*
X130594285Y-127008571D01*
X130641904Y-127103809D01*
X130641904Y-127341904D01*
X130594285Y-127437142D01*
X130546666Y-127484761D01*
X130451428Y-127532380D01*
X130165714Y-127532380D01*
X130070476Y-127484761D01*
X130022857Y-127437142D01*
%TO.C,D12*%
X123655714Y-127512380D02*
X123655714Y-126512380D01*
X123893809Y-126512380D01*
X124036666Y-126560000D01*
X124131904Y-126655238D01*
X124179523Y-126750476D01*
X124227142Y-126940952D01*
X124227142Y-127083809D01*
X124179523Y-127274285D01*
X124131904Y-127369523D01*
X124036666Y-127464761D01*
X123893809Y-127512380D01*
X123655714Y-127512380D01*
X125179523Y-127512380D02*
X124608095Y-127512380D01*
X124893809Y-127512380D02*
X124893809Y-126512380D01*
X124798571Y-126655238D01*
X124703333Y-126750476D01*
X124608095Y-126798095D01*
X125560476Y-126607619D02*
X125608095Y-126560000D01*
X125703333Y-126512380D01*
X125941428Y-126512380D01*
X126036666Y-126560000D01*
X126084285Y-126607619D01*
X126131904Y-126702857D01*
X126131904Y-126798095D01*
X126084285Y-126940952D01*
X125512857Y-127512380D01*
X126131904Y-127512380D01*
%TO.C,D11*%
X119105714Y-127512380D02*
X119105714Y-126512380D01*
X119343809Y-126512380D01*
X119486666Y-126560000D01*
X119581904Y-126655238D01*
X119629523Y-126750476D01*
X119677142Y-126940952D01*
X119677142Y-127083809D01*
X119629523Y-127274285D01*
X119581904Y-127369523D01*
X119486666Y-127464761D01*
X119343809Y-127512380D01*
X119105714Y-127512380D01*
X120629523Y-127512380D02*
X120058095Y-127512380D01*
X120343809Y-127512380D02*
X120343809Y-126512380D01*
X120248571Y-126655238D01*
X120153333Y-126750476D01*
X120058095Y-126798095D01*
X121581904Y-127512380D02*
X121010476Y-127512380D01*
X121296190Y-127512380D02*
X121296190Y-126512380D01*
X121200952Y-126655238D01*
X121105714Y-126750476D01*
X121010476Y-126798095D01*
%TO.C,D10*%
X114605714Y-127552380D02*
X114605714Y-126552380D01*
X114843809Y-126552380D01*
X114986666Y-126600000D01*
X115081904Y-126695238D01*
X115129523Y-126790476D01*
X115177142Y-126980952D01*
X115177142Y-127123809D01*
X115129523Y-127314285D01*
X115081904Y-127409523D01*
X114986666Y-127504761D01*
X114843809Y-127552380D01*
X114605714Y-127552380D01*
X116129523Y-127552380D02*
X115558095Y-127552380D01*
X115843809Y-127552380D02*
X115843809Y-126552380D01*
X115748571Y-126695238D01*
X115653333Y-126790476D01*
X115558095Y-126838095D01*
X116748571Y-126552380D02*
X116843809Y-126552380D01*
X116939047Y-126600000D01*
X116986666Y-126647619D01*
X117034285Y-126742857D01*
X117081904Y-126933333D01*
X117081904Y-127171428D01*
X117034285Y-127361904D01*
X116986666Y-127457142D01*
X116939047Y-127504761D01*
X116843809Y-127552380D01*
X116748571Y-127552380D01*
X116653333Y-127504761D01*
X116605714Y-127457142D01*
X116558095Y-127361904D01*
X116510476Y-127171428D01*
X116510476Y-126933333D01*
X116558095Y-126742857D01*
X116605714Y-126647619D01*
X116653333Y-126600000D01*
X116748571Y-126552380D01*
%TO.C,D9*%
X108301904Y-127532380D02*
X108301904Y-126532380D01*
X108540000Y-126532380D01*
X108682857Y-126580000D01*
X108778095Y-126675238D01*
X108825714Y-126770476D01*
X108873333Y-126960952D01*
X108873333Y-127103809D01*
X108825714Y-127294285D01*
X108778095Y-127389523D01*
X108682857Y-127484761D01*
X108540000Y-127532380D01*
X108301904Y-127532380D01*
X109349523Y-127532380D02*
X109540000Y-127532380D01*
X109635238Y-127484761D01*
X109682857Y-127437142D01*
X109778095Y-127294285D01*
X109825714Y-127103809D01*
X109825714Y-126722857D01*
X109778095Y-126627619D01*
X109730476Y-126580000D01*
X109635238Y-126532380D01*
X109444761Y-126532380D01*
X109349523Y-126580000D01*
X109301904Y-126627619D01*
X109254285Y-126722857D01*
X109254285Y-126960952D01*
X109301904Y-127056190D01*
X109349523Y-127103809D01*
X109444761Y-127151428D01*
X109635238Y-127151428D01*
X109730476Y-127103809D01*
X109778095Y-127056190D01*
X109825714Y-126960952D01*
%TO.C,D8*%
X103721904Y-127552380D02*
X103721904Y-126552380D01*
X103960000Y-126552380D01*
X104102857Y-126600000D01*
X104198095Y-126695238D01*
X104245714Y-126790476D01*
X104293333Y-126980952D01*
X104293333Y-127123809D01*
X104245714Y-127314285D01*
X104198095Y-127409523D01*
X104102857Y-127504761D01*
X103960000Y-127552380D01*
X103721904Y-127552380D01*
X104864761Y-126980952D02*
X104769523Y-126933333D01*
X104721904Y-126885714D01*
X104674285Y-126790476D01*
X104674285Y-126742857D01*
X104721904Y-126647619D01*
X104769523Y-126600000D01*
X104864761Y-126552380D01*
X105055238Y-126552380D01*
X105150476Y-126600000D01*
X105198095Y-126647619D01*
X105245714Y-126742857D01*
X105245714Y-126790476D01*
X105198095Y-126885714D01*
X105150476Y-126933333D01*
X105055238Y-126980952D01*
X104864761Y-126980952D01*
X104769523Y-127028571D01*
X104721904Y-127076190D01*
X104674285Y-127171428D01*
X104674285Y-127361904D01*
X104721904Y-127457142D01*
X104769523Y-127504761D01*
X104864761Y-127552380D01*
X105055238Y-127552380D01*
X105150476Y-127504761D01*
X105198095Y-127457142D01*
X105245714Y-127361904D01*
X105245714Y-127171428D01*
X105198095Y-127076190D01*
X105150476Y-127028571D01*
X105055238Y-126980952D01*
%TO.C,D7*%
X99251904Y-127602380D02*
X99251904Y-126602380D01*
X99490000Y-126602380D01*
X99632857Y-126650000D01*
X99728095Y-126745238D01*
X99775714Y-126840476D01*
X99823333Y-127030952D01*
X99823333Y-127173809D01*
X99775714Y-127364285D01*
X99728095Y-127459523D01*
X99632857Y-127554761D01*
X99490000Y-127602380D01*
X99251904Y-127602380D01*
X100156666Y-126602380D02*
X100823333Y-126602380D01*
X100394761Y-127602380D01*
%TO.C,D6*%
X94691904Y-127592380D02*
X94691904Y-126592380D01*
X94930000Y-126592380D01*
X95072857Y-126640000D01*
X95168095Y-126735238D01*
X95215714Y-126830476D01*
X95263333Y-127020952D01*
X95263333Y-127163809D01*
X95215714Y-127354285D01*
X95168095Y-127449523D01*
X95072857Y-127544761D01*
X94930000Y-127592380D01*
X94691904Y-127592380D01*
X96120476Y-126592380D02*
X95930000Y-126592380D01*
X95834761Y-126640000D01*
X95787142Y-126687619D01*
X95691904Y-126830476D01*
X95644285Y-127020952D01*
X95644285Y-127401904D01*
X95691904Y-127497142D01*
X95739523Y-127544761D01*
X95834761Y-127592380D01*
X96025238Y-127592380D01*
X96120476Y-127544761D01*
X96168095Y-127497142D01*
X96215714Y-127401904D01*
X96215714Y-127163809D01*
X96168095Y-127068571D01*
X96120476Y-127020952D01*
X96025238Y-126973333D01*
X95834761Y-126973333D01*
X95739523Y-127020952D01*
X95691904Y-127068571D01*
X95644285Y-127163809D01*
%TO.C,D5*%
X90201904Y-127592380D02*
X90201904Y-126592380D01*
X90440000Y-126592380D01*
X90582857Y-126640000D01*
X90678095Y-126735238D01*
X90725714Y-126830476D01*
X90773333Y-127020952D01*
X90773333Y-127163809D01*
X90725714Y-127354285D01*
X90678095Y-127449523D01*
X90582857Y-127544761D01*
X90440000Y-127592380D01*
X90201904Y-127592380D01*
X91678095Y-126592380D02*
X91201904Y-126592380D01*
X91154285Y-127068571D01*
X91201904Y-127020952D01*
X91297142Y-126973333D01*
X91535238Y-126973333D01*
X91630476Y-127020952D01*
X91678095Y-127068571D01*
X91725714Y-127163809D01*
X91725714Y-127401904D01*
X91678095Y-127497142D01*
X91630476Y-127544761D01*
X91535238Y-127592380D01*
X91297142Y-127592380D01*
X91201904Y-127544761D01*
X91154285Y-127497142D01*
%TO.C,D4*%
X85621904Y-127622380D02*
X85621904Y-126622380D01*
X85860000Y-126622380D01*
X86002857Y-126670000D01*
X86098095Y-126765238D01*
X86145714Y-126860476D01*
X86193333Y-127050952D01*
X86193333Y-127193809D01*
X86145714Y-127384285D01*
X86098095Y-127479523D01*
X86002857Y-127574761D01*
X85860000Y-127622380D01*
X85621904Y-127622380D01*
X87050476Y-126955714D02*
X87050476Y-127622380D01*
X86812380Y-126574761D02*
X86574285Y-127289047D01*
X87193333Y-127289047D01*
%TO.C,D3*%
X81131904Y-127742380D02*
X81131904Y-126742380D01*
X81370000Y-126742380D01*
X81512857Y-126790000D01*
X81608095Y-126885238D01*
X81655714Y-126980476D01*
X81703333Y-127170952D01*
X81703333Y-127313809D01*
X81655714Y-127504285D01*
X81608095Y-127599523D01*
X81512857Y-127694761D01*
X81370000Y-127742380D01*
X81131904Y-127742380D01*
X82036666Y-126742380D02*
X82655714Y-126742380D01*
X82322380Y-127123333D01*
X82465238Y-127123333D01*
X82560476Y-127170952D01*
X82608095Y-127218571D01*
X82655714Y-127313809D01*
X82655714Y-127551904D01*
X82608095Y-127647142D01*
X82560476Y-127694761D01*
X82465238Y-127742380D01*
X82179523Y-127742380D01*
X82084285Y-127694761D01*
X82036666Y-127647142D01*
%TO.C,D2*%
X76551904Y-127652380D02*
X76551904Y-126652380D01*
X76790000Y-126652380D01*
X76932857Y-126700000D01*
X77028095Y-126795238D01*
X77075714Y-126890476D01*
X77123333Y-127080952D01*
X77123333Y-127223809D01*
X77075714Y-127414285D01*
X77028095Y-127509523D01*
X76932857Y-127604761D01*
X76790000Y-127652380D01*
X76551904Y-127652380D01*
X77504285Y-126747619D02*
X77551904Y-126700000D01*
X77647142Y-126652380D01*
X77885238Y-126652380D01*
X77980476Y-126700000D01*
X78028095Y-126747619D01*
X78075714Y-126842857D01*
X78075714Y-126938095D01*
X78028095Y-127080952D01*
X77456666Y-127652380D01*
X78075714Y-127652380D01*
%TO.C,U9*%
X50138095Y-92802380D02*
X50138095Y-93611904D01*
X50185714Y-93707142D01*
X50233333Y-93754761D01*
X50328571Y-93802380D01*
X50519047Y-93802380D01*
X50614285Y-93754761D01*
X50661904Y-93707142D01*
X50709523Y-93611904D01*
X50709523Y-92802380D01*
X51233333Y-93802380D02*
X51423809Y-93802380D01*
X51519047Y-93754761D01*
X51566666Y-93707142D01*
X51661904Y-93564285D01*
X51709523Y-93373809D01*
X51709523Y-92992857D01*
X51661904Y-92897619D01*
X51614285Y-92850000D01*
X51519047Y-92802380D01*
X51328571Y-92802380D01*
X51233333Y-92850000D01*
X51185714Y-92897619D01*
X51138095Y-92992857D01*
X51138095Y-93230952D01*
X51185714Y-93326190D01*
X51233333Y-93373809D01*
X51328571Y-93421428D01*
X51519047Y-93421428D01*
X51614285Y-93373809D01*
X51661904Y-93326190D01*
X51709523Y-93230952D01*
%TO.C,Y1*%
X102453809Y-80341190D02*
X102453809Y-80817380D01*
X102120476Y-79817380D02*
X102453809Y-80341190D01*
X102787142Y-79817380D01*
X103644285Y-80817380D02*
X103072857Y-80817380D01*
X103358571Y-80817380D02*
X103358571Y-79817380D01*
X103263333Y-79960238D01*
X103168095Y-80055476D01*
X103072857Y-80103095D01*
%TO.C,U10*%
X114921904Y-100902380D02*
X114921904Y-101711904D01*
X114969523Y-101807142D01*
X115017142Y-101854761D01*
X115112380Y-101902380D01*
X115302857Y-101902380D01*
X115398095Y-101854761D01*
X115445714Y-101807142D01*
X115493333Y-101711904D01*
X115493333Y-100902380D01*
X116493333Y-101902380D02*
X115921904Y-101902380D01*
X116207619Y-101902380D02*
X116207619Y-100902380D01*
X116112380Y-101045238D01*
X116017142Y-101140476D01*
X115921904Y-101188095D01*
X117112380Y-100902380D02*
X117207619Y-100902380D01*
X117302857Y-100950000D01*
X117350476Y-100997619D01*
X117398095Y-101092857D01*
X117445714Y-101283333D01*
X117445714Y-101521428D01*
X117398095Y-101711904D01*
X117350476Y-101807142D01*
X117302857Y-101854761D01*
X117207619Y-101902380D01*
X117112380Y-101902380D01*
X117017142Y-101854761D01*
X116969523Y-101807142D01*
X116921904Y-101711904D01*
X116874285Y-101521428D01*
X116874285Y-101283333D01*
X116921904Y-101092857D01*
X116969523Y-100997619D01*
X117017142Y-100950000D01*
X117112380Y-100902380D01*
%TO.C,U7*%
X72488095Y-113372380D02*
X72488095Y-114181904D01*
X72535714Y-114277142D01*
X72583333Y-114324761D01*
X72678571Y-114372380D01*
X72869047Y-114372380D01*
X72964285Y-114324761D01*
X73011904Y-114277142D01*
X73059523Y-114181904D01*
X73059523Y-113372380D01*
X73440476Y-113372380D02*
X74107142Y-113372380D01*
X73678571Y-114372380D01*
%TO.C,SW4 Reset*%
X73228095Y-72134761D02*
X73370952Y-72182380D01*
X73609047Y-72182380D01*
X73704285Y-72134761D01*
X73751904Y-72087142D01*
X73799523Y-71991904D01*
X73799523Y-71896666D01*
X73751904Y-71801428D01*
X73704285Y-71753809D01*
X73609047Y-71706190D01*
X73418571Y-71658571D01*
X73323333Y-71610952D01*
X73275714Y-71563333D01*
X73228095Y-71468095D01*
X73228095Y-71372857D01*
X73275714Y-71277619D01*
X73323333Y-71230000D01*
X73418571Y-71182380D01*
X73656666Y-71182380D01*
X73799523Y-71230000D01*
X74132857Y-71182380D02*
X74370952Y-72182380D01*
X74561428Y-71468095D01*
X74751904Y-72182380D01*
X74990000Y-71182380D01*
X75799523Y-71515714D02*
X75799523Y-72182380D01*
X75561428Y-71134761D02*
X75323333Y-71849047D01*
X75942380Y-71849047D01*
X77656666Y-72182380D02*
X77323333Y-71706190D01*
X77085238Y-72182380D02*
X77085238Y-71182380D01*
X77466190Y-71182380D01*
X77561428Y-71230000D01*
X77609047Y-71277619D01*
X77656666Y-71372857D01*
X77656666Y-71515714D01*
X77609047Y-71610952D01*
X77561428Y-71658571D01*
X77466190Y-71706190D01*
X77085238Y-71706190D01*
X78466190Y-72134761D02*
X78370952Y-72182380D01*
X78180476Y-72182380D01*
X78085238Y-72134761D01*
X78037619Y-72039523D01*
X78037619Y-71658571D01*
X78085238Y-71563333D01*
X78180476Y-71515714D01*
X78370952Y-71515714D01*
X78466190Y-71563333D01*
X78513809Y-71658571D01*
X78513809Y-71753809D01*
X78037619Y-71849047D01*
X78894761Y-72134761D02*
X78990000Y-72182380D01*
X79180476Y-72182380D01*
X79275714Y-72134761D01*
X79323333Y-72039523D01*
X79323333Y-71991904D01*
X79275714Y-71896666D01*
X79180476Y-71849047D01*
X79037619Y-71849047D01*
X78942380Y-71801428D01*
X78894761Y-71706190D01*
X78894761Y-71658571D01*
X78942380Y-71563333D01*
X79037619Y-71515714D01*
X79180476Y-71515714D01*
X79275714Y-71563333D01*
X80132857Y-72134761D02*
X80037619Y-72182380D01*
X79847142Y-72182380D01*
X79751904Y-72134761D01*
X79704285Y-72039523D01*
X79704285Y-71658571D01*
X79751904Y-71563333D01*
X79847142Y-71515714D01*
X80037619Y-71515714D01*
X80132857Y-71563333D01*
X80180476Y-71658571D01*
X80180476Y-71753809D01*
X79704285Y-71849047D01*
X80466190Y-71515714D02*
X80847142Y-71515714D01*
X80609047Y-71182380D02*
X80609047Y-72039523D01*
X80656666Y-72134761D01*
X80751904Y-72182380D01*
X80847142Y-72182380D01*
%TO.C,SW2 CLK Mode*%
X45215238Y-72244761D02*
X45358095Y-72292380D01*
X45596190Y-72292380D01*
X45691428Y-72244761D01*
X45739047Y-72197142D01*
X45786666Y-72101904D01*
X45786666Y-72006666D01*
X45739047Y-71911428D01*
X45691428Y-71863809D01*
X45596190Y-71816190D01*
X45405714Y-71768571D01*
X45310476Y-71720952D01*
X45262857Y-71673333D01*
X45215238Y-71578095D01*
X45215238Y-71482857D01*
X45262857Y-71387619D01*
X45310476Y-71340000D01*
X45405714Y-71292380D01*
X45643809Y-71292380D01*
X45786666Y-71340000D01*
X46120000Y-71292380D02*
X46358095Y-72292380D01*
X46548571Y-71578095D01*
X46739047Y-72292380D01*
X46977142Y-71292380D01*
X47310476Y-71387619D02*
X47358095Y-71340000D01*
X47453333Y-71292380D01*
X47691428Y-71292380D01*
X47786666Y-71340000D01*
X47834285Y-71387619D01*
X47881904Y-71482857D01*
X47881904Y-71578095D01*
X47834285Y-71720952D01*
X47262857Y-72292380D01*
X47881904Y-72292380D01*
X49643809Y-72197142D02*
X49596190Y-72244761D01*
X49453333Y-72292380D01*
X49358095Y-72292380D01*
X49215238Y-72244761D01*
X49120000Y-72149523D01*
X49072380Y-72054285D01*
X49024761Y-71863809D01*
X49024761Y-71720952D01*
X49072380Y-71530476D01*
X49120000Y-71435238D01*
X49215238Y-71340000D01*
X49358095Y-71292380D01*
X49453333Y-71292380D01*
X49596190Y-71340000D01*
X49643809Y-71387619D01*
X50548571Y-72292380D02*
X50072380Y-72292380D01*
X50072380Y-71292380D01*
X50881904Y-72292380D02*
X50881904Y-71292380D01*
X51453333Y-72292380D02*
X51024761Y-71720952D01*
X51453333Y-71292380D02*
X50881904Y-71863809D01*
X52643809Y-72292380D02*
X52643809Y-71292380D01*
X52977142Y-72006666D01*
X53310476Y-71292380D01*
X53310476Y-72292380D01*
X53929523Y-72292380D02*
X53834285Y-72244761D01*
X53786666Y-72197142D01*
X53739047Y-72101904D01*
X53739047Y-71816190D01*
X53786666Y-71720952D01*
X53834285Y-71673333D01*
X53929523Y-71625714D01*
X54072380Y-71625714D01*
X54167619Y-71673333D01*
X54215238Y-71720952D01*
X54262857Y-71816190D01*
X54262857Y-72101904D01*
X54215238Y-72197142D01*
X54167619Y-72244761D01*
X54072380Y-72292380D01*
X53929523Y-72292380D01*
X55120000Y-72292380D02*
X55120000Y-71292380D01*
X55120000Y-72244761D02*
X55024761Y-72292380D01*
X54834285Y-72292380D01*
X54739047Y-72244761D01*
X54691428Y-72197142D01*
X54643809Y-72101904D01*
X54643809Y-71816190D01*
X54691428Y-71720952D01*
X54739047Y-71673333D01*
X54834285Y-71625714D01*
X55024761Y-71625714D01*
X55120000Y-71673333D01*
X55977142Y-72244761D02*
X55881904Y-72292380D01*
X55691428Y-72292380D01*
X55596190Y-72244761D01*
X55548571Y-72149523D01*
X55548571Y-71768571D01*
X55596190Y-71673333D01*
X55691428Y-71625714D01*
X55881904Y-71625714D01*
X55977142Y-71673333D01*
X56024761Y-71768571D01*
X56024761Y-71863809D01*
X55548571Y-71959047D01*
%TO.C,SW1 Step*%
X36442857Y-72304761D02*
X36585714Y-72352380D01*
X36823809Y-72352380D01*
X36919047Y-72304761D01*
X36966666Y-72257142D01*
X37014285Y-72161904D01*
X37014285Y-72066666D01*
X36966666Y-71971428D01*
X36919047Y-71923809D01*
X36823809Y-71876190D01*
X36633333Y-71828571D01*
X36538095Y-71780952D01*
X36490476Y-71733333D01*
X36442857Y-71638095D01*
X36442857Y-71542857D01*
X36490476Y-71447619D01*
X36538095Y-71400000D01*
X36633333Y-71352380D01*
X36871428Y-71352380D01*
X37014285Y-71400000D01*
X37347619Y-71352380D02*
X37585714Y-72352380D01*
X37776190Y-71638095D01*
X37966666Y-72352380D01*
X38204761Y-71352380D01*
X39109523Y-72352380D02*
X38538095Y-72352380D01*
X38823809Y-72352380D02*
X38823809Y-71352380D01*
X38728571Y-71495238D01*
X38633333Y-71590476D01*
X38538095Y-71638095D01*
X40252380Y-72304761D02*
X40395238Y-72352380D01*
X40633333Y-72352380D01*
X40728571Y-72304761D01*
X40776190Y-72257142D01*
X40823809Y-72161904D01*
X40823809Y-72066666D01*
X40776190Y-71971428D01*
X40728571Y-71923809D01*
X40633333Y-71876190D01*
X40442857Y-71828571D01*
X40347619Y-71780952D01*
X40300000Y-71733333D01*
X40252380Y-71638095D01*
X40252380Y-71542857D01*
X40300000Y-71447619D01*
X40347619Y-71400000D01*
X40442857Y-71352380D01*
X40680952Y-71352380D01*
X40823809Y-71400000D01*
X41109523Y-71685714D02*
X41490476Y-71685714D01*
X41252380Y-71352380D02*
X41252380Y-72209523D01*
X41300000Y-72304761D01*
X41395238Y-72352380D01*
X41490476Y-72352380D01*
X42204761Y-72304761D02*
X42109523Y-72352380D01*
X41919047Y-72352380D01*
X41823809Y-72304761D01*
X41776190Y-72209523D01*
X41776190Y-71828571D01*
X41823809Y-71733333D01*
X41919047Y-71685714D01*
X42109523Y-71685714D01*
X42204761Y-71733333D01*
X42252380Y-71828571D01*
X42252380Y-71923809D01*
X41776190Y-72019047D01*
X42680952Y-71685714D02*
X42680952Y-72685714D01*
X42680952Y-71733333D02*
X42776190Y-71685714D01*
X42966666Y-71685714D01*
X43061904Y-71733333D01*
X43109523Y-71780952D01*
X43157142Y-71876190D01*
X43157142Y-72161904D01*
X43109523Y-72257142D01*
X43061904Y-72304761D01*
X42966666Y-72352380D01*
X42776190Y-72352380D01*
X42680952Y-72304761D01*
%TO.C,RV1 CLK speed*%
X20929333Y-79132573D02*
X20595858Y-78656180D01*
X20357662Y-79132573D02*
X20357662Y-78132148D01*
X20738776Y-78132148D01*
X20834055Y-78179787D01*
X20881694Y-78227426D01*
X20929333Y-78322705D01*
X20929333Y-78465623D01*
X20881694Y-78560901D01*
X20834055Y-78608541D01*
X20738776Y-78656180D01*
X20357662Y-78656180D01*
X21215169Y-78132148D02*
X21548644Y-79132573D01*
X21882119Y-78132148D01*
X22739626Y-79132573D02*
X22167955Y-79132573D01*
X22453791Y-79132573D02*
X22453791Y-78132148D01*
X22358512Y-78275066D01*
X22263233Y-78370344D01*
X22167955Y-78417983D01*
X24502280Y-79037294D02*
X24454641Y-79084933D01*
X24311723Y-79132573D01*
X24216444Y-79132573D01*
X24073526Y-79084933D01*
X23978248Y-78989655D01*
X23930608Y-78894376D01*
X23882969Y-78703819D01*
X23882969Y-78560901D01*
X23930608Y-78370344D01*
X23978248Y-78275066D01*
X24073526Y-78179787D01*
X24216444Y-78132148D01*
X24311723Y-78132148D01*
X24454641Y-78179787D01*
X24502280Y-78227426D01*
X25407426Y-79132573D02*
X24931033Y-79132573D01*
X24931033Y-78132148D01*
X25740901Y-79132573D02*
X25740901Y-78132148D01*
X26312573Y-79132573D02*
X25883819Y-78560901D01*
X26312573Y-78132148D02*
X25740901Y-78703819D01*
X27455916Y-79084933D02*
X27551194Y-79132573D01*
X27741751Y-79132573D01*
X27837030Y-79084933D01*
X27884669Y-78989655D01*
X27884669Y-78942016D01*
X27837030Y-78846737D01*
X27741751Y-78799098D01*
X27598833Y-78799098D01*
X27503555Y-78751458D01*
X27455916Y-78656180D01*
X27455916Y-78608541D01*
X27503555Y-78513262D01*
X27598833Y-78465623D01*
X27741751Y-78465623D01*
X27837030Y-78513262D01*
X28313423Y-78465623D02*
X28313423Y-79466048D01*
X28313423Y-78513262D02*
X28408701Y-78465623D01*
X28599258Y-78465623D01*
X28694537Y-78513262D01*
X28742176Y-78560901D01*
X28789816Y-78656180D01*
X28789816Y-78942016D01*
X28742176Y-79037294D01*
X28694537Y-79084933D01*
X28599258Y-79132573D01*
X28408701Y-79132573D01*
X28313423Y-79084933D01*
X29599683Y-79084933D02*
X29504405Y-79132573D01*
X29313848Y-79132573D01*
X29218569Y-79084933D01*
X29170930Y-78989655D01*
X29170930Y-78608541D01*
X29218569Y-78513262D01*
X29313848Y-78465623D01*
X29504405Y-78465623D01*
X29599683Y-78513262D01*
X29647323Y-78608541D01*
X29647323Y-78703819D01*
X29170930Y-78799098D01*
X30457191Y-79084933D02*
X30361912Y-79132573D01*
X30171355Y-79132573D01*
X30076076Y-79084933D01*
X30028437Y-78989655D01*
X30028437Y-78608541D01*
X30076076Y-78513262D01*
X30171355Y-78465623D01*
X30361912Y-78465623D01*
X30457191Y-78513262D01*
X30504830Y-78608541D01*
X30504830Y-78703819D01*
X30028437Y-78799098D01*
X31362337Y-79132573D02*
X31362337Y-78132148D01*
X31362337Y-79084933D02*
X31267058Y-79132573D01*
X31076501Y-79132573D01*
X30981223Y-79084933D01*
X30933583Y-79037294D01*
X30885944Y-78942016D01*
X30885944Y-78656180D01*
X30933583Y-78560901D01*
X30981223Y-78513262D01*
X31076501Y-78465623D01*
X31267058Y-78465623D01*
X31362337Y-78513262D01*
%TO.C,L1*%
X65083333Y-24542380D02*
X64607142Y-24542380D01*
X64607142Y-23542380D01*
X65940476Y-24542380D02*
X65369047Y-24542380D01*
X65654761Y-24542380D02*
X65654761Y-23542380D01*
X65559523Y-23685238D01*
X65464285Y-23780476D01*
X65369047Y-23828095D01*
%TO.C,J8*%
X22256666Y-27092380D02*
X22256666Y-27806666D01*
X22209047Y-27949523D01*
X22113809Y-28044761D01*
X21970952Y-28092380D01*
X21875714Y-28092380D01*
X22875714Y-27520952D02*
X22780476Y-27473333D01*
X22732857Y-27425714D01*
X22685238Y-27330476D01*
X22685238Y-27282857D01*
X22732857Y-27187619D01*
X22780476Y-27140000D01*
X22875714Y-27092380D01*
X23066190Y-27092380D01*
X23161428Y-27140000D01*
X23209047Y-27187619D01*
X23256666Y-27282857D01*
X23256666Y-27330476D01*
X23209047Y-27425714D01*
X23161428Y-27473333D01*
X23066190Y-27520952D01*
X22875714Y-27520952D01*
X22780476Y-27568571D01*
X22732857Y-27616190D01*
X22685238Y-27711428D01*
X22685238Y-27901904D01*
X22732857Y-27997142D01*
X22780476Y-28044761D01*
X22875714Y-28092380D01*
X23066190Y-28092380D01*
X23161428Y-28044761D01*
X23209047Y-27997142D01*
X23256666Y-27901904D01*
X23256666Y-27711428D01*
X23209047Y-27616190D01*
X23161428Y-27568571D01*
X23066190Y-27520952D01*
%TO.C,J6 QPI IN*%
X151542380Y-87599047D02*
X152256666Y-87599047D01*
X152399523Y-87646666D01*
X152494761Y-87741904D01*
X152542380Y-87884761D01*
X152542380Y-87980000D01*
X151542380Y-86694285D02*
X151542380Y-86884761D01*
X151590000Y-86980000D01*
X151637619Y-87027619D01*
X151780476Y-87122857D01*
X151970952Y-87170476D01*
X152351904Y-87170476D01*
X152447142Y-87122857D01*
X152494761Y-87075238D01*
X152542380Y-86980000D01*
X152542380Y-86789523D01*
X152494761Y-86694285D01*
X152447142Y-86646666D01*
X152351904Y-86599047D01*
X152113809Y-86599047D01*
X152018571Y-86646666D01*
X151970952Y-86694285D01*
X151923333Y-86789523D01*
X151923333Y-86980000D01*
X151970952Y-87075238D01*
X152018571Y-87122857D01*
X152113809Y-87170476D01*
X152637619Y-84741904D02*
X152590000Y-84837142D01*
X152494761Y-84932380D01*
X152351904Y-85075238D01*
X152304285Y-85170476D01*
X152304285Y-85265714D01*
X152542380Y-85218095D02*
X152494761Y-85313333D01*
X152399523Y-85408571D01*
X152209047Y-85456190D01*
X151875714Y-85456190D01*
X151685238Y-85408571D01*
X151590000Y-85313333D01*
X151542380Y-85218095D01*
X151542380Y-85027619D01*
X151590000Y-84932380D01*
X151685238Y-84837142D01*
X151875714Y-84789523D01*
X152209047Y-84789523D01*
X152399523Y-84837142D01*
X152494761Y-84932380D01*
X152542380Y-85027619D01*
X152542380Y-85218095D01*
X152542380Y-84360952D02*
X151542380Y-84360952D01*
X151542380Y-83980000D01*
X151590000Y-83884761D01*
X151637619Y-83837142D01*
X151732857Y-83789523D01*
X151875714Y-83789523D01*
X151970952Y-83837142D01*
X152018571Y-83884761D01*
X152066190Y-83980000D01*
X152066190Y-84360952D01*
X152542380Y-83360952D02*
X151542380Y-83360952D01*
X152542380Y-82122857D02*
X151542380Y-82122857D01*
X152542380Y-81646666D02*
X151542380Y-81646666D01*
X152542380Y-81075238D01*
X151542380Y-81075238D01*
%TO.C,J5 QPI Out*%
X162072380Y-88599047D02*
X162786666Y-88599047D01*
X162929523Y-88646666D01*
X163024761Y-88741904D01*
X163072380Y-88884761D01*
X163072380Y-88980000D01*
X162072380Y-87646666D02*
X162072380Y-88122857D01*
X162548571Y-88170476D01*
X162500952Y-88122857D01*
X162453333Y-88027619D01*
X162453333Y-87789523D01*
X162500952Y-87694285D01*
X162548571Y-87646666D01*
X162643809Y-87599047D01*
X162881904Y-87599047D01*
X162977142Y-87646666D01*
X163024761Y-87694285D01*
X163072380Y-87789523D01*
X163072380Y-88027619D01*
X163024761Y-88122857D01*
X162977142Y-88170476D01*
X163167619Y-85741904D02*
X163120000Y-85837142D01*
X163024761Y-85932380D01*
X162881904Y-86075238D01*
X162834285Y-86170476D01*
X162834285Y-86265714D01*
X163072380Y-86218095D02*
X163024761Y-86313333D01*
X162929523Y-86408571D01*
X162739047Y-86456190D01*
X162405714Y-86456190D01*
X162215238Y-86408571D01*
X162120000Y-86313333D01*
X162072380Y-86218095D01*
X162072380Y-86027619D01*
X162120000Y-85932380D01*
X162215238Y-85837142D01*
X162405714Y-85789523D01*
X162739047Y-85789523D01*
X162929523Y-85837142D01*
X163024761Y-85932380D01*
X163072380Y-86027619D01*
X163072380Y-86218095D01*
X163072380Y-85360952D02*
X162072380Y-85360952D01*
X162072380Y-84980000D01*
X162120000Y-84884761D01*
X162167619Y-84837142D01*
X162262857Y-84789523D01*
X162405714Y-84789523D01*
X162500952Y-84837142D01*
X162548571Y-84884761D01*
X162596190Y-84980000D01*
X162596190Y-85360952D01*
X163072380Y-84360952D02*
X162072380Y-84360952D01*
X162072380Y-82932380D02*
X162072380Y-82741904D01*
X162120000Y-82646666D01*
X162215238Y-82551428D01*
X162405714Y-82503809D01*
X162739047Y-82503809D01*
X162929523Y-82551428D01*
X163024761Y-82646666D01*
X163072380Y-82741904D01*
X163072380Y-82932380D01*
X163024761Y-83027619D01*
X162929523Y-83122857D01*
X162739047Y-83170476D01*
X162405714Y-83170476D01*
X162215238Y-83122857D01*
X162120000Y-83027619D01*
X162072380Y-82932380D01*
X162405714Y-81646666D02*
X163072380Y-81646666D01*
X162405714Y-82075238D02*
X162929523Y-82075238D01*
X163024761Y-82027619D01*
X163072380Y-81932380D01*
X163072380Y-81789523D01*
X163024761Y-81694285D01*
X162977142Y-81646666D01*
X162405714Y-81313333D02*
X162405714Y-80932380D01*
X162072380Y-81170476D02*
X162929523Y-81170476D01*
X163024761Y-81122857D01*
X163072380Y-81027619D01*
X163072380Y-80932380D01*
%TO.C,J4 Module Output*%
X50475333Y-127722380D02*
X50475333Y-128436666D01*
X50427714Y-128579523D01*
X50332476Y-128674761D01*
X50189619Y-128722380D01*
X50094380Y-128722380D01*
X51380095Y-128055714D02*
X51380095Y-128722380D01*
X51142000Y-127674761D02*
X50903904Y-128389047D01*
X51522952Y-128389047D01*
X52665809Y-128722380D02*
X52665809Y-127722380D01*
X52999142Y-128436666D01*
X53332476Y-127722380D01*
X53332476Y-128722380D01*
X53951523Y-128722380D02*
X53856285Y-128674761D01*
X53808666Y-128627142D01*
X53761047Y-128531904D01*
X53761047Y-128246190D01*
X53808666Y-128150952D01*
X53856285Y-128103333D01*
X53951523Y-128055714D01*
X54094380Y-128055714D01*
X54189619Y-128103333D01*
X54237238Y-128150952D01*
X54284857Y-128246190D01*
X54284857Y-128531904D01*
X54237238Y-128627142D01*
X54189619Y-128674761D01*
X54094380Y-128722380D01*
X53951523Y-128722380D01*
X55142000Y-128722380D02*
X55142000Y-127722380D01*
X55142000Y-128674761D02*
X55046761Y-128722380D01*
X54856285Y-128722380D01*
X54761047Y-128674761D01*
X54713428Y-128627142D01*
X54665809Y-128531904D01*
X54665809Y-128246190D01*
X54713428Y-128150952D01*
X54761047Y-128103333D01*
X54856285Y-128055714D01*
X55046761Y-128055714D01*
X55142000Y-128103333D01*
X56046761Y-128055714D02*
X56046761Y-128722380D01*
X55618190Y-128055714D02*
X55618190Y-128579523D01*
X55665809Y-128674761D01*
X55761047Y-128722380D01*
X55903904Y-128722380D01*
X55999142Y-128674761D01*
X56046761Y-128627142D01*
X56665809Y-128722380D02*
X56570571Y-128674761D01*
X56522952Y-128579523D01*
X56522952Y-127722380D01*
X57427714Y-128674761D02*
X57332476Y-128722380D01*
X57141999Y-128722380D01*
X57046761Y-128674761D01*
X56999142Y-128579523D01*
X56999142Y-128198571D01*
X57046761Y-128103333D01*
X57141999Y-128055714D01*
X57332476Y-128055714D01*
X57427714Y-128103333D01*
X57475333Y-128198571D01*
X57475333Y-128293809D01*
X56999142Y-128389047D01*
X58856285Y-127722380D02*
X59046761Y-127722380D01*
X59142000Y-127770000D01*
X59237238Y-127865238D01*
X59284857Y-128055714D01*
X59284857Y-128389047D01*
X59237238Y-128579523D01*
X59142000Y-128674761D01*
X59046761Y-128722380D01*
X58856285Y-128722380D01*
X58761047Y-128674761D01*
X58665809Y-128579523D01*
X58618190Y-128389047D01*
X58618190Y-128055714D01*
X58665809Y-127865238D01*
X58761047Y-127770000D01*
X58856285Y-127722380D01*
X60141999Y-128055714D02*
X60141999Y-128722380D01*
X59713428Y-128055714D02*
X59713428Y-128579523D01*
X59761047Y-128674761D01*
X59856285Y-128722380D01*
X59999142Y-128722380D01*
X60094380Y-128674761D01*
X60141999Y-128627142D01*
X60475333Y-128055714D02*
X60856285Y-128055714D01*
X60618190Y-127722380D02*
X60618190Y-128579523D01*
X60665809Y-128674761D01*
X60761047Y-128722380D01*
X60856285Y-128722380D01*
X61189619Y-128055714D02*
X61189619Y-129055714D01*
X61189619Y-128103333D02*
X61284857Y-128055714D01*
X61475333Y-128055714D01*
X61570571Y-128103333D01*
X61618190Y-128150952D01*
X61665809Y-128246190D01*
X61665809Y-128531904D01*
X61618190Y-128627142D01*
X61570571Y-128674761D01*
X61475333Y-128722380D01*
X61284857Y-128722380D01*
X61189619Y-128674761D01*
X62522952Y-128055714D02*
X62522952Y-128722380D01*
X62094380Y-128055714D02*
X62094380Y-128579523D01*
X62141999Y-128674761D01*
X62237238Y-128722380D01*
X62380095Y-128722380D01*
X62475333Y-128674761D01*
X62522952Y-128627142D01*
X62856285Y-128055714D02*
X63237238Y-128055714D01*
X62999142Y-127722380D02*
X62999142Y-128579523D01*
X63046761Y-128674761D01*
X63141999Y-128722380D01*
X63237238Y-128722380D01*
%TO.C,J3 Module Input*%
X23106761Y-127976380D02*
X23106761Y-128690666D01*
X23059142Y-128833523D01*
X22963904Y-128928761D01*
X22821047Y-128976380D01*
X22725809Y-128976380D01*
X23487714Y-127976380D02*
X24106761Y-127976380D01*
X23773428Y-128357333D01*
X23916285Y-128357333D01*
X24011523Y-128404952D01*
X24059142Y-128452571D01*
X24106761Y-128547809D01*
X24106761Y-128785904D01*
X24059142Y-128881142D01*
X24011523Y-128928761D01*
X23916285Y-128976380D01*
X23630571Y-128976380D01*
X23535333Y-128928761D01*
X23487714Y-128881142D01*
X25297238Y-128976380D02*
X25297238Y-127976380D01*
X25630571Y-128690666D01*
X25963904Y-127976380D01*
X25963904Y-128976380D01*
X26582952Y-128976380D02*
X26487714Y-128928761D01*
X26440095Y-128881142D01*
X26392476Y-128785904D01*
X26392476Y-128500190D01*
X26440095Y-128404952D01*
X26487714Y-128357333D01*
X26582952Y-128309714D01*
X26725809Y-128309714D01*
X26821047Y-128357333D01*
X26868666Y-128404952D01*
X26916285Y-128500190D01*
X26916285Y-128785904D01*
X26868666Y-128881142D01*
X26821047Y-128928761D01*
X26725809Y-128976380D01*
X26582952Y-128976380D01*
X27773428Y-128976380D02*
X27773428Y-127976380D01*
X27773428Y-128928761D02*
X27678190Y-128976380D01*
X27487714Y-128976380D01*
X27392476Y-128928761D01*
X27344857Y-128881142D01*
X27297238Y-128785904D01*
X27297238Y-128500190D01*
X27344857Y-128404952D01*
X27392476Y-128357333D01*
X27487714Y-128309714D01*
X27678190Y-128309714D01*
X27773428Y-128357333D01*
X28678190Y-128309714D02*
X28678190Y-128976380D01*
X28249619Y-128309714D02*
X28249619Y-128833523D01*
X28297238Y-128928761D01*
X28392476Y-128976380D01*
X28535333Y-128976380D01*
X28630571Y-128928761D01*
X28678190Y-128881142D01*
X29297238Y-128976380D02*
X29202000Y-128928761D01*
X29154380Y-128833523D01*
X29154380Y-127976380D01*
X30059142Y-128928761D02*
X29963904Y-128976380D01*
X29773428Y-128976380D01*
X29678190Y-128928761D01*
X29630571Y-128833523D01*
X29630571Y-128452571D01*
X29678190Y-128357333D01*
X29773428Y-128309714D01*
X29963904Y-128309714D01*
X30059142Y-128357333D01*
X30106761Y-128452571D01*
X30106761Y-128547809D01*
X29630571Y-128643047D01*
X31297238Y-128976380D02*
X31297238Y-127976380D01*
X31773428Y-128309714D02*
X31773428Y-128976380D01*
X31773428Y-128404952D02*
X31821047Y-128357333D01*
X31916285Y-128309714D01*
X32059142Y-128309714D01*
X32154380Y-128357333D01*
X32202000Y-128452571D01*
X32202000Y-128976380D01*
X32678190Y-128309714D02*
X32678190Y-129309714D01*
X32678190Y-128357333D02*
X32773428Y-128309714D01*
X32963904Y-128309714D01*
X33059142Y-128357333D01*
X33106761Y-128404952D01*
X33154380Y-128500190D01*
X33154380Y-128785904D01*
X33106761Y-128881142D01*
X33059142Y-128928761D01*
X32963904Y-128976380D01*
X32773428Y-128976380D01*
X32678190Y-128928761D01*
X34011523Y-128309714D02*
X34011523Y-128976380D01*
X33582952Y-128309714D02*
X33582952Y-128833523D01*
X33630571Y-128928761D01*
X33725809Y-128976380D01*
X33868666Y-128976380D01*
X33963904Y-128928761D01*
X34011523Y-128881142D01*
X34344857Y-128309714D02*
X34725809Y-128309714D01*
X34487714Y-127976380D02*
X34487714Y-128833523D01*
X34535333Y-128928761D01*
X34630571Y-128976380D01*
X34725809Y-128976380D01*
%TO.C,J2 Instructions*%
X46150952Y-83512380D02*
X46150952Y-84226666D01*
X46103333Y-84369523D01*
X46008095Y-84464761D01*
X45865238Y-84512380D01*
X45770000Y-84512380D01*
X46579523Y-83607619D02*
X46627142Y-83560000D01*
X46722380Y-83512380D01*
X46960476Y-83512380D01*
X47055714Y-83560000D01*
X47103333Y-83607619D01*
X47150952Y-83702857D01*
X47150952Y-83798095D01*
X47103333Y-83940952D01*
X46531904Y-84512380D01*
X47150952Y-84512380D01*
X48341428Y-84512380D02*
X48341428Y-83512380D01*
X48817619Y-83845714D02*
X48817619Y-84512380D01*
X48817619Y-83940952D02*
X48865238Y-83893333D01*
X48960476Y-83845714D01*
X49103333Y-83845714D01*
X49198571Y-83893333D01*
X49246190Y-83988571D01*
X49246190Y-84512380D01*
X49674761Y-84464761D02*
X49770000Y-84512380D01*
X49960476Y-84512380D01*
X50055714Y-84464761D01*
X50103333Y-84369523D01*
X50103333Y-84321904D01*
X50055714Y-84226666D01*
X49960476Y-84179047D01*
X49817619Y-84179047D01*
X49722380Y-84131428D01*
X49674761Y-84036190D01*
X49674761Y-83988571D01*
X49722380Y-83893333D01*
X49817619Y-83845714D01*
X49960476Y-83845714D01*
X50055714Y-83893333D01*
X50389047Y-83845714D02*
X50770000Y-83845714D01*
X50531904Y-83512380D02*
X50531904Y-84369523D01*
X50579523Y-84464761D01*
X50674761Y-84512380D01*
X50770000Y-84512380D01*
X51103333Y-84512380D02*
X51103333Y-83845714D01*
X51103333Y-84036190D02*
X51150952Y-83940952D01*
X51198571Y-83893333D01*
X51293809Y-83845714D01*
X51389047Y-83845714D01*
X52150952Y-83845714D02*
X52150952Y-84512380D01*
X51722380Y-83845714D02*
X51722380Y-84369523D01*
X51770000Y-84464761D01*
X51865238Y-84512380D01*
X52008095Y-84512380D01*
X52103333Y-84464761D01*
X52150952Y-84417142D01*
X53055714Y-84464761D02*
X52960476Y-84512380D01*
X52770000Y-84512380D01*
X52674761Y-84464761D01*
X52627142Y-84417142D01*
X52579523Y-84321904D01*
X52579523Y-84036190D01*
X52627142Y-83940952D01*
X52674761Y-83893333D01*
X52770000Y-83845714D01*
X52960476Y-83845714D01*
X53055714Y-83893333D01*
X53341428Y-83845714D02*
X53722380Y-83845714D01*
X53484285Y-83512380D02*
X53484285Y-84369523D01*
X53531904Y-84464761D01*
X53627142Y-84512380D01*
X53722380Y-84512380D01*
X54055714Y-84512380D02*
X54055714Y-83845714D01*
X54055714Y-83512380D02*
X54008095Y-83560000D01*
X54055714Y-83607619D01*
X54103333Y-83560000D01*
X54055714Y-83512380D01*
X54055714Y-83607619D01*
X54674761Y-84512380D02*
X54579523Y-84464761D01*
X54531904Y-84417142D01*
X54484285Y-84321904D01*
X54484285Y-84036190D01*
X54531904Y-83940952D01*
X54579523Y-83893333D01*
X54674761Y-83845714D01*
X54817619Y-83845714D01*
X54912857Y-83893333D01*
X54960476Y-83940952D01*
X55008095Y-84036190D01*
X55008095Y-84321904D01*
X54960476Y-84417142D01*
X54912857Y-84464761D01*
X54817619Y-84512380D01*
X54674761Y-84512380D01*
X55436666Y-83845714D02*
X55436666Y-84512380D01*
X55436666Y-83940952D02*
X55484285Y-83893333D01*
X55579523Y-83845714D01*
X55722380Y-83845714D01*
X55817619Y-83893333D01*
X55865238Y-83988571D01*
X55865238Y-84512380D01*
X56293809Y-84464761D02*
X56389047Y-84512380D01*
X56579523Y-84512380D01*
X56674761Y-84464761D01*
X56722380Y-84369523D01*
X56722380Y-84321904D01*
X56674761Y-84226666D01*
X56579523Y-84179047D01*
X56436666Y-84179047D01*
X56341428Y-84131428D01*
X56293809Y-84036190D01*
X56293809Y-83988571D01*
X56341428Y-83893333D01*
X56436666Y-83845714D01*
X56579523Y-83845714D01*
X56674761Y-83893333D01*
%TO.C,J1 JTAG*%
X151011238Y-126706380D02*
X151011238Y-127420666D01*
X150963619Y-127563523D01*
X150868380Y-127658761D01*
X150725523Y-127706380D01*
X150630285Y-127706380D01*
X152011238Y-127706380D02*
X151439809Y-127706380D01*
X151725523Y-127706380D02*
X151725523Y-126706380D01*
X151630285Y-126849238D01*
X151535047Y-126944476D01*
X151439809Y-126992095D01*
X153487428Y-126706380D02*
X153487428Y-127420666D01*
X153439809Y-127563523D01*
X153344571Y-127658761D01*
X153201714Y-127706380D01*
X153106476Y-127706380D01*
X153820761Y-126706380D02*
X154392190Y-126706380D01*
X154106476Y-127706380D02*
X154106476Y-126706380D01*
X154677904Y-127420666D02*
X155154095Y-127420666D01*
X154582666Y-127706380D02*
X154916000Y-126706380D01*
X155249333Y-127706380D01*
X156106476Y-126754000D02*
X156011238Y-126706380D01*
X155868380Y-126706380D01*
X155725523Y-126754000D01*
X155630285Y-126849238D01*
X155582666Y-126944476D01*
X155535047Y-127134952D01*
X155535047Y-127277809D01*
X155582666Y-127468285D01*
X155630285Y-127563523D01*
X155725523Y-127658761D01*
X155868380Y-127706380D01*
X155963619Y-127706380D01*
X156106476Y-127658761D01*
X156154095Y-127611142D01*
X156154095Y-127277809D01*
X155963619Y-127277809D01*
%TO.C,C18*%
X122027142Y-60797142D02*
X121979523Y-60844761D01*
X121836666Y-60892380D01*
X121741428Y-60892380D01*
X121598571Y-60844761D01*
X121503333Y-60749523D01*
X121455714Y-60654285D01*
X121408095Y-60463809D01*
X121408095Y-60320952D01*
X121455714Y-60130476D01*
X121503333Y-60035238D01*
X121598571Y-59940000D01*
X121741428Y-59892380D01*
X121836666Y-59892380D01*
X121979523Y-59940000D01*
X122027142Y-59987619D01*
X122979523Y-60892380D02*
X122408095Y-60892380D01*
X122693809Y-60892380D02*
X122693809Y-59892380D01*
X122598571Y-60035238D01*
X122503333Y-60130476D01*
X122408095Y-60178095D01*
X123550952Y-60320952D02*
X123455714Y-60273333D01*
X123408095Y-60225714D01*
X123360476Y-60130476D01*
X123360476Y-60082857D01*
X123408095Y-59987619D01*
X123455714Y-59940000D01*
X123550952Y-59892380D01*
X123741428Y-59892380D01*
X123836666Y-59940000D01*
X123884285Y-59987619D01*
X123931904Y-60082857D01*
X123931904Y-60130476D01*
X123884285Y-60225714D01*
X123836666Y-60273333D01*
X123741428Y-60320952D01*
X123550952Y-60320952D01*
X123455714Y-60368571D01*
X123408095Y-60416190D01*
X123360476Y-60511428D01*
X123360476Y-60701904D01*
X123408095Y-60797142D01*
X123455714Y-60844761D01*
X123550952Y-60892380D01*
X123741428Y-60892380D01*
X123836666Y-60844761D01*
X123884285Y-60797142D01*
X123931904Y-60701904D01*
X123931904Y-60511428D01*
X123884285Y-60416190D01*
X123836666Y-60368571D01*
X123741428Y-60320952D01*
%TO.C,C17*%
X122547142Y-19153142D02*
X122499523Y-19200761D01*
X122356666Y-19248380D01*
X122261428Y-19248380D01*
X122118571Y-19200761D01*
X122023333Y-19105523D01*
X121975714Y-19010285D01*
X121928095Y-18819809D01*
X121928095Y-18676952D01*
X121975714Y-18486476D01*
X122023333Y-18391238D01*
X122118571Y-18296000D01*
X122261428Y-18248380D01*
X122356666Y-18248380D01*
X122499523Y-18296000D01*
X122547142Y-18343619D01*
X123499523Y-19248380D02*
X122928095Y-19248380D01*
X123213809Y-19248380D02*
X123213809Y-18248380D01*
X123118571Y-18391238D01*
X123023333Y-18486476D01*
X122928095Y-18534095D01*
X123832857Y-18248380D02*
X124499523Y-18248380D01*
X124070952Y-19248380D01*
%TO.C,C15*%
X88327142Y-37397142D02*
X88279523Y-37444761D01*
X88136666Y-37492380D01*
X88041428Y-37492380D01*
X87898571Y-37444761D01*
X87803333Y-37349523D01*
X87755714Y-37254285D01*
X87708095Y-37063809D01*
X87708095Y-36920952D01*
X87755714Y-36730476D01*
X87803333Y-36635238D01*
X87898571Y-36540000D01*
X88041428Y-36492380D01*
X88136666Y-36492380D01*
X88279523Y-36540000D01*
X88327142Y-36587619D01*
X89279523Y-37492380D02*
X88708095Y-37492380D01*
X88993809Y-37492380D02*
X88993809Y-36492380D01*
X88898571Y-36635238D01*
X88803333Y-36730476D01*
X88708095Y-36778095D01*
X90184285Y-36492380D02*
X89708095Y-36492380D01*
X89660476Y-36968571D01*
X89708095Y-36920952D01*
X89803333Y-36873333D01*
X90041428Y-36873333D01*
X90136666Y-36920952D01*
X90184285Y-36968571D01*
X90231904Y-37063809D01*
X90231904Y-37301904D01*
X90184285Y-37397142D01*
X90136666Y-37444761D01*
X90041428Y-37492380D01*
X89803333Y-37492380D01*
X89708095Y-37444761D01*
X89660476Y-37397142D01*
%TO.C,C20*%
X130227142Y-100697142D02*
X130179523Y-100744761D01*
X130036666Y-100792380D01*
X129941428Y-100792380D01*
X129798571Y-100744761D01*
X129703333Y-100649523D01*
X129655714Y-100554285D01*
X129608095Y-100363809D01*
X129608095Y-100220952D01*
X129655714Y-100030476D01*
X129703333Y-99935238D01*
X129798571Y-99840000D01*
X129941428Y-99792380D01*
X130036666Y-99792380D01*
X130179523Y-99840000D01*
X130227142Y-99887619D01*
X130608095Y-99887619D02*
X130655714Y-99840000D01*
X130750952Y-99792380D01*
X130989047Y-99792380D01*
X131084285Y-99840000D01*
X131131904Y-99887619D01*
X131179523Y-99982857D01*
X131179523Y-100078095D01*
X131131904Y-100220952D01*
X130560476Y-100792380D01*
X131179523Y-100792380D01*
X131798571Y-99792380D02*
X131893809Y-99792380D01*
X131989047Y-99840000D01*
X132036666Y-99887619D01*
X132084285Y-99982857D01*
X132131904Y-100173333D01*
X132131904Y-100411428D01*
X132084285Y-100601904D01*
X132036666Y-100697142D01*
X131989047Y-100744761D01*
X131893809Y-100792380D01*
X131798571Y-100792380D01*
X131703333Y-100744761D01*
X131655714Y-100697142D01*
X131608095Y-100601904D01*
X131560476Y-100411428D01*
X131560476Y-100173333D01*
X131608095Y-99982857D01*
X131655714Y-99887619D01*
X131703333Y-99840000D01*
X131798571Y-99792380D01*
%TO.C,C14*%
X105227142Y-59197142D02*
X105179523Y-59244761D01*
X105036666Y-59292380D01*
X104941428Y-59292380D01*
X104798571Y-59244761D01*
X104703333Y-59149523D01*
X104655714Y-59054285D01*
X104608095Y-58863809D01*
X104608095Y-58720952D01*
X104655714Y-58530476D01*
X104703333Y-58435238D01*
X104798571Y-58340000D01*
X104941428Y-58292380D01*
X105036666Y-58292380D01*
X105179523Y-58340000D01*
X105227142Y-58387619D01*
X106179523Y-59292380D02*
X105608095Y-59292380D01*
X105893809Y-59292380D02*
X105893809Y-58292380D01*
X105798571Y-58435238D01*
X105703333Y-58530476D01*
X105608095Y-58578095D01*
X107036666Y-58625714D02*
X107036666Y-59292380D01*
X106798571Y-58244761D02*
X106560476Y-58959047D01*
X107179523Y-58959047D01*
%TO.C,C13*%
X74427142Y-50297142D02*
X74379523Y-50344761D01*
X74236666Y-50392380D01*
X74141428Y-50392380D01*
X73998571Y-50344761D01*
X73903333Y-50249523D01*
X73855714Y-50154285D01*
X73808095Y-49963809D01*
X73808095Y-49820952D01*
X73855714Y-49630476D01*
X73903333Y-49535238D01*
X73998571Y-49440000D01*
X74141428Y-49392380D01*
X74236666Y-49392380D01*
X74379523Y-49440000D01*
X74427142Y-49487619D01*
X75379523Y-50392380D02*
X74808095Y-50392380D01*
X75093809Y-50392380D02*
X75093809Y-49392380D01*
X74998571Y-49535238D01*
X74903333Y-49630476D01*
X74808095Y-49678095D01*
X75712857Y-49392380D02*
X76331904Y-49392380D01*
X75998571Y-49773333D01*
X76141428Y-49773333D01*
X76236666Y-49820952D01*
X76284285Y-49868571D01*
X76331904Y-49963809D01*
X76331904Y-50201904D01*
X76284285Y-50297142D01*
X76236666Y-50344761D01*
X76141428Y-50392380D01*
X75855714Y-50392380D01*
X75760476Y-50344761D01*
X75712857Y-50297142D01*
%TO.C,C12*%
X57427142Y-49897142D02*
X57379523Y-49944761D01*
X57236666Y-49992380D01*
X57141428Y-49992380D01*
X56998571Y-49944761D01*
X56903333Y-49849523D01*
X56855714Y-49754285D01*
X56808095Y-49563809D01*
X56808095Y-49420952D01*
X56855714Y-49230476D01*
X56903333Y-49135238D01*
X56998571Y-49040000D01*
X57141428Y-48992380D01*
X57236666Y-48992380D01*
X57379523Y-49040000D01*
X57427142Y-49087619D01*
X58379523Y-49992380D02*
X57808095Y-49992380D01*
X58093809Y-49992380D02*
X58093809Y-48992380D01*
X57998571Y-49135238D01*
X57903333Y-49230476D01*
X57808095Y-49278095D01*
X58760476Y-49087619D02*
X58808095Y-49040000D01*
X58903333Y-48992380D01*
X59141428Y-48992380D01*
X59236666Y-49040000D01*
X59284285Y-49087619D01*
X59331904Y-49182857D01*
X59331904Y-49278095D01*
X59284285Y-49420952D01*
X58712857Y-49992380D01*
X59331904Y-49992380D01*
%TO.C,C11*%
X28727142Y-51877142D02*
X28679523Y-51924761D01*
X28536666Y-51972380D01*
X28441428Y-51972380D01*
X28298571Y-51924761D01*
X28203333Y-51829523D01*
X28155714Y-51734285D01*
X28108095Y-51543809D01*
X28108095Y-51400952D01*
X28155714Y-51210476D01*
X28203333Y-51115238D01*
X28298571Y-51020000D01*
X28441428Y-50972380D01*
X28536666Y-50972380D01*
X28679523Y-51020000D01*
X28727142Y-51067619D01*
X29679523Y-51972380D02*
X29108095Y-51972380D01*
X29393809Y-51972380D02*
X29393809Y-50972380D01*
X29298571Y-51115238D01*
X29203333Y-51210476D01*
X29108095Y-51258095D01*
X30631904Y-51972380D02*
X30060476Y-51972380D01*
X30346190Y-51972380D02*
X30346190Y-50972380D01*
X30250952Y-51115238D01*
X30155714Y-51210476D01*
X30060476Y-51258095D01*
%TO.C,C10*%
X37227142Y-36697142D02*
X37179523Y-36744761D01*
X37036666Y-36792380D01*
X36941428Y-36792380D01*
X36798571Y-36744761D01*
X36703333Y-36649523D01*
X36655714Y-36554285D01*
X36608095Y-36363809D01*
X36608095Y-36220952D01*
X36655714Y-36030476D01*
X36703333Y-35935238D01*
X36798571Y-35840000D01*
X36941428Y-35792380D01*
X37036666Y-35792380D01*
X37179523Y-35840000D01*
X37227142Y-35887619D01*
X38179523Y-36792380D02*
X37608095Y-36792380D01*
X37893809Y-36792380D02*
X37893809Y-35792380D01*
X37798571Y-35935238D01*
X37703333Y-36030476D01*
X37608095Y-36078095D01*
X38798571Y-35792380D02*
X38893809Y-35792380D01*
X38989047Y-35840000D01*
X39036666Y-35887619D01*
X39084285Y-35982857D01*
X39131904Y-36173333D01*
X39131904Y-36411428D01*
X39084285Y-36601904D01*
X39036666Y-36697142D01*
X38989047Y-36744761D01*
X38893809Y-36792380D01*
X38798571Y-36792380D01*
X38703333Y-36744761D01*
X38655714Y-36697142D01*
X38608095Y-36601904D01*
X38560476Y-36411428D01*
X38560476Y-36173333D01*
X38608095Y-35982857D01*
X38655714Y-35887619D01*
X38703333Y-35840000D01*
X38798571Y-35792380D01*
%TO.C,C9*%
X61803333Y-43197142D02*
X61755714Y-43244761D01*
X61612857Y-43292380D01*
X61517619Y-43292380D01*
X61374761Y-43244761D01*
X61279523Y-43149523D01*
X61231904Y-43054285D01*
X61184285Y-42863809D01*
X61184285Y-42720952D01*
X61231904Y-42530476D01*
X61279523Y-42435238D01*
X61374761Y-42340000D01*
X61517619Y-42292380D01*
X61612857Y-42292380D01*
X61755714Y-42340000D01*
X61803333Y-42387619D01*
X62279523Y-43292380D02*
X62470000Y-43292380D01*
X62565238Y-43244761D01*
X62612857Y-43197142D01*
X62708095Y-43054285D01*
X62755714Y-42863809D01*
X62755714Y-42482857D01*
X62708095Y-42387619D01*
X62660476Y-42340000D01*
X62565238Y-42292380D01*
X62374761Y-42292380D01*
X62279523Y-42340000D01*
X62231904Y-42387619D01*
X62184285Y-42482857D01*
X62184285Y-42720952D01*
X62231904Y-42816190D01*
X62279523Y-42863809D01*
X62374761Y-42911428D01*
X62565238Y-42911428D01*
X62660476Y-42863809D01*
X62708095Y-42816190D01*
X62755714Y-42720952D01*
%TO.C,C8*%
X95337333Y-81637142D02*
X95289714Y-81684761D01*
X95146857Y-81732380D01*
X95051619Y-81732380D01*
X94908761Y-81684761D01*
X94813523Y-81589523D01*
X94765904Y-81494285D01*
X94718285Y-81303809D01*
X94718285Y-81160952D01*
X94765904Y-80970476D01*
X94813523Y-80875238D01*
X94908761Y-80780000D01*
X95051619Y-80732380D01*
X95146857Y-80732380D01*
X95289714Y-80780000D01*
X95337333Y-80827619D01*
X95908761Y-81160952D02*
X95813523Y-81113333D01*
X95765904Y-81065714D01*
X95718285Y-80970476D01*
X95718285Y-80922857D01*
X95765904Y-80827619D01*
X95813523Y-80780000D01*
X95908761Y-80732380D01*
X96099238Y-80732380D01*
X96194476Y-80780000D01*
X96242095Y-80827619D01*
X96289714Y-80922857D01*
X96289714Y-80970476D01*
X96242095Y-81065714D01*
X96194476Y-81113333D01*
X96099238Y-81160952D01*
X95908761Y-81160952D01*
X95813523Y-81208571D01*
X95765904Y-81256190D01*
X95718285Y-81351428D01*
X95718285Y-81541904D01*
X95765904Y-81637142D01*
X95813523Y-81684761D01*
X95908761Y-81732380D01*
X96099238Y-81732380D01*
X96194476Y-81684761D01*
X96242095Y-81637142D01*
X96289714Y-81541904D01*
X96289714Y-81351428D01*
X96242095Y-81256190D01*
X96194476Y-81208571D01*
X96099238Y-81160952D01*
%TO.C,C7*%
X110303333Y-80397142D02*
X110255714Y-80444761D01*
X110112857Y-80492380D01*
X110017619Y-80492380D01*
X109874761Y-80444761D01*
X109779523Y-80349523D01*
X109731904Y-80254285D01*
X109684285Y-80063809D01*
X109684285Y-79920952D01*
X109731904Y-79730476D01*
X109779523Y-79635238D01*
X109874761Y-79540000D01*
X110017619Y-79492380D01*
X110112857Y-79492380D01*
X110255714Y-79540000D01*
X110303333Y-79587619D01*
X110636666Y-79492380D02*
X111303333Y-79492380D01*
X110874761Y-80492380D01*
%TO.C,C6*%
X86953333Y-70697142D02*
X86905714Y-70744761D01*
X86762857Y-70792380D01*
X86667619Y-70792380D01*
X86524761Y-70744761D01*
X86429523Y-70649523D01*
X86381904Y-70554285D01*
X86334285Y-70363809D01*
X86334285Y-70220952D01*
X86381904Y-70030476D01*
X86429523Y-69935238D01*
X86524761Y-69840000D01*
X86667619Y-69792380D01*
X86762857Y-69792380D01*
X86905714Y-69840000D01*
X86953333Y-69887619D01*
X87810476Y-69792380D02*
X87620000Y-69792380D01*
X87524761Y-69840000D01*
X87477142Y-69887619D01*
X87381904Y-70030476D01*
X87334285Y-70220952D01*
X87334285Y-70601904D01*
X87381904Y-70697142D01*
X87429523Y-70744761D01*
X87524761Y-70792380D01*
X87715238Y-70792380D01*
X87810476Y-70744761D01*
X87858095Y-70697142D01*
X87905714Y-70601904D01*
X87905714Y-70363809D01*
X87858095Y-70268571D01*
X87810476Y-70220952D01*
X87715238Y-70173333D01*
X87524761Y-70173333D01*
X87429523Y-70220952D01*
X87381904Y-70268571D01*
X87334285Y-70363809D01*
%TO.C,C5*%
X70953333Y-70697142D02*
X70905714Y-70744761D01*
X70762857Y-70792380D01*
X70667619Y-70792380D01*
X70524761Y-70744761D01*
X70429523Y-70649523D01*
X70381904Y-70554285D01*
X70334285Y-70363809D01*
X70334285Y-70220952D01*
X70381904Y-70030476D01*
X70429523Y-69935238D01*
X70524761Y-69840000D01*
X70667619Y-69792380D01*
X70762857Y-69792380D01*
X70905714Y-69840000D01*
X70953333Y-69887619D01*
X71858095Y-69792380D02*
X71381904Y-69792380D01*
X71334285Y-70268571D01*
X71381904Y-70220952D01*
X71477142Y-70173333D01*
X71715238Y-70173333D01*
X71810476Y-70220952D01*
X71858095Y-70268571D01*
X71905714Y-70363809D01*
X71905714Y-70601904D01*
X71858095Y-70697142D01*
X71810476Y-70744761D01*
X71715238Y-70792380D01*
X71477142Y-70792380D01*
X71381904Y-70744761D01*
X71334285Y-70697142D01*
%TO.C,C4*%
X59043333Y-67177142D02*
X58995714Y-67224761D01*
X58852857Y-67272380D01*
X58757619Y-67272380D01*
X58614761Y-67224761D01*
X58519523Y-67129523D01*
X58471904Y-67034285D01*
X58424285Y-66843809D01*
X58424285Y-66700952D01*
X58471904Y-66510476D01*
X58519523Y-66415238D01*
X58614761Y-66320000D01*
X58757619Y-66272380D01*
X58852857Y-66272380D01*
X58995714Y-66320000D01*
X59043333Y-66367619D01*
X59900476Y-66605714D02*
X59900476Y-67272380D01*
X59662380Y-66224761D02*
X59424285Y-66939047D01*
X60043333Y-66939047D01*
%TO.C,C3*%
X42603333Y-70397142D02*
X42555714Y-70444761D01*
X42412857Y-70492380D01*
X42317619Y-70492380D01*
X42174761Y-70444761D01*
X42079523Y-70349523D01*
X42031904Y-70254285D01*
X41984285Y-70063809D01*
X41984285Y-69920952D01*
X42031904Y-69730476D01*
X42079523Y-69635238D01*
X42174761Y-69540000D01*
X42317619Y-69492380D01*
X42412857Y-69492380D01*
X42555714Y-69540000D01*
X42603333Y-69587619D01*
X42936666Y-69492380D02*
X43555714Y-69492380D01*
X43222380Y-69873333D01*
X43365238Y-69873333D01*
X43460476Y-69920952D01*
X43508095Y-69968571D01*
X43555714Y-70063809D01*
X43555714Y-70301904D01*
X43508095Y-70397142D01*
X43460476Y-70444761D01*
X43365238Y-70492380D01*
X43079523Y-70492380D01*
X42984285Y-70444761D01*
X42936666Y-70397142D01*
%TO.C,C2*%
X33303333Y-70397142D02*
X33255714Y-70444761D01*
X33112857Y-70492380D01*
X33017619Y-70492380D01*
X32874761Y-70444761D01*
X32779523Y-70349523D01*
X32731904Y-70254285D01*
X32684285Y-70063809D01*
X32684285Y-69920952D01*
X32731904Y-69730476D01*
X32779523Y-69635238D01*
X32874761Y-69540000D01*
X33017619Y-69492380D01*
X33112857Y-69492380D01*
X33255714Y-69540000D01*
X33303333Y-69587619D01*
X33684285Y-69587619D02*
X33731904Y-69540000D01*
X33827142Y-69492380D01*
X34065238Y-69492380D01*
X34160476Y-69540000D01*
X34208095Y-69587619D01*
X34255714Y-69682857D01*
X34255714Y-69778095D01*
X34208095Y-69920952D01*
X33636666Y-70492380D01*
X34255714Y-70492380D01*
%TO.C,C1*%
X18803333Y-70497142D02*
X18755714Y-70544761D01*
X18612857Y-70592380D01*
X18517619Y-70592380D01*
X18374761Y-70544761D01*
X18279523Y-70449523D01*
X18231904Y-70354285D01*
X18184285Y-70163809D01*
X18184285Y-70020952D01*
X18231904Y-69830476D01*
X18279523Y-69735238D01*
X18374761Y-69640000D01*
X18517619Y-69592380D01*
X18612857Y-69592380D01*
X18755714Y-69640000D01*
X18803333Y-69687619D01*
X19755714Y-70592380D02*
X19184285Y-70592380D01*
X19470000Y-70592380D02*
X19470000Y-69592380D01*
X19374761Y-69735238D01*
X19279523Y-69830476D01*
X19184285Y-69878095D01*
%TO.C,U18*%
X35171904Y-20302380D02*
X35171904Y-21111904D01*
X35219523Y-21207142D01*
X35267142Y-21254761D01*
X35362380Y-21302380D01*
X35552857Y-21302380D01*
X35648095Y-21254761D01*
X35695714Y-21207142D01*
X35743333Y-21111904D01*
X35743333Y-20302380D01*
X36743333Y-21302380D02*
X36171904Y-21302380D01*
X36457619Y-21302380D02*
X36457619Y-20302380D01*
X36362380Y-20445238D01*
X36267142Y-20540476D01*
X36171904Y-20588095D01*
X37314761Y-20730952D02*
X37219523Y-20683333D01*
X37171904Y-20635714D01*
X37124285Y-20540476D01*
X37124285Y-20492857D01*
X37171904Y-20397619D01*
X37219523Y-20350000D01*
X37314761Y-20302380D01*
X37505238Y-20302380D01*
X37600476Y-20350000D01*
X37648095Y-20397619D01*
X37695714Y-20492857D01*
X37695714Y-20540476D01*
X37648095Y-20635714D01*
X37600476Y-20683333D01*
X37505238Y-20730952D01*
X37314761Y-20730952D01*
X37219523Y-20778571D01*
X37171904Y-20826190D01*
X37124285Y-20921428D01*
X37124285Y-21111904D01*
X37171904Y-21207142D01*
X37219523Y-21254761D01*
X37314761Y-21302380D01*
X37505238Y-21302380D01*
X37600476Y-21254761D01*
X37648095Y-21207142D01*
X37695714Y-21111904D01*
X37695714Y-20921428D01*
X37648095Y-20826190D01*
X37600476Y-20778571D01*
X37505238Y-20730952D01*
%TO.C,D1*%
X73311904Y-24682380D02*
X73311904Y-23682380D01*
X73550000Y-23682380D01*
X73692857Y-23730000D01*
X73788095Y-23825238D01*
X73835714Y-23920476D01*
X73883333Y-24110952D01*
X73883333Y-24253809D01*
X73835714Y-24444285D01*
X73788095Y-24539523D01*
X73692857Y-24634761D01*
X73550000Y-24682380D01*
X73311904Y-24682380D01*
X74835714Y-24682380D02*
X74264285Y-24682380D01*
X74550000Y-24682380D02*
X74550000Y-23682380D01*
X74454761Y-23825238D01*
X74359523Y-23920476D01*
X74264285Y-23968095D01*
%TD*%
M02*
