%TF.GenerationSoftware,KiCad,Pcbnew,(5.1.10)-1*%
%TF.CreationDate,2021-07-17T09:59:34+08:00*%
%TF.ProjectId,MAX7000CPU,4d415837-3030-4304-9350-552e6b696361,rev?*%
%TF.SameCoordinates,Original*%
%TF.FileFunction,Soldermask,Top*%
%TF.FilePolarity,Negative*%
%FSLAX46Y46*%
G04 Gerber Fmt 4.6, Leading zero omitted, Abs format (unit mm)*
G04 Created by KiCad (PCBNEW (5.1.10)-1) date 2021-07-17 09:59:34*
%MOMM*%
%LPD*%
G01*
G04 APERTURE LIST*
%ADD10O,1.600000X1.600000*%
%ADD11R,1.600000X1.600000*%
%ADD12O,1.700000X1.700000*%
%ADD13R,1.700000X1.700000*%
%ADD14C,1.422400*%
%ADD15R,1.422400X1.422400*%
%ADD16C,1.600000*%
%ADD17R,0.700000X0.400000*%
%ADD18C,1.800000*%
%ADD19R,1.800000X1.800000*%
%ADD20C,1.500000*%
%ADD21C,2.000000*%
%ADD22R,1.400000X1.400000*%
%ADD23C,1.400000*%
%ADD24R,2.200000X1.500000*%
%ADD25R,3.500000X3.500000*%
%ADD26R,2.000000X2.000000*%
%ADD27R,10.800000X9.400000*%
%ADD28R,1.100000X4.600000*%
%ADD29O,3.200000X3.200000*%
%ADD30R,3.200000X3.200000*%
G04 APERTURE END LIST*
D10*
%TO.C,U6*%
X45070000Y-123160000D03*
X22210000Y-115540000D03*
X42530000Y-123160000D03*
X24750000Y-115540000D03*
X39990000Y-123160000D03*
X27290000Y-115540000D03*
X37450000Y-123160000D03*
X29830000Y-115540000D03*
X34910000Y-123160000D03*
X32370000Y-115540000D03*
X32370000Y-123160000D03*
X34910000Y-115540000D03*
X29830000Y-123160000D03*
X37450000Y-115540000D03*
X27290000Y-123160000D03*
X39990000Y-115540000D03*
X24750000Y-123160000D03*
X42530000Y-115540000D03*
X22210000Y-123160000D03*
D11*
X45070000Y-115540000D03*
%TD*%
D10*
%TO.C,U8*%
X68870000Y-123160000D03*
X51090000Y-115540000D03*
X66330000Y-123160000D03*
X53630000Y-115540000D03*
X63790000Y-123160000D03*
X56170000Y-115540000D03*
X61250000Y-123160000D03*
X58710000Y-115540000D03*
X58710000Y-123160000D03*
X61250000Y-115540000D03*
X56170000Y-123160000D03*
X63790000Y-115540000D03*
X53630000Y-123160000D03*
X66330000Y-115540000D03*
X51090000Y-123160000D03*
D11*
X68870000Y-115540000D03*
%TD*%
D10*
%TO.C,U13*%
X155250000Y-123240000D03*
X162870000Y-100380000D03*
X155250000Y-120700000D03*
X162870000Y-102920000D03*
X155250000Y-118160000D03*
X162870000Y-105460000D03*
X155250000Y-115620000D03*
X162870000Y-108000000D03*
X155250000Y-113080000D03*
X162870000Y-110540000D03*
X155250000Y-110540000D03*
X162870000Y-113080000D03*
X155250000Y-108000000D03*
X162870000Y-115620000D03*
X155250000Y-105460000D03*
X162870000Y-118160000D03*
X155250000Y-102920000D03*
X162870000Y-120700000D03*
X155250000Y-100380000D03*
D11*
X162870000Y-123240000D03*
%TD*%
D12*
%TO.C,J7*%
X89570000Y-47340000D03*
X92110000Y-47340000D03*
X94650000Y-47340000D03*
X97190000Y-47340000D03*
D13*
X99730000Y-47340000D03*
%TD*%
%TO.C,C19*%
G36*
G01*
X134982500Y-60315000D02*
X134982500Y-59365000D01*
G75*
G02*
X135232500Y-59115000I250000J0D01*
G01*
X135907500Y-59115000D01*
G75*
G02*
X136157500Y-59365000I0J-250000D01*
G01*
X136157500Y-60315000D01*
G75*
G02*
X135907500Y-60565000I-250000J0D01*
G01*
X135232500Y-60565000D01*
G75*
G02*
X134982500Y-60315000I0J250000D01*
G01*
G37*
G36*
G01*
X132907500Y-60315000D02*
X132907500Y-59365000D01*
G75*
G02*
X133157500Y-59115000I250000J0D01*
G01*
X133832500Y-59115000D01*
G75*
G02*
X134082500Y-59365000I0J-250000D01*
G01*
X134082500Y-60315000D01*
G75*
G02*
X133832500Y-60565000I-250000J0D01*
G01*
X133157500Y-60565000D01*
G75*
G02*
X132907500Y-60315000I0J250000D01*
G01*
G37*
%TD*%
D14*
%TO.C,U17*%
X147310000Y-69920000D03*
X147310000Y-72460000D03*
X147310000Y-75000000D03*
X147310000Y-77540000D03*
X147310000Y-80080000D03*
X147310000Y-82620000D03*
X147310000Y-85160000D03*
X147310000Y-87700000D03*
X147310000Y-90240000D03*
X147310000Y-92780000D03*
X144770000Y-69920000D03*
X144770000Y-72460000D03*
X144770000Y-75000000D03*
X144770000Y-77540000D03*
X144770000Y-80080000D03*
X144770000Y-82620000D03*
X144770000Y-85160000D03*
X144770000Y-87700000D03*
X144770000Y-90240000D03*
X144770000Y-92780000D03*
X144770000Y-95320000D03*
X142230000Y-95320000D03*
X139690000Y-95320000D03*
X137150000Y-95320000D03*
X134610000Y-95320000D03*
X132070000Y-95320000D03*
X129530000Y-95320000D03*
X126990000Y-95320000D03*
X124450000Y-95320000D03*
X121910000Y-95320000D03*
X119370000Y-95320000D03*
X142230000Y-92780000D03*
X139690000Y-92780000D03*
X137150000Y-92780000D03*
X134610000Y-92780000D03*
X132070000Y-92780000D03*
X129530000Y-92780000D03*
X126990000Y-92780000D03*
X124450000Y-92780000D03*
X121910000Y-92780000D03*
X119370000Y-92780000D03*
X116830000Y-92780000D03*
X116830000Y-90240000D03*
X116830000Y-87700000D03*
X116830000Y-85160000D03*
X116830000Y-82620000D03*
X116830000Y-80080000D03*
X116830000Y-77540000D03*
X116830000Y-75000000D03*
X116830000Y-72460000D03*
X116830000Y-69920000D03*
X116830000Y-67380000D03*
X119370000Y-90240000D03*
X119370000Y-87700000D03*
X119370000Y-85160000D03*
X119370000Y-82620000D03*
X119370000Y-80080000D03*
X119370000Y-77540000D03*
X119370000Y-75000000D03*
X119370000Y-72460000D03*
X119370000Y-69920000D03*
X119370000Y-67380000D03*
X144770000Y-64840000D03*
X142230000Y-64840000D03*
X139690000Y-64840000D03*
X137150000Y-64840000D03*
X134610000Y-64840000D03*
X119370000Y-64840000D03*
X121910000Y-64840000D03*
X124450000Y-64840000D03*
X126990000Y-64840000D03*
X129530000Y-64840000D03*
D15*
X132070000Y-64840000D03*
D14*
X147310000Y-67380000D03*
X144770000Y-67380000D03*
X142230000Y-67380000D03*
X139690000Y-67380000D03*
X137150000Y-67380000D03*
X134610000Y-67380000D03*
X121910000Y-67380000D03*
X124450000Y-67380000D03*
X126990000Y-67380000D03*
X129530000Y-67380000D03*
X132070000Y-67380000D03*
%TD*%
%TO.C,C16*%
G36*
G01*
X109257500Y-92715000D02*
X109257500Y-91765000D01*
G75*
G02*
X109507500Y-91515000I250000J0D01*
G01*
X110182500Y-91515000D01*
G75*
G02*
X110432500Y-91765000I0J-250000D01*
G01*
X110432500Y-92715000D01*
G75*
G02*
X110182500Y-92965000I-250000J0D01*
G01*
X109507500Y-92965000D01*
G75*
G02*
X109257500Y-92715000I0J250000D01*
G01*
G37*
G36*
G01*
X107182500Y-92715000D02*
X107182500Y-91765000D01*
G75*
G02*
X107432500Y-91515000I250000J0D01*
G01*
X108107500Y-91515000D01*
G75*
G02*
X108357500Y-91765000I0J-250000D01*
G01*
X108357500Y-92715000D01*
G75*
G02*
X108107500Y-92965000I-250000J0D01*
G01*
X107432500Y-92965000D01*
G75*
G02*
X107182500Y-92715000I0J250000D01*
G01*
G37*
%TD*%
D10*
%TO.C,R24*%
X147250000Y-134640000D03*
D16*
X139630000Y-134640000D03*
%TD*%
D10*
%TO.C,R23*%
X120110000Y-134640000D03*
D16*
X127730000Y-134640000D03*
%TD*%
D10*
%TO.C,R22*%
X107610000Y-134630000D03*
D16*
X99990000Y-134630000D03*
%TD*%
D10*
%TO.C,R21*%
X83480000Y-134500000D03*
D16*
X91100000Y-134500000D03*
%TD*%
D10*
%TO.C,R20*%
X93990000Y-73840000D03*
D16*
X86370000Y-73840000D03*
%TD*%
D10*
%TO.C,R19*%
X75360000Y-126210000D03*
D16*
X67740000Y-126210000D03*
%TD*%
D10*
%TO.C,R18*%
X76980000Y-134050000D03*
D16*
X69360000Y-134050000D03*
%TD*%
D10*
%TO.C,R17*%
X143790000Y-100380000D03*
D16*
X151410000Y-100380000D03*
%TD*%
D10*
%TO.C,R16*%
X143250000Y-104560000D03*
D16*
X143250000Y-112180000D03*
%TD*%
D10*
%TO.C,R15*%
X66930000Y-133920000D03*
D16*
X59310000Y-133920000D03*
%TD*%
D10*
%TO.C,R14*%
X48680000Y-133930000D03*
D16*
X56300000Y-133930000D03*
%TD*%
D10*
%TO.C,R13*%
X147250000Y-104590000D03*
D16*
X147250000Y-112210000D03*
%TD*%
D10*
%TO.C,R12*%
X151110000Y-104600000D03*
D16*
X151110000Y-112220000D03*
%TD*%
D10*
%TO.C,R11*%
X80390000Y-86040000D03*
D16*
X72770000Y-86040000D03*
%TD*%
D10*
%TO.C,R10*%
X84370000Y-87460000D03*
D16*
X84370000Y-79840000D03*
%TD*%
D10*
%TO.C,R9*%
X91370000Y-87460000D03*
D16*
X91370000Y-79840000D03*
%TD*%
D10*
%TO.C,R8*%
X95750000Y-68840000D03*
D16*
X103370000Y-68840000D03*
%TD*%
D10*
%TO.C,R7*%
X95750000Y-61840000D03*
D16*
X103370000Y-61840000D03*
%TD*%
D10*
%TO.C,R6*%
X88170000Y-62860000D03*
D16*
X88170000Y-55240000D03*
%TD*%
D10*
%TO.C,R5*%
X70470000Y-55340000D03*
D16*
X70470000Y-62960000D03*
%TD*%
D10*
%TO.C,R4*%
X63370000Y-62960000D03*
D16*
X63370000Y-55340000D03*
%TD*%
D10*
%TO.C,R3*%
X44870000Y-55340000D03*
D16*
X44870000Y-62960000D03*
%TD*%
D10*
%TO.C,R2*%
X20770000Y-55240000D03*
D16*
X20770000Y-62860000D03*
%TD*%
D10*
%TO.C,R1*%
X38170000Y-62960000D03*
D16*
X38170000Y-55340000D03*
%TD*%
D10*
%TO.C,U20*%
X121870000Y-122760000D03*
X99010000Y-115140000D03*
X119330000Y-122760000D03*
X101550000Y-115140000D03*
X116790000Y-122760000D03*
X104090000Y-115140000D03*
X114250000Y-122760000D03*
X106630000Y-115140000D03*
X111710000Y-122760000D03*
X109170000Y-115140000D03*
X109170000Y-122760000D03*
X111710000Y-115140000D03*
X106630000Y-122760000D03*
X114250000Y-115140000D03*
X104090000Y-122760000D03*
X116790000Y-115140000D03*
X101550000Y-122760000D03*
X119330000Y-115140000D03*
X99010000Y-122760000D03*
D11*
X121870000Y-115140000D03*
%TD*%
D10*
%TO.C,U19*%
X150870000Y-122760000D03*
X128010000Y-115140000D03*
X148330000Y-122760000D03*
X130550000Y-115140000D03*
X145790000Y-122760000D03*
X133090000Y-115140000D03*
X143250000Y-122760000D03*
X135630000Y-115140000D03*
X140710000Y-122760000D03*
X138170000Y-115140000D03*
X138170000Y-122760000D03*
X140710000Y-115140000D03*
X135630000Y-122760000D03*
X143250000Y-115140000D03*
X133090000Y-122760000D03*
X145790000Y-115140000D03*
X130550000Y-122760000D03*
X148330000Y-115140000D03*
X128010000Y-122760000D03*
D11*
X150870000Y-115140000D03*
%TD*%
D10*
%TO.C,U16*%
X100990000Y-18840000D03*
X93370000Y-41700000D03*
X100990000Y-21380000D03*
X93370000Y-39160000D03*
X100990000Y-23920000D03*
X93370000Y-36620000D03*
X100990000Y-26460000D03*
X93370000Y-34080000D03*
X100990000Y-29000000D03*
X93370000Y-31540000D03*
X100990000Y-31540000D03*
X93370000Y-29000000D03*
X100990000Y-34080000D03*
X93370000Y-26460000D03*
X100990000Y-36620000D03*
X93370000Y-23920000D03*
X100990000Y-39160000D03*
X93370000Y-21380000D03*
X100990000Y-41700000D03*
D11*
X93370000Y-18840000D03*
%TD*%
D10*
%TO.C,U15*%
X155370000Y-71200000D03*
X162990000Y-48340000D03*
X155370000Y-68660000D03*
X162990000Y-50880000D03*
X155370000Y-66120000D03*
X162990000Y-53420000D03*
X155370000Y-63580000D03*
X162990000Y-55960000D03*
X155370000Y-61040000D03*
X162990000Y-58500000D03*
X155370000Y-58500000D03*
X162990000Y-61040000D03*
X155370000Y-55960000D03*
X162990000Y-63580000D03*
X155370000Y-53420000D03*
X162990000Y-66120000D03*
X155370000Y-50880000D03*
X162990000Y-68660000D03*
X155370000Y-48340000D03*
D11*
X162990000Y-71200000D03*
%TD*%
D10*
%TO.C,U14*%
X155370000Y-42200000D03*
X162990000Y-19340000D03*
X155370000Y-39660000D03*
X162990000Y-21880000D03*
X155370000Y-37120000D03*
X162990000Y-24420000D03*
X155370000Y-34580000D03*
X162990000Y-26960000D03*
X155370000Y-32040000D03*
X162990000Y-29500000D03*
X155370000Y-29500000D03*
X162990000Y-32040000D03*
X155370000Y-26960000D03*
X162990000Y-34580000D03*
X155370000Y-24420000D03*
X162990000Y-37120000D03*
X155370000Y-21880000D03*
X162990000Y-39660000D03*
X155370000Y-19340000D03*
D11*
X162990000Y-42200000D03*
%TD*%
D10*
%TO.C,U12*%
X36750000Y-109240000D03*
X44370000Y-86380000D03*
X36750000Y-106700000D03*
X44370000Y-88920000D03*
X36750000Y-104160000D03*
X44370000Y-91460000D03*
X36750000Y-101620000D03*
X44370000Y-94000000D03*
X36750000Y-99080000D03*
X44370000Y-96540000D03*
X36750000Y-96540000D03*
X44370000Y-99080000D03*
X36750000Y-94000000D03*
X44370000Y-101620000D03*
X36750000Y-91460000D03*
X44370000Y-104160000D03*
X36750000Y-88920000D03*
X44370000Y-106700000D03*
X36750000Y-86380000D03*
D11*
X44370000Y-109240000D03*
%TD*%
D10*
%TO.C,U11*%
X23750000Y-109340000D03*
X31370000Y-86480000D03*
X23750000Y-106800000D03*
X31370000Y-89020000D03*
X23750000Y-104260000D03*
X31370000Y-91560000D03*
X23750000Y-101720000D03*
X31370000Y-94100000D03*
X23750000Y-99180000D03*
X31370000Y-96640000D03*
X23750000Y-96640000D03*
X31370000Y-99180000D03*
X23750000Y-94100000D03*
X31370000Y-101720000D03*
X23750000Y-91560000D03*
X31370000Y-104260000D03*
X23750000Y-89020000D03*
X31370000Y-106800000D03*
X23750000Y-86480000D03*
D11*
X31370000Y-109340000D03*
%TD*%
D10*
%TO.C,SW3 Prog Select*%
X59370000Y-73220000D03*
X66990000Y-80840000D03*
X61910000Y-73220000D03*
X64450000Y-80840000D03*
X64450000Y-73220000D03*
X61910000Y-80840000D03*
X66990000Y-73220000D03*
D11*
X59370000Y-80840000D03*
%TD*%
D14*
%TO.C,U5*%
X147310000Y-29920000D03*
X147310000Y-32460000D03*
X147310000Y-35000000D03*
X147310000Y-37540000D03*
X147310000Y-40080000D03*
X147310000Y-42620000D03*
X147310000Y-45160000D03*
X147310000Y-47700000D03*
X147310000Y-50240000D03*
X147310000Y-52780000D03*
X144770000Y-29920000D03*
X144770000Y-32460000D03*
X144770000Y-35000000D03*
X144770000Y-37540000D03*
X144770000Y-40080000D03*
X144770000Y-42620000D03*
X144770000Y-45160000D03*
X144770000Y-47700000D03*
X144770000Y-50240000D03*
X144770000Y-52780000D03*
X144770000Y-55320000D03*
X142230000Y-55320000D03*
X139690000Y-55320000D03*
X137150000Y-55320000D03*
X134610000Y-55320000D03*
X132070000Y-55320000D03*
X129530000Y-55320000D03*
X126990000Y-55320000D03*
X124450000Y-55320000D03*
X121910000Y-55320000D03*
X119370000Y-55320000D03*
X142230000Y-52780000D03*
X139690000Y-52780000D03*
X137150000Y-52780000D03*
X134610000Y-52780000D03*
X132070000Y-52780000D03*
X129530000Y-52780000D03*
X126990000Y-52780000D03*
X124450000Y-52780000D03*
X121910000Y-52780000D03*
X119370000Y-52780000D03*
X116830000Y-52780000D03*
X116830000Y-50240000D03*
X116830000Y-47700000D03*
X116830000Y-45160000D03*
X116830000Y-42620000D03*
X116830000Y-40080000D03*
X116830000Y-37540000D03*
X116830000Y-35000000D03*
X116830000Y-32460000D03*
X116830000Y-29920000D03*
X116830000Y-27380000D03*
X119370000Y-50240000D03*
X119370000Y-47700000D03*
X119370000Y-45160000D03*
X119370000Y-42620000D03*
X119370000Y-40080000D03*
X119370000Y-37540000D03*
X119370000Y-35000000D03*
X119370000Y-32460000D03*
X119370000Y-29920000D03*
X119370000Y-27380000D03*
X144770000Y-24840000D03*
X142230000Y-24840000D03*
X139690000Y-24840000D03*
X137150000Y-24840000D03*
X134610000Y-24840000D03*
X119370000Y-24840000D03*
X121910000Y-24840000D03*
X124450000Y-24840000D03*
X126990000Y-24840000D03*
X129530000Y-24840000D03*
D15*
X132070000Y-24840000D03*
D14*
X147310000Y-27380000D03*
X144770000Y-27380000D03*
X142230000Y-27380000D03*
X139690000Y-27380000D03*
X137150000Y-27380000D03*
X134610000Y-27380000D03*
X121910000Y-27380000D03*
X124450000Y-27380000D03*
X126990000Y-27380000D03*
X129530000Y-27380000D03*
X132070000Y-27380000D03*
%TD*%
D10*
%TO.C,U1*%
X32990000Y-55840000D03*
X25370000Y-63460000D03*
X32990000Y-58380000D03*
X25370000Y-60920000D03*
X32990000Y-60920000D03*
X25370000Y-58380000D03*
X32990000Y-63460000D03*
D11*
X25370000Y-55840000D03*
%TD*%
D10*
%TO.C,U2*%
X57990000Y-55840000D03*
X50370000Y-63460000D03*
X57990000Y-58380000D03*
X50370000Y-60920000D03*
X57990000Y-60920000D03*
X50370000Y-58380000D03*
X57990000Y-63460000D03*
D11*
X50370000Y-55840000D03*
%TD*%
D17*
%TO.C,U4*%
X101870000Y-55340000D03*
X101870000Y-55840000D03*
X100370000Y-55340000D03*
X101870000Y-54840000D03*
X100370000Y-55840000D03*
X100370000Y-54840000D03*
%TD*%
D10*
%TO.C,U3*%
X82990000Y-55840000D03*
X75370000Y-63460000D03*
X82990000Y-58380000D03*
X75370000Y-60920000D03*
X82990000Y-60920000D03*
X75370000Y-58380000D03*
X82990000Y-63460000D03*
D11*
X75370000Y-55840000D03*
%TD*%
D18*
%TO.C,D17*%
X147410000Y-129020000D03*
D19*
X147410000Y-131560000D03*
%TD*%
D18*
%TO.C,D16*%
X142930000Y-129020000D03*
D19*
X142930000Y-131560000D03*
%TD*%
D18*
%TO.C,D15*%
X138410000Y-129010000D03*
D19*
X138410000Y-131550000D03*
%TD*%
D18*
%TO.C,D14*%
X133880000Y-129000000D03*
D19*
X133880000Y-131540000D03*
%TD*%
D18*
%TO.C,D13*%
X129390000Y-129000000D03*
D19*
X129390000Y-131540000D03*
%TD*%
D18*
%TO.C,D12*%
X124830000Y-129000000D03*
D19*
X124830000Y-131540000D03*
%TD*%
D18*
%TO.C,D11*%
X120320000Y-129000000D03*
D19*
X120320000Y-131540000D03*
%TD*%
D18*
%TO.C,D10*%
X115800000Y-129000000D03*
D19*
X115800000Y-131540000D03*
%TD*%
D18*
%TO.C,D9*%
X109060000Y-129060000D03*
D19*
X109060000Y-131600000D03*
%TD*%
D18*
%TO.C,D8*%
X104520000Y-129060000D03*
D19*
X104520000Y-131600000D03*
%TD*%
D18*
%TO.C,D7*%
X99990000Y-129060000D03*
D19*
X99990000Y-131600000D03*
%TD*%
D18*
%TO.C,D6*%
X95490000Y-129060000D03*
D19*
X95490000Y-131600000D03*
%TD*%
D18*
%TO.C,D5*%
X90950000Y-129060000D03*
D19*
X90950000Y-131600000D03*
%TD*%
D18*
%TO.C,D4*%
X86450000Y-129060000D03*
D19*
X86450000Y-131600000D03*
%TD*%
D18*
%TO.C,D3*%
X81960000Y-129060000D03*
D19*
X81960000Y-131600000D03*
%TD*%
D18*
%TO.C,D2*%
X77390000Y-129050000D03*
D19*
X77390000Y-131590000D03*
%TD*%
D10*
%TO.C,U9*%
X109970000Y-110880000D03*
X51550000Y-95640000D03*
X107430000Y-110880000D03*
X54090000Y-95640000D03*
X104890000Y-110880000D03*
X56630000Y-95640000D03*
X102350000Y-110880000D03*
X59170000Y-95640000D03*
X99810000Y-110880000D03*
X61710000Y-95640000D03*
X97270000Y-110880000D03*
X64250000Y-95640000D03*
X94730000Y-110880000D03*
X66790000Y-95640000D03*
X92190000Y-110880000D03*
X69330000Y-95640000D03*
X89650000Y-110880000D03*
X71870000Y-95640000D03*
X87110000Y-110880000D03*
X74410000Y-95640000D03*
X84570000Y-110880000D03*
X76950000Y-95640000D03*
X82030000Y-110880000D03*
X79490000Y-95640000D03*
X79490000Y-110880000D03*
X82030000Y-95640000D03*
X76950000Y-110880000D03*
X84570000Y-95640000D03*
X74410000Y-110880000D03*
X87110000Y-95640000D03*
X71870000Y-110880000D03*
X89650000Y-95640000D03*
X69330000Y-110880000D03*
X92190000Y-95640000D03*
X66790000Y-110880000D03*
X94730000Y-95640000D03*
X64250000Y-110880000D03*
X97270000Y-95640000D03*
X61710000Y-110880000D03*
X99810000Y-95640000D03*
X59170000Y-110880000D03*
X102350000Y-95640000D03*
X56630000Y-110880000D03*
X104890000Y-95640000D03*
X54090000Y-110880000D03*
X107430000Y-95640000D03*
X51550000Y-110880000D03*
D11*
X109970000Y-95640000D03*
%TD*%
D20*
%TO.C,Y1*%
X100490000Y-76840000D03*
X105370000Y-76840000D03*
%TD*%
D10*
%TO.C,U10*%
X115870000Y-103220000D03*
X138730000Y-110840000D03*
X118410000Y-103220000D03*
X136190000Y-110840000D03*
X120950000Y-103220000D03*
X133650000Y-110840000D03*
X123490000Y-103220000D03*
X131110000Y-110840000D03*
X126030000Y-103220000D03*
X128570000Y-110840000D03*
X128570000Y-103220000D03*
X126030000Y-110840000D03*
X131110000Y-103220000D03*
X123490000Y-110840000D03*
X133650000Y-103220000D03*
X120950000Y-110840000D03*
X136190000Y-103220000D03*
X118410000Y-110840000D03*
X138730000Y-103220000D03*
D11*
X115870000Y-110840000D03*
%TD*%
D10*
%TO.C,U7*%
X75070000Y-115620000D03*
X92850000Y-123240000D03*
X77610000Y-115620000D03*
X90310000Y-123240000D03*
X80150000Y-115620000D03*
X87770000Y-123240000D03*
X82690000Y-115620000D03*
X85230000Y-123240000D03*
X85230000Y-115620000D03*
X82690000Y-123240000D03*
X87770000Y-115620000D03*
X80150000Y-123240000D03*
X90310000Y-115620000D03*
X77610000Y-123240000D03*
X92850000Y-115620000D03*
D11*
X75070000Y-123240000D03*
%TD*%
D21*
%TO.C,SW4 Reset*%
X79870000Y-73840000D03*
X79870000Y-78340000D03*
X73370000Y-73840000D03*
X73370000Y-78340000D03*
%TD*%
%TO.C,SW2 CLK Mode*%
X53870000Y-73840000D03*
X53870000Y-78340000D03*
X47370000Y-73840000D03*
X47370000Y-78340000D03*
%TD*%
%TO.C,SW1 Step*%
X42870000Y-73840000D03*
X42870000Y-78340000D03*
X36370000Y-73840000D03*
X36370000Y-78340000D03*
%TD*%
D22*
%TO.C,RV1 CLK speed*%
X23370000Y-74840000D03*
D23*
X25910000Y-74840000D03*
X28450000Y-74840000D03*
%TD*%
D24*
%TO.C,L1*%
X60250000Y-28900000D03*
X60250000Y-22500000D03*
%TD*%
%TO.C,J8*%
G36*
G01*
X26290000Y-27465000D02*
X26290000Y-25715000D01*
G75*
G02*
X27165000Y-24840000I875000J0D01*
G01*
X28915000Y-24840000D01*
G75*
G02*
X29790000Y-25715000I0J-875000D01*
G01*
X29790000Y-27465000D01*
G75*
G02*
X28915000Y-28340000I-875000J0D01*
G01*
X27165000Y-28340000D01*
G75*
G02*
X26290000Y-27465000I0J875000D01*
G01*
G37*
G36*
G01*
X23540000Y-22890000D02*
X23540000Y-20890000D01*
G75*
G02*
X24290000Y-20140000I750000J0D01*
G01*
X25790000Y-20140000D01*
G75*
G02*
X26540000Y-20890000I0J-750000D01*
G01*
X26540000Y-22890000D01*
G75*
G02*
X25790000Y-23640000I-750000J0D01*
G01*
X24290000Y-23640000D01*
G75*
G02*
X23540000Y-22890000I0J750000D01*
G01*
G37*
D25*
X31040000Y-21890000D03*
%TD*%
D12*
%TO.C,J6 QPI IN*%
X154770000Y-76260000D03*
X154770000Y-78800000D03*
X154770000Y-81340000D03*
X154770000Y-83880000D03*
X154770000Y-86420000D03*
X154770000Y-88960000D03*
X154770000Y-91500000D03*
D13*
X154770000Y-94040000D03*
%TD*%
D12*
%TO.C,J5 QPI Out*%
X160570000Y-76260000D03*
X160570000Y-78800000D03*
X160570000Y-81340000D03*
X160570000Y-83880000D03*
X160570000Y-86420000D03*
X160570000Y-88960000D03*
X160570000Y-91500000D03*
D13*
X160570000Y-94040000D03*
%TD*%
D12*
%TO.C,J4 Module Output*%
X69480000Y-130840000D03*
X66940000Y-130840000D03*
X64400000Y-130840000D03*
X61860000Y-130840000D03*
X59320000Y-130840000D03*
X56780000Y-130840000D03*
X54240000Y-130840000D03*
D13*
X51700000Y-130840000D03*
%TD*%
D12*
%TO.C,J3 Module Input*%
X24590000Y-130840000D03*
X27130000Y-130840000D03*
X29670000Y-130840000D03*
X32210000Y-130840000D03*
X34750000Y-130840000D03*
X37290000Y-130840000D03*
X39830000Y-130840000D03*
D13*
X42370000Y-130840000D03*
%TD*%
D12*
%TO.C,J2 Instructions*%
X48390000Y-86140000D03*
X50930000Y-86140000D03*
X53470000Y-86140000D03*
X56010000Y-86140000D03*
X58550000Y-86140000D03*
X61090000Y-86140000D03*
X63630000Y-86140000D03*
D13*
X66170000Y-86140000D03*
%TD*%
D12*
%TO.C,J1 JTAG*%
X162240000Y-129270000D03*
X162240000Y-131810000D03*
X159700000Y-129270000D03*
X159700000Y-131810000D03*
X157160000Y-129270000D03*
X157160000Y-131810000D03*
X154620000Y-129270000D03*
X154620000Y-131810000D03*
X152080000Y-129270000D03*
D13*
X152080000Y-131810000D03*
%TD*%
%TO.C,C18*%
G36*
G01*
X126920000Y-59865000D02*
X126920000Y-60815000D01*
G75*
G02*
X126670000Y-61065000I-250000J0D01*
G01*
X125995000Y-61065000D01*
G75*
G02*
X125745000Y-60815000I0J250000D01*
G01*
X125745000Y-59865000D01*
G75*
G02*
X125995000Y-59615000I250000J0D01*
G01*
X126670000Y-59615000D01*
G75*
G02*
X126920000Y-59865000I0J-250000D01*
G01*
G37*
G36*
G01*
X128995000Y-59865000D02*
X128995000Y-60815000D01*
G75*
G02*
X128745000Y-61065000I-250000J0D01*
G01*
X128070000Y-61065000D01*
G75*
G02*
X127820000Y-60815000I0J250000D01*
G01*
X127820000Y-59865000D01*
G75*
G02*
X128070000Y-59615000I250000J0D01*
G01*
X128745000Y-59615000D01*
G75*
G02*
X128995000Y-59865000I0J-250000D01*
G01*
G37*
%TD*%
%TO.C,C17*%
G36*
G01*
X125920000Y-19365000D02*
X125920000Y-20315000D01*
G75*
G02*
X125670000Y-20565000I-250000J0D01*
G01*
X124995000Y-20565000D01*
G75*
G02*
X124745000Y-20315000I0J250000D01*
G01*
X124745000Y-19365000D01*
G75*
G02*
X124995000Y-19115000I250000J0D01*
G01*
X125670000Y-19115000D01*
G75*
G02*
X125920000Y-19365000I0J-250000D01*
G01*
G37*
G36*
G01*
X127995000Y-19365000D02*
X127995000Y-20315000D01*
G75*
G02*
X127745000Y-20565000I-250000J0D01*
G01*
X127070000Y-20565000D01*
G75*
G02*
X126820000Y-20315000I0J250000D01*
G01*
X126820000Y-19365000D01*
G75*
G02*
X127070000Y-19115000I250000J0D01*
G01*
X127745000Y-19115000D01*
G75*
G02*
X127995000Y-19365000I0J-250000D01*
G01*
G37*
%TD*%
%TO.C,C15*%
G36*
G01*
X88895000Y-40290000D02*
X89845000Y-40290000D01*
G75*
G02*
X90095000Y-40540000I0J-250000D01*
G01*
X90095000Y-41215000D01*
G75*
G02*
X89845000Y-41465000I-250000J0D01*
G01*
X88895000Y-41465000D01*
G75*
G02*
X88645000Y-41215000I0J250000D01*
G01*
X88645000Y-40540000D01*
G75*
G02*
X88895000Y-40290000I250000J0D01*
G01*
G37*
G36*
G01*
X88895000Y-38215000D02*
X89845000Y-38215000D01*
G75*
G02*
X90095000Y-38465000I0J-250000D01*
G01*
X90095000Y-39140000D01*
G75*
G02*
X89845000Y-39390000I-250000J0D01*
G01*
X88895000Y-39390000D01*
G75*
G02*
X88645000Y-39140000I0J250000D01*
G01*
X88645000Y-38465000D01*
G75*
G02*
X88895000Y-38215000I250000J0D01*
G01*
G37*
%TD*%
%TO.C,C20*%
G36*
G01*
X134820000Y-100815000D02*
X134820000Y-99865000D01*
G75*
G02*
X135070000Y-99615000I250000J0D01*
G01*
X135745000Y-99615000D01*
G75*
G02*
X135995000Y-99865000I0J-250000D01*
G01*
X135995000Y-100815000D01*
G75*
G02*
X135745000Y-101065000I-250000J0D01*
G01*
X135070000Y-101065000D01*
G75*
G02*
X134820000Y-100815000I0J250000D01*
G01*
G37*
G36*
G01*
X132745000Y-100815000D02*
X132745000Y-99865000D01*
G75*
G02*
X132995000Y-99615000I250000J0D01*
G01*
X133670000Y-99615000D01*
G75*
G02*
X133920000Y-99865000I0J-250000D01*
G01*
X133920000Y-100815000D01*
G75*
G02*
X133670000Y-101065000I-250000J0D01*
G01*
X132995000Y-101065000D01*
G75*
G02*
X132745000Y-100815000I0J250000D01*
G01*
G37*
%TD*%
%TO.C,C14*%
G36*
G01*
X100882500Y-57365000D02*
X100882500Y-58315000D01*
G75*
G02*
X100632500Y-58565000I-250000J0D01*
G01*
X99957500Y-58565000D01*
G75*
G02*
X99707500Y-58315000I0J250000D01*
G01*
X99707500Y-57365000D01*
G75*
G02*
X99957500Y-57115000I250000J0D01*
G01*
X100632500Y-57115000D01*
G75*
G02*
X100882500Y-57365000I0J-250000D01*
G01*
G37*
G36*
G01*
X102957500Y-57365000D02*
X102957500Y-58315000D01*
G75*
G02*
X102707500Y-58565000I-250000J0D01*
G01*
X102032500Y-58565000D01*
G75*
G02*
X101782500Y-58315000I0J250000D01*
G01*
X101782500Y-57365000D01*
G75*
G02*
X102032500Y-57115000I250000J0D01*
G01*
X102707500Y-57115000D01*
G75*
G02*
X102957500Y-57365000I0J-250000D01*
G01*
G37*
%TD*%
%TO.C,C13*%
G36*
G01*
X78920000Y-49365000D02*
X78920000Y-50315000D01*
G75*
G02*
X78670000Y-50565000I-250000J0D01*
G01*
X77995000Y-50565000D01*
G75*
G02*
X77745000Y-50315000I0J250000D01*
G01*
X77745000Y-49365000D01*
G75*
G02*
X77995000Y-49115000I250000J0D01*
G01*
X78670000Y-49115000D01*
G75*
G02*
X78920000Y-49365000I0J-250000D01*
G01*
G37*
G36*
G01*
X80995000Y-49365000D02*
X80995000Y-50315000D01*
G75*
G02*
X80745000Y-50565000I-250000J0D01*
G01*
X80070000Y-50565000D01*
G75*
G02*
X79820000Y-50315000I0J250000D01*
G01*
X79820000Y-49365000D01*
G75*
G02*
X80070000Y-49115000I250000J0D01*
G01*
X80745000Y-49115000D01*
G75*
G02*
X80995000Y-49365000I0J-250000D01*
G01*
G37*
%TD*%
%TO.C,C12*%
G36*
G01*
X53920000Y-49365000D02*
X53920000Y-50315000D01*
G75*
G02*
X53670000Y-50565000I-250000J0D01*
G01*
X52995000Y-50565000D01*
G75*
G02*
X52745000Y-50315000I0J250000D01*
G01*
X52745000Y-49365000D01*
G75*
G02*
X52995000Y-49115000I250000J0D01*
G01*
X53670000Y-49115000D01*
G75*
G02*
X53920000Y-49365000I0J-250000D01*
G01*
G37*
G36*
G01*
X55995000Y-49365000D02*
X55995000Y-50315000D01*
G75*
G02*
X55745000Y-50565000I-250000J0D01*
G01*
X55070000Y-50565000D01*
G75*
G02*
X54820000Y-50315000I0J250000D01*
G01*
X54820000Y-49365000D01*
G75*
G02*
X55070000Y-49115000I250000J0D01*
G01*
X55745000Y-49115000D01*
G75*
G02*
X55995000Y-49365000I0J-250000D01*
G01*
G37*
%TD*%
%TO.C,C11*%
G36*
G01*
X28920000Y-49365000D02*
X28920000Y-50315000D01*
G75*
G02*
X28670000Y-50565000I-250000J0D01*
G01*
X27995000Y-50565000D01*
G75*
G02*
X27745000Y-50315000I0J250000D01*
G01*
X27745000Y-49365000D01*
G75*
G02*
X27995000Y-49115000I250000J0D01*
G01*
X28670000Y-49115000D01*
G75*
G02*
X28920000Y-49365000I0J-250000D01*
G01*
G37*
G36*
G01*
X30995000Y-49365000D02*
X30995000Y-50315000D01*
G75*
G02*
X30745000Y-50565000I-250000J0D01*
G01*
X30070000Y-50565000D01*
G75*
G02*
X29820000Y-50315000I0J250000D01*
G01*
X29820000Y-49365000D01*
G75*
G02*
X30070000Y-49115000I250000J0D01*
G01*
X30745000Y-49115000D01*
G75*
G02*
X30995000Y-49365000I0J-250000D01*
G01*
G37*
%TD*%
D21*
%TO.C,C10*%
X43660000Y-42210000D03*
D26*
X38660000Y-42210000D03*
%TD*%
D21*
%TO.C,C9*%
X56440000Y-42130000D03*
D26*
X56440000Y-37130000D03*
%TD*%
%TO.C,C8*%
G36*
G01*
X96895000Y-83290000D02*
X97845000Y-83290000D01*
G75*
G02*
X98095000Y-83540000I0J-250000D01*
G01*
X98095000Y-84215000D01*
G75*
G02*
X97845000Y-84465000I-250000J0D01*
G01*
X96895000Y-84465000D01*
G75*
G02*
X96645000Y-84215000I0J250000D01*
G01*
X96645000Y-83540000D01*
G75*
G02*
X96895000Y-83290000I250000J0D01*
G01*
G37*
G36*
G01*
X96895000Y-81215000D02*
X97845000Y-81215000D01*
G75*
G02*
X98095000Y-81465000I0J-250000D01*
G01*
X98095000Y-82140000D01*
G75*
G02*
X97845000Y-82390000I-250000J0D01*
G01*
X96895000Y-82390000D01*
G75*
G02*
X96645000Y-82140000I0J250000D01*
G01*
X96645000Y-81465000D01*
G75*
G02*
X96895000Y-81215000I250000J0D01*
G01*
G37*
%TD*%
%TO.C,C7*%
G36*
G01*
X109895000Y-83327500D02*
X110845000Y-83327500D01*
G75*
G02*
X111095000Y-83577500I0J-250000D01*
G01*
X111095000Y-84252500D01*
G75*
G02*
X110845000Y-84502500I-250000J0D01*
G01*
X109895000Y-84502500D01*
G75*
G02*
X109645000Y-84252500I0J250000D01*
G01*
X109645000Y-83577500D01*
G75*
G02*
X109895000Y-83327500I250000J0D01*
G01*
G37*
G36*
G01*
X109895000Y-81252500D02*
X110845000Y-81252500D01*
G75*
G02*
X111095000Y-81502500I0J-250000D01*
G01*
X111095000Y-82177500D01*
G75*
G02*
X110845000Y-82427500I-250000J0D01*
G01*
X109895000Y-82427500D01*
G75*
G02*
X109645000Y-82177500I0J250000D01*
G01*
X109645000Y-81502500D01*
G75*
G02*
X109895000Y-81252500I250000J0D01*
G01*
G37*
%TD*%
D16*
%TO.C,C6*%
X85870000Y-67840000D03*
X88370000Y-67840000D03*
%TD*%
%TO.C,C5*%
X69870000Y-67840000D03*
X72370000Y-67840000D03*
%TD*%
%TO.C,C4*%
X61870000Y-67840000D03*
X64370000Y-67840000D03*
%TD*%
%TO.C,C3*%
X43870000Y-67840000D03*
X46370000Y-67840000D03*
%TD*%
%TO.C,C2*%
X34870000Y-67840000D03*
X37370000Y-67840000D03*
%TD*%
%TO.C,C1*%
X19870000Y-67840000D03*
X22370000Y-67840000D03*
%TD*%
D27*
%TO.C,U18*%
X43740000Y-21890000D03*
D28*
X47140000Y-31040000D03*
X45440000Y-31040000D03*
X43740000Y-31040000D03*
X42040000Y-31040000D03*
X40340000Y-31040000D03*
%TD*%
D29*
%TO.C,D1*%
X74220000Y-42210000D03*
D30*
X74220000Y-26970000D03*
%TD*%
M02*
