M48
; DRILL file {KiCad (5.1.10)-1} date 08/25/21 13:14:07
; FORMAT={-:-/ absolute / inch / decimal}
; #@! TF.CreationDate,2021-08-25T13:14:07+08:00
; #@! TF.GenerationSoftware,Kicad,Pcbnew,(5.1.10)-1
FMAT,2
INCH
T1C0.0157
T2C0.0315
T3C0.0335
T4C0.0354
T5C0.0394
T6C0.0433
%
G90
G05
T1
X0.8994Y-3.1323
X0.9419Y-2.6051
X0.9903Y-3.3741
X1.2168Y-2.3949
X1.3864Y-2.5137
X1.3954Y-3.5733
X1.9169Y-2.3261
X1.9804Y-4.4495
X2.0179Y-2.8092
X2.0407Y-2.1064
X2.2405Y-2.6416
X2.6097Y-3.4757
X2.7933Y-1.678
X2.795Y-2.1032
X2.9373Y-3.3176
X2.9484Y-2.6232
X2.9528Y-3.7747
X3.0034Y-2.44
X3.2419Y-2.6847
X3.2524Y-3.9284
X3.2612Y-2.3359
X3.314Y-2.2866
X3.314Y-2.5691
X3.3774Y-2.4899
X3.4253Y-1.5658
X3.4522Y-3.0427
X3.5036Y-2.598
X3.5199Y-2.9935
X3.5622Y-1.9546
X3.6007Y-2.1515
X3.6186Y-2.7015
X3.6471Y-2.5857
X3.6625Y-1.2345
X3.8203Y-3.8921
X3.9051Y-2.4896
X3.9109Y-4.038
X3.9348Y-2.2353
X3.9477Y-3.4014
X3.9604Y-3.451
X3.9667Y-3.7665
X4.0566Y-1.6965
X4.0576Y-1.79
X4.0659Y-2.1683
X4.1576Y-1.5062
X4.1663Y-4.3627
X4.2081Y-2.9505
X4.2096Y-2.6437
X4.243Y-3.422
X4.2606Y-3.3826
X4.3105Y-1.8654
X4.3132Y-1.3944
X4.3546Y-1.9534
X4.4045Y-1.629
X4.4639Y-1.6239
X4.4781Y-4.3452
X4.5812Y-1.641
X4.6661Y-1.4703
X4.7512Y-1.9936
X4.766Y-2.737
X4.7666Y-1.435
X4.7893Y-1.1553
X4.7964Y-1.3301
X4.8022Y-3.0611
X4.8272Y-0.9958
X4.8547Y-1.3136
X4.8649Y-3.9218
X5.0695Y-2.1307
X5.1063Y-3.2035
X5.1877Y-2.8623
X5.3293Y-4.3323
X5.338Y-2.892
X5.3973Y-2.4271
X5.4495Y-2.9875
X5.604Y-3.8759
X5.6116Y-2.151
X5.7172Y-3.3189
X5.7621Y-3.947
X5.9161Y-3.6749
X5.9651Y-2.4591
X5.992Y-3.6217
X6.0194Y-1.6788
X6.0751Y-3.9401
X6.1033Y-3.096
X6.1046Y-4.0274
X6.1337Y-2.8847
X6.1826Y-2.1413
X6.214Y-2.2483
X6.2517Y-1.7822
X6.2635Y-2.04
X6.296Y-2.2113
X6.3003Y-2.09
X6.3179Y-1.9747
X6.359Y-1.7013
X6.3738Y-2.1573
X6.3859Y-1.8802
X6.4045Y-1.3604
X6.4188Y-2.2933
X6.4232Y-2.5343
X6.5076Y-2.0957
X6.534Y-1.3957
X6.6726Y-2.6407
X6.7049Y-2.5563
X6.8107Y-2.4794
T2
X0.82Y-1.74
X0.82Y-1.84
X0.82Y-1.94
X0.82Y-2.04
X0.82Y-2.14
X0.82Y-2.24
X0.82Y-2.34
X0.82Y-2.44
X0.82Y-2.54
X0.82Y-2.64
X0.82Y-2.88
X0.82Y-2.98
X0.82Y-3.08
X0.82Y-3.18
X0.82Y-3.28
X0.82Y-3.38
X0.82Y-3.48
X0.82Y-3.58
X0.82Y-3.68
X0.82Y-3.78
X0.8202Y-0.8894
X0.8202Y-0.9894
X0.8202Y-1.0894
X0.8202Y-1.1894
X0.84Y-3.95
X0.84Y-4.25
X0.94Y-3.95
X0.94Y-4.25
X1.04Y-3.95
X1.04Y-4.25
X1.12Y-1.74
X1.12Y-1.84
X1.12Y-1.94
X1.12Y-2.04
X1.12Y-2.14
X1.12Y-2.24
X1.12Y-2.34
X1.12Y-2.44
X1.12Y-2.54
X1.12Y-2.64
X1.12Y-2.88
X1.12Y-2.98
X1.12Y-3.08
X1.12Y-3.18
X1.12Y-3.28
X1.12Y-3.38
X1.12Y-3.48
X1.12Y-3.58
X1.12Y-3.68
X1.12Y-3.78
X1.1202Y-0.8894
X1.1202Y-0.9894
X1.1202Y-1.0894
X1.1202Y-1.1894
X1.14Y-3.95
X1.14Y-4.25
X1.24Y-3.95
X1.24Y-4.25
X1.27Y-1.71
X1.27Y-2.01
X1.27Y-3.78
X1.3Y-2.88
X1.3Y-3.18
X1.3024Y-0.8745
X1.3024Y-0.9729
X1.3024Y-1.1009
X1.3024Y-1.1993
X1.34Y-3.95
X1.34Y-4.25
X1.44Y-3.95
X1.44Y-4.25
X1.46Y-2.21
X1.47Y-1.73
X1.47Y-2.03
X1.49Y-2.38
X1.49Y-2.68
X1.49Y-2.87
X1.49Y-3.17
X1.49Y-3.34
X1.49Y-3.64
X1.5Y-0.88
X1.5Y-1.18
X1.54Y-3.95
X1.54Y-4.25
X1.57Y-1.73
X1.57Y-2.03
X1.57Y-3.78
X1.59Y-2.38
X1.59Y-2.68
X1.59Y-2.87
X1.59Y-3.17
X1.59Y-3.34
X1.59Y-3.64
X1.64Y-3.95
X1.64Y-4.25
X1.67Y-1.73
X1.67Y-2.03
X1.69Y-0.88
X1.69Y-1.18
X1.69Y-2.38
X1.69Y-2.68
X1.69Y-2.87
X1.69Y-3.17
X1.69Y-3.34
X1.69Y-3.64
X1.74Y-3.95
X1.74Y-4.25
X1.76Y-2.21
X1.77Y-1.73
X1.77Y-2.03
X1.79Y-2.38
X1.79Y-2.68
X1.79Y-2.87
X1.79Y-3.17
X1.79Y-3.34
X1.79Y-3.64
X1.87Y-1.73
X1.87Y-2.03
X1.88Y-0.88
X1.88Y-1.18
X1.89Y-2.21
X1.89Y-2.38
X1.89Y-2.68
X1.89Y-2.87
X1.89Y-3.17
X1.89Y-3.34
X1.89Y-3.64
X1.97Y-1.73
X1.97Y-2.03
X1.99Y-2.38
X1.99Y-2.68
X1.99Y-2.87
X1.99Y-3.17
X1.99Y-3.34
X1.99Y-3.64
X2.06Y-0.89
X2.06Y-0.99
X2.06Y-1.09
X2.06Y-1.19
X2.07Y-1.73
X2.07Y-2.03
X2.09Y-2.38
X2.09Y-2.68
X2.09Y-2.87
X2.09Y-3.17
X2.09Y-3.34
X2.09Y-3.64
X2.17Y-1.73
X2.17Y-2.03
X2.19Y-2.21
X2.19Y-2.38
X2.19Y-2.68
X2.19Y-2.87
X2.19Y-3.17
X2.19Y-3.34
X2.19Y-3.64
X2.27Y-1.39
X2.36Y-0.89
X2.36Y-0.99
X2.36Y-1.09
X2.36Y-1.19
X2.38Y-1.77
X2.39Y-2.0
X2.39Y-2.1
X2.39Y-2.2
X2.39Y-2.3
X2.39Y-2.4
X2.39Y-2.5
X2.39Y-2.6
X2.39Y-2.7
X2.39Y-2.8
X2.39Y-2.9
X2.4Y-3.22
X2.4Y-3.32
X2.4Y-3.42
X2.4Y-3.52
X2.4Y-3.62
X2.4Y-3.72
X2.4Y-3.82
X2.4Y-3.92
X2.4Y-4.02
X2.4Y-4.12
X2.54Y-0.88
X2.54Y-0.9784
X2.54Y-1.1116
X2.54Y-1.21
X2.57Y-1.39
X2.68Y-1.77
X2.69Y-2.0
X2.69Y-2.1
X2.69Y-2.2
X2.69Y-2.3
X2.69Y-2.4
X2.69Y-2.5
X2.69Y-2.6
X2.69Y-2.7
X2.69Y-2.8
X2.69Y-2.9
X2.7Y-3.22
X2.7Y-3.32
X2.7Y-3.42
X2.7Y-3.52
X2.7Y-3.62
X2.7Y-3.72
X2.7Y-3.82
X2.7Y-3.92
X2.7Y-4.02
X2.7Y-4.12
X2.73Y-0.9
X2.73Y-1.2
X2.85Y-1.71
X2.85Y-2.01
X2.85Y-2.16
X2.85Y-2.46
X2.85Y-2.62
X2.85Y-2.92
X2.87Y-3.22
X2.87Y-3.52
X2.87Y-4.19
X2.91Y-3.71
X2.91Y-4.01
X2.92Y-0.9
X2.92Y-1.2
X3.01Y-3.71
X3.01Y-4.01
X3.05Y-3.25
X3.05Y-3.55
X3.1Y-0.89
X3.1Y-0.99
X3.1Y-1.09
X3.1Y-1.19
X3.1Y-1.44
X3.1Y-1.54
X3.1Y-1.64
X3.1Y-1.74
X3.1Y-1.84
X3.1Y-1.94
X3.1Y-2.04
X3.1Y-2.14
X3.1Y-2.24
X3.1Y-2.34
X3.1Y-2.44
X3.1Y-2.54
X3.1Y-2.64
X3.1Y-2.74
X3.1Y-2.84
X3.1Y-2.94
X3.11Y-3.71
X3.11Y-4.01
X3.15Y-3.25
X3.15Y-3.55
X3.17Y-4.19
X3.21Y-3.71
X3.21Y-4.01
X3.24Y-3.12
X3.25Y-3.25
X3.25Y-3.55
X3.3Y-4.19
X3.31Y-3.71
X3.31Y-4.01
X3.35Y-3.25
X3.35Y-3.55
X3.4Y-0.89
X3.4Y-0.99
X3.4Y-1.09
X3.4Y-1.19
X3.41Y-3.71
X3.41Y-4.01
X3.45Y-3.25
X3.45Y-3.55
X3.51Y-3.71
X3.51Y-4.01
X3.54Y-3.12
X3.55Y-3.25
X3.55Y-3.55
X3.58Y-0.88
X3.58Y-0.9784
X3.58Y-1.11
X3.58Y-1.2084
X3.6Y-4.19
X3.61Y-3.71
X3.61Y-4.01
X3.65Y-3.25
X3.65Y-3.55
X3.7Y-1.44
X3.7Y-1.54
X3.7Y-1.64
X3.7Y-1.74
X3.7Y-1.84
X3.7Y-1.94
X3.7Y-2.04
X3.7Y-2.14
X3.7Y-2.24
X3.7Y-2.34
X3.7Y-2.44
X3.7Y-2.54
X3.7Y-2.64
X3.7Y-2.74
X3.7Y-2.84
X3.7Y-2.94
X3.71Y-3.71
X3.71Y-4.01
X3.73Y-4.19
X3.75Y-3.25
X3.75Y-3.55
X3.77Y-0.9
X3.77Y-1.2
X3.81Y-3.71
X3.81Y-4.01
X3.85Y-3.25
X3.85Y-3.55
X3.87Y-1.82
X3.87Y-2.12
X3.87Y-2.3
X3.87Y-2.6
X3.87Y-2.79
X3.87Y-3.09
X3.95Y-3.25
X3.95Y-3.55
X4.02Y-0.79
X4.02Y-1.09
X4.02Y-1.27
X4.02Y-1.57
X4.03Y-4.19
X4.12Y-0.79
X4.12Y-1.09
X4.12Y-1.27
X4.12Y-1.57
X4.15Y-3.09
X4.15Y-3.19
X4.15Y-3.29
X4.15Y-3.39
X4.15Y-3.49
X4.15Y-3.59
X4.15Y-3.69
X4.15Y-3.79
X4.15Y-3.89
X4.15Y-3.99
X4.16Y-1.79
X4.16Y-1.89
X4.16Y-1.99
X4.16Y-2.09
X4.16Y-2.19
X4.16Y-2.29
X4.16Y-2.39
X4.16Y-2.49
X4.16Y-2.59
X4.16Y-2.69
X4.17Y-4.19
X4.22Y-0.79
X4.22Y-1.09
X4.22Y-1.27
X4.22Y-1.57
X4.32Y-0.79
X4.32Y-1.09
X4.32Y-1.27
X4.32Y-1.57
X4.42Y-0.79
X4.42Y-1.09
X4.42Y-1.27
X4.42Y-1.57
X4.45Y-3.09
X4.45Y-3.19
X4.45Y-3.29
X4.45Y-3.39
X4.45Y-3.49
X4.45Y-3.59
X4.45Y-3.69
X4.45Y-3.79
X4.45Y-3.89
X4.45Y-3.99
X4.46Y-1.79
X4.46Y-1.89
X4.46Y-1.99
X4.46Y-2.09
X4.46Y-2.19
X4.46Y-2.29
X4.46Y-2.39
X4.46Y-2.49
X4.46Y-2.59
X4.46Y-2.69
X4.47Y-4.19
X4.52Y-0.79
X4.52Y-1.09
X4.52Y-1.27
X4.52Y-1.57
X4.62Y-0.79
X4.62Y-1.09
X4.62Y-1.27
X4.62Y-1.57
X4.63Y-3.4
X4.63Y-3.7
X4.63Y-3.83
X4.63Y-4.13
X4.64Y-2.27
X4.64Y-2.57
X4.64Y-2.81
X4.64Y-3.11
X4.72Y-0.79
X4.72Y-1.09
X4.72Y-1.27
X4.72Y-1.57
X4.73Y-3.4
X4.73Y-3.7
X4.73Y-3.83
X4.73Y-4.13
X4.74Y-2.27
X4.74Y-2.57
X4.74Y-2.81
X4.74Y-3.11
X4.83Y-3.4
X4.83Y-3.7
X4.83Y-3.83
X4.83Y-4.13
X4.84Y-2.27
X4.84Y-2.57
X4.84Y-2.81
X4.84Y-3.11
X4.93Y-3.4
X4.93Y-3.7
X4.93Y-3.83
X4.93Y-4.13
X4.93Y-4.23
X4.93Y-4.53
X4.94Y-2.27
X4.94Y-2.57
X4.94Y-2.81
X4.94Y-3.11
X5.0Y-0.96
X5.0Y-1.06
X5.0Y-1.16
X5.0Y-1.26
X5.0Y-1.36
X5.0Y-1.46
X5.0Y-1.56
X5.0Y-1.66
X5.0Y-1.76
X5.0Y-1.86
X5.0Y-1.96
X5.03Y-3.4
X5.03Y-3.7
X5.03Y-3.83
X5.03Y-4.13
X5.04Y-2.27
X5.04Y-2.57
X5.04Y-2.81
X5.04Y-3.11
X5.1Y-0.86
X5.1Y-0.96
X5.1Y-1.06
X5.1Y-1.16
X5.1Y-1.26
X5.1Y-1.36
X5.1Y-1.46
X5.1Y-1.56
X5.1Y-1.66
X5.1Y-1.76
X5.1Y-1.86
X5.1Y-1.96
X5.1Y-2.06
X5.11Y-4.23
X5.11Y-4.53
X5.13Y-3.4
X5.13Y-3.7
X5.13Y-3.83
X5.13Y-4.13
X5.14Y-2.27
X5.14Y-2.57
X5.14Y-2.81
X5.14Y-3.11
X5.2Y-0.86
X5.2Y-0.96
X5.2Y-1.96
X5.2Y-2.06
X5.23Y-3.4
X5.23Y-3.7
X5.23Y-3.83
X5.23Y-4.13
X5.24Y-2.27
X5.24Y-2.57
X5.24Y-2.81
X5.24Y-3.11
X5.29Y-4.23
X5.29Y-4.53
X5.3Y-0.86
X5.3Y-0.96
X5.3Y-1.96
X5.3Y-2.06
X5.33Y-3.4
X5.33Y-3.7
X5.33Y-3.83
X5.33Y-4.13
X5.34Y-2.27
X5.34Y-2.57
X5.34Y-2.81
X5.34Y-3.11
X5.4Y-0.86
X5.4Y-0.96
X5.4Y-1.96
X5.4Y-2.06
X5.43Y-3.4
X5.43Y-3.7
X5.43Y-3.83
X5.43Y-4.13
X5.48Y-4.23
X5.48Y-4.53
X5.5Y-0.86
X5.5Y-0.96
X5.5Y-1.96
X5.5Y-2.06
X5.53Y-3.4
X5.53Y-3.7
X5.53Y-3.83
X5.53Y-4.13
X5.56Y-2.33
X5.56Y-2.43
X5.56Y-2.53
X5.56Y-2.63
X5.56Y-2.73
X5.56Y-2.83
X5.56Y-2.93
X5.56Y-3.03
X5.56Y-3.13
X5.56Y-3.23
X5.6Y-0.86
X5.6Y-0.96
X5.6Y-1.96
X5.6Y-2.06
X5.67Y-4.23
X5.67Y-4.53
X5.7Y-0.86
X5.7Y-0.96
X5.7Y-1.96
X5.7Y-2.06
X5.8Y-0.86
X5.8Y-0.96
X5.8Y-1.96
X5.8Y-2.06
X5.85Y-4.23
X5.85Y-4.53
X5.86Y-2.33
X5.86Y-2.43
X5.86Y-2.53
X5.86Y-2.63
X5.86Y-2.73
X5.86Y-2.83
X5.86Y-2.93
X5.86Y-3.03
X5.86Y-3.13
X5.86Y-3.23
X5.89Y-3.83
X5.89Y-4.13
X5.9Y-0.86
X5.9Y-0.96
X5.9Y-1.96
X5.9Y-2.06
X5.98Y-2.59
X5.98Y-2.69
X5.98Y-2.79
X5.98Y-2.89
X5.98Y-2.99
X5.98Y-3.09
X5.98Y-3.19
X5.98Y-3.29
X5.98Y-3.39
X5.98Y-3.49
X6.0Y-0.86
X6.0Y-0.96
X6.0Y-1.96
X6.0Y-2.06
X6.03Y-4.23
X6.03Y-4.53
X6.1Y-0.86
X6.1Y-0.96
X6.1Y-1.06
X6.1Y-1.16
X6.1Y-1.26
X6.1Y-1.36
X6.1Y-1.46
X6.1Y-1.56
X6.1Y-1.66
X6.1Y-1.76
X6.1Y-1.86
X6.1Y-1.96
X6.1Y-2.06
X6.14Y-3.83
X6.14Y-4.13
X6.2Y-0.96
X6.2Y-1.06
X6.2Y-1.16
X6.2Y-1.26
X6.2Y-1.36
X6.2Y-1.46
X6.2Y-1.56
X6.2Y-1.66
X6.2Y-1.76
X6.2Y-1.86
X6.2Y-1.96
X6.21Y-4.23
X6.21Y-4.53
X6.28Y-2.59
X6.28Y-2.69
X6.28Y-2.79
X6.28Y-2.89
X6.28Y-2.99
X6.28Y-3.09
X6.28Y-3.19
X6.28Y-3.29
X6.28Y-3.39
X6.28Y-3.49
X6.38Y-3.83
X6.38Y-4.13
X6.39Y-4.23
X6.39Y-4.53
X6.45Y-2.59
X6.45Y-2.69
X6.45Y-2.79
X6.45Y-2.89
X6.45Y-2.99
X6.45Y-3.09
X6.45Y-3.19
X6.45Y-3.29
X6.45Y-3.39
X6.45Y-3.49
X6.46Y-1.44
X6.46Y-1.54
X6.46Y-1.64
X6.46Y-1.74
X6.46Y-1.84
X6.46Y-1.94
X6.46Y-2.04
X6.46Y-2.14
X6.46Y-2.24
X6.46Y-2.34
X6.57Y-4.23
X6.57Y-4.53
X6.63Y-3.83
X6.63Y-4.13
X6.75Y-2.59
X6.75Y-2.69
X6.75Y-2.79
X6.75Y-2.89
X6.75Y-2.99
X6.75Y-3.09
X6.75Y-3.19
X6.75Y-3.29
X6.75Y-3.39
X6.75Y-3.49
X6.75Y-4.23
X6.75Y-4.53
X6.76Y-1.44
X6.76Y-1.54
X6.76Y-1.64
X6.76Y-1.74
X6.76Y-1.84
X6.76Y-1.94
X6.76Y-2.04
X6.76Y-2.14
X6.76Y-2.24
X6.76Y-2.34
T3
X0.88Y-1.44
X0.98Y-1.44
X1.08Y-1.44
T4
X1.86Y-4.4
X1.86Y-4.5
X2.04Y-4.4
X2.04Y-4.5
X2.22Y-4.4
X2.22Y-4.5
X2.4Y-4.4
X2.4Y-4.5
X2.58Y-4.4
X2.58Y-4.5
X2.76Y-4.4
X2.76Y-4.5
X2.94Y-4.4
X2.94Y-4.5
X3.12Y-4.4
X3.12Y-4.5
X3.34Y-4.4
X3.34Y-4.5
X3.52Y-4.4
X3.52Y-4.5
X3.7Y-4.4
X3.7Y-4.5
X3.88Y-4.4
X3.88Y-4.5
X4.06Y-4.4
X4.06Y-4.5
X4.24Y-4.4
X4.24Y-4.5
X4.42Y-4.4
X4.42Y-4.5
X4.6Y-4.4
X4.6Y-4.5
T5
X0.89Y-4.45
X0.99Y-4.45
X1.09Y-4.45
X1.19Y-4.45
X1.29Y-4.45
X1.39Y-4.45
X1.49Y-4.45
X1.59Y-4.45
X4.65Y-3.27
X4.75Y-3.27
X4.85Y-3.27
X4.95Y-3.27
X5.05Y-3.27
X5.15Y-3.27
X5.25Y-3.27
X5.35Y-3.27
X6.0Y-3.68
X6.1Y-3.68
X6.2Y-3.68
X6.3Y-3.68
X6.4Y-3.68
X6.49Y-0.81
X6.49Y-0.91
X6.49Y-1.01
X6.49Y-1.11
X6.49Y-1.21
X6.5Y-3.68
X6.6Y-3.68
X6.65Y-0.81
X6.65Y-0.91
X6.65Y-1.01
X6.65Y-1.11
X6.65Y-1.21
X6.7Y-3.68
X6.75Y-0.81
X6.75Y-0.91
X6.75Y-1.01
X6.75Y-1.11
X6.75Y-1.21
T6
X1.38Y-1.36
X1.38Y-1.5372
X1.6359Y-1.36
X1.6359Y-1.5372
X1.88Y-1.36
X1.88Y-1.5372
X2.1359Y-1.36
X2.1359Y-1.5372
X2.7Y-1.36
X2.7Y-1.5372
X2.9559Y-1.36
X2.9559Y-1.5372
T0
M30
