M48
; DRILL file {KiCad (5.1.10)-1} date 07/17/21 09:59:21
; FORMAT={-:-/ absolute / inch / decimal}
; #@! TF.CreationDate,2021-07-17T09:59:21+08:00
; #@! TF.GenerationSoftware,Kicad,Pcbnew,(5.1.10)-1
FMAT,2
INCH
T1C0.0157
T2C0.0315
T3C0.0335
T4C0.0354
T5C0.0394
T6C0.0433
T7C0.0630
%
G90
G05
T1
X1.04Y-3.37
X1.06Y-3.5
X1.1055Y-4.1972
X1.313Y-4.4386
X1.526Y-4.4256
X1.78Y-5.05
X1.84Y-5.1689
X1.86Y-5.3015
X1.87Y-3.49
X1.89Y-3.27
X1.9535Y-4.54
X1.97Y-3.5
X1.98Y-3.6
X1.99Y-4.9508
X2.06Y-5.27
X2.12Y-5.33
X2.3295Y-2.0177
X2.62Y-4.23
X2.74Y-4.71
X2.8142Y-4.6008
X2.86Y-4.69
X2.97Y-5.1335
X2.9762Y-4.4262
X3.0073Y-3.8473
X3.0441Y-4.722
X3.0453Y-4.24
X3.08Y-4.4559
X3.0992Y-2.0303
X3.25Y-1.83
X3.26Y-3.23
X3.37Y-2.55
X3.4484Y-4.7488
X3.53Y-5.25
X3.58Y-3.01
X3.61Y-3.25
X3.64Y-4.94
X3.6626Y-5.1016
X3.69Y-3.25
X3.7094Y-3.2969
X3.72Y-2.2736
X3.72Y-5.3169
X3.7224Y-4.6673
X3.74Y-4.46
X3.76Y-2.04
X3.7656Y-4.5478
X3.79Y-2.57
X3.81Y-2.17
X3.8175Y-4.4575
X3.8492Y-2.6173
X3.8983Y-2.2083
X4.0258Y-5.1293
X4.03Y-4.0222
X4.03Y-4.24
X4.0394Y-3.0206
X4.04Y-2.04
X4.08Y-4.04
X4.09Y-4.24
X4.1Y-2.28
X4.11Y-2.19
X4.17Y-4.26
X4.19Y-3.21
X4.2366Y-2.2736
X4.24Y-3.25
X4.2453Y-3.08
X4.2509Y-4.8616
X4.26Y-2.53
X4.2877Y-3.3023
X4.29Y-2.34
X4.3Y-2.48
X4.33Y-2.22
X4.33Y-2.9
X4.3581Y-3.12
X4.36Y-4.07
X4.37Y-2.1866
X4.3797Y-2.9478
X4.3915Y-1.57
X4.41Y-2.42
X4.42Y-2.31
X4.43Y-4.44
X4.4329Y-5.0875
X4.44Y-4.01
X4.4429Y-5.2142
X4.45Y-3.76
X4.46Y-4.2715
X4.5079Y-2.314
X4.5091Y-2.378
X4.5091Y-2.378
X4.54Y-1.69
X4.5407Y-4.9307
X4.5492Y-2.3114
X4.5492Y-2.3791
X4.5825Y-2.8015
X4.6119Y-3.8709
X4.64Y-4.3
X4.6449Y-4.1571
X4.65Y-1.04
X4.7051Y-3.965
X4.72Y-2.38
X4.73Y-4.64
X4.74Y-4.9443
X4.7438Y-2.8962
X4.76Y-4.76
X4.78Y-2.314
X4.79Y-3.56
X4.8449Y-4.1831
X4.85Y-2.314
X4.86Y-1.98
X4.88Y-2.91
X4.89Y-0.83
X4.8904Y-4.44
X4.9138Y-4.874
X4.93Y-0.86
X4.96Y-3.17
X4.96Y-4.2732
X4.99Y-1.15
X4.9993Y-2.9333
X5.0244Y-2.3209
X5.0284Y-1.9484
X5.0371Y-2.2529
X5.0394Y-3.5906
X5.0559Y-4.688
X5.09Y-1.47
X5.09Y-1.61
X5.1091Y-3.4921
X5.12Y-3.53
X5.1598Y-4.2732
X5.1606Y-4.4248
X5.1758Y-3.4758
X5.1937Y-2.8598
X5.2219Y-3.6062
X5.2221Y-2.3028
X5.25Y-2.8107
X5.2575Y-4.2732
X5.26Y-4.9
X5.2782Y-1.6582
X5.2874Y-3.59
X5.29Y-3.46
X5.3098Y-1.5902
X5.31Y-4.6
X5.33Y-1.49
X5.33Y-3.41
X5.3481Y-3.0019
X5.35Y-3.68
X5.37Y-2.9
X5.37Y-4.472
X5.38Y-2.43
X5.3819Y-2.7299
X5.3866Y-3.0405
X5.4112Y-2.7612
X5.4224Y-3.0945
X5.4318Y-3.4602
X5.4744Y-3.5176
X5.48Y-4.7805
X5.4816Y-2.7716
X5.4885Y-3.3283
X5.5055Y-4.3035
X5.5118Y-3.9421
X5.5303Y-3.8299
X5.5404Y-4.1904
X5.55Y-5.06
X5.552Y-4.439
X5.58Y-1.49
X5.58Y-1.94
X5.59Y-1.66
X5.59Y-1.83
X5.59Y-2.86
X5.5986Y-4.96
X5.6001Y-3.6011
X5.62Y-3.45
X5.62Y-3.45
X5.626Y-4.302
X5.63Y-3.2
X5.6339Y-4.2234
X5.6482Y-3.8418
X5.65Y-1.62
X5.65Y-1.7473
X5.66Y-1.83
X5.7Y-4.0805
X5.71Y-4.97
X5.715Y-2.3587
X5.7395Y-3.845
X5.7397Y-3.8
X5.7474Y-4.3089
X5.76Y-2.3628
X5.76Y-4.91
X5.7682Y-3.9618
X5.7944Y-4.5844
X5.8098Y-4.3409
X5.8268Y-3.8697
X5.8453Y-2.9834
X5.8463Y-1.45
X5.8474Y-3.7175
X5.8587Y-4.4646
X5.8874Y-4.6295
X5.8941Y-4.3362
X5.9533Y-4.2077
X6.0339Y-3.0956
X6.0358Y-3.4331
X6.0364Y-3.5859
X6.0371Y-3.2926
X6.0539Y-3.9006
X6.0555Y-4.0016
X6.085Y-4.1024
X6.1572Y-3.8605
X6.1583Y-3.2
X6.1857Y-4.5659
X6.187Y-3.4134
X6.1886Y-2.3618
X6.19Y-4.52
X6.2043Y-4.6276
X6.2046Y-4.0847
X6.2154Y-4.1921
X6.2222Y-2.22
X6.226Y-3.6846
X6.2346Y-3.9071
X6.2354Y-4.3846
X6.2365Y-1.2765
X6.237Y-3.8213
X6.2508Y-2.0701
X6.2508Y-2.8
X6.261Y-3.9406
X6.28Y-1.18
X6.2853Y-4.5655
X6.2864Y-4.8039
X6.2913Y-2.6898
X6.3017Y-2.6283
X6.3079Y-2.1413
X6.3165Y-2.0317
X6.3173Y-3.9965
X6.3217Y-3.8126
X6.33Y-4.2791
X6.3311Y-4.5169
X6.3398Y-4.6323
X6.3497Y-4.0203
X6.37Y-4.2
X6.39Y-3.71
X6.42Y-1.77
X6.42Y-3.64
X6.42Y-3.86
X6.437Y-4.1012
X6.4504Y-3.1815
X6.4504Y-3.59
X6.4681Y-2.9776
X6.47Y-4.75
X6.48Y-1.48
T2
X0.7823Y-2.6709
X0.8177Y-2.1748
X0.8177Y-2.4748
X0.8744Y-4.5488
X0.8744Y-4.8488
X0.8807Y-2.6709
X0.935Y-3.4047
X0.935Y-3.5047
X0.935Y-3.6047
X0.935Y-3.7047
X0.935Y-3.8047
X0.935Y-3.9047
X0.935Y-4.0047
X0.935Y-4.1047
X0.935Y-4.2047
X0.935Y-4.3047
X0.9744Y-4.5488
X0.9744Y-4.8488
X0.9988Y-2.1984
X0.9988Y-2.2984
X0.9988Y-2.3984
X0.9988Y-2.4984
X1.0744Y-4.5488
X1.0744Y-4.8488
X1.1744Y-4.5488
X1.1744Y-4.8488
X1.235Y-3.4047
X1.235Y-3.5047
X1.235Y-3.6047
X1.235Y-3.7047
X1.235Y-3.8047
X1.235Y-3.9047
X1.235Y-4.0047
X1.235Y-4.1047
X1.235Y-4.2047
X1.235Y-4.3047
X1.2744Y-4.5488
X1.2744Y-4.8488
X1.2988Y-2.1984
X1.2988Y-2.2984
X1.2988Y-2.3984
X1.2988Y-2.4984
X1.3728Y-2.6709
X1.3744Y-4.5488
X1.3744Y-4.8488
X1.4469Y-3.4008
X1.4469Y-3.5008
X1.4469Y-3.6008
X1.4469Y-3.7008
X1.4469Y-3.8008
X1.4469Y-3.9008
X1.4469Y-4.0008
X1.4469Y-4.1008
X1.4469Y-4.2008
X1.4469Y-4.3008
X1.4713Y-2.6709
X1.4744Y-4.5488
X1.4744Y-4.8488
X1.5028Y-2.1787
X1.5028Y-2.4787
X1.5744Y-4.5488
X1.5744Y-4.8488
X1.6744Y-4.5488
X1.6744Y-4.8488
X1.7272Y-2.6709
X1.7469Y-3.4008
X1.7469Y-3.5008
X1.7469Y-3.6008
X1.7469Y-3.7008
X1.7469Y-3.8008
X1.7469Y-3.9008
X1.7469Y-4.0008
X1.7469Y-4.1008
X1.7469Y-4.2008
X1.7469Y-4.3008
X1.7665Y-2.1787
X1.7665Y-2.4787
X1.7744Y-4.5488
X1.7744Y-4.8488
X1.8256Y-2.6709
X1.9165Y-5.2728
X1.9831Y-2.1984
X1.9831Y-2.2984
X1.9831Y-2.3984
X1.9831Y-2.4984
X2.0114Y-4.5488
X2.0114Y-4.8488
X2.0295Y-3.7654
X2.0295Y-4.3654
X2.1114Y-4.5488
X2.1114Y-4.8488
X2.1295Y-3.7654
X2.1295Y-4.3654
X2.2114Y-4.5488
X2.2114Y-4.8488
X2.2165Y-5.2728
X2.2295Y-3.7654
X2.2295Y-4.3654
X2.2831Y-2.1984
X2.2831Y-2.2984
X2.2831Y-2.3984
X2.2831Y-2.4984
X2.3114Y-4.5488
X2.3114Y-4.8488
X2.3295Y-3.7654
X2.3295Y-4.3654
X2.335Y-5.2724
X2.3374Y-2.8827
X2.3374Y-3.1827
X2.4114Y-4.5488
X2.4114Y-4.8488
X2.4295Y-3.7654
X2.4295Y-4.3654
X2.4358Y-2.6709
X2.4374Y-2.8827
X2.4374Y-3.1827
X2.4949Y-2.1787
X2.4949Y-2.4787
X2.5114Y-4.5488
X2.5114Y-4.8488
X2.5295Y-3.7654
X2.5295Y-4.3654
X2.5343Y-2.6709
X2.5374Y-2.8827
X2.5374Y-3.1827
X2.6114Y-4.5488
X2.6114Y-4.8488
X2.6295Y-3.7654
X2.6295Y-4.3654
X2.635Y-5.2724
X2.6374Y-2.8827
X2.6374Y-3.1827
X2.6669Y-4.9689
X2.7114Y-4.5488
X2.7114Y-4.8488
X2.7295Y-3.7654
X2.7295Y-4.3654
X2.7307Y-5.2776
X2.7508Y-2.6709
X2.7744Y-2.1787
X2.7744Y-2.4787
X2.8295Y-3.7654
X2.8295Y-4.3654
X2.8492Y-2.6709
X2.865Y-3.3874
X2.9295Y-3.7654
X2.9295Y-4.3654
X2.9555Y-4.552
X2.9555Y-4.852
X2.9669Y-4.9689
X2.9673Y-2.1984
X2.9673Y-2.2984
X2.9673Y-2.3984
X2.9673Y-2.4984
X3.0295Y-3.7654
X3.0295Y-4.3654
X3.0307Y-5.2776
X3.0555Y-4.552
X3.0555Y-4.852
X3.1295Y-3.7654
X3.1295Y-4.3654
X3.1555Y-4.552
X3.1555Y-4.852
X3.165Y-3.3874
X3.2295Y-3.7654
X3.2295Y-4.3654
X3.2555Y-4.552
X3.2555Y-4.852
X3.2673Y-2.1984
X3.2673Y-2.2984
X3.2673Y-2.3984
X3.2673Y-2.4984
X3.2866Y-5.2953
X3.3217Y-3.1433
X3.3217Y-3.4433
X3.3295Y-3.7654
X3.3295Y-4.3654
X3.3555Y-4.552
X3.3555Y-4.852
X3.3807Y-2.6709
X3.4004Y-2.9071
X3.4295Y-3.7654
X3.4295Y-4.3654
X3.4555Y-4.552
X3.4555Y-4.852
X3.4713Y-2.1748
X3.4713Y-2.4748
X3.4791Y-2.6709
X3.5295Y-3.7654
X3.5295Y-4.3654
X3.5555Y-4.552
X3.5555Y-4.852
X3.5866Y-5.2953
X3.5972Y-3.1433
X3.5972Y-3.4433
X3.6295Y-3.7654
X3.6295Y-4.3654
X3.6555Y-4.552
X3.6555Y-4.852
X3.676Y-0.7417
X3.676Y-0.8417
X3.676Y-0.9417
X3.676Y-1.0417
X3.676Y-1.1417
X3.676Y-1.2417
X3.676Y-1.3417
X3.676Y-1.4417
X3.676Y-1.5417
X3.676Y-1.6417
X3.7004Y-2.9071
X3.7295Y-3.7654
X3.7295Y-4.3654
X3.7697Y-2.4346
X3.7697Y-2.7102
X3.8295Y-3.7654
X3.8295Y-4.3654
X3.898Y-4.5331
X3.898Y-4.8331
X3.9295Y-3.7654
X3.9295Y-4.3654
X3.9366Y-5.3004
X3.9563Y-3.0252
X3.976Y-0.7417
X3.976Y-0.8417
X3.976Y-0.9417
X3.976Y-1.0417
X3.976Y-1.1417
X3.976Y-1.2417
X3.976Y-1.3417
X3.976Y-1.4417
X3.976Y-1.5417
X3.976Y-1.6417
X3.998Y-4.5331
X3.998Y-4.8331
X4.0295Y-3.7654
X4.0295Y-4.3654
X4.0697Y-2.4346
X4.0697Y-2.7102
X4.098Y-4.5331
X4.098Y-4.8331
X4.1295Y-3.7654
X4.1295Y-4.3654
X4.1484Y-3.0252
X4.198Y-4.5331
X4.198Y-4.8331
X4.2295Y-3.7654
X4.2295Y-4.3654
X4.2366Y-5.3004
X4.298Y-4.5331
X4.298Y-4.8331
X4.3295Y-3.7654
X4.3295Y-4.3654
X4.398Y-4.5331
X4.398Y-4.8331
X4.498Y-4.5331
X4.498Y-4.8331
X4.5618Y-4.0638
X4.5618Y-4.3638
X4.598Y-4.5331
X4.598Y-4.8331
X4.5996Y-1.078
X4.5996Y-1.178
X4.5996Y-1.278
X4.5996Y-1.378
X4.5996Y-1.478
X4.5996Y-1.578
X4.5996Y-1.678
X4.5996Y-1.778
X4.5996Y-1.878
X4.5996Y-1.978
X4.5996Y-2.078
X4.5996Y-2.6528
X4.5996Y-2.7528
X4.5996Y-2.8528
X4.5996Y-2.9528
X4.5996Y-3.0528
X4.5996Y-3.1528
X4.5996Y-3.2528
X4.5996Y-3.3528
X4.5996Y-3.4528
X4.5996Y-3.5528
X4.5996Y-3.6528
X4.6618Y-4.0638
X4.6618Y-4.3638
X4.698Y-4.5331
X4.698Y-4.8331
X4.6996Y-0.978
X4.6996Y-1.078
X4.6996Y-1.178
X4.6996Y-1.278
X4.6996Y-1.378
X4.6996Y-1.478
X4.6996Y-1.578
X4.6996Y-1.678
X4.6996Y-1.778
X4.6996Y-1.878
X4.6996Y-1.978
X4.6996Y-2.078
X4.6996Y-2.178
X4.6996Y-2.5528
X4.6996Y-2.6528
X4.6996Y-2.7528
X4.6996Y-2.8528
X4.6996Y-2.9528
X4.6996Y-3.0528
X4.6996Y-3.1528
X4.6996Y-3.2528
X4.6996Y-3.3528
X4.6996Y-3.4528
X4.6996Y-3.5528
X4.6996Y-3.6528
X4.6996Y-3.7528
X4.7287Y-5.3008
X4.7618Y-4.0638
X4.7618Y-4.3638
X4.798Y-4.5331
X4.798Y-4.8331
X4.7996Y-0.978
X4.7996Y-1.078
X4.7996Y-2.078
X4.7996Y-2.178
X4.7996Y-2.5528
X4.7996Y-2.6528
X4.7996Y-3.6528
X4.7996Y-3.7528
X4.8618Y-4.0638
X4.8618Y-4.3638
X4.8996Y-0.978
X4.8996Y-1.078
X4.8996Y-2.078
X4.8996Y-2.178
X4.8996Y-2.5528
X4.8996Y-2.6528
X4.8996Y-3.6528
X4.8996Y-3.7528
X4.9618Y-4.0638
X4.9618Y-4.3638
X4.9996Y-0.978
X4.9996Y-1.078
X4.9996Y-2.078
X4.9996Y-2.178
X4.9996Y-2.5528
X4.9996Y-2.6528
X4.9996Y-3.6528
X4.9996Y-3.7528
X5.0287Y-5.3008
X5.0398Y-4.5331
X5.0398Y-4.8331
X5.0618Y-4.0638
X5.0618Y-4.3638
X5.0996Y-0.978
X5.0996Y-1.078
X5.0996Y-2.078
X5.0996Y-2.178
X5.0996Y-2.5528
X5.0996Y-2.6528
X5.0996Y-3.6528
X5.0996Y-3.7528
X5.1398Y-4.5331
X5.1398Y-4.8331
X5.1618Y-4.0638
X5.1618Y-4.3638
X5.1996Y-0.978
X5.1996Y-1.078
X5.1996Y-2.078
X5.1996Y-2.178
X5.1996Y-2.5528
X5.1996Y-2.6528
X5.1996Y-3.6528
X5.1996Y-3.7528
X5.2398Y-4.5331
X5.2398Y-4.8331
X5.2618Y-4.0638
X5.2618Y-4.3638
X5.2996Y-0.978
X5.2996Y-1.078
X5.2996Y-2.078
X5.2996Y-2.178
X5.2996Y-2.5528
X5.2996Y-2.6528
X5.2996Y-3.6528
X5.2996Y-3.7528
X5.3398Y-4.5331
X5.3398Y-4.8331
X5.3618Y-4.0638
X5.3618Y-4.3638
X5.3996Y-0.978
X5.3996Y-1.078
X5.3996Y-2.078
X5.3996Y-2.178
X5.3996Y-2.5528
X5.3996Y-2.6528
X5.3996Y-3.6528
X5.3996Y-3.7528
X5.4398Y-4.5331
X5.4398Y-4.8331
X5.4618Y-4.0638
X5.4618Y-4.3638
X5.4972Y-5.3008
X5.4996Y-0.978
X5.4996Y-1.078
X5.4996Y-2.078
X5.4996Y-2.178
X5.4996Y-2.5528
X5.4996Y-2.6528
X5.4996Y-3.6528
X5.4996Y-3.7528
X5.5398Y-4.5331
X5.5398Y-4.8331
X5.5996Y-0.978
X5.5996Y-1.078
X5.5996Y-2.078
X5.5996Y-2.178
X5.5996Y-2.5528
X5.5996Y-2.6528
X5.5996Y-3.6528
X5.5996Y-3.7528
X5.6398Y-4.1165
X5.6398Y-4.4165
X5.6398Y-4.5331
X5.6398Y-4.8331
X5.661Y-3.952
X5.6996Y-0.978
X5.6996Y-1.078
X5.6996Y-1.178
X5.6996Y-1.278
X5.6996Y-1.378
X5.6996Y-1.478
X5.6996Y-1.578
X5.6996Y-1.678
X5.6996Y-1.778
X5.6996Y-1.878
X5.6996Y-1.978
X5.6996Y-2.078
X5.6996Y-2.178
X5.6996Y-2.5528
X5.6996Y-2.6528
X5.6996Y-2.7528
X5.6996Y-2.8528
X5.6996Y-2.9528
X5.6996Y-3.0528
X5.6996Y-3.1528
X5.6996Y-3.2528
X5.6996Y-3.3528
X5.6996Y-3.4528
X5.6996Y-3.5528
X5.6996Y-3.6528
X5.6996Y-3.7528
X5.7398Y-4.5331
X5.7398Y-4.8331
X5.7972Y-4.1177
X5.7972Y-4.4177
X5.7972Y-5.3008
X5.7996Y-1.078
X5.7996Y-1.178
X5.7996Y-1.278
X5.7996Y-1.378
X5.7996Y-1.478
X5.7996Y-1.578
X5.7996Y-1.678
X5.7996Y-1.778
X5.7996Y-1.878
X5.7996Y-1.978
X5.7996Y-2.078
X5.7996Y-2.6528
X5.7996Y-2.7528
X5.7996Y-2.8528
X5.7996Y-2.9528
X5.7996Y-3.0528
X5.7996Y-3.1528
X5.7996Y-3.2528
X5.7996Y-3.3528
X5.7996Y-3.4528
X5.7996Y-3.5528
X5.7996Y-3.6528
X5.8398Y-4.5331
X5.8398Y-4.8331
X5.9398Y-4.5331
X5.9398Y-4.8331
X5.9492Y-4.1181
X5.9492Y-4.4181
X5.961Y-3.952
X6.1122Y-3.952
X6.1122Y-4.052
X6.1122Y-4.152
X6.1122Y-4.252
X6.1122Y-4.352
X6.1122Y-4.452
X6.1122Y-4.552
X6.1122Y-4.652
X6.1122Y-4.752
X6.1122Y-4.852
X6.1169Y-0.7614
X6.1169Y-0.8614
X6.1169Y-0.9614
X6.1169Y-1.0614
X6.1169Y-1.1614
X6.1169Y-1.2614
X6.1169Y-1.3614
X6.1169Y-1.4614
X6.1169Y-1.5614
X6.1169Y-1.6614
X6.1169Y-1.9031
X6.1169Y-2.0031
X6.1169Y-2.1031
X6.1169Y-2.2031
X6.1169Y-2.3031
X6.1169Y-2.4031
X6.1169Y-2.5031
X6.1169Y-2.6031
X6.1169Y-2.7031
X6.1169Y-2.8031
X6.4122Y-3.952
X6.4122Y-4.052
X6.4122Y-4.152
X6.4122Y-4.252
X6.4122Y-4.352
X6.4122Y-4.452
X6.4122Y-4.552
X6.4122Y-4.652
X6.4122Y-4.752
X6.4122Y-4.852
X6.4169Y-0.7614
X6.4169Y-0.8614
X6.4169Y-0.9614
X6.4169Y-1.0614
X6.4169Y-1.1614
X6.4169Y-1.2614
X6.4169Y-1.3614
X6.4169Y-1.4614
X6.4169Y-1.5614
X6.4169Y-1.6614
X6.4169Y-1.9031
X6.4169Y-2.0031
X6.4169Y-2.1031
X6.4169Y-2.2031
X6.4169Y-2.3031
X6.4169Y-2.4031
X6.4169Y-2.5031
X6.4169Y-2.6031
X6.4169Y-2.7031
X6.4169Y-2.8031
T3
X0.9201Y-2.9465
X1.0201Y-2.9465
X1.1201Y-2.9465
T4
X3.0469Y-5.0807
X3.0469Y-5.1807
X3.2268Y-5.0811
X3.2268Y-5.1811
X3.4035Y-5.0811
X3.4035Y-5.1811
X3.5807Y-5.0811
X3.5807Y-5.1811
X3.7594Y-5.0811
X3.7594Y-5.1811
X3.9366Y-5.0811
X3.9366Y-5.1811
X4.115Y-5.0811
X4.115Y-5.1811
X4.2937Y-5.0811
X4.2937Y-5.1811
X4.5591Y-5.0787
X4.5591Y-5.1787
X4.737Y-5.0787
X4.737Y-5.1787
X4.9146Y-5.0787
X4.9146Y-5.1787
X5.0941Y-5.0787
X5.0941Y-5.1787
X5.2709Y-5.0787
X5.2709Y-5.1787
X5.4492Y-5.0791
X5.4492Y-5.1791
X5.6272Y-5.0795
X5.6272Y-5.1795
X5.8035Y-5.0795
X5.8035Y-5.1795
T5
X0.9681Y-5.1512
X1.0681Y-5.1512
X1.1681Y-5.1512
X1.2681Y-5.1512
X1.3681Y-5.1512
X1.4681Y-5.1512
X1.522Y-1.6618
X1.5681Y-5.1512
X1.6681Y-5.1512
X1.7189Y-1.6618
X1.9051Y-3.3913
X2.0051Y-3.3913
X2.0354Y-5.1512
X2.1051Y-3.3913
X2.1354Y-5.1512
X2.2051Y-3.3913
X2.222Y-1.4618
X2.222Y-1.6587
X2.2354Y-5.1512
X2.3051Y-3.3913
X2.3354Y-5.1512
X2.4051Y-3.3913
X2.4354Y-5.1512
X2.5051Y-3.3913
X2.5354Y-5.1512
X2.6051Y-3.3913
X2.6354Y-5.1512
X2.7354Y-5.1512
X3.5264Y-1.8638
X3.6264Y-1.8638
X3.7264Y-1.8638
X3.8264Y-1.8638
X3.9264Y-1.8638
X5.9874Y-5.0894
X5.9874Y-5.1894
X6.0874Y-5.0894
X6.0874Y-5.1894
X6.0933Y-3.0024
X6.0933Y-3.1024
X6.0933Y-3.2024
X6.0933Y-3.3024
X6.0933Y-3.4024
X6.0933Y-3.5024
X6.0933Y-3.6024
X6.0933Y-3.7024
X6.1874Y-5.0894
X6.1874Y-5.1894
X6.2874Y-5.0894
X6.2874Y-5.1894
X6.3217Y-3.0024
X6.3217Y-3.1024
X6.3217Y-3.2024
X6.3217Y-3.3024
X6.3217Y-3.4024
X6.3217Y-3.5024
X6.3217Y-3.6024
X6.3217Y-3.7024
X6.3874Y-5.0894
X6.3874Y-5.1894
T6
X1.4319Y-2.9071
X1.4319Y-3.0843
X1.6878Y-2.9071
X1.6878Y-3.0843
X1.865Y-2.9071
X1.865Y-3.0843
X2.1209Y-2.9071
X2.1209Y-3.0843
X2.8886Y-2.9071
X2.8886Y-3.0843
X3.1445Y-2.9071
X3.1445Y-3.0843
T7
X2.922Y-1.0618
X2.922Y-1.6618
T5
G00X0.9858Y-0.8224
M15
G01X0.9858Y-0.9012
M16
G05
G00X1.0646Y-1.0469
M15
G01X1.1433Y-1.0469
M16
G05
G00X1.222Y-0.8224
M15
G01X1.222Y-0.9012
M16
G05
T0
M30
